<svg xmlns="http://www.w3.org/2000/svg" viewBox="0 0 24 24"><g id="SCRAP"><g id="Group_56" data-name="Group 56"><path id="Path_131" data-name="Path 131" d="M2.55,10.25c3.31,1.33,7,1.37,10.53,1.38,2.89,0,6,0,8.35-1.63a8.42,8.42,0,0,1-6.92,7.91,10.93,10.93,0,0,1-3.33-.06,9.63,9.63,0,0,1-2.78-.8c-2.76-1.33-4.53-4-5.85-6.8" fill="#fff"/><path d="M21.41,8.51a1.43,1.43,0,0,0-.73.2c-2.46,1.57-5.47,1.44-8.28,1.42a26,26,0,0,1-9-1.2,1.24,1.24,0,0,0-1-.16,1.47,1.47,0,0,0-1.17,2.1l.05.14a16.91,16.91,0,0,0,4.41,6,11.69,11.69,0,0,0,7.85,2.45A10,10,0,0,0,22.94,10,1.52,1.52,0,0,0,21.41,8.51Zm-8.57,8a8.38,8.38,0,0,1-5.59-2A14.81,14.81,0,0,1,5.7,12.66a42.43,42.43,0,0,0,7,.47,24.39,24.39,0,0,0,6.55-.59A6.88,6.88,0,0,1,12.84,16.5Z"/></g></g></svg>