<svg xmlns="http://www.w3.org/2000/svg" viewBox="0 0 24 24"><g id="SCRAP"><path id="Path_136" data-name="Path 136" d="M19.89,17.71a33.29,33.29,0,0,0,.39-7.26C20.2,9.21,20,8,20,6.75a6.81,6.81,0,0,0-.13-1.5,4.77,4.77,0,0,0-.53-1.2,5.84,5.84,0,0,0-1.76-2A9.55,9.55,0,0,0,14.83,1a8.43,8.43,0,0,0-3-.39,12.33,12.33,0,0,0-2.89.87A9.86,9.86,0,0,0,6.42,2.55,3.79,3.79,0,0,0,5,4.32a9.48,9.48,0,0,0-.45,2.8c-.09,1.14-.13,2.29-.13,3.44s0,2.23.08,3.35A17.88,17.88,0,0,0,5,17.24a6.44,6.44,0,0,0,1.62,2.93,12.23,12.23,0,0,0,2.66,2,6.39,6.39,0,0,0,2.17.91,7,7,0,0,0,3-.07,11.46,11.46,0,0,0,3.16-1.74,3.72,3.72,0,0,0,1.2-1c.23-.36.39-.76.6-1.14a4.2,4.2,0,0,0,.5-1.43c.08-.5-.69-.72-.77-.21a4.1,4.1,0,0,1-.18.77,4.39,4.39,0,0,1-.27.53,12,12,0,0,1-.56,1.07,3.9,3.9,0,0,1-1.19.86c-.49.32-1,.67-1.47,1a5.45,5.45,0,0,1-1.49.59,6.29,6.29,0,0,1-1.5.07,4.7,4.7,0,0,1-2-.46C8.74,21,6.87,19.83,6.08,18a10,10,0,0,1-.67-3.15c-.09-1-.13-2-.15-3a43.58,43.58,0,0,1,.26-6.15,3.69,3.69,0,0,1,.78-2,4.17,4.17,0,0,1,1.75-1.1c.47-.18,1-.31,1.43-.48s.86-.34,1.3-.49a5.3,5.3,0,0,1,2.68-.15,13.86,13.86,0,0,1,2.76.8,4.38,4.38,0,0,1,1.85,1.35,4.41,4.41,0,0,1,1.07,2.09c.06.52,0,1.06.08,1.58s.1,1.15.15,1.72a32,32,0,0,1,0,6.71c-.06.58-.14,1.16-.23,1.74S19.81,18.22,19.89,17.71Z" stroke="#000"/></g></svg>