<svg xmlns="http://www.w3.org/2000/svg" viewBox="0 0 24 24"><g id="SCRAP"><path id="Path_133" data-name="Path 133" d="M.08,9.56A2.69,2.69,0,0,0,2,11a6.81,6.81,0,0,1,1.35.15,1.12,1.12,0,0,1,.76,1.18c0,.24-.18,9.74,0,9.93a.37.37,0,0,0,.32.11l15.25.47.05-11.7a5.84,5.84,0,0,0,2.63,0,2,2,0,0,0,1.35-.89A3.05,3.05,0,0,0,23.93,9a14.2,14.2,0,0,0-.51-4.49,1.54,1.54,0,0,0-.27-.58c-.16-.16-.64-.83-.84-.88C20,2.49,18,2.24,15.85,1.1A19.94,19.94,0,0,1,13,5.81a1.75,1.75,0,0,1-2.44.29A1.69,1.69,0,0,1,10,5.32Q8.93,3.16,7.78,1.08c-1.27,1.09-3,1-4.55,1.25A4.14,4.14,0,0,0,.81,4.19,3.75,3.75,0,0,0,.28,5.68,16.07,16.07,0,0,0,0,9.21" fill="#25c191"/></g></svg>