<svg xmlns="http://www.w3.org/2000/svg" viewBox="0 0 24 24"><g id="SCRAP"><path id="Path_125" data-name="Path 125" d="M.11,16.59A4.69,4.69,0,0,0,4.32,15C5.42,13.64,5.9,11.6,7.53,11a6,6,0,0,1,2.89.07,11.57,11.57,0,0,0,2.94.07c1.57-.16,3.36-.56,4.55.48.82.72,1,1.9,1.56,2.85a8.26,8.26,0,0,0,1.86,2,1.91,1.91,0,0,0,1.65.64c.73-.22.93-1.15.91-1.9A8.43,8.43,0,0,0,20.7,9c-.47-.37-1-.69-1.42-1.1-.59-.56-1-1.27-1.57-1.87a6.46,6.46,0,0,0-8.27-.86c-1.09.78-1.91,1.9-3,2.63-1.67,1.07-4,1.26-5.13,2.9A5.09,5.09,0,0,0,.6,12.27a13,13,0,0,0-.47,4.26" fill="#ea2a74"/></g></svg>