<svg xmlns="http://www.w3.org/2000/svg" viewBox="0 0 24 24"><g id="SCRAP"><path id="Path_134" data-name="Path 134" d="M9.86,1.11c0,4.49.38,9.06,2.2,13.21a17.3,17.3,0,0,0,1.54,2.8,4.94,4.94,0,0,1,.9,3.33,3.67,3.67,0,0,1,0,.46c-.13.55,0,.11-.13.2a5.5,5.5,0,0,1-1.76.14A21.94,21.94,0,0,1,8.37,21a1.45,1.45,0,0,0-1.73,1,1.42,1.42,0,0,0,1,1.73,26.54,26.54,0,0,0,4.54.34c1.2,0,2.81.05,3.86-.65,2.06-1.38,1.5-5.3.4-7.09a21.79,21.79,0,0,1-3.08-7.14,38.29,38.29,0,0,1-.69-8.06,1.4,1.4,0,0,0-1.4-1.4,1.41,1.41,0,0,0-1.4,1.4Z"/></g></svg>