<svg xmlns="http://www.w3.org/2000/svg" viewBox="0 0 24 24"><g id="SCRAP"><g id="Group_55" data-name="Group 55"><path id="Path_127" data-name="Path 127" d="M15.58,10.81a5.48,5.48,0,0,1,3.52-.88,8.24,8.24,0,0,1,1.89.5,9.93,9.93,0,0,0,2.1.52.8.8,0,0,0,.8-.8.82.82,0,0,0-.8-.81A10.66,10.66,0,0,1,21,8.74a8.05,8.05,0,0,0-2.17-.44,6.93,6.93,0,0,0-4.08,1.13c-.86.56,0,2,.82,1.39Z"/><path id="Path_128" data-name="Path 128" d="M9.23,9.42A6.91,6.91,0,0,0,5.16,8.3,7.75,7.75,0,0,0,3,8.74a10.57,10.57,0,0,1-2.06.6.82.82,0,0,0-.81.8A.81.81,0,0,0,.92,11,9.65,9.65,0,0,0,3,10.42a8.15,8.15,0,0,1,1.88-.5,5.48,5.48,0,0,1,3.52.89c.87.57,1.68-.82.81-1.39Z"/><path id="Path_129" data-name="Path 129" d="M17.56,13.1a2,2,0,0,0-.5,1.21,1.32,1.32,0,0,0,.18.73,1.22,1.22,0,0,0,.51.52,1.23,1.23,0,0,0,1,.09,1.69,1.69,0,0,0,.69-.42,2,2,0,0,0,.37-.53,2.41,2.41,0,0,0,.24-.63,2.09,2.09,0,0,0,.07-.66,1.34,1.34,0,0,0-.16-.55,1,1,0,0,0-.42-.4,1.51,1.51,0,0,0-1-.1l-.27.09a1,1,0,0,0-.28.14,1.86,1.86,0,0,0-.53.55,1.55,1.55,0,0,0-.17,1.13,1.17,1.17,0,0,0,.05.2,1.84,1.84,0,0,0,.41.65,1.53,1.53,0,0,0,.71.4,1.47,1.47,0,0,0,1-.11,1.3,1.3,0,0,0,.62-.76.69.69,0,0,0,0-.2.71.71,0,0,0,0-.2,1.3,1.3,0,0,0-.17-.58.87.87,0,0,0-.49-.37.79.79,0,0,0-.62.08.81.81,0,0,0-.29,1.1l0,.06-.08-.19a.29.29,0,0,1,0,.09l0-.22a.24.24,0,0,1,0,.12l0-.22a.58.58,0,0,1,0,.14l.08-.19-.06.1.12-.17-.08.09.16-.13a.39.39,0,0,1-.11.06l.19-.08-.15,0,.22,0h-.16L19,14a.76.76,0,0,1-.2-.06L19,14a.7.7,0,0,1-.16-.1L19,14c-.05,0-.1-.1-.15-.15l.13.16a1.18,1.18,0,0,1-.11-.19l.08.2a1.12,1.12,0,0,1-.06-.23l0,.21a.81.81,0,0,1,0-.22l0,.22a1.05,1.05,0,0,1,.05-.19l-.08.19a.86.86,0,0,1,.1-.16l-.12.16a.75.75,0,0,1,.15-.16l-.16.13a.72.72,0,0,1,.21-.12L18.8,14a.59.59,0,0,1,.19-.05l-.22,0H19l-.21,0,.12,0-.19-.08.07,0-.16-.12,0,.05-.13-.16a.21.21,0,0,1,0,.06l-.08-.19a.36.36,0,0,1,0,.1l0-.21a1.22,1.22,0,0,1,0,.27l0-.22a2.23,2.23,0,0,1-.15.52l.09-.19a2.43,2.43,0,0,1-.2.35l.12-.16a1.8,1.8,0,0,1-.19.2l.16-.13a.87.87,0,0,1-.18.11l.19-.08-.15,0,.22,0h-.13l.22,0-.1,0,.19.08a.33.33,0,0,1-.1-.06l.16.13-.09-.09.13.16a.75.75,0,0,1-.07-.12l.08.2a1.21,1.21,0,0,1-.05-.18l0,.21a.54.54,0,0,1,0-.18l0,.21a1.09,1.09,0,0,1,.07-.24l-.08.19a2,2,0,0,1,.32-.5A.84.84,0,0,0,19,13.3a.81.81,0,0,0-1-.56l-.2.08a.81.81,0,0,0-.29.29Z"/><path id="Path_130" data-name="Path 130" d="M3.51,13.1A2.08,2.08,0,0,0,3,14.31a1.52,1.52,0,0,0,.18.73,1.3,1.3,0,0,0,.52.52,1.23,1.23,0,0,0,1,.09,1.69,1.69,0,0,0,.69-.42,2,2,0,0,0,.37-.53A2.82,2.82,0,0,0,6,14.07,2.09,2.09,0,0,0,6,13.41a1.52,1.52,0,0,0-.16-.55,1.08,1.08,0,0,0-.42-.4,1.51,1.51,0,0,0-1-.1,1.22,1.22,0,0,0-.27.09,1,1,0,0,0-.28.14,1.86,1.86,0,0,0-.53.55,1.51,1.51,0,0,0-.21.75,1.63,1.63,0,0,0,0,.38.76.76,0,0,0,.06.2,1.6,1.6,0,0,0,.41.65,1.51,1.51,0,0,0,1.74.29,1.3,1.3,0,0,0,.62-.76,1.62,1.62,0,0,0,0-.2,1.5,1.5,0,0,0,0-.2,1.17,1.17,0,0,0-.18-.58.81.81,0,0,0-.48-.37.79.79,0,0,0-.62.08.81.81,0,0,0-.29,1.1l0,.06-.08-.19a.29.29,0,0,1,0,.09l0-.22a.24.24,0,0,1,0,.12l0-.22a.57.57,0,0,1,0,.14l.09-.19-.06.1L4.64,14l-.08.08L4.72,14,4.61,14l.19-.08-.15,0,.21,0H4.71l.21,0a.76.76,0,0,1-.2-.06l.19.08a.7.7,0,0,1-.16-.1l.16.13-.15-.15.13.16a.72.72,0,0,1-.11-.19l.08.2a1.05,1.05,0,0,1-.06-.24l0,.22a.81.81,0,0,1,0-.22l0,.22a1.05,1.05,0,0,1,0-.19L4.77,14l.1-.17L4.74,14l.16-.16L4.74,14A1.07,1.07,0,0,1,5,13.87L4.76,14a1.27,1.27,0,0,1,.18-.06l-.21,0h.2l-.21,0,.12,0-.19-.08.07,0-.17-.12.06.05-.13-.16a.21.21,0,0,1,0,.06l-.08-.19a.36.36,0,0,1,0,.1l0-.21a1.22,1.22,0,0,1,0,.27l0-.22a1.91,1.91,0,0,1-.14.52l.08-.19a1.75,1.75,0,0,1-.2.35L4.32,14a1.8,1.8,0,0,1-.19.2l.16-.13a.87.87,0,0,1-.18.11l.19-.08-.15,0,.22,0H4.24l.21,0-.1,0,.2.08-.1-.06.16.13-.09-.09.12.16-.07-.12.09.19a.48.48,0,0,1,0-.17l0,.21v-.18l0,.21a1.05,1.05,0,0,1,.06-.24l-.08.19a2.37,2.37,0,0,1,.32-.5A.79.79,0,0,0,5,13.3a.84.84,0,0,0-.37-.48A.79.79,0,0,0,4,12.74l-.19.08a.81.81,0,0,0-.29.29Z"/></g></g></svg>