<svg xmlns="http://www.w3.org/2000/svg" viewBox="0 0 235 235"><g id="hair-4"><g class="c-hair"><path d="M161.89,71.31c-1-1.76-2.41-3.2-3.29-5-1.51-3.08-1-2.61,1.18-5.21a11.93,11.93,0,0,0,1.83-2.26,4.69,4.69,0,0,0-1.31-5.32A10.46,10.46,0,0,0,155,51.24l.51,0c-8.48-2.34-17.16-8.27-25.93-9-5.67-.44-11.57-.49-16.82,1.71a17.2,17.2,0,0,0-7.21,5.69q.35-.81.63-1.62V46.9c-.62-1.46-3-1.12-4.62-1.17a25.13,25.13,0,0,0-18.72,8.06,33.09,33.09,0,0,0-8.43,18.84c-.83,7,2.33,14.6,9.58,20,2.33-2.81,1.46-4.5,2-7.57.64-4,.92-9.11,2.69-12.75,3-6.14,2.86-6.68,6.62-8.18,2.51-1,2.88-.49,5.45-1.35a1.19,1.19,0,0,0,.66-.4,1.32,1.32,0,0,0,.13-.79,16.26,16.26,0,0,1,2-7.47,11.45,11.45,0,0,0-.33,2.69,7.37,7.37,0,0,0,2.3,5.6,9.55,9.55,0,0,0,4.33,1.75c10,2,20.72-.31,30.22,3.34a14.67,14.67,0,0,1,5.28,3.24c3.27,3.34,3.82,8.38,5,12.9s1.24,12.16,5.89,12.67a3.55,3.55,0,0,0,3.64-1.52A4.61,4.61,0,0,0,160.1,93l.48-8C160.81,81.23,163.67,74.59,161.89,71.31Z" /></g><path id="stroke" d="M163.08,70.36c-.9-1.62-2.22-3-3.09-4.61a5.08,5.08,0,0,1-.75-1.74v0a3.48,3.48,0,0,1,.24-.28A33.6,33.6,0,0,0,162.7,60c1.86-3,.15-6.68-2.56-8.46A11.73,11.73,0,0,0,156.43,50a1.5,1.5,0,0,0-.55-.28c-7.24-2-13.73-6.12-21-8.07a41.68,41.68,0,0,0-11-1.18,30.57,30.57,0,0,0-11.37,1.92,19.91,19.91,0,0,0-5.4,3.29c-1.18-1.55-3.36-1.47-5.17-1.48A26.34,26.34,0,0,0,81.47,53,33.55,33.55,0,0,0,74,67c-1.22,4.5-1.68,9.15-.36,13.68A26,26,0,0,0,83.2,94,1.5,1.5,0,0,0,85,93.72a9.09,9.09,0,0,0,2.14-5c.16-1.77.26-3.51.5-5.28.28-2.08.52-4.17,1-6.23a26.46,26.46,0,0,1,2.18-6c1-2.11,1.76-4.17,3.84-5.18A15.31,15.31,0,0,1,99,64.78c1.8-.3,3.89-.78,4-3v0a7.29,7.29,0,0,0,3.17,2.86c3.21,1.48,7.14,1.66,10.63,1.85,7.6.4,15.54-.33,22.78,2.48a11.56,11.56,0,0,1,7.09,6.94A65.87,65.87,0,0,1,149,85.13c.87,4.1,1.06,11.17,6.07,12.54,3.11.85,6.15-.86,6.48-4.12.35-3.53.12-7.16.84-10.63C163,80,164,77.12,164,74.15A7.78,7.78,0,0,0,163.08,70.36ZM97.65,62a16.17,16.17,0,0,0-4.43,1.43c-2.18,1-3.31,2.83-4.35,4.94a46,46,0,0,0-2.42,5.36,32.19,32.19,0,0,0-1.28,5.92c-.32,2.17-.7,4.38-.88,6.57a12.46,12.46,0,0,1-.7,4.27A22.59,22.59,0,0,1,77,81.51a20,20,0,0,1-.75-11.34c1.79-9,7.11-17.22,15.65-21a21.82,21.82,0,0,1,7.18-1.86c1.11-.09,2.21-.05,3.32-.05.58,0,1.84-.18,2.31.3l0,.09c-.15.43-.32.86-.5,1.29A14.27,14.27,0,0,0,102,53.67a21.15,21.15,0,0,0-1.87,5.59c-.07.45-.12.91-.15,1.37,0,.22-.12.61,0,.79s0,0,0,0A10.52,10.52,0,0,1,97.65,62Zm62.59,17a47,47,0,0,0-1.27,7.9c-.1,1.73-.21,3.46-.31,5.19,0,.64.08,1.69-.34,2.24a2.26,2.26,0,0,1-1.9.59c-1.9-.16-2.65-2.17-3.12-3.76-.68-2.31-.94-4.71-1.46-7-1.23-5.58-2.21-12-7.11-15.68-5.44-4-13-4.47-19.5-4.65-3.41-.09-6.84-.08-10.24-.35a40.32,40.32,0,0,1-5.26-.72,6.4,6.4,0,0,1-4-2,7.22,7.22,0,0,1-.89-5.93c.66-1.41,1.35-2.8,2-4.23a15.4,15.4,0,0,1,4.43-4,22.58,22.58,0,0,1,10.67-2.86,40.25,40.25,0,0,1,11.79.91c7,1.78,13.24,5.58,20.08,7.76a1.33,1.33,0,0,0,.82.47A10,10,0,0,1,159,54.33c1.07.84,1.94,2.4,1.37,3.76-.9,2.15-4.14,3.35-4.09,5.94a8,8,0,0,0,1.27,3.42c.82,1.5,2,2.77,2.88,4.24C161.63,73.79,160.74,76.75,160.24,79Z"/></g></svg>