<svg xmlns="http://www.w3.org/2000/svg" viewBox="0 0 235 235"><g id="hair-8"><g class="c-hair"><path d="M166.24,144.31c-.39-3.4-.85-4.86-.65-8.28.6-10.23-2.56-20.41-2-30.64q-.64-.17-1.29-.27a16.13,16.13,0,0,0,3-7.38c.13-.92-2.56-8.93-3-9.74-1.1-2.12-1.32-5.26-1.85-7.07-2.35-8-.89-15.32-5.33-22.46-3.13-5-8.18-8.71-13.61-11.19a54.34,54.34,0,0,0-6.14-2.36c-1.57-1.7-5.41-2.27-9.1-2.49L124.43,42,122,41.87c.09.14.17.28.25.42-1.07,0-2,0-2.78-.07L118.15,42a47.39,47.39,0,0,0-32,9.92,46.47,46.47,0,0,0-17,28.61c-1.39,8.49-.39,17.38-3.06,25.57-1.18,3.63-3.08,7.07-3.6,10.86-.79,5.65,1.57,11.37.86,17-.59,4.66-3.24,9.07-2.79,13.75.16,1.69,1.53,3.61.63,5.06-10.94,17.58-6,25.1-7.43,31.91a4.07,4.07,0,0,0,6.57,4c2.33-1.93,5.12-1.68,7.9-2.47-.23,14.32,2,6.19.32,20.41-.57,4.88,2.39,3.73,2.78,4S79.17,215,79.58,215c5.72,0,5.68-9.09,11.4-9.09a5.47,5.47,0,0,0,2.24-.31c2-.85,2.27-3.65,1.43-5.64s-2.41-3.61-3.18-5.62c-1.66-4.33.74-9,1.21-13.63.71-7.09-3.25-13.91-3.25-21,0-4.81.25-8.32-.52-13.07-.64-4-1.46-8.8-1.89-12.8-.72-6.58,4-12.8,3.55-19.4-.38-5.54-4.32-10.37-4.73-15.91-.56-7.78,5.88-14.5,6.52-22.26.2-2.41-.17-4.89.5-7.22,1.46-5.14,7.2-7.68,12.36-9.22a131.62,131.62,0,0,1,18-4,27.77,27.77,0,0,1,3.07.28v.12l.39-.08c3.39.4,8,.94,8.16.35a20.59,20.59,0,0,1,7.82,4.22c4.44,3.83,7.23,9.26,8.71,14.9,1.41,5.38,2.1,27.19,2.21,34.2-1.63,4.36-3.49,14.12-5,17.55s1,6.66-1.61,9.31c-3,3-3.43,4-6.71,6.79l-5.43,9.74c1,3,2.4,5.88,2.91,9,.9,5.57-3,8.29-2.91,13.94,0,3.92.06,11.71,0,15.63-.06,4.63-.42,8.21-.09,12.83,0,.41,1.64.81,1.95,1.08a1.71,1.71,0,0,0,.94.32c4,.51,10.54,4.71,14.58,4.71,1.32,0,2.89-.17,3.51-1.32.29-.54-1-5-1.07-5.62-.16-6.58-3.87-13-2.17-19.35,1-3.64,5.35-5.45,5.72-9.19.38-3.92-3.49,10.84-2.53,7,1.74,0,3.34.85,5,1.42s5.93,4.17,7.29,3.1,1.29-27.95,1.49-29.59C169.92,152.72,167.17,152.36,166.24,144.31Z" fill="#ddd"/></g><path id="stroke" d="M67.51,139.11c-1,4.58-2.07,9.3-1.59,14,.46,4.46,2.17,8.76,1.78,13.29-.2,2.32-.83,4.58-1.19,6.87a25,25,0,0,0-.17,6.91c.26,2.27.73,4.51,1,6.79a26.64,26.64,0,0,1-.29,6.67c-.73,4.64-1.73,9.29.31,13.75.81,1.75,3.39.23,2.59-1.51-1.7-3.73-.53-8,.06-11.88a28.89,28.89,0,0,0,.4-6.09c-.13-2.26-.56-4.49-.89-6.73a23.59,23.59,0,0,1-.14-6.66c.29-2.13.85-4.22,1.16-6.36.64-4.41-.38-8.44-1.21-12.74-1-5.28,0-10.37,1.12-15.53.42-1.88-2.47-2.69-2.89-.8Z"/><path id="stroke-2" data-name="stroke" d="M158.59,139.41c.67,4.75-.42,9.52-1.34,14.15s-1.62,9.34-1,14.14a29.93,29.93,0,0,1,.47,7.13c-.27,2.36-1.62,4.17-2.82,6.13a19.12,19.12,0,0,0-2.32,12.85,43.11,43.11,0,0,0,1.93,7.21c.79,2.38,1.71,5.18.64,7.63-.77,1.75,1.82,3.28,2.59,1.51,2-4.6-.19-9-1.47-13.42s-1.51-9.42.8-13.55c1.15-2.07,2.65-3.91,3.29-6.24a18.71,18.71,0,0,0,.15-7.23,42.28,42.28,0,0,1-.5-7.37,53.43,53.43,0,0,1,1-7.33c1.07-5.44,2.25-10.84,1.47-16.41-.26-1.9-3.15-1.09-2.89.8Z"/><path id="stroke-3" data-name="stroke" d="M152.41,110.27c0,6.33-4.57,11.23-5.44,17.38a31.75,31.75,0,0,0-.14,4.47,4.76,4.76,0,0,1-.83,3.32c-1.73,2.07-4.13,3.48-5.86,5.52-2,2.37-2.38,5.36-3.85,8-.82,1.48-2.56,2.3-2.52,4.1a13.6,13.6,0,0,0,1.27,4.58c1.41,3.67.45,7.58-.36,11.27-.86,3.87-1.62,7.75-.8,11.69.43,2.07,1.25,4.07,1.48,6.18.26,2.27-.6,4.33-1.15,6.49a33.29,33.29,0,0,0-.57,13.37c.29,1.9,3.18,1.09,2.89-.8a33.07,33.07,0,0,1,1.27-14.22,13.72,13.72,0,0,0,.32-6.52c-.44-2.24-1.34-4.38-1.56-6.66-.46-4.69,1.36-9.27,2-13.86a16.38,16.38,0,0,0-.18-6.47c-.52-1.93-1.66-3.6-1.58-5.66l-.44,1.06a11.27,11.27,0,0,0,3.07-4.1c.64-1.43,1-3,1.68-4.37,1.28-2.8,4.11-4.43,6.21-6.58a8,8,0,0,0,2.22-3.26,16.43,16.43,0,0,0,.28-4.8c-.06-3.33,1.11-6.34,2.54-9.3,1.68-3.48,3.07-6.88,3.07-10.81a1.5,1.5,0,0,0-3,0Z"/><path id="stroke-4" data-name="stroke" d="M117.82,55.52a19.41,19.41,0,0,1-6.76,1.87,34.67,34.67,0,0,0-5.17.67A27.81,27.81,0,0,0,97,61.65a15.09,15.09,0,0,0-6.14,6.89c-1.62,4,0,8.38-1,12.54s-3.79,7.55-5.31,11.49-1.11,7.73.08,11.55,2.9,7.19,3.64,11a12.93,12.93,0,0,1-.17,5.87c-.58,2.17-1.55,4.19-2.24,6.32-1.57,4.88-.64,9.76.51,14.62a43.94,43.94,0,0,1,1.38,7.73,45.3,45.3,0,0,1-.52,8.22c-.23,1.91,2.77,1.89,3,0A40.34,40.34,0,0,0,90,144.18c-.91-4.28-2.42-8.66-1.9-13.09s3.14-8,3.44-12.34c.27-3.78-1.06-7.46-2.37-10.94S86.33,100.75,86.58,97c.28-4,2.93-7.4,4.62-10.92a20.57,20.57,0,0,0,1.93-6.21,45.68,45.68,0,0,0,0-6.92,9.58,9.58,0,0,1,4-7.66A23.19,23.19,0,0,1,106.4,61a46.37,46.37,0,0,1,5.87-.73,22.45,22.45,0,0,0,7.06-2.18c1.76-.79.24-3.38-1.51-2.59Z"/><path id="stroke-5" data-name="stroke" d="M71,212.57a11.62,11.62,0,0,1,5.1,2.12c1.41,1.07,2.46,2.57,4.44,2.44,1.79-.12,3.23-1.53,4.3-2.84s1.73-3.08,2.76-4.52,2.81-1.09,4.23-1.48a5,5,0,0,0,3.42-3c1.39-3.66-1.24-6.64-2.45-9.87a16,16,0,0,1,.49-12.4c.82-1.73-1.76-3.26-2.59-1.51a19.27,19.27,0,0,0-1.35,12.92A35,35,0,0,0,92,200.5c.67,1.45,1.36,4-.59,4.79s-3.85.37-5.44,1.85-2,3.6-3.35,5.19c-.49.59-1.47,1.91-2.37,1.82s-1.82-1.47-2.44-1.94a14.21,14.21,0,0,0-6-2.54c-1.88-.32-2.7,2.57-.79,2.9Z"/><path id="stroke-6" data-name="stroke" d="M170.09,170.72a54.89,54.89,0,0,1-.48-10.4c.32-3.35,1.15-6.65.54-10-.56-3.09-2.67-5.65-3.09-8.78-.45-3.31.35-6.67.06-10a58.74,58.74,0,0,0-2-9.8,35.67,35.67,0,0,1-1.68-9.65,26.55,26.55,0,0,1,2-9.46,15.3,15.3,0,0,0,1.31-4.37,11.85,11.85,0,0,0-.34-3.93,16.28,16.28,0,0,0-2.2-4.79,15.19,15.19,0,0,1-1.91-5.89,75.76,75.76,0,0,1-.86-8.5c-.15-3.36,0-6.75-.88-10a24.26,24.26,0,0,0-3.36-7.33c-7.54-11.23-21.84-17.15-35.08-16.84a1.41,1.41,0,0,0-.57.12,1.6,1.6,0,0,0-.84-.34A50.54,50.54,0,0,0,84.3,51.45a49.76,49.76,0,0,0-18,31.81,81.37,81.37,0,0,0-.76,10.81c0,3.6.35,7.24.16,10.83a11.17,11.17,0,0,1-1.47,5,30.07,30.07,0,0,0-2.41,4.73c-1,2.84-.75,5.89-.34,8.81s1.1,6,.85,9c-.27,3.25-2.38,5.75-3.44,8.75a17.22,17.22,0,0,0-.14,10,9,9,0,0,1,.36,4.6,8.83,8.83,0,0,1-1.84,3.07c-1.71,2.07-3.68,4.1-4,6.9-.2,1.74.29,3.43.09,5.19-.22,2-.49,4-.67,6s-.31,4-.35,6c0,1.69-.35,3.88.35,5.47s2.68,1.93,4.32,2a4.7,4.7,0,0,0,4.38-2.06c1.06-1.62-1.53-3.13-2.59-1.52-.51.8-3.12.9-3.44,0a7.7,7.7,0,0,1,0-2.25c0-1,0-1.92.05-2.87.14-3.46.54-6.89.94-10.32a19.84,19.84,0,0,0-.06-4.22A5,5,0,0,1,57,164c1.15-1.93,2.92-3.42,4.08-5.35,1.45-2.43,1.36-5,.73-7.67-.76-3.25-1.13-6.25.14-9.45,1.14-2.87,2.92-5.22,3.31-8.37a30.18,30.18,0,0,0-.55-8.37c-.42-2.7-.93-5.57-.31-8.28.71-3.08,3.08-5.43,3.86-8.49s.4-6.47.33-9.67a104.13,104.13,0,0,1,.21-10.45c.92-12,5.71-23.23,14.5-31.62A47.44,47.44,0,0,1,120,43.66a15.12,15.12,0,0,1,4.93,12.56,1.16,1.16,0,0,0,.21.77,1.31,1.31,0,0,0,1.39,1c4.2-.13,8.6-.26,12.36,1.93a21.5,21.5,0,0,1,7.94,8.83c4.11,7.87,4.17,17,4,25.66-.05,1.93,2.95,1.93,3,0,.17-7.56.12-15.35-2.4-22.57C149.19,65.6,145,59.26,138.7,56.52c-3.39-1.47-7.08-1.6-10.73-1.53a18,18,0,0,0-3.65-11.05c10.63.31,21.39,4.76,28.41,12.86A23.86,23.86,0,0,1,157,63.7a26,26,0,0,1,1.41,8.79c.07,2.86.3,5.68.6,8.52a31.62,31.62,0,0,0,1.45,7.55,27.36,27.36,0,0,0,2,3.71,9.93,9.93,0,0,1,1.33,6.15,18.64,18.64,0,0,1-1.34,3.82A30.65,30.65,0,0,0,161,107a26.4,26.4,0,0,0-.28,9c.92,6.22,3.67,12,3.48,18.45-.09,3.14-.62,6.32.31,9.4.86,2.87,2.72,5.31,2.86,8.4.17,3.54-.92,7-.87,10.55s.6,7.32.87,11c.24,3.4.59,7.31-.35,10.63-.25.88-.3.58-1,.17a13.43,13.43,0,0,0-2.25-1.11,12,12,0,0,0-5-.7c-1.92.13-1.93,3.13,0,3a9.16,9.16,0,0,1,4.59.78c1.35.63,2.56,1.85,4.17,1.44,2.84-.71,2.82-5.16,2.92-7.43A71,71,0,0,0,170.09,170.72Z"/></g></svg>