<svg xmlns="http://www.w3.org/2000/svg" viewBox="0 0 235 235"><g id="hair-3"><g class="c-hair"><path d="M137.89,56.3c-.32-4.29-1-9.12-4.73-11.68-2.63-1.77-6.13-2-9.42-2-10.27-.21-21.72.56-28.87,7.34-3.25,3.09-7.7,5-9.06,9.13-4,12.21-10.73,13.89-3.47,24.71l3.8,17.33c1.07.4-1.28-8.08-.21-7.68.44-4.12,3.74-5.85,3.63-10-.09-3.69,7.17-12.73,7.84-16.37,1.27-6.81,7.33-8.12,14-11.41s15.15.78,22,3.58c10.14,4.11,15.93,13.76,20.55,23l-.82-9.69c-.37-4.38-.87-9-3.89-12.44s-9.55-4.52-12.53-1" /></g><path id="stroke" d="M154.44,69.76c-.41-3.48-1.17-7-3.32-9.86-2.54-3.37-7.63-5.38-11.78-4.19-.35-4.23-1.09-8.86-4.53-11.71-3.87-3.21-9.45-3-14.18-2.94-9.39,0-19.61,1.18-26.82,7.81-3.21,3-7.58,5-9.26,9.31-.88,2.23-1.67,4.44-2.77,6.59-.86,1.68-1.82,3.31-2.63,5a12,12,0,0,0-.87,9.46,19.73,19.73,0,0,0,1.26,2.82c.39.72,1.06,1.51,1.37,2.18a10.22,10.22,0,0,1,.43,2Q83,93.86,84.69,101.5a1.47,1.47,0,0,0,1,1c2.53.61,2.2-2.54,2-4-.13-1-.3-1.94-.44-2.91-.05-.38-.11-.76-.13-1.15V94.2a2,2,0,0,0,.27-.78c.38-2.89,2.76-5,3.4-7.81.3-1.31.13-2.62.52-3.9a22.3,22.3,0,0,1,1.76-3.89C94.9,74.53,96.9,71.37,98.6,68a17.58,17.58,0,0,1,5.24-6.51,49.32,49.32,0,0,1,7.63-4.22,14.5,14.5,0,0,1,10.11-.79,67.81,67.81,0,0,1,10.21,3.64,30.14,30.14,0,0,1,8.53,5.05c5.51,4.81,9.17,11.29,12.42,17.73a1.51,1.51,0,0,0,2.79-.75C155.18,78,154.93,73.88,154.44,69.76ZM126,54.68a1.87,1.87,0,0,0-.42-1.07c-3.2-4.12-8.76-6.16-13.73-7a1.55,1.55,0,0,0-1.85,1,1.51,1.51,0,0,0,1,1.84A23.23,23.23,0,0,1,121,53.33a19.27,19.27,0,0,0-6-.26,1.82,1.82,0,0,0-.92-.76,25.45,25.45,0,0,0-11.55-1.69,1.5,1.5,0,0,0,0,3,23.82,23.82,0,0,1,8.16.71c-.83.38-1.63.8-2.44,1.2-1.41.7-2.81,1.41-4.15,2.22a20.81,20.81,0,0,0-6.41,5.84,48.9,48.9,0,0,0-2.77,5c-1,1.8-2,3.57-3,5.34-1.68,2.9-3.73,6.09-3.83,9.55a9.6,9.6,0,0,1-1.73,4.79,17.33,17.33,0,0,0-1,2.07c-.15-.71-.31-1.42-.47-2.13a45,45,0,0,0-1-4.77,12.93,12.93,0,0,0-1.29-2.17,16.89,16.89,0,0,1-1.33-2.78,8.15,8.15,0,0,1-.44-4.26c.62-3.16,2.71-6,4.11-8.83,1-2,1.67-4.15,2.54-6.22a11.68,11.68,0,0,1,3.87-4.39c1.68-1.32,3.38-2.56,5-4a21.13,21.13,0,0,1,5.34-3.47,37.49,37.49,0,0,1,12.79-3c2.61-.2,5.24-.26,7.86-.23a27.77,27.77,0,0,1,7.88.76c5.11,1.54,6,6.84,6.32,11.47a1.58,1.58,0,0,0,.28.78,7,7,0,0,0-.94.87,1.42,1.42,0,0,0-.31.5l-.3-.14A97.24,97.24,0,0,0,126,54.68Zm12.06,5.19a6.16,6.16,0,0,1,5.84-1.25,8.59,8.59,0,0,1,5.69,4.43,21.45,21.45,0,0,1,2,8.27c.12,1.27.22,2.55.33,3.82a50,50,0,0,0-8.28-10.94A31.37,31.37,0,0,0,138.06,59.87Z"/><g class="accessory-1"><path d="M77.29,68.11c6.06-3.54,12.78-4.57,19.26-4.34s12.81,1.69,19.17,2.87c11.68,2.17,23.68,3.48,34.46,8.92,3.39,1.7,8.49,3.14,10.66,6.75,1.6-9.18-1.87-14.93-1.8-24.17a5.17,5.17,0,0,0-.21-1.86c-.3-.8-.84-3.85-1.48-4.25a263.4,263.4,0,0,0-25.44-14.15,30,30,0,0,0-6.62-1.6,39.6,39.6,0,0,0-6.54-.64c-17.56,1.59-18.87,2.56-30.91,8.1a7.73,7.73,0,0,0-2.42,1.13c-1.07,1-1.43,2.83-1.7,4.45-1.06,6.19-5.84,12.24-6.89,18.43" fill="#00204a"/><path d="M160.84,82.31c-13.27,1.91-30.57-2.08-43.95-2.88-9.85-.6-19.71-1.24-29.46-2.74-12-1.83-16.56-.54-25.29-9a11.15,11.15,0,0,1-3-4.16c9,2.46,10.17.59,19,3.8l23.49-14L161.2,79.43Z" fill="#00204a"/><path d="M124.19,60.69a7.18,7.18,0,0,0-2.72-2.29l.31,2.35c1.73-1.35,2.3-3.71,2.44-5.8a10.27,10.27,0,0,0-1.44-6.15c-2.22-3.43-7.39-4.8-10.51-1.71-1.38,1.36.74,3.48,2.12,2.12a3.27,3.27,0,0,1,3-.77,4.35,4.35,0,0,1,3,2.22,7.57,7.57,0,0,1,.82,4.18,5,5,0,0,1-1.56,3.79A1.51,1.51,0,0,0,120,61c.24.11.49.21.72.34l.3.19c-.16-.1-.15-.14,0,0,.39.42.74.85,1.11,1.29a1.5,1.5,0,0,0,2.12-2.12Z" fill="#fff"/><path d="M115.58,60.61a3.86,3.86,0,0,1-4.33.39,4.44,4.44,0,0,1-2-4.07,10.93,10.93,0,0,1,.34-2.79,16.67,16.67,0,0,0,.78-2.93c.09-1.55-1.06-2.85-2-4a1.53,1.53,0,0,0-2.13,0,1.56,1.56,0,0,0,0,2.13s.16.2,0,0l.23.31c.22.3.43.6.63.92.44.71-.17,1.6-.38,2.34a11.9,11.9,0,0,0-.13,6.84,6.81,6.81,0,0,0,10.4,3.4,1.55,1.55,0,0,0,.54-2.06,1.5,1.5,0,0,0-2-.53Z" fill="#fff"/><path d="M115.14,54.11l-.82.62.76-.21h0l.39,0a.77.77,0,0,1-.19,0l.36.15a1.18,1.18,0,0,1-.19-.11l.3.23a.73.73,0,0,1-.17-.18l.23.31a.94.94,0,0,1-.12-.22l.15.36a.88.88,0,0,1-.07-.23l0,.4a1.34,1.34,0,0,1,0-.2l0,.4a.75.75,0,0,1,0-.16l-.15.35.07-.12-.23.31a.47.47,0,0,1,.1-.1l-.31.23.1,0L115,56a.2.2,0,0,1,.11,0l-.4.05a.75.75,0,0,1,.15,0l-.4-.05.16,0-.36-.15a.54.54,0,0,1,.18.11l-.3-.24a.71.71,0,0,1,.15.15l-.24-.3a.6.6,0,0,1,.09.13l-.16-.36a.56.56,0,0,1,0,.12l-.06-.39a.14.14,0,0,1,0,.09l.06-.4,0,.1.15-.36a.35.35,0,0,1,0,.08l.24-.31,0,0a1,1,0,0,0-.31.48,1.15,1.15,0,0,0-.13.58A1.17,1.17,0,0,0,114,56a1.14,1.14,0,0,0,.31.48l.3.23a1.48,1.48,0,0,0,.76.21l.4-.06a1.51,1.51,0,0,0,.66-.38l0,0a4.08,4.08,0,0,0,.25-.33.08.08,0,0,0,0,0v0a2.43,2.43,0,0,0,.16-.37,1.52,1.52,0,0,0,.08-.56c0-.13,0-.3-.06-.42s0,0,0-.05a2.77,2.77,0,0,0-.18-.43.59.59,0,0,0,0-.08,3.65,3.65,0,0,0-.29-.37,2.22,2.22,0,0,0-.44-.37,1,1,0,0,0-.17-.1c-.15-.06-.29-.13-.44-.18a3.7,3.7,0,0,0-.48-.07h-.14a3.32,3.32,0,0,0-.44.06,1.7,1.7,0,0,0-.52.22,2.41,2.41,0,0,0-.67.68,2.09,2.09,0,0,0-.3,1.14,3.7,3.7,0,0,0,.06.48l0,.12A2.33,2.33,0,0,0,113,56c0,.09.08.19.13.28l.06.1a3.57,3.57,0,0,0,.3.38.6.6,0,0,0,.08.08,2.88,2.88,0,0,0,.39.3l.11.07a3.85,3.85,0,0,0,.47.19,1.64,1.64,0,0,0,.32.05l.21,0a1.06,1.06,0,0,0,.58-.13.46.46,0,0,0,.19-.08l.09-.07.72-.54a1.18,1.18,0,0,0,.42-.38,1.26,1.26,0,0,0,.27-.51,1.22,1.22,0,0,0,0-.6,1.12,1.12,0,0,0-.18-.56l-.24-.3a1.44,1.44,0,0,0-.66-.39l-.4-.05a1.57,1.57,0,0,0-.76.2Z" fill="#00bbf0"/><path d="M80.09,67.2c1-5.84,4.07-11.07,5.35-16.84.26-1.18.38-2.41.75-3.57A3.52,3.52,0,0,1,87,45.26c.6-.56,1.42-.57,2.12-.9.33-.16.65-.38,1-.56a56.72,56.72,0,0,1,20.26-6.31,51.24,51.24,0,0,1,30,5.55A66.19,66.19,0,0,1,155.89,54.2,12.32,12.32,0,0,0,157,55.26c.51.38.94.56,1.05,1.26a17.78,17.78,0,0,1,0,2.31c0,1.56.2,3.11.4,4.65.81,6,2.44,11.77,1.42,17.87l2.74-.36a8.66,8.66,0,0,0-3-3.12,19.24,19.24,0,0,0-3.37-1.26,14.12,14.12,0,0,0-2.3-.84c-1.6-.28-3.23-.45-4.85-.68L128.35,72.2l-26-3.61L82.83,65.88c-1.22-.17-2.5-.24-3.71-.51-2.2-.5-4.27-1.42-6.53-1.82-2.41-.42-4.87-.49-7.3-.86a49,49,0,0,1-5.22-1.13c-1-.28-2.27.74-1.85,1.84,1.25,3.25,4.06,5.67,6.74,7.75A24.4,24.4,0,0,0,71.8,75,34.29,34.29,0,0,0,79,76.49c3.19.41,6.39.77,9.57,1.24C97.2,79,106,79.66,114.7,80.2c7.43.46,14.77,1.44,22.15,2.33,8.25,1,16.63,1.82,24.9.66,1.91-.27,1.1-3.16-.79-2.89-6.9,1-14,.35-20.89-.4-7-.78-14.07-1.9-21.15-2.43-8.21-.62-16.43-1-24.62-2-3.74-.44-7.47-1.06-11.22-1.51-2.48-.29-5-.52-7.44-1a20.6,20.6,0,0,1-7-2.85,29.79,29.79,0,0,1-3.72-2.91c-1.44-1.3-3-2.71-3.76-4.58l-1.85,1.85A54.56,54.56,0,0,0,68.33,66a36.44,36.44,0,0,1,7.8,1.49,25.64,25.64,0,0,0,4.43,1L98.06,71l25.53,3.54,22.15,3.08,6.39.89a22.68,22.68,0,0,1,5.42,1.64,5.3,5.3,0,0,1,2.51,2.35c.62,1,2.52,1,2.74-.36,1-5.71,0-11.07-1-16.7a77.63,77.63,0,0,1-.74-8.75,4.44,4.44,0,0,0-1.44-3.23c-.39-.34-.65-.44-.93-.69-1.46-1.27-2.79-2.67-4.29-3.91a74,74,0,0,0-9.6-6.79,54.81,54.81,0,0,0-30.64-7.9,61.63,61.63,0,0,0-24.56,6.51c-.63.32-1.26.79-1.92,1a8.24,8.24,0,0,0-2.48,1.14,6.81,6.81,0,0,0-2.06,3.69c-.4,1.56-.6,3.15-1,4.71s-1.09,3.37-1.72,5a57.82,57.82,0,0,0-3.2,10.1c-.34,1.89,2.55,2.7,2.9.8Z"/></g></g></svg>