<svg xmlns="http://www.w3.org/2000/svg" viewBox="0 0 235 235"><g id="hair-10"><g class="c-hair"><path d="M166.24,144.31c-.39-3.4-.85-4.86-.65-8.28.6-10.23-2.56-20.41-2-30.64q-.64-.17-1.29-.27a16.13,16.13,0,0,0,3-7.38c.13-.92-2.56-8.93-3-9.74-1.1-2.12-1.32-5.26-1.85-7.07-2.35-8-.89-15.32-5.33-22.46-3.13-5-8.18-8.71-13.61-11.19a54.34,54.34,0,0,0-6.14-2.36c-1.57-1.7-5.41-2.27-9.1-2.49L124.43,42,122,41.87c.09.14.17.28.25.42-1.07,0-2,0-2.78-.07L118.15,42a47.39,47.39,0,0,0-32,9.92,46.47,46.47,0,0,0-17,28.61c-1.39,8.49-.39,17.38-3.06,25.57-1.18,3.63-3.08,7.07-3.6,10.86-.79,5.65,1.57,11.37.86,17-.59,4.66-3.24,9.07-2.79,13.75.16,1.69,1.53,3.61.63,5.06-10.94,17.58-6,25.1-7.43,31.91a4.07,4.07,0,0,0,6.57,4c2.33-1.93,5.12-1.68,7.9-2.47-.23,14.32,2,6.19.32,20.41-.57,4.88,2.39,3.73,2.78,4S79.17,215,79.58,215c5.72,0,5.68-9.09,11.4-9.09a5.47,5.47,0,0,0,2.24-.31c2-.85,2.27-3.65,1.43-5.64s-2.41-3.61-3.18-5.62c-1.66-4.33.74-9,1.21-13.63.71-7.09-3.25-13.91-3.25-21,0-4.81.25-8.32-.52-13.07-.64-4-1.46-8.8-1.89-12.8-.72-6.58,4-12.8,3.55-19.4-.38-5.54-4.32-10.37-4.73-15.91-.56-7.78,5.88-14.5,6.52-22.26.2-2.41-.17-4.89.5-7.22,1.46-5.14,7.2-7.68,12.36-9.22a131.62,131.62,0,0,1,18-4,27.77,27.77,0,0,1,3.07.28v.12l.39-.08c3.39.4,8,.94,8.16.35a20.59,20.59,0,0,1,7.82,4.22c4.44,3.83,7.23,9.26,8.71,14.9,1.41,5.38,2.1,27.19,2.21,34.2-1.63,4.36-3.49,14.12-5,17.55s1,6.66-1.61,9.31c-3,3-3.43,4-6.71,6.79l-5.43,9.74c1,3,2.4,5.88,2.91,9,.9,5.57-3,8.29-2.91,13.94,0,3.92.06,11.71,0,15.63-.06,4.63-.42,8.21-.09,12.83,0,.41,1.64.81,1.95,1.08a1.71,1.71,0,0,0,.94.32c4,.51,10.54,4.71,14.58,4.71,1.32,0,2.89-.17,3.51-1.32.29-.54-1-5-1.07-5.62-.16-6.58-3.87-13-2.17-19.35,1-3.64,5.35-5.45,5.72-9.19.38-3.92-3.49,10.84-2.53,7,1.74,0,3.34.85,5,1.42s5.93,4.17,7.29,3.1,1.29-27.95,1.49-29.59C169.92,152.72,167.17,152.36,166.24,144.31Z" /></g><path id="stroke" d="M67.51,139.11c-1,4.58-2.07,9.3-1.59,14,.46,4.46,2.17,8.76,1.78,13.29-.2,2.32-.83,4.58-1.19,6.87a25,25,0,0,0-.17,6.91c.26,2.27.73,4.51,1,6.79a26.64,26.64,0,0,1-.29,6.67c-.73,4.64-1.73,9.29.31,13.75.81,1.75,3.39.23,2.59-1.51-1.7-3.73-.53-8,.06-11.88a28.89,28.89,0,0,0,.4-6.09c-.13-2.26-.56-4.49-.89-6.73a23.59,23.59,0,0,1-.14-6.66c.29-2.13.85-4.22,1.16-6.36.64-4.41-.38-8.44-1.21-12.74-1-5.28,0-10.37,1.12-15.53.42-1.88-2.47-2.69-2.89-.8Z"/><path id="stroke-2" data-name="stroke" d="M158.59,139.41c.67,4.75-.42,9.52-1.34,14.15s-1.62,9.34-1,14.14a29.93,29.93,0,0,1,.47,7.13c-.27,2.36-1.62,4.17-2.82,6.13a19.12,19.12,0,0,0-2.32,12.85,43.11,43.11,0,0,0,1.93,7.21c.79,2.38,1.71,5.18.64,7.63-.77,1.75,1.82,3.28,2.59,1.51,2-4.6-.19-9-1.47-13.42s-1.51-9.42.8-13.55c1.15-2.07,2.65-3.91,3.29-6.24a18.71,18.71,0,0,0,.15-7.23,42.28,42.28,0,0,1-.5-7.37,53.43,53.43,0,0,1,1-7.33c1.07-5.44,2.25-10.84,1.47-16.41-.26-1.9-3.15-1.09-2.89.8Z"/><path id="stroke-3" data-name="stroke" d="M152.41,110.27c0,6.33-4.57,11.23-5.44,17.38a31.75,31.75,0,0,0-.14,4.47,4.76,4.76,0,0,1-.83,3.32c-1.73,2.07-4.13,3.48-5.86,5.52-2,2.37-2.38,5.36-3.85,8-.82,1.48-2.56,2.3-2.52,4.1a13.6,13.6,0,0,0,1.27,4.58c1.41,3.67.45,7.58-.36,11.27-.86,3.87-1.62,7.75-.8,11.69.43,2.07,1.25,4.07,1.48,6.18.26,2.27-.6,4.33-1.15,6.49a33.29,33.29,0,0,0-.57,13.37c.29,1.9,3.18,1.09,2.89-.8a33.07,33.07,0,0,1,1.27-14.22,13.72,13.72,0,0,0,.32-6.52c-.44-2.24-1.34-4.38-1.56-6.66-.46-4.69,1.36-9.27,2-13.86a16.38,16.38,0,0,0-.18-6.47c-.52-1.93-1.66-3.6-1.58-5.66l-.44,1.06a11.27,11.27,0,0,0,3.07-4.1c.64-1.43,1-3,1.68-4.37,1.28-2.8,4.11-4.43,6.21-6.58a8,8,0,0,0,2.22-3.26,16.43,16.43,0,0,0,.28-4.8c-.06-3.33,1.11-6.34,2.54-9.3,1.68-3.48,3.07-6.88,3.07-10.81a1.5,1.5,0,0,0-3,0Z"/><path id="stroke-4" data-name="stroke" d="M117.82,55.52a19.41,19.41,0,0,1-6.76,1.87,34.67,34.67,0,0,0-5.17.67A27.81,27.81,0,0,0,97,61.65a15.09,15.09,0,0,0-6.14,6.89c-1.62,4,0,8.38-1,12.54s-3.79,7.55-5.31,11.49-1.11,7.73.08,11.55,2.9,7.19,3.64,11a12.93,12.93,0,0,1-.17,5.87c-.58,2.17-1.55,4.19-2.24,6.32-1.57,4.88-.64,9.76.51,14.62a43.94,43.94,0,0,1,1.38,7.73,45.3,45.3,0,0,1-.52,8.22c-.23,1.91,2.77,1.89,3,0A40.34,40.34,0,0,0,90,144.18c-.91-4.28-2.42-8.66-1.9-13.09s3.14-8,3.44-12.34c.27-3.78-1.06-7.46-2.37-10.94S86.33,100.75,86.58,97c.28-4,2.93-7.4,4.62-10.92a20.57,20.57,0,0,0,1.93-6.21,45.68,45.68,0,0,0,0-6.92,9.58,9.58,0,0,1,4-7.66A23.19,23.19,0,0,1,106.4,61a46.37,46.37,0,0,1,5.87-.73,22.45,22.45,0,0,0,7.06-2.18c1.76-.79.24-3.38-1.51-2.59Z"/><path id="stroke-5" data-name="stroke" d="M71,212.57a11.62,11.62,0,0,1,5.1,2.12c1.41,1.07,2.46,2.57,4.44,2.44,1.79-.12,3.23-1.53,4.3-2.84s1.73-3.08,2.76-4.52,2.81-1.09,4.23-1.48a5,5,0,0,0,3.42-3c1.39-3.66-1.24-6.64-2.45-9.87a16,16,0,0,1,.49-12.4c.82-1.73-1.76-3.26-2.59-1.51a19.27,19.27,0,0,0-1.35,12.92A35,35,0,0,0,92,200.5c.67,1.45,1.36,4-.59,4.79s-3.85.37-5.44,1.85-2,3.6-3.35,5.19c-.49.59-1.47,1.91-2.37,1.82s-1.82-1.47-2.44-1.94a14.21,14.21,0,0,0-6-2.54c-1.88-.32-2.7,2.57-.79,2.9Z"/><path id="stroke-6" data-name="stroke" d="M170.09,170.72a54.89,54.89,0,0,1-.48-10.4c.32-3.35,1.15-6.65.54-10-.56-3.09-2.67-5.65-3.09-8.78-.45-3.31.35-6.67.06-10a58.74,58.74,0,0,0-2-9.8,35.67,35.67,0,0,1-1.68-9.65,26.55,26.55,0,0,1,2-9.46,15.3,15.3,0,0,0,1.31-4.37,11.85,11.85,0,0,0-.34-3.93,16.28,16.28,0,0,0-2.2-4.79,15.19,15.19,0,0,1-1.91-5.89,75.76,75.76,0,0,1-.86-8.5c-.15-3.36,0-6.75-.88-10a24.26,24.26,0,0,0-3.36-7.33c-7.54-11.23-21.84-17.15-35.08-16.84a1.41,1.41,0,0,0-.57.12,1.6,1.6,0,0,0-.84-.34A50.54,50.54,0,0,0,84.3,51.45a49.76,49.76,0,0,0-18,31.81,81.37,81.37,0,0,0-.76,10.81c0,3.6.35,7.24.16,10.83a11.17,11.17,0,0,1-1.47,5,30.07,30.07,0,0,0-2.41,4.73c-1,2.84-.75,5.89-.34,8.81s1.1,6,.85,9c-.27,3.25-2.38,5.75-3.44,8.75a17.22,17.22,0,0,0-.14,10,9,9,0,0,1,.36,4.6,8.83,8.83,0,0,1-1.84,3.07c-1.71,2.07-3.68,4.1-4,6.9-.2,1.74.29,3.43.09,5.19-.22,2-.49,4-.67,6s-.31,4-.35,6c0,1.69-.35,3.88.35,5.47s2.68,1.93,4.32,2a4.7,4.7,0,0,0,4.38-2.06c1.06-1.62-1.53-3.13-2.59-1.52-.51.8-3.12.9-3.44,0a7.7,7.7,0,0,1,0-2.25c0-1,0-1.92.05-2.87.14-3.46.54-6.89.94-10.32a19.84,19.84,0,0,0-.06-4.22A5,5,0,0,1,57,164c1.15-1.93,2.92-3.42,4.08-5.35,1.45-2.43,1.36-5,.73-7.67-.76-3.25-1.13-6.25.14-9.45,1.14-2.87,2.92-5.22,3.31-8.37a30.18,30.18,0,0,0-.55-8.37c-.42-2.7-.93-5.57-.31-8.28.71-3.08,3.08-5.43,3.86-8.49s.4-6.47.33-9.67a104.13,104.13,0,0,1,.21-10.45c.92-12,5.71-23.23,14.5-31.62A47.44,47.44,0,0,1,120,43.66a15.12,15.12,0,0,1,4.93,12.56,1.16,1.16,0,0,0,.21.77,1.31,1.31,0,0,0,1.39,1c4.2-.13,8.6-.26,12.36,1.93a21.5,21.5,0,0,1,7.94,8.83c4.11,7.87,4.17,17,4,25.66-.05,1.93,2.95,1.93,3,0,.17-7.56.12-15.35-2.4-22.57C149.19,65.6,145,59.26,138.7,56.52c-3.39-1.47-7.08-1.6-10.73-1.53a18,18,0,0,0-3.65-11.05c10.63.31,21.39,4.76,28.41,12.86A23.86,23.86,0,0,1,157,63.7a26,26,0,0,1,1.41,8.79c.07,2.86.3,5.68.6,8.52a31.62,31.62,0,0,0,1.45,7.55,27.36,27.36,0,0,0,2,3.71,9.93,9.93,0,0,1,1.33,6.15,18.64,18.64,0,0,1-1.34,3.82A30.65,30.65,0,0,0,161,107a26.4,26.4,0,0,0-.28,9c.92,6.22,3.67,12,3.48,18.45-.09,3.14-.62,6.32.31,9.4.86,2.87,2.72,5.31,2.86,8.4.17,3.54-.92,7-.87,10.55s.6,7.32.87,11c.24,3.4.59,7.31-.35,10.63-.25.88-.3.58-1,.17a13.43,13.43,0,0,0-2.25-1.11,12,12,0,0,0-5-.7c-1.92.13-1.93,3.13,0,3a9.16,9.16,0,0,1,4.59.78c1.35.63,2.56,1.85,4.17,1.44,2.84-.71,2.82-5.16,2.92-7.43A71,71,0,0,0,170.09,170.72Z"/><g class="accessory-1"><path d="M69.21,65.41c6.72-3.94,14.17-5.08,21.35-4.81s14.21,1.87,21.26,3.18c13,2.4,26.26,3.86,38.21,9.88,3.76,1.9,9.42,3.49,11.83,7.49,1.78-10.17-2.08-16.56-2-26.81a5.56,5.56,0,0,0-.23-2.05c-.34-.89-.94-4.28-1.64-4.72a294.55,294.55,0,0,0-28.21-15.69,33,33,0,0,0-7.34-1.77c-1.85-.23-5.35-.89-7.26-.72-19.47,1.77-20.93,2.84-34.27,9a8.55,8.55,0,0,0-2.69,1.25c-1.19,1.16-1.59,3.14-1.89,4.94C75.16,51.43,69.86,58.14,68.69,65" fill="#00204a"/><path d="M161.86,81.15C147.15,83.27,128,78.85,113.12,78c-10.92-.66-21.85-1.38-32.67-3-13.3-2-18.37-.61-28.05-10a12.32,12.32,0,0,1-3.31-4.6c10,2.72,11.27.65,21,4.21L96.17,49.06,162.25,78Z" fill="#00204a"/><path d="M121.1,57.29a8,8,0,0,0-3-2.51l.3,2.35c1.89-1.48,2.51-4,2.66-6.32a11.21,11.21,0,0,0-1.57-6.74c-2.41-3.72-8-5.21-11.4-1.86-1.38,1.36.75,3.48,2.12,2.12,2.13-2.1,5.61-.67,6.92,1.64a8.58,8.58,0,0,1,.94,4.73A5.7,5.7,0,0,1,116.3,55a1.51,1.51,0,0,0,.31,2.36c.26.12.53.24.79.38l.33.2c-.16-.11-.08-.08,0,0,.43.46.82,1,1.23,1.43a1.51,1.51,0,0,0,2.12,0,1.54,1.54,0,0,0,0-2.12Z" fill="#fff"/><path d="M111.75,57.23a4.46,4.46,0,0,1-5,.43A5.1,5.1,0,0,1,104.5,53a12.74,12.74,0,0,1,.39-3.14,18.09,18.09,0,0,0,.85-3.21c.12-1.66-1.16-3.08-2.12-4.3a1.5,1.5,0,0,0-2.12,0,1.53,1.53,0,0,0,0,2.12s.16.21,0,.07l.26.35a11.67,11.67,0,0,1,.7,1c.53.85-.15,1.84-.4,2.72a13,13,0,0,0-.15,7.5,7.4,7.4,0,0,0,11.3,3.67,1.56,1.56,0,0,0,.54-2.06,1.5,1.5,0,0,0-2-.53Z" fill="#fff"/><path d="M111.27,50l-.91.68.75-.2h0l.39,0a.83.83,0,0,1-.21-.06l.36.15a.94.94,0,0,1-.22-.12l.31.23a1.26,1.26,0,0,1-.2-.2l.24.31a1.16,1.16,0,0,1-.14-.24l.15.36a1.11,1.11,0,0,1-.07-.26l.05.4a.81.81,0,0,1,0-.22l-.05.4a.61.61,0,0,1,.05-.18l-.15.36a.91.91,0,0,1,.07-.14l-.23.31a.57.57,0,0,1,.11-.11l-.31.23.11-.06-.36.15a.28.28,0,0,1,.13,0l-.4.05a.43.43,0,0,1,.16,0l-.4-.05a.61.61,0,0,1,.18.05l-.36-.15.2.11-.3-.23a1.21,1.21,0,0,1,.16.16l-.23-.3.09.15-.15-.36a.61.61,0,0,1,0,.13l0-.39v.1l0-.4a.23.23,0,0,1,0,.11l.15-.36a.41.41,0,0,1,0,.09l.24-.31,0,.05a1.24,1.24,0,0,0-.31.48,1.17,1.17,0,0,0-.12.58,1.14,1.14,0,0,0,.12.58,1.11,1.11,0,0,0,.31.48,1.5,1.5,0,0,0,1.07.44l.39-.05a1.47,1.47,0,0,0,.67-.39l0,0a2.69,2.69,0,0,0,.26-.33l0-.05a2.66,2.66,0,0,0,.16-.39,1.39,1.39,0,0,0,.08-.57,3.32,3.32,0,0,0-.06-.44.06.06,0,0,0,0,0,2.23,2.23,0,0,0-.18-.45.41.41,0,0,0,0-.09,2.48,2.48,0,0,0-.29-.37,2.33,2.33,0,0,0-.45-.38.78.78,0,0,0-.2-.11,2.39,2.39,0,0,0-.44-.18,2.78,2.78,0,0,0-.49-.08.41.41,0,0,0-.11,0h0a3.32,3.32,0,0,0-.44.06,1.48,1.48,0,0,0-.53.23,2.27,2.27,0,0,0-.69.69,2.13,2.13,0,0,0-.31,1.18,2.73,2.73,0,0,0,.06.5l0,.13c0,.1.07.19.11.29s.08.2.14.29l.07.11q.14.2.3.39l.09.09a3.79,3.79,0,0,0,.4.3.57.57,0,0,0,.13.08,3.85,3.85,0,0,0,.47.19,1.35,1.35,0,0,0,.34.06l.21,0a1.15,1.15,0,0,0,.58-.13.41.41,0,0,0,.19-.08l.1-.08.8-.6a1.1,1.1,0,0,0,.42-.38,1.26,1.26,0,0,0,.27-.51,1.22,1.22,0,0,0,0-.6,1.12,1.12,0,0,0-.18-.56,1.55,1.55,0,0,0-.9-.69l-.4,0a1.5,1.5,0,0,0-.75.2Z" fill="#00bbf0"/><path d="M72.15,64.35C73.28,58,76.56,52.25,78,46a44.81,44.81,0,0,1,1-4.43,3.8,3.8,0,0,1,.9-1.57,5.53,5.53,0,0,1,2-.88,10.84,10.84,0,0,0,1.39-.73,63.43,63.43,0,0,1,22.16-7,56.86,56.86,0,0,1,33.41,5.92,73.73,73.73,0,0,1,17.52,12.51c.34.33.65.7,1,1,.61.53,1.27.72,1.52,1.55A11.23,11.23,0,0,1,159,55a53,53,0,0,0,.45,5.33c.9,6.65,2.7,13,1.56,19.82l2.75-.36a9.5,9.5,0,0,0-3.3-3.45A23.48,23.48,0,0,0,156.78,75a14.06,14.06,0,0,0-2.54-.92l-5.41-.75-23.09-3.2L97,66.1l-21.64-3c-1.36-.19-2.78-.28-4.13-.58-.75-.17-1.49-.51-2.23-.75a37.8,37.8,0,0,0-4.9-1.24c-2.71-.48-5.46-.56-8.17-1a55,55,0,0,1-5.83-1.26c-1-.28-2.26.74-1.84,1.84,1.38,3.65,4.62,6.36,7.64,8.69A26.32,26.32,0,0,0,63.37,73a39.28,39.28,0,0,0,8,1.62c3.5.45,7,.85,10.5,1.36,9.59,1.41,19.25,2.13,28.92,2.72,8.24.51,16.38,1.6,24.57,2.59,9.1,1.09,18.37,2,27.5.73,1.9-.26,1.09-3.16-.8-2.89-7.69,1.08-15.6.4-23.28-.45-7.85-.86-15.67-2.11-23.55-2.69-9.13-.68-18.28-1.12-27.38-2.21-4.07-.49-8.12-1.17-12.2-1.65-2.77-.33-5.56-.58-8.3-1.16a23.22,23.22,0,0,1-7.75-3.12,32.83,32.83,0,0,1-4.23-3.29c-1.63-1.48-3.43-3.06-4.23-5.17l-1.85,1.85A60.83,60.83,0,0,0,59.36,63a40.67,40.67,0,0,1,8.8,1.72,16.17,16.17,0,0,0,2.68.81l2.06.28,19.42,2.7,28.3,3.93,24.55,3.41,7.09,1a15.23,15.23,0,0,1,1.51.21,2.37,2.37,0,0,1,.5.19c1.31.56,2.68.91,4,1.43a6.09,6.09,0,0,1,2.87,2.67c.62,1,2.51,1,2.74-.36a35.12,35.12,0,0,0,.29-9.82c-.32-3-.93-5.88-1.43-8.81-.26-1.55-.49-3.11-.62-4.68-.15-1.75,0-3.54-.21-5.28a4.72,4.72,0,0,0-2.11-3.51,5.43,5.43,0,0,1-.5-.38c-1.67-1.5-3.24-3.08-5-4.51a80.87,80.87,0,0,0-10.71-7.48A60.33,60.33,0,0,0,109.82,28,67.92,67.92,0,0,0,83,35.13c-.71.36-1.41.86-2.14,1.17a9.41,9.41,0,0,0-2.75,1.27,7.67,7.67,0,0,0-2.28,4.3c-.42,1.81-.69,3.62-1.21,5.4s-1.21,3.62-1.89,5.4a60.64,60.64,0,0,0-3.43,10.89c-.33,1.88,2.56,2.69,2.9.79Z"/></g></g></svg>