<svg xmlns="http://www.w3.org/2000/svg" viewBox="0 0 235 235"><g id="hair-9"><g class="c-hair"><path d="M178,185.56c-.38-29.29-3.06-42.16-3.44-71.46a88.58,88.58,0,0,0-1-14.19,89.45,89.45,0,0,0-4.19-14.28c-2.24-6.3-2.28-20.19-6.59-25.3s-10.54-12.8-17.1-16l-.12.66a22.89,22.89,0,0,0-4.79-2.6c-4-1.61-8.16-4.82-12.44-5.44-7.33-1.06-14.83.45-22.16-.62l-1.56-.62-3.87,6.56.32-1.66c-12.8,4.41-20.75,6.49-25.33,14.81-4.39,8-8.8,16-11.63,24.62-3,9.09-4.13,18.67-4.71,28.21-1.28,21.2.24,42.45,1.75,63.63.74,10.25,1.49,20.63,4.83,30.34,1.47,4.29,3.58-.41,7.25,2.27,3.07,2.23,6.79,3,10.49,3.36,3.31.33,9,1.58,12.17.84,5.78-1.37,2.37-8.65,2.65-13.55,1.13-19.3-8.92-56.31-8.92-56.31-.1-2,.64-4,.47-5.86-.39-4.33-2.6-8.83-3.29-13.21-1.4-8.85-11-18.22-7-26.37,2.75-5.54,7-10.17,10.6-15.19s6.72-10.79,6.63-17l.69-3.52c1.6,1.46,4,1.91,6.19,2.21a158.9,158.9,0,0,0,29.73,1.29A53.4,53.4,0,0,0,143.47,60c3.32,6.72,7.64,15.92,9,23.06,13.06,67.48-11,70.83-11.32,111.42,0,3.6.05,1.2.27,4.8.12,2.17-.39,7.09,1.07,8.89,1.68,2.08,6.61,1.43,9,1.58q6.22.36,12.47.44c2.5,0,5.14,0,7.27-1.31s3.47-3.84,4.32-6.29C178.17,195.28,178.09,193.33,178,185.56Z"  /></g><path id="stroke" d="M178.83,165.86c-.73-13.42-2-26.8-2.49-40.23-.31-8.29.12-16.73-1.1-24.95a67.42,67.42,0,0,0-3.15-11.93,57.25,57.25,0,0,1-2.44-8.5c-1-5.61-1.37-11.54-3.47-16.89a22.59,22.59,0,0,0-4.33-6.5A95.14,95.14,0,0,0,154.57,49a34.53,34.53,0,0,0-8.09-5.91,1.6,1.6,0,0,0-.68-.16,35.58,35.58,0,0,0-9-5.07,61.4,61.4,0,0,0-16.68-3.5c-3-.28-5.94-.51-8.91-.64a18,18,0,0,0-8.06,1.19,1.34,1.34,0,0,0-.72,1.3,1.56,1.56,0,0,0-.52.48c-.62.89-1.23,1.81-1.82,2.73-5.5,1.88-11.19,3.54-16.31,6.31A24.79,24.79,0,0,0,78,50a29.06,29.06,0,0,0-4.63,6.76A146.92,146.92,0,0,0,63.45,77.5a95.86,95.86,0,0,0-4.82,22.35c-1.76,16.32-1.34,32.86-.45,49.22.44,8.09,1,16.17,1.6,24.25.56,7.73,1.19,15.51,3,23.07q.65,2.73,1.51,5.38c.41,1.27.84,2.77,2.07,3.49,1.8,1.07,3.58-.67,5.36.07a15.64,15.64,0,0,1,1.85,1.18,17.86,17.86,0,0,0,2.19,1.09A22.49,22.49,0,0,0,80.89,209c3,.49,6,.84,9,1.19,2.55.3,5.51.62,7.89-.57,2.14-1.06,3-3.27,3-5.54.08-2.44-.56-4.84-.72-7.27-.14-2.23.1-4.5,0-6.74-.28-10.46-2.16-20.92-4.25-31.15q-1.35-6.58-2.93-13.11c-.56-2.31-1.3-4.63-1.76-7-.34-1.74.49-3.62.45-5.42-.09-3.65-1.62-7.17-2.59-10.64-.83-2.94-1.22-5.86-2.41-8.7s-2.68-5.56-4-8.35a19.52,19.52,0,0,1-2.31-8c0-3.17,2-6,3.7-8.49,4.11-6,9.33-11.36,12.3-18.12a24.85,24.85,0,0,0,2.2-9.06c3.34,1.34,7.63.82,11,.81q8.19,0,16.38-.17a80.63,80.63,0,0,0,14-1.22c.77-.15,1.52-.33,2.27-.53a116.72,116.72,0,0,1,7.84,18.74A91.47,91.47,0,0,1,152.38,91c.6,3.62,1.12,7.26,1.52,10.92,1.2,10.86,1.51,22-.22,32.79A126.84,126.84,0,0,1,147.57,157c-2.47,6.95-4.92,13.89-6.31,21.15a91.68,91.68,0,0,0-1.51,13.2,39.63,39.63,0,0,0,.06,6.26c0-.33,0,.33,0,.42,0,.35.06.71.08,1.07,0,.64,0,1.27,0,1.9a33.88,33.88,0,0,0,.12,4.39c.33,2.82,1.51,4.89,4.43,5.55s5.9.3,8.79.45c4.24.23,8.56.51,12.82.34,3.8-.16,7-1.49,9.14-4.78a31.07,31.07,0,0,0,3.49-9.51,36.5,36.5,0,0,0,.78-8.34C179.51,181.33,179.25,173.59,178.83,165.86ZM87.17,80.15C85,83,82.7,85.82,80.74,88.86c-1.64,2.54-3.19,5.19-3.36,8.27-.32,5.63,3.14,10.93,5.47,15.8a32.93,32.93,0,0,1,2.68,8.12c.69,3.48,2.12,6.77,2.83,10.25a13.62,13.62,0,0,1,0,4.89,9.82,9.82,0,0,0-.14,3.15c.12.57.3,1.13.45,1.68q1.13,4.39,2.15,8.8a277.24,277.24,0,0,1,5.4,29,100.9,100.9,0,0,1,.93,14.32,42.33,42.33,0,0,0,.3,6.75c.25,1.83.86,4.35,0,6.1-1,2-4.3,1.54-6.07,1.39-2.82-.23-5.63-.72-8.44-1.06a25.06,25.06,0,0,1-4.85-1A20.23,20.23,0,0,1,73.72,203a5.62,5.62,0,0,0-3.41-.86,16.9,16.9,0,0,1-2.41.49c-.18,0,0,.14-.21-.26a12.66,12.66,0,0,1-.81-2.31q-.82-2.67-1.43-5.4a99.19,99.19,0,0,1-1.78-11.11c-.84-7.67-1.27-15.39-1.79-23.08-1.06-15.88-1.85-31.82-1.18-47.73A149.68,149.68,0,0,1,63.11,90,87.23,87.23,0,0,1,70.36,68.9c1.62-3.34,3.36-6.6,5.14-9.85a30.37,30.37,0,0,1,4.41-6.76c3.38-3.52,8-5.42,12.54-7.07,1.76-.64,3.53-1.25,5.3-1.85a46.59,46.59,0,0,0-2.88,6.37c-1.2,3.4-1.69,7.82,1,10.6a1.44,1.44,0,0,0-.31.93C95.59,68.46,91.38,74.65,87.17,80.15Zm48.19-21a1.4,1.4,0,0,0-.73-1.29c-3.28-1.53-6.58-3-9.83-4.61-2.42-1.18-4.91-2.55-6.22-5-.91-1.71-3.5-.19-2.59,1.51,1.47,2.75,4.13,4.5,6.84,5.85s5.48,2.62,8.23,3.89l-2.54.11c-2.08.07-4.17.11-6.25.14a1.28,1.28,0,0,0-.37-.29c-3.28-1.54-6.58-3-9.84-4.62-2.41-1.18-4.9-2.54-6.22-5-.91-1.7-3.5-.19-2.59,1.52,1.47,2.74,4.13,4.49,6.85,5.85,1.81.9,3.64,1.76,5.48,2.61h-.86q-3.56,0-7.12,0a43.49,43.49,0,0,1-6.15-.16c-10.6-1.5.17-17.41,3.06-21.56a1.33,1.33,0,0,0,.26-.74,14.63,14.63,0,0,1,6.23-.75c2.25.09,4.5.27,6.75.45a74.75,74.75,0,0,1,13.94,2.17,35.45,35.45,0,0,1,10.62,4.74,25.33,25.33,0,0,1,4.33,3.68,12.26,12.26,0,0,1,3.1,4.68c.61,2.17-1.22,2.93-2.89,3.75a29.36,29.36,0,0,1-6,2.1A44.5,44.5,0,0,1,135.36,59.2ZM175.9,196.46c-.7,3.09-1.62,6.64-3.45,9.27-2.31,3.31-6.33,3-9.93,3-4-.07-8-.43-12-.45-1.33,0-2.66.06-4-.05-.92-.07-2.29-.17-2.92-.94s-.68-2.63-.71-3.7c0-1.31,0-2.61,0-3.92,0-.62-.06-1.26-.13-1.88,0-.22,0-.43-.07-.65,0,0-.05-.37-.06-.45a.32.32,0,0,1,0-.08c0-.17,0-.34,0-.51,0-.76,0-1.51,0-2.26a88,88,0,0,1,1.13-13,125.12,125.12,0,0,1,5.91-21A149.12,149.12,0,0,0,156,138.79a113.64,113.64,0,0,0,1.55-29.86,202.56,202.56,0,0,0-2.63-21,75.57,75.57,0,0,0-2.35-10.53,102.73,102.73,0,0,0-3.92-10c-1.1-2.48-2.27-4.92-3.46-7.35.55-.2,1.11-.42,1.66-.65,1.92-.82,4.36-1.79,5.46-3.69a5.33,5.33,0,0,0,.22-4.67A95.33,95.33,0,0,1,160,59.26a17.78,17.78,0,0,1,3.76,6.12,57.11,57.11,0,0,1,1.86,8.39c.45,2.77.82,5.56,1.36,8.31a69.43,69.43,0,0,0,2.62,8.57,60.42,60.42,0,0,1,2.91,11.84,115.77,115.77,0,0,1,.58,12.35c.2,13.8,1.2,27.52,2.16,41.28.47,6.84.86,13.68,1.07,20.54q.19,5.93.23,11.85A34.7,34.7,0,0,1,175.9,196.46Z"/><g class="accessory-1"><path d="M70.7,61c7-4.11,14.81-5.31,22.32-5s14.84,2,22.2,3.32c13.53,2.51,27.43,4,39.92,10.33,3.93,2,9.84,3.64,12.36,7.82,1.86-10.63-2.17-17.3-2.08-28a6.05,6.05,0,0,0-.25-2.15c-.35-.93-1-4.47-1.71-4.93A303.38,303.38,0,0,0,134,26a35.26,35.26,0,0,0-7.66-1.86c-1.93-.23-5.59-.92-7.59-.74-20.34,1.84-21.86,3-35.8,9.39-.92.42-2,.53-2.81,1.31-1.25,1.21-1.66,3.27-2,5.15-1.21,7.17-6.75,14.19-8,21.35" fill="#00204a"/><path d="M167.5,77.42c-15.37,2.22-35.42-2.4-50.92-3.34-11.41-.68-22.83-1.43-34.13-3.16-13.9-2.13-19.19-.64-29.31-10.4a12.88,12.88,0,0,1-3.45-4.81c10.47,2.85,11.77.68,22,4.4L98.87,43.9l69,30.19Z" fill="#00204a"/><path d="M124.87,52.54a8.52,8.52,0,0,0-3.1-2.62l.3,2.36c2-1.53,2.6-4.19,2.76-6.56a11.61,11.61,0,0,0-1.63-7c-2.5-3.85-8.3-5.4-11.81-1.93a1.5,1.5,0,0,0,2.12,2.12c2.27-2.24,5.95-.71,7.34,1.72a9,9,0,0,1,1,5A6,6,0,0,1,120,50.16a1.5,1.5,0,0,0,.31,2.35c.28.13.56.25.83.4l.34.22c-.17-.12-.06-.06,0,0,.45.48.86,1,1.28,1.49a1.51,1.51,0,0,0,2.12,0,1.54,1.54,0,0,0,0-2.12Z" fill="#fff"/><path d="M115.18,52.48a4.71,4.71,0,0,1-5.26.46A5.39,5.39,0,0,1,107.51,48a13.09,13.09,0,0,1,.41-3.3,19.25,19.25,0,0,0,.89-3.33c.11-1.71-1.21-3.19-2.21-4.45a1.52,1.52,0,0,0-2.12,0,1.55,1.55,0,0,0,0,2.12l.06.08.28.38c.26.35.51.7.74,1.07.56.91-.15,2-.42,2.9a13.63,13.63,0,0,0-.15,7.8,7.65,7.65,0,0,0,11.7,3.78,1.54,1.54,0,0,0,.54-2,1.51,1.51,0,0,0-2-.54Z" fill="#fff"/><path d="M114.68,45l-1,.71.75-.2h0l.4.06-.22-.06.36.15a1.42,1.42,0,0,1-.23-.14l.31.24a1,1,0,0,1-.2-.21l.23.31a1.23,1.23,0,0,1-.14-.25l.15.36a1.38,1.38,0,0,1-.08-.27l.06.4a.6.6,0,0,1,0-.23l0,.4a1.05,1.05,0,0,1,0-.19l-.15.36a.64.64,0,0,1,.08-.14l-.23.3a.57.57,0,0,1,.11-.11l-.3.23a.27.27,0,0,1,.1-.06l-.35.15.13,0-.4.05h.17l-.4-.06.18.05-.35-.15a1.2,1.2,0,0,1,.21.13l-.3-.24.17.17-.24-.3a.86.86,0,0,1,.1.16l-.16-.36a.33.33,0,0,1,0,.14l0-.4V46l0-.4a.23.23,0,0,1,0,.11l.15-.36a.41.41,0,0,1-.05.09l.23-.3,0,0a1.08,1.08,0,0,0-.31.48,1.36,1.36,0,0,0,0,1.16,1.14,1.14,0,0,0,.31.48,1.52,1.52,0,0,0,1.06.44,1.54,1.54,0,0,0,1.06-.44l0,0a2.78,2.78,0,0,0,.26-.34l0,0a2.28,2.28,0,0,0,.17-.4,1.43,1.43,0,0,0,.08-.58,3,3,0,0,0-.06-.43.07.07,0,0,0,0,0,2.17,2.17,0,0,0-.52-.92,2.38,2.38,0,0,0-.46-.39l-.21-.12c-.14-.06-.29-.13-.44-.18a2.15,2.15,0,0,0-.5-.07h-.16c-.15,0-.3,0-.45.06a1.54,1.54,0,0,0-.54.24,2.39,2.39,0,0,0-.69.69,2.16,2.16,0,0,0-.32,1.21,4.26,4.26,0,0,0,.06.5l0,.13c0,.1.08.2.12.3a1.55,1.55,0,0,0,.14.29.75.75,0,0,0,.07.12c.1.13.2.27.31.39l.09.09c.13.11.27.22.4.31l.14.08a2,2,0,0,0,.82.26l.21,0a1.27,1.27,0,0,0,.58-.13.42.42,0,0,0,.19-.09l.11-.08.83-.62a1,1,0,0,0,.42-.39,1.14,1.14,0,0,0,.27-.51,1.19,1.19,0,0,0,0-.59,1.12,1.12,0,0,0-.18-.56,1.52,1.52,0,0,0-.9-.69l-.4-.06a1.51,1.51,0,0,0-.75.21Z" fill="#00bbf0"/><path d="M73.71,59.86c1.19-6.7,4.63-12.7,6.15-19.3.34-1.45.48-3,.93-4.38a4.38,4.38,0,0,1,1-1.85A5.55,5.55,0,0,1,84,33.4a11.61,11.61,0,0,0,1.43-.77,66.24,66.24,0,0,1,23.46-7.35,59.53,59.53,0,0,1,34.59,6.19,77.11,77.11,0,0,1,18.44,13.16c.38.37.73.79,1.15,1.13.61.48,1.22.71,1.45,1.52a11.92,11.92,0,0,1,.08,2.74,51.48,51.48,0,0,0,.46,5.55c.94,7,2.83,13.7,1.64,20.8l2.74-.36A9.81,9.81,0,0,0,166,72.47,22.93,22.93,0,0,0,162.21,71a15.54,15.54,0,0,0-2.67-1l-5.63-.78-24.14-3.35L99.68,61.76,77.06,58.62c-1.41-.2-2.9-.29-4.3-.6a22.64,22.64,0,0,1-2.24-.75,39.43,39.43,0,0,0-5.24-1.33c-2.84-.5-5.73-.58-8.58-1a59.24,59.24,0,0,1-6-1.31c-1-.28-2.26.74-1.84,1.84,1.41,3.73,4.7,6.52,7.77,8.9a28.16,28.16,0,0,0,8,4.43A42.26,42.26,0,0,0,73,70.49c3.71.47,7.42.9,11.13,1.44C94,73.37,104,74.12,114,74.74c8.61.53,17.12,1.66,25.68,2.69,9.54,1.15,19.25,2.13,28.81.78,1.91-.26,1.1-3.15-.79-2.89-8,1.13-16.33.42-24.37-.47-8.21-.9-16.39-2.21-24.64-2.82-9.54-.7-19.09-1.16-28.6-2.31-4.23-.5-8.43-1.2-12.65-1.7-2.93-.35-5.89-.62-8.77-1.23a24.26,24.26,0,0,1-8.16-3.32A35.47,35.47,0,0,1,56,59.9c-1.64-1.5-3.43-3.11-4.24-5.24L49.89,56.5a62.19,62.19,0,0,0,10.57,1.84,42.34,42.34,0,0,1,9.06,1.76,18,18,0,0,0,2.91.88l2.15.3,20.35,2.83,29.61,4.11,25.64,3.56,7.34,1c.51.07,1.06.09,1.57.21a3.51,3.51,0,0,1,.63.26c1.36.6,2.81.91,4.18,1.48a6.39,6.39,0,0,1,2.9,2.78c.62,1,2.52,1,2.74-.36a36.9,36.9,0,0,0,.29-10.44c-.35-3.08-1-6.12-1.5-9.18-.25-1.48-.47-3-.6-4.47-.18-1.92,0-3.86-.24-5.77a4.77,4.77,0,0,0-2-3.47,6.75,6.75,0,0,1-.72-.53c-1.72-1.55-3.35-3.19-5.15-4.67a84,84,0,0,0-11.16-7.82,63.05,63.05,0,0,0-35.26-8.92A70.9,70.9,0,0,0,85,29.43a24.32,24.32,0,0,1-2.18,1.19A9.17,9.17,0,0,0,80,31.94a8,8,0,0,0-2.39,4.58c-.4,1.79-.68,3.59-1.2,5.36-.58,2-1.3,3.92-2,5.84a62.69,62.69,0,0,0-3.56,11.34c-.34,1.89,2.55,2.7,2.89.8Z"/></g></g></svg>