<svg xmlns="http://www.w3.org/2000/svg" viewBox="0 0 235 235"><g id="hair-5"><g class="c-hair"><path d="M130.33,49.75l9.35.27a9.13,9.13,0,0,0,2.52-14.35c-2.82-3-7.25-3.79-11.35-4.29-7.53-.91-15.37-1.5-22.53,1-3.33,1.17-6.65,3.24-7.9,6.55s-.24,6.7.72,9.95l10,.3C72.57,52.56,73.57,81.09,73.57,81.09S74,89.7,76,89.63s9.15,1.49,9.15,1.49c2-.07,4.63-9.75,8.25-19.8s22.85-9.07,22.85-9.07l2.93.14s18.4-1.12,22,8.93,6.26,19.73,8.25,19.8c0,0,7.16-1.57,9.15-1.49s2.45-8.54,2.45-8.54S163.84,54.92,130.33,49.75Z" /></g><path id="stroke" d="M162.55,77.74a29.86,29.86,0,0,0-7.18-17.43,34,34,0,0,0-14.26-9.39,10.75,10.75,0,0,0,4.64-11.83c-1.38-5-5.93-7.59-10.74-8.57a71.21,71.21,0,0,0-16.48-1.39c-5.21.17-11.07,1.09-15.4,4.23a10.9,10.9,0,0,0-4.52,6.45c-.66,3.2.18,6.43,1.09,9.49a1.7,1.7,0,0,0,.09.24,46.14,46.14,0,0,0-11.57,4.77A32.79,32.79,0,0,0,73.5,72.48a26,26,0,0,0-1.27,10.63c.24,2.22.4,5.1,1.81,6.94a3,3,0,0,0,2.61,1.09,31.41,31.41,0,0,1,3.87.58c1.22.22,2.43.46,3.64.72a2.72,2.72,0,0,0,2.23-.2,6.11,6.11,0,0,0,1.93-2.55A44.65,44.65,0,0,0,90.25,85c1.6-4.4,2.88-8.94,4.61-13.29a10.06,10.06,0,0,1,4.89-5c4.14-2.19,9.12-2.81,13.75-2.94.92,0,1.84,0,2.76,0,2.86.14,5.72,0,8.57.28,4.7.42,10.46,1.55,13.62,5.4a12.24,12.24,0,0,1,1.9,3.91c.83,2.35,1.62,4.71,2.43,7.07,1.13,3.33,2.13,6.93,3.91,10a4.21,4.21,0,0,0,2.19,2.13,5,5,0,0,0,2.28-.24,53.11,53.11,0,0,1,7.39-1.18C161,91,161.63,88,162,86a45.55,45.55,0,0,0,.57-4.94A24.83,24.83,0,0,0,162.55,77.74Zm-60-29.23a19.6,19.6,0,0,1-1.2-7,7.49,7.49,0,0,1,2.84-5.21c3.29-2.76,8.1-3.71,12.27-4a71.79,71.79,0,0,1,14.35.64c3.77.47,8.35,1.15,10.78,4.43a7.76,7.76,0,0,1-2.71,11.42,1.29,1.29,0,0,0-.74,1.23,65.53,65.53,0,0,0-13.5-2.35,77.92,77.92,0,0,0-22,1.24A1.35,1.35,0,0,0,102.59,48.51ZM76.46,88.29s0,0,0,0S76.49,88.27,76.46,88.29Zm8.32,1.42h0C84.72,90.1,84.65,89.61,84.78,89.71Zm65.09,0s0,0,0,.07Zm8.3-1.4s0,0,0,0S158.2,88.32,158.17,88.29Zm.31-.17h0C158.57,88.05,158.7,88.19,158.48,88.12Zm1.13-7.93a32.15,32.15,0,0,1-.55,5.27,16,16,0,0,1-.4,1.69c-.06.21-.32.74-.4,1h-.1a17.07,17.07,0,0,0-1.89.21,46.78,46.78,0,0,0-6.53,1.17c-.19-.25-.46-.61-.52-.71a28.68,28.68,0,0,1-1.75-4.07c-1.53-4.11-2.85-8.29-4.31-12.42a13.73,13.73,0,0,0-4.83-7,20.44,20.44,0,0,0-6.9-3.13,41.25,41.25,0,0,0-11.76-1.27c-1.14,0-2.27-.07-3.41-.12a45.27,45.27,0,0,0-9.15.59c-4.84.77-10.24,2.42-13.39,6.43a13,13,0,0,0-2,3.85c-.8,2.23-1.57,4.48-2.33,6.73A68.47,68.47,0,0,1,85.57,88.5c-.16.3-.47.75-.6,1a21.78,21.78,0,0,0-2.18-.38c-1.39-.27-2.78-.53-4.18-.73-.58-.08-1.17-.17-1.76-.21-.14,0-.33,0-.5,0a21.32,21.32,0,0,1-.71-2.3,31.57,31.57,0,0,1-.45-3.2c-.06-.58-.12-1.17-.13-1.75s0-1,.07-1.52.08-.75.13-1.13c0-.11,0-.36.06-.46.05-.27.09-.55.14-.82a28.89,28.89,0,0,1,9-16.21c8.57-7.79,21-10.22,32.27-10.34,11.07-.11,23.22,1.27,32.32,8.15A26.46,26.46,0,0,1,159.2,75l.15.88,0,.25s0,.29.05.34c0,.49.1,1,.14,1.48C159.61,78.71,159.63,79.45,159.61,80.19Z"/></g></svg>