<svg xmlns="http://www.w3.org/2000/svg" viewBox="0 0 235 235"><g id="hair-9"><g class="c-hair"><path d="M178,185.56c-.38-29.29-3.06-42.16-3.44-71.46a88.58,88.58,0,0,0-1-14.19,89.45,89.45,0,0,0-4.19-14.28c-2.24-6.3-2.28-20.19-6.59-25.3s-10.54-12.8-17.1-16l-.12.66a22.89,22.89,0,0,0-4.79-2.6c-4-1.61-8.16-4.82-12.44-5.44-7.33-1.06-14.83.45-22.16-.62l-1.56-.62-3.87,6.56.32-1.66c-12.8,4.41-20.75,6.49-25.33,14.81-4.39,8-8.8,16-11.63,24.62-3,9.09-4.13,18.67-4.71,28.21-1.28,21.2.24,42.45,1.75,63.63.74,10.25,1.49,20.63,4.83,30.34,1.47,4.29,3.58-.41,7.25,2.27,3.07,2.23,6.79,3,10.49,3.36,3.31.33,9,1.58,12.17.84,5.78-1.37,2.37-8.65,2.65-13.55,1.13-19.3-8.92-56.31-8.92-56.31-.1-2,.64-4,.47-5.86-.39-4.33-.6-8.83-1.29-13.21-1.4-8.85-11-18.22-7-26.37,2.75-5.54,5-10.17,8.6-15.19s6.72-10.79,6.63-17l.69-3.52c1.6,1.46,4,1.91,6.19,2.21a158.9,158.9,0,0,0,29.73,1.29A53.4,53.4,0,0,0,143.47,60c3.32,6.72,7.64,15.92,9,23.06,13.06,67.48-11,70.83-11.32,111.42,0,3.6.05,1.2.27,4.8.12,2.17-.39,7.09,1.07,8.89,1.68,2.08,6.61,1.43,9,1.58q6.22.36,12.47.44c2.5,0,5.14,0,7.27-1.31s3.47-3.84,4.32-6.29C178.17,195.28,178.09,193.33,178,185.56Z" /></g><path id="stroke" d="M178.83,165.86c-.73-13.42-2-26.8-2.49-40.23-.31-8.29.12-16.73-1.1-24.95a67.42,67.42,0,0,0-3.15-11.93,57.25,57.25,0,0,1-2.44-8.5c-1-5.61-1.37-11.54-3.47-16.89a22.59,22.59,0,0,0-4.33-6.5A95.14,95.14,0,0,0,154.57,49a34.53,34.53,0,0,0-8.09-5.91,1.6,1.6,0,0,0-.68-.16,35.58,35.58,0,0,0-9-5.07,61.4,61.4,0,0,0-16.68-3.5c-3-.28-5.94-.51-8.91-.64a18,18,0,0,0-8.06,1.19,1.34,1.34,0,0,0-.72,1.3,1.56,1.56,0,0,0-.52.48c-.62.89-1.23,1.81-1.82,2.73-5.5,1.88-11.19,3.54-16.31,6.31A24.79,24.79,0,0,0,78,50a29.06,29.06,0,0,0-4.63,6.76A146.92,146.92,0,0,0,63.45,77.5a95.86,95.86,0,0,0-4.82,22.35c-1.76,16.32-1.34,32.86-.45,49.22.44,8.09,1,16.17,1.6,24.25.56,7.73,1.19,15.51,3,23.07q.65,2.73,1.51,5.38c.41,1.27.84,2.77,2.07,3.49,1.8,1.07,3.58-.67,5.36.07a15.64,15.64,0,0,1,1.85,1.18,17.86,17.86,0,0,0,2.19,1.09A22.49,22.49,0,0,0,80.89,209c3,.49,6,.84,9,1.19,2.55.3,5.51.62,7.89-.57,2.14-1.06,3-3.27,3-5.54.08-2.44-.56-4.84-.72-7.27-.14-2.23.1-4.5,0-6.74-.28-10.46-2.16-20.92-4.25-31.15q-1.35-6.58-2.93-13.11c-.56-2.31-1.3-4.63-1.76-7-.34-1.74.49-3.62.45-5.42-.09-3.65-1.62-7.17-2.59-10.64-.83-2.94.78-5.86-.41-8.7s-2.68-5.56-4-8.35a19.52,19.52,0,0,1-2.31-8c0-3.17,2-6,3.7-8.49a108.16,108.16,0,0,0,10.3-18.12,24.85,24.85,0,0,0,2.2-9.06c3.34,1.34,7.63.82,11,.81q8.19,0,16.38-.17a80.63,80.63,0,0,0,14-1.22c.77-.15,1.52-.33,2.27-.53a116.72,116.72,0,0,1,7.84,18.74A91.47,91.47,0,0,1,152.38,91c.6,3.62,1.12,7.26,1.52,10.92,1.2,10.86,1.51,22-.22,32.79A126.84,126.84,0,0,1,147.57,157c-2.47,6.95-4.92,13.89-6.31,21.15a91.68,91.68,0,0,0-1.51,13.2,39.63,39.63,0,0,0,.06,6.26c0-.33,0,.33,0,.42,0,.35.06.71.08,1.07,0,.64,0,1.27,0,1.9a33.88,33.88,0,0,0,.12,4.39c.33,2.82,1.51,4.89,4.43,5.55s5.9.3,8.79.45c4.24.23,8.56.51,12.82.34,3.8-.16,7-1.49,9.14-4.78a31.07,31.07,0,0,0,3.49-9.51,36.5,36.5,0,0,0,.78-8.34C179.51,181.33,179.25,173.59,178.83,165.86ZM87.17,80.15C85,83,84.7,85.82,82.74,88.86c-1.64,2.54-3.19,5.19-3.36,8.27-.32,5.63,3.14,10.93,5.47,15.8,1.27,2.65.12,5.25.68,8.12.69,3.48,2.12,6.77,2.83,10.25a13.62,13.62,0,0,1,0,4.89,9.82,9.82,0,0,0-.14,3.15c.12.57.3,1.13.45,1.68q1.13,4.39,2.15,8.8a277.24,277.24,0,0,1,5.4,29,100.9,100.9,0,0,1,.93,14.32,42.33,42.33,0,0,0,.3,6.75c.25,1.83.86,4.35,0,6.1-1,2-4.3,1.54-6.07,1.39-2.82-.23-5.63-.72-8.44-1.06a25.06,25.06,0,0,1-4.85-1A20.23,20.23,0,0,1,73.72,203a5.62,5.62,0,0,0-3.41-.86,16.9,16.9,0,0,1-2.41.49c-.18,0,0,.14-.21-.26a12.66,12.66,0,0,1-.81-2.31q-.82-2.67-1.43-5.4a99.19,99.19,0,0,1-1.78-11.11c-.84-7.67-1.27-15.39-1.79-23.08-1.06-15.88-1.85-31.82-1.18-47.73A149.68,149.68,0,0,1,63.11,90,87.23,87.23,0,0,1,70.36,68.9c1.62-3.34,3.36-6.6,5.14-9.85a30.37,30.37,0,0,1,4.41-6.76c3.38-3.52,8-5.42,12.54-7.07,1.76-.64,3.53-1.25,5.3-1.85a46.59,46.59,0,0,0-2.88,6.37c-1.2,3.4-1.69,7.82,1,10.6a1.44,1.44,0,0,0-.31.93C95.59,68.46,91.38,74.65,87.17,80.15Zm48.19-21a1.4,1.4,0,0,0-.73-1.29c-3.28-1.53-6.58-3-9.83-4.61-2.42-1.18-4.91-2.55-6.22-5-.91-1.71-3.5-.19-2.59,1.51,1.47,2.75,4.13,4.5,6.84,5.85s5.48,2.62,8.23,3.89l-2.54.11c-2.08.07-4.17.11-6.25.14a1.28,1.28,0,0,0-.37-.29c-3.28-1.54-6.58-3-9.84-4.62-2.41-1.18-4.9-2.54-6.22-5-.91-1.7-3.5-.19-2.59,1.52,1.47,2.74,4.13,4.49,6.85,5.85,1.81.9,3.64,1.76,5.48,2.61h-.86q-3.56,0-7.12,0a43.49,43.49,0,0,1-6.15-.16c-10.6-1.5.17-17.41,3.06-21.56a1.33,1.33,0,0,0,.26-.74,14.63,14.63,0,0,1,6.23-.75c2.25.09,4.5.27,6.75.45a74.75,74.75,0,0,1,13.94,2.17,35.45,35.45,0,0,1,10.62,4.74,25.33,25.33,0,0,1,4.33,3.68,12.26,12.26,0,0,1,3.1,4.68c.61,2.17-1.22,2.93-2.89,3.75a29.36,29.36,0,0,1-6,2.1A44.5,44.5,0,0,1,135.36,59.2ZM175.9,196.46c-.7,3.09-1.62,6.64-3.45,9.27-2.31,3.31-6.33,3-9.93,3-4-.07-8-.43-12-.45-1.33,0-2.66.06-4-.05-.92-.07-2.29-.17-2.92-.94s-.68-2.63-.71-3.7c0-1.31,0-2.61,0-3.92,0-.62-.06-1.26-.13-1.88,0-.22,0-.43-.07-.65,0,0-.05-.37-.06-.45a.32.32,0,0,1,0-.08c0-.17,0-.34,0-.51,0-.76,0-1.51,0-2.26a88,88,0,0,1,1.13-13,125.12,125.12,0,0,1,5.91-21A149.12,149.12,0,0,0,156,138.79a113.64,113.64,0,0,0,1.55-29.86,202.56,202.56,0,0,0-2.63-21,75.57,75.57,0,0,0-2.35-10.53,102.73,102.73,0,0,0-3.92-10c-1.1-2.48-2.27-4.92-3.46-7.35.55-.2,1.11-.42,1.66-.65,1.92-.82,4.36-1.79,5.46-3.69a5.33,5.33,0,0,0,.22-4.67A95.33,95.33,0,0,1,160,59.26a17.78,17.78,0,0,1,3.76,6.12,57.11,57.11,0,0,1,1.86,8.39c.45,2.77.82,5.56,1.36,8.31a69.43,69.43,0,0,0,2.62,8.57,60.42,60.42,0,0,1,2.91,11.84,115.77,115.77,0,0,1,.58,12.35c.2,13.8,1.2,27.52,2.16,41.28.47,6.84.86,13.68,1.07,20.54q.19,5.93.23,11.85A34.7,34.7,0,0,1,175.9,196.46Z"/><g class="accessory-1"><path d="M68.9,67.27c7.12-4.17,15-5.38,22.63-5.1s15,2,22.52,3.37c13.72,2.55,27.82,4.09,40.48,10.48,4,2,10,3.69,12.53,7.93,1.88-10.78-2.2-17.54-2.11-28.4a6,6,0,0,0-.25-2.18c-.36-.94-1-4.53-1.74-5a307.46,307.46,0,0,0-29.89-16.63,35.81,35.81,0,0,0-7.77-1.88c-2-.24-5.67-.94-7.69-.75C97,31,95.44,32.12,81.3,38.64c-.93.43-2,.53-2.85,1.32-1.26,1.23-1.68,3.32-2,5.23-1.24,7.27-6.86,14.39-8.09,21.65" fill="#00204a"/><path d="M167.06,84c-15.59,2.25-35.92-2.44-51.64-3.39-11.56-.69-23.15-1.45-34.6-3.21-14.1-2.15-19.46-.64-29.73-10.54a13.05,13.05,0,0,1-3.5-4.88c10.62,2.89,11.94.69,22.28,4.46L97.47,50l70,30.62Z" fill="#00204a"/><path d="M123.81,58.73a8.44,8.44,0,0,0-3.13-2.65l.3,2.36c2-1.55,2.63-4.24,2.79-6.64a11.74,11.74,0,0,0-1.65-7.09c-2.52-3.89-8.4-5.46-11.94-2a1.5,1.5,0,0,0,2.12,2.12c2.3-2.28,6.06-.73,7.47,1.75a9.11,9.11,0,0,1,1,5,6.13,6.13,0,0,1-1.92,4.64,1.5,1.5,0,0,0,.3,2.35c.29.13.57.26.85.41a2.5,2.5,0,0,1,.35.21c-.17-.12-.06,0,0,.05.45.48.87,1,1.29,1.51a1.51,1.51,0,0,0,2.12,0,1.53,1.53,0,0,0,0-2.12Z" fill="#fff"/><path d="M114,58.68a4.81,4.81,0,0,1-5.36.46,5.48,5.48,0,0,1-2.45-5,13.54,13.54,0,0,1,.41-3.35,18.83,18.83,0,0,0,.9-3.37c.12-1.73-1.22-3.22-2.23-4.49a1.5,1.5,0,0,0-2.12,0,1.55,1.55,0,0,0,0,2.12s.17.21.06.07l.29.39c.26.35.52.71.75,1.09.57.93-.15,2-.42,2.95a13.72,13.72,0,0,0-.16,7.9,7.75,7.75,0,0,0,11.84,3.83,1.54,1.54,0,0,0,.54-2.05,1.51,1.51,0,0,0-2-.54Z" fill="#fff"/><path d="M113.51,51.05l-1,.72.76-.21h0l.4.06-.22-.07.36.16a1.88,1.88,0,0,1-.24-.14l.31.23a1.34,1.34,0,0,1-.21-.2l.24.3a1.28,1.28,0,0,1-.15-.25l.15.36a2.76,2.76,0,0,1-.08-.27l.06.4a1,1,0,0,1,0-.24l-.06.4a.6.6,0,0,1,.06-.19l-.16.36a1.19,1.19,0,0,1,.09-.15l-.24.31a1.36,1.36,0,0,1,.12-.12l-.31.24.11-.07-.36.15.14,0-.4.06h.17l-.4-.05a.59.59,0,0,1,.19.05l-.36-.15a.94.94,0,0,1,.22.12l-.31-.23a1,1,0,0,1,.18.17l-.24-.3a.86.86,0,0,1,.1.16l-.15-.36a.57.57,0,0,1,0,.14l-.06-.4a.2.2,0,0,1,0,.11l.06-.39a.76.76,0,0,1,0,.11l.16-.36-.06.09.23-.3,0,.05a1,1,0,0,0-.31.48,1.15,1.15,0,0,0-.13.58,1.17,1.17,0,0,0,.13.58,1.14,1.14,0,0,0,.31.48,1.52,1.52,0,0,0,1.06.44,1.54,1.54,0,0,0,1.06-.44l0,0a2.69,2.69,0,0,0,.26-.33l0,0c.06-.12.12-.27.17-.4a1.41,1.41,0,0,0,.07-.58,3.15,3.15,0,0,0,0-.43.11.11,0,0,1,0-.05,2.25,2.25,0,0,0-.19-.45,2.32,2.32,0,0,0-.34-.48,2.45,2.45,0,0,0-.47-.38.82.82,0,0,0-.2-.12,2.49,2.49,0,0,0-.45-.18,2.74,2.74,0,0,0-.5-.08h-.16l-.45.06a1.52,1.52,0,0,0-.54.23,2.46,2.46,0,0,0-.7.7,2.16,2.16,0,0,0-.32,1.21c0,.17,0,.34.06.5a.74.74,0,0,0,0,.14,2.49,2.49,0,0,0,.11.29c.05.11.09.21.14.3l.08.12a3.68,3.68,0,0,0,.3.39l.1.1.4.31.14.08a3.45,3.45,0,0,0,.48.2c.11,0,.23,0,.34.06l.22,0a1.14,1.14,0,0,0,.58-.12.66.66,0,0,0,.19-.09.39.39,0,0,0,.1-.08l.85-.63a1.72,1.72,0,0,0,.69-.9,1.22,1.22,0,0,0,0-.6,1.09,1.09,0,0,0-.18-.55,1.48,1.48,0,0,0-.9-.69l-.4-.06a1.42,1.42,0,0,0-.75.21Z" fill="#00bbf0"/><path d="M71.93,66.13c1.21-6.8,4.71-12.89,6.25-19.6.33-1.46.48-3,.93-4.4a4.33,4.33,0,0,1,1-1.9,6,6,0,0,1,2.18-.95,12.83,12.83,0,0,0,1.42-.75,67,67,0,0,1,23.63-7.45,60.31,60.31,0,0,1,35.29,6.26,77.86,77.86,0,0,1,18.65,13.3c.36.34.69.74,1.06,1.06.64.57,1.38.78,1.63,1.68a11.55,11.55,0,0,1,.08,2.76,49.05,49.05,0,0,0,.46,5.55c.94,7.12,2.89,14,1.67,21.2l2.74-.36a9.71,9.71,0,0,0-3.5-3.64,26.2,26.2,0,0,0-3.91-1.44,14.14,14.14,0,0,0-2.59-.94l-5.74-.79-24.48-3.4L98.26,68.09,75.35,64.9c-1.44-.2-3-.28-4.38-.6-.82-.19-1.62-.56-2.43-.82a40.37,40.37,0,0,0-5.2-1.31c-2.88-.5-5.82-.58-8.71-1a53.49,53.49,0,0,1-6-1.31c-1-.27-2.27.74-1.85,1.85,1.44,3.8,4.81,6.64,8,9.07a27.73,27.73,0,0,0,8,4.43,41.68,41.68,0,0,0,8.35,1.71c3.72.47,7.44.9,11.16,1.44,10.15,1.49,20.38,2.26,30.62,2.89,8.73.54,17.36,1.69,26,2.74,9.65,1.16,19.48,2.14,29.17.78,1.9-.26,1.09-3.16-.8-2.89-8.17,1.15-16.57.42-24.73-.47-8.33-.92-16.63-2.25-25-2.86-9.7-.72-19.41-1.19-29.08-2.36-4.28-.51-8.52-1.22-12.8-1.73-3-.35-5.94-.62-8.86-1.24a24.43,24.43,0,0,1-8.23-3.35,35.6,35.6,0,0,1-4.5-3.52c-1.71-1.56-3.59-3.22-4.43-5.44L47.8,62.71a62.4,62.4,0,0,0,10.6,1.86,43.23,43.23,0,0,1,9.15,1.74,19,19,0,0,0,3.12,1l2.15.3,20.69,2.87,29.87,4.15,26,3.61,7.51,1c.52.08,1.09.1,1.61.23a1.89,1.89,0,0,1,.49.19c1.41.58,2.87,1,4.28,1.53A6.41,6.41,0,0,1,166.37,84c.62,1,2.52,1,2.74-.35a37.35,37.35,0,0,0,.31-10.45c-.34-3.08-1-6.12-1.5-9.17-.27-1.61-.51-3.23-.65-4.86-.18-1.93,0-3.89-.24-5.8a4.87,4.87,0,0,0-2-3.5,8.48,8.48,0,0,1-.72-.53c-1.75-1.58-3.4-3.24-5.23-4.74a85.15,85.15,0,0,0-11.36-8,63.88,63.88,0,0,0-35.56-9,71.83,71.83,0,0,0-28.64,7.6,24.87,24.87,0,0,1-2.27,1.23,9.93,9.93,0,0,0-2.91,1.35,8.25,8.25,0,0,0-2.42,4.63c-.4,1.8-.67,3.6-1.18,5.37-.58,2-1.29,3.89-2,5.81A64.94,64.94,0,0,0,69,65.33c-.34,1.89,2.55,2.7,2.89.8Z"/></g></g></svg>