<svg xmlns="http://www.w3.org/2000/svg" viewBox="0 0 235 235"><g id="hair-9"><g class="c-hair"><path d="M178,179.66c-.38-29.29-3.05-34.16-3.44-63.46a88.58,88.58,0,0,0-1-14.19,87.43,87.43,0,0,0-4.19-14.28c-2.24-6.3-2.27-20.19-6.58-25.3s-10.55-12.8-17.11-16l-.12.67a22.65,22.65,0,0,0-4.78-2.61c-4-1.61-8.17-4.82-12.45-5.44-7.33-1.06-14.83.45-22.16-.62l-1.55-.62-3.72,6.29.16-1.39c-12.79,4.42-20.75,6.49-25.33,14.81-4.39,8-8.8,16-11.63,24.62-3,9.09-4.13,18.67-4.7,28.21-1.28,21.2,1.23,42.45,2.75,63.63.73,10.25.49,10.63,3.82,20.34,1.47,4.29,1.49,3.52,7.46,4.35,3.75.53,9.58.92,13.28,1.28,3.31.33-.46.17,2.7-.58,5.78-1.36,2.9-10.76,3.19-15.66,1.12-19.3-3-42.78-3-42.78-3.6-16.47-3.09-32.82-1.84-44.38a71,71,0,0,1,6.8-23.09,83,83,0,0,0,3.62-11c1.7.95,4.17.76,6.18,1,9.85,1.36,19.36.36,29.29-.14a52.55,52.55,0,0,0,9.78-1.23c3.38,6.71,8.53,15.81,9,23.06,4.49,67.91-4.94,58.83-5.31,99.42,0,3.6,0,1.21.26,4.8.13,2.17-.39,7.09,1.07,8.89,1.68,2.08,6.61,1.43,9,1.58,4.16.24,2.31.39,6.47.44,2.5,0,5.14,0,7.27-1.31s3.47-3.84,4.32-6.29C178.17,185.38,178.09,187.43,178,179.66Z" /></g><path id="stroke" d="M178.67,153.36c-.58-8.67-1.93-17.25-2.32-25.93-.35-8,.08-16-1-23.94a66.51,66.51,0,0,0-3.09-12.2,60.64,60.64,0,0,1-2.54-8.64c-1-5.62-1.4-11.53-3.42-16.93A22.36,22.36,0,0,0,162,59.1a96.66,96.66,0,0,0-7.26-7.87,33.94,33.94,0,0,0-8.24-6,1.46,1.46,0,0,0-.68-.17,35.58,35.58,0,0,0-9-5.07,61.32,61.32,0,0,0-16.68-3.5c-3-.28-5.94-.51-8.91-.64A18,18,0,0,0,103.16,37a1.35,1.35,0,0,0-.72,1.3,1.68,1.68,0,0,0-.52.48c-.62.89-1.23,1.81-1.82,2.73-8.83,3-19.22,5.55-24.69,13.75-1.69,2.54-3,5.36-4.48,8-1.67,3.13-3.27,6.3-4.72,9.53A87,87,0,0,0,60,92.24c-2.66,14.05-2.79,28.58-2.16,42.82S60,163.65,61,177.94a52.62,52.62,0,0,0,2.09,12.27c.75,2.37,1.34,5.17,2.76,7.23a5.84,5.84,0,0,0,4.3,2.41c2.16.3,4.33.47,6.49.81a53.18,53.18,0,0,0,8.45.75c2.56,0,5.86-.21,7.83-2.1,1.5-1.44,1.73-3.58,1.59-5.55a53.65,53.65,0,0,1-.5-6.7c.15-2.75.2-5.51.18-8.27,0-5.6-.33-11.2-.75-16.79-.54-7.06-1.16-14.19-2.27-21.19-.34-2.15-.88-4.27-1.28-6.42-.6-3.29-1.12-6.61-1.52-9.94a124.88,124.88,0,0,1-.91-17.71,65.47,65.47,0,0,1,2.45-16.93c.89-3,1.94-6,3.11-8.92s2.46-5.44,3.62-8.2a24.23,24.23,0,0,0,2-8.5c3.35,1.34,7.63.82,11,.82q8.19,0,16.39-.18a80.8,80.8,0,0,0,14-1.22c.76-.15,1.52-.33,2.28-.53,3,5.92,6.41,11.8,8.06,18.28.94,3.69.87,7.61,1.06,11.4s.36,7.57.48,11.36a271.2,271.2,0,0,1-.38,31A156.36,156.36,0,0,1,149,152.18c-1.09,5.58-2.08,11.17-2.62,16.84-.38,4-.58,8-.67,11.95a42.25,42.25,0,0,0,0,6.56.58.58,0,0,1,0,.1v0c0,.3.06.6.08.91.05.69.08,1.38.08,2.08,0,1.44-.05,2.89.08,4.33.25,2.86,1.21,5.18,4.19,6,2.67.71,5.49.29,8.21.49,5.91.41,12.74,1.52,16.6-4.08,2.11-3.06,3-7.06,3.57-10.68a78.41,78.41,0,0,0,.69-12.06C179.26,167.53,179.14,160.43,178.67,153.36ZM89.93,80.49a73.87,73.87,0,0,0-4.87,17.3c-1.48,11.15-.53,22.66,1.26,33.72.54,3.31,1.33,6.56,1.89,9.86,0,.12,0,.24.05.35s0,.26,0,.38,0,.2,0,.3v.06c.41,3.09.77,6.2,1.1,9.3a254.29,254.29,0,0,1,1.68,30.59,67.22,67.22,0,0,0-.11,7.51c.18,1.9.75,4,.42,5.9-.4,2.3-3.19,2.48-5.09,2.6a41.94,41.94,0,0,1-8.67-.54c-2-.31-4.07-.6-6.12-.8-1.38-.14-2.67-.22-3.43-1.49a19.62,19.62,0,0,1-1.39-3.65c-.41-1.22-.81-2.45-1.17-3.68a35.74,35.74,0,0,1-1.18-5.29c-.74-5.54-.87-11.2-1.32-16.77-.56-7.07-1.17-14.14-1.64-21.21-.93-13.84-1.32-27.75,0-41.57A99.35,99.35,0,0,1,65.3,83.48a107.23,107.23,0,0,1,7.9-18c2.34-4.42,4.42-9.3,8.35-12.56C85,50,89.34,48.43,93.48,47l4.28-1.48a44.29,44.29,0,0,0-2.88,6.37c-1.21,3.4-1.69,7.83,1,10.61a1.4,1.4,0,0,0-.31.92C95.59,69.54,92.14,74.91,89.93,80.49Zm44.3-19.07c-3.15-1.47-6.31-2.91-9.43-4.43-2.42-1.18-4.9-2.54-6.22-5-.91-1.7-3.5-.19-2.59,1.52,1.47,2.74,4.13,4.49,6.85,5.85,1.66.83,3.35,1.63,5,2.41-1.87.06-3.74.1-5.61.13a1.06,1.06,0,0,0-.37-.29c-3.28-1.54-6.58-3-9.83-4.62-2.42-1.18-4.91-2.54-6.22-5-.91-1.7-3.51-.19-2.59,1.52,1.47,2.74,4.13,4.49,6.84,5.85q2.72,1.35,5.48,2.62h-.85c-2.38,0-4.75,0-7.13,0a45.08,45.08,0,0,1-6.15-.15c-10.6-1.51.17-17.42,3.06-21.57a1.33,1.33,0,0,0,.26-.74,14.63,14.63,0,0,1,6.23-.75c2.25.09,4.5.27,6.75.45a74.62,74.62,0,0,1,13.94,2.17,35.7,35.7,0,0,1,10.62,4.74,25,25,0,0,1,4.33,3.68,12,12,0,0,1,3.1,4.68c.61,2.17-1.21,2.93-2.89,3.75a29.36,29.36,0,0,1-6,2.1A46.46,46.46,0,0,1,134.23,61.42Zm41.52,124.24c-.5,3.49-1.29,7.64-3.52,10.49-2.35,3-6.35,2.75-9.79,2.63-2.11-.07-4.17-.45-6.29-.43-1.71,0-5.68.58-6.66-1.31a9.17,9.17,0,0,1-.54-3.89c0-1.25.05-2.5,0-3.75,0-.62-.08-1.23-.15-1.85,0-.24-.06-.48-.09-.72h0c-.06-1.11,0-2.22,0-3.32.05-4.15.21-8.3.54-12.44a145.38,145.38,0,0,1,2.38-16.5c1-5.42,2-10.84,2.61-16.34a225.1,225.1,0,0,0,.85-27.11c-.12-7.12-.43-14.24-.82-21.35a44.64,44.64,0,0,0-1.42-10.67,66.6,66.6,0,0,0-4.06-9.86c-1.15-2.37-2.38-4.7-3.57-7.05.55-.19,1.09-.4,1.63-.63,1.92-.82,4.36-1.78,5.46-3.69a5.35,5.35,0,0,0,.22-4.68,97,97,0,0,1,7.58,8.32,17.37,17.37,0,0,1,3.73,6.26A58.72,58.72,0,0,1,165.61,76c.46,2.81.83,5.64,1.4,8.43a76.44,76.44,0,0,0,2.71,8.72,58.09,58.09,0,0,1,2.84,12.11c.46,4.18.45,8.4.52,12.6.09,6,.29,11.92.82,17.86.33,3.71.82,7.4,1.21,11.1.53,5.07.82,10.16,1,15.26.12,3.86.18,7.73.21,11.59A79.51,79.51,0,0,1,175.75,185.66Z"/><g class="accessory-1"><path d="M68.9,67.27c7.12-4.17,15-5.38,22.63-5.1s15,2,22.52,3.37c13.72,2.55,27.82,4.09,40.48,10.48,4,2,10,3.69,12.53,7.93,1.88-10.78-2.2-17.54-2.11-28.4a6,6,0,0,0-.25-2.18c-.36-.94-1-4.53-1.74-5a307.46,307.46,0,0,0-29.89-16.63,35.81,35.81,0,0,0-7.77-1.88c-2-.24-5.67-.94-7.69-.75C97,31,95.44,32.12,81.3,38.64c-.93.43-2,.53-2.85,1.32-1.26,1.23-1.68,3.32-2,5.23-1.24,7.27-6.86,14.39-8.09,21.65" fill="#00204a"/><path d="M167.06,84c-15.59,2.25-35.92-2.44-51.64-3.39-11.56-.69-23.15-1.45-34.6-3.21-14.1-2.15-19.46-.64-29.73-10.54a13.05,13.05,0,0,1-3.5-4.88c10.62,2.89,11.94.69,22.28,4.46L97.47,50l70,30.62Z" fill="#00204a"/><path d="M123.81,58.73a8.44,8.44,0,0,0-3.13-2.65l.3,2.36c2-1.55,2.63-4.24,2.79-6.64a11.74,11.74,0,0,0-1.65-7.09c-2.52-3.89-8.4-5.46-11.94-2a1.5,1.5,0,0,0,2.12,2.12c2.3-2.28,6.06-.73,7.47,1.75a9.11,9.11,0,0,1,1,5,6.13,6.13,0,0,1-1.92,4.64,1.5,1.5,0,0,0,.3,2.35c.29.13.57.26.85.41a2.5,2.5,0,0,1,.35.21c-.17-.12-.06,0,0,.05.45.48.87,1,1.29,1.51a1.51,1.51,0,0,0,2.12,0,1.53,1.53,0,0,0,0-2.12Z" fill="#fff"/><path d="M114,58.68a4.81,4.81,0,0,1-5.36.46,5.48,5.48,0,0,1-2.45-5,13.54,13.54,0,0,1,.41-3.35,18.83,18.83,0,0,0,.9-3.37c.12-1.73-1.22-3.22-2.23-4.49a1.5,1.5,0,0,0-2.12,0,1.55,1.55,0,0,0,0,2.12s.17.21.06.07l.29.39c.26.35.52.71.75,1.09.57.93-.15,2-.42,2.95a13.72,13.72,0,0,0-.16,7.9,7.75,7.75,0,0,0,11.84,3.83,1.54,1.54,0,0,0,.54-2.05,1.51,1.51,0,0,0-2-.54Z" fill="#fff"/><path d="M113.51,51.05l-1,.72.76-.21h0l.4.06-.22-.07.36.16a1.88,1.88,0,0,1-.24-.14l.31.23a1.34,1.34,0,0,1-.21-.2l.24.3a1.28,1.28,0,0,1-.15-.25l.15.36a2.76,2.76,0,0,1-.08-.27l.06.4a1,1,0,0,1,0-.24l-.06.4a.6.6,0,0,1,.06-.19l-.16.36a1.19,1.19,0,0,1,.09-.15l-.24.31a1.36,1.36,0,0,1,.12-.12l-.31.24.11-.07-.36.15.14,0-.4.06h.17l-.4-.05a.59.59,0,0,1,.19.05l-.36-.15a.94.94,0,0,1,.22.12l-.31-.23a1,1,0,0,1,.18.17l-.24-.3a.86.86,0,0,1,.1.16l-.15-.36a.57.57,0,0,1,0,.14l-.06-.4a.2.2,0,0,1,0,.11l.06-.39a.76.76,0,0,1,0,.11l.16-.36-.06.09.23-.3,0,.05a1,1,0,0,0-.31.48,1.15,1.15,0,0,0-.13.58,1.17,1.17,0,0,0,.13.58,1.14,1.14,0,0,0,.31.48,1.52,1.52,0,0,0,1.06.44,1.54,1.54,0,0,0,1.06-.44l0,0a2.69,2.69,0,0,0,.26-.33l0,0c.06-.12.12-.27.17-.4a1.41,1.41,0,0,0,.07-.58,3.15,3.15,0,0,0,0-.43.11.11,0,0,1,0-.05,2.25,2.25,0,0,0-.19-.45,2.32,2.32,0,0,0-.34-.48,2.45,2.45,0,0,0-.47-.38.82.82,0,0,0-.2-.12,2.49,2.49,0,0,0-.45-.18,2.74,2.74,0,0,0-.5-.08h-.16l-.45.06a1.52,1.52,0,0,0-.54.23,2.46,2.46,0,0,0-.7.7,2.16,2.16,0,0,0-.32,1.21c0,.17,0,.34.06.5a.74.74,0,0,0,0,.14,2.49,2.49,0,0,0,.11.29c.05.11.09.21.14.3l.08.12a3.68,3.68,0,0,0,.3.39l.1.1.4.31.14.08a3.45,3.45,0,0,0,.48.2c.11,0,.23,0,.34.06l.22,0a1.14,1.14,0,0,0,.58-.12.66.66,0,0,0,.19-.09.39.39,0,0,0,.1-.08l.85-.63a1.72,1.72,0,0,0,.69-.9,1.22,1.22,0,0,0,0-.6,1.09,1.09,0,0,0-.18-.55,1.48,1.48,0,0,0-.9-.69l-.4-.06a1.42,1.42,0,0,0-.75.21Z" fill="#00bbf0"/><path d="M71.93,66.13c1.21-6.8,4.71-12.89,6.25-19.6.33-1.46.48-3,.93-4.4a4.33,4.33,0,0,1,1-1.9,6,6,0,0,1,2.18-.95,12.83,12.83,0,0,0,1.42-.75,67,67,0,0,1,23.63-7.45,60.31,60.31,0,0,1,35.29,6.26,77.86,77.86,0,0,1,18.65,13.3c.36.34.69.74,1.06,1.06.64.57,1.38.78,1.63,1.68a11.55,11.55,0,0,1,.08,2.76,49.05,49.05,0,0,0,.46,5.55c.94,7.12,2.89,14,1.67,21.2l2.74-.36a9.71,9.71,0,0,0-3.5-3.64,26.2,26.2,0,0,0-3.91-1.44,14.14,14.14,0,0,0-2.59-.94l-5.74-.79-24.48-3.4L98.26,68.09,75.35,64.9c-1.44-.2-3-.28-4.38-.6-.82-.19-1.62-.56-2.43-.82a40.37,40.37,0,0,0-5.2-1.31c-2.88-.5-5.82-.58-8.71-1a53.49,53.49,0,0,1-6-1.31c-1-.27-2.27.74-1.85,1.85,1.44,3.8,4.81,6.64,8,9.07a27.73,27.73,0,0,0,8,4.43,41.68,41.68,0,0,0,8.35,1.71c3.72.47,7.44.9,11.16,1.44,10.15,1.49,20.38,2.26,30.62,2.89,8.73.54,17.36,1.69,26,2.74,9.65,1.16,19.48,2.14,29.17.78,1.9-.26,1.09-3.16-.8-2.89-8.17,1.15-16.57.42-24.73-.47-8.33-.92-16.63-2.25-25-2.86-9.7-.72-19.41-1.19-29.08-2.36-4.28-.51-8.52-1.22-12.8-1.73-3-.35-5.94-.62-8.86-1.24a24.43,24.43,0,0,1-8.23-3.35,35.6,35.6,0,0,1-4.5-3.52c-1.71-1.56-3.59-3.22-4.43-5.44L47.8,62.71a62.4,62.4,0,0,0,10.6,1.86,43.23,43.23,0,0,1,9.15,1.74,19,19,0,0,0,3.12,1l2.15.3,20.69,2.87,29.87,4.15,26,3.61,7.51,1c.52.08,1.09.1,1.61.23a1.89,1.89,0,0,1,.49.19c1.41.58,2.87,1,4.28,1.53A6.41,6.41,0,0,1,166.37,84c.62,1,2.52,1,2.74-.35a37.35,37.35,0,0,0,.31-10.45c-.34-3.08-1-6.12-1.5-9.17-.27-1.61-.51-3.23-.65-4.86-.18-1.93,0-3.89-.24-5.8a4.87,4.87,0,0,0-2-3.5,8.48,8.48,0,0,1-.72-.53c-1.75-1.58-3.4-3.24-5.23-4.74a85.15,85.15,0,0,0-11.36-8,63.88,63.88,0,0,0-35.56-9,71.83,71.83,0,0,0-28.64,7.6,24.87,24.87,0,0,1-2.27,1.23,9.93,9.93,0,0,0-2.91,1.35,8.25,8.25,0,0,0-2.42,4.63c-.4,1.8-.67,3.6-1.18,5.37-.58,2-1.29,3.89-2,5.81A64.94,64.94,0,0,0,69,65.33c-.34,1.89,2.55,2.7,2.89.8Z"/></g></g></svg>