<svg xmlns="http://www.w3.org/2000/svg" viewBox="0 0 235 235"><g id="hair-3"><g class="c-hair"><path d="M137.89,56.3c-.32-4.29-1-9.12-4.73-11.68-2.63-1.77-6.13-2-9.42-2-10.27-.21-21.72.56-28.87,7.34-3.25,3.09-7.7,5-9.06,9.13-4,12.21-10.73,13.89-3.47,24.71l3.8,17.33c1.07.4-1.28-8.08-.21-7.68.44-4.12,3.74-5.85,3.63-10-.09-3.69,7.17-12.73,7.84-16.37,1.27-6.81,7.33-8.12,14-11.41s15.15.78,22,3.58c10.14,4.11,15.93,13.76,20.55,23l-.82-9.69c-.37-4.38-.87-9-3.89-12.44s-9.55-4.52-12.53-1" fill="#ddd"/></g><path id="stroke" d="M154.44,69.76c-.41-3.48-1.17-7-3.32-9.86-2.54-3.37-7.63-5.38-11.78-4.19-.35-4.23-1.09-8.86-4.53-11.71-3.87-3.21-9.45-3-14.18-2.94-9.39,0-19.61,1.18-26.82,7.81-3.21,3-7.58,5-9.26,9.31-.88,2.23-1.67,4.44-2.77,6.59-.86,1.68-1.82,3.31-2.63,5a12,12,0,0,0-.87,9.46,19.73,19.73,0,0,0,1.26,2.82c.39.72,1.06,1.51,1.37,2.18a10.22,10.22,0,0,1,.43,2Q83,93.86,84.69,101.5a1.47,1.47,0,0,0,1,1c2.53.61,2.2-2.54,2-4-.13-1-.3-1.94-.44-2.91-.05-.38-.11-.76-.13-1.15V94.2a2,2,0,0,0,.27-.78c.38-2.89,2.76-5,3.4-7.81.3-1.31.13-2.62.52-3.9a22.3,22.3,0,0,1,1.76-3.89C94.9,74.53,96.9,71.37,98.6,68a17.58,17.58,0,0,1,5.24-6.51,49.32,49.32,0,0,1,7.63-4.22,14.5,14.5,0,0,1,10.11-.79,67.81,67.81,0,0,1,10.21,3.64,30.14,30.14,0,0,1,8.53,5.05c5.51,4.81,9.17,11.29,12.42,17.73a1.51,1.51,0,0,0,2.79-.75C155.18,78,154.93,73.88,154.44,69.76ZM126,54.68a1.87,1.87,0,0,0-.42-1.07c-3.2-4.12-8.76-6.16-13.73-7a1.55,1.55,0,0,0-1.85,1,1.51,1.51,0,0,0,1,1.84A23.23,23.23,0,0,1,121,53.33a19.27,19.27,0,0,0-6-.26,1.82,1.82,0,0,0-.92-.76,25.45,25.45,0,0,0-11.55-1.69,1.5,1.5,0,0,0,0,3,23.82,23.82,0,0,1,8.16.71c-.83.38-1.63.8-2.44,1.2-1.41.7-2.81,1.41-4.15,2.22a20.81,20.81,0,0,0-6.41,5.84,48.9,48.9,0,0,0-2.77,5c-1,1.8-2,3.57-3,5.34-1.68,2.9-3.73,6.09-3.83,9.55a9.6,9.6,0,0,1-1.73,4.79,17.33,17.33,0,0,0-1,2.07c-.15-.71-.31-1.42-.47-2.13a45,45,0,0,0-1-4.77,12.93,12.93,0,0,0-1.29-2.17,16.89,16.89,0,0,1-1.33-2.78,8.15,8.15,0,0,1-.44-4.26c.62-3.16,2.71-6,4.11-8.83,1-2,1.67-4.15,2.54-6.22a11.68,11.68,0,0,1,3.87-4.39c1.68-1.32,3.38-2.56,5-4a21.13,21.13,0,0,1,5.34-3.47,37.49,37.49,0,0,1,12.79-3c2.61-.2,5.24-.26,7.86-.23a27.77,27.77,0,0,1,7.88.76c5.11,1.54,6,6.84,6.32,11.47a1.58,1.58,0,0,0,.28.78,7,7,0,0,0-.94.87,1.42,1.42,0,0,0-.31.5l-.3-.14A97.24,97.24,0,0,0,126,54.68Zm12.06,5.19a6.16,6.16,0,0,1,5.84-1.25,8.59,8.59,0,0,1,5.69,4.43,21.45,21.45,0,0,1,2,8.27c.12,1.27.22,2.55.33,3.82a50,50,0,0,0-8.28-10.94A31.37,31.37,0,0,0,138.06,59.87Z"/></g></svg>