<svg xmlns="http://www.w3.org/2000/svg" viewBox="0 0 235 235"><g id="hair-5"><g class="c-hair"><path d="M155.39,76.23a49.07,49.07,0,0,0-2.16-10.74c-1-2.92-1.76-5.26-4-7.7a35.53,35.53,0,0,0-9.6-7.77h.09a9.13,9.13,0,0,0,2.52-14.35c-2.82-3-7.25-3.79-11.35-4.29-7.53-.91-15.37-1.5-22.53,1-3.33,1.17-6.65,3.24-7.9,6.55s-.24,6.7.72,9.95L103,49c-1.79,1-3.58,2-5.37,3a41.44,41.44,0,0,0-6,4,31.41,31.41,0,0,0-7.05,7.66c-3.49,5-5.54,11.22-4.26,17.18.91,4.24-.42,8.83,2.22,11.76a1.32,1.32,0,0,0,2.24-.57c.43-1.72.35-3.86.8-5.39,3.62-12.42,4.4-11.76,7-16s6.55-7,11.17-8.93,10.19-1.85,15.34-1.67a84.63,84.63,0,0,1,11,1,35.21,35.21,0,0,1,9.9,3.91c4.05,2.93,4.32,3.35,5.86,6.28,2.91,5.52,3.46,9.07,3.77,14.79a23.11,23.11,0,0,0,1.75,8.5,1.48,1.48,0,0,0,2.74-.17C155.9,88.47,155.78,82.23,155.39,76.23Z" /></g><path id="stroke" d="M156.84,75.6a48.72,48.72,0,0,0-2.74-12.16,20,20,0,0,0-2.91-5.61,43.58,43.58,0,0,0-3.16-3.5,19.48,19.48,0,0,0-5.85-4.2,10.71,10.71,0,0,0,3.57-11c-1.38-5-5.93-7.59-10.74-8.57a71.21,71.21,0,0,0-16.48-1.39c-5.21.17-11.07,1.09-15.4,4.23a10.9,10.9,0,0,0-4.52,6.45c-.66,3.2.18,6.43,1.09,9.49a0,0,0,0,0,0,0,33.48,33.48,0,0,0-7.41,4.19c-7.38,5.42-12.78,13-13.47,22.33-.18,2.38,0,4.74,0,7.12a29.09,29.09,0,0,0,.53,6.59c.42,1.71,1.44,4.22,3.33,4.74,2.2.61,3.42-1.24,3.7-3.14.16-1.11.19-2.25.38-3.36a28.55,28.55,0,0,1,1-3.51c.56-1.82,1.13-3.62,1.8-5.4a24.15,24.15,0,0,1,2.54-5c1.57-2.37,3-4.8,5.12-6.72a23.54,23.54,0,0,1,12.42-5.6,70.24,70.24,0,0,1,13.13,0,38.85,38.85,0,0,1,11.59,2.18c3.12,1.17,6.58,2.87,8.68,5.56a22.36,22.36,0,0,1,2.47,4.53,25.78,25.78,0,0,1,2,6.17c.86,4.63.34,9.47,2.07,13.94.68,1.76,2,3.27,4.08,2.57s2.42-3.63,2.77-5.52A57.07,57.07,0,0,0,156.84,75.6ZM152.7,93.69l0,.07C152.73,93.68,152.65,93.63,152.7,93.69Zm1.4-9.08a36.65,36.65,0,0,1-.95,7.38,6,6,0,0,1-.45,1.69c-.55-.58-.79-2.18-1-3-.94-4.12-.59-8.42-1.53-12.55a29.35,29.35,0,0,0-4.48-10.32,19.11,19.11,0,0,0-7.27-5.62A35.46,35.46,0,0,0,127.55,59c-3.55-.41-7.14-.57-10.72-.65-4.7-.11-9.49.09-13.88,1.95a25.52,25.52,0,0,0-9.66,6.66,53.59,53.59,0,0,0-4,5.77,26.39,26.39,0,0,0-2.44,4.94A44.41,44.41,0,0,0,83.7,88.75a17.61,17.61,0,0,1-.23,2.51,3.4,3.4,0,0,1-.3-.39,5.7,5.7,0,0,1-.67-1.41,20.46,20.46,0,0,1-.62-6.09c0-4.33-.35-8.53.9-12.75A27.39,27.39,0,0,1,89.25,60a32.94,32.94,0,0,1,11.06-7.76,27.17,27.17,0,0,1,11.6-1.81c2.14.07,4.27.26,6.4.42,1.93.15,1.92-2.85,0-3-4.42-.35-8.86-.75-13.27,0a23.49,23.49,0,0,0-2.49.54,19.31,19.31,0,0,1-1.16-6.89,7.49,7.49,0,0,1,2.84-5.21c3.29-2.76,8.1-3.71,12.27-4a71.79,71.79,0,0,1,14.35.64c3.77.47,8.35,1.15,10.78,4.43a7.76,7.76,0,0,1-2.71,11.42,1.76,1.76,0,0,0-.34.25,26.59,26.59,0,0,0-4.87-.46,1.5,1.5,0,0,0,0,3,16.5,16.5,0,0,1,9.82,2.81A21.4,21.4,0,0,1,146.42,57a25.18,25.18,0,0,1,3,3.46c2.08,3.18,3.08,7.25,3.8,10.94A58,58,0,0,1,154.1,84.61Z"/><g class="accessory-1"><path d="M77.29,61.65c6.06-3.55,12.78-4.58,19.26-4.34s12.81,1.69,19.17,2.87c11.68,2.16,23.68,3.47,34.46,8.91,3.39,1.71,8.49,3.14,10.66,6.75,1.6-9.17-1.87-14.93-1.8-24.17a5.17,5.17,0,0,0-.21-1.86c-.3-.8-.84-3.85-1.48-4.25a263.4,263.4,0,0,0-25.44-14.15,30.6,30.6,0,0,0-6.62-1.6,39.6,39.6,0,0,0-6.54-.64c-17.56,1.59-18.87,2.56-30.91,8.1a7.73,7.73,0,0,0-2.42,1.13c-1.07,1.05-1.43,2.83-1.7,4.45C82.66,49,77.88,55.1,76.83,61.28" fill="#00204a"/><path d="M160.84,75.84c-13.27,1.91-30.57-2.07-43.95-2.88-9.85-.59-19.71-1.24-29.46-2.73-12-1.84-16.56-.55-25.29-9a11.2,11.2,0,0,1-3-4.15c9,2.46,10.17.59,19,3.8l23.49-14L161.2,73Z" fill="#00204a"/><path d="M124.19,54.22a7.27,7.27,0,0,0-2.72-2.29l.31,2.36c1.73-1.36,2.3-3.72,2.44-5.81a10.27,10.27,0,0,0-1.44-6.15c-2.22-3.43-7.39-4.8-10.51-1.71a1.5,1.5,0,0,0,2.12,2.13,3.25,3.25,0,0,1,3-.78,4.35,4.35,0,0,1,3,2.22,7.58,7.58,0,0,1,.82,4.19,5,5,0,0,1-1.56,3.78,1.51,1.51,0,0,0,.3,2.36c.24.11.49.22.72.34l.3.19c-.16-.1-.15-.14,0,0,.39.42.74.85,1.11,1.29a1.51,1.51,0,0,0,2.12,0,1.53,1.53,0,0,0,0-2.12Z" fill="#fff"/><path d="M115.58,54.14a3.86,3.86,0,0,1-4.33.39,4.43,4.43,0,0,1-2-4.07,11,11,0,0,1,.34-2.79,16.67,16.67,0,0,0,.78-2.93c.09-1.54-1.06-2.85-2-4a1.51,1.51,0,0,0-2.13,0,1.55,1.55,0,0,0,0,2.12s.16.2,0,0,.2.27.23.31c.22.3.43.6.63.92.44.71-.17,1.6-.38,2.35a11.89,11.89,0,0,0-.13,6.84,6.81,6.81,0,0,0,10.4,3.39,1.54,1.54,0,0,0,.54-2,1.51,1.51,0,0,0-2-.54Z" fill="#fff"/><path d="M115.14,47.64l-.82.62.76-.21h0l.39.06-.19-.06.36.15a.72.72,0,0,1-.19-.11l.3.23a.91.91,0,0,1-.17-.17l.23.3a1.13,1.13,0,0,1-.12-.21l.15.35a.88.88,0,0,1-.07-.23l0,.4a1.33,1.33,0,0,1,0-.2l0,.4a.75.75,0,0,1,0-.16l-.15.36a.63.63,0,0,1,.07-.12l-.23.3a.47.47,0,0,1,.1-.1l-.31.24a.21.21,0,0,1,.1-.06l-.36.15.11,0-.4.05h.15l-.4-.05a.43.43,0,0,1,.16.05l-.36-.16a.78.78,0,0,1,.18.11l-.3-.23a.67.67,0,0,1,.15.14l-.24-.3a.67.67,0,0,1,.09.14l-.16-.36a.56.56,0,0,1,0,.12l-.06-.4a.17.17,0,0,1,0,.1l.06-.4,0,.09.15-.36a.22.22,0,0,1,0,.08l.24-.3,0,0a1.14,1.14,0,0,0-.31.48,1.36,1.36,0,0,0,0,1.16,1.08,1.08,0,0,0,.31.48l.3.24a1.57,1.57,0,0,0,.76.2l.4-.05a1.44,1.44,0,0,0,.66-.39l0,0a2.85,2.85,0,0,0,.25-.33.05.05,0,0,0,0,0h0a3.08,3.08,0,0,0,.16-.38,1.47,1.47,0,0,0,.08-.55c0-.13,0-.3-.06-.43s0,0,0,0a2.89,2.89,0,0,0-.18-.44s0,0,0-.08-.19-.25-.29-.37A2.17,2.17,0,0,0,116,47a.62.62,0,0,0-.17-.11,4,4,0,0,0-.44-.17,2.53,2.53,0,0,0-.48-.08h-.14c-.14,0-.3,0-.44.06a1.7,1.7,0,0,0-.52.22,2.41,2.41,0,0,0-.67.68,2.09,2.09,0,0,0-.3,1.14,4.1,4.1,0,0,0,.06.49l0,.11a2.33,2.33,0,0,0,.11.28,2.39,2.39,0,0,0,.13.28l.06.1a3.57,3.57,0,0,0,.3.38.3.3,0,0,0,.08.08,2.88,2.88,0,0,0,.39.3.41.41,0,0,0,.11.07,3.85,3.85,0,0,0,.47.19,1.64,1.64,0,0,0,.32.05l.21,0a1.06,1.06,0,0,0,.58-.13.46.46,0,0,0,.19-.08l.09-.07.72-.54a1.18,1.18,0,0,0,.42-.38,1.26,1.26,0,0,0,.27-.51,1.22,1.22,0,0,0,0-.6,1.12,1.12,0,0,0-.18-.56l-.24-.3a1.44,1.44,0,0,0-.66-.39l-.4-.05a1.57,1.57,0,0,0-.76.2Z" fill="#00bbf0"/><path d="M80.09,60.73c1-5.84,4.07-11.06,5.35-16.84.26-1.18.38-2.41.75-3.56A3.61,3.61,0,0,1,87,38.79c.6-.56,1.42-.57,2.12-.9.33-.16.65-.38,1-.56A57.13,57.13,0,0,1,110.38,31a51.24,51.24,0,0,1,30,5.56,66.19,66.19,0,0,1,15.51,11.16,13.77,13.77,0,0,0,1.11,1c.51.38.94.56,1.05,1.26a17.81,17.81,0,0,1,0,2.31c0,1.56.2,3.11.4,4.65.81,6,2.44,11.77,1.42,17.87l2.74-.36a8.66,8.66,0,0,0-3-3.12,19.24,19.24,0,0,0-3.37-1.26,15.12,15.12,0,0,0-2.3-.84c-1.6-.27-3.23-.45-4.85-.67l-20.83-2.9-26-3.6L82.83,59.41c-1.22-.17-2.5-.24-3.71-.51-2.2-.5-4.27-1.42-6.53-1.81-2.41-.42-4.87-.5-7.3-.87a49,49,0,0,1-5.22-1.13c-1-.27-2.27.74-1.85,1.84,1.25,3.25,4.06,5.67,6.74,7.76a24.37,24.37,0,0,0,6.84,3.83A34.29,34.29,0,0,0,79,70c3.19.42,6.39.77,9.57,1.24,8.67,1.27,17.42,1.93,26.17,2.47,7.43.46,14.77,1.44,22.15,2.33,8.25,1,16.63,1.82,24.9.66,1.91-.26,1.1-3.15-.79-2.89-6.9,1-14,.35-20.89-.4-7-.77-14.07-1.9-21.15-2.43-8.21-.62-16.43-1-24.62-2-3.74-.44-7.47-1.06-11.22-1.51-2.48-.29-5-.52-7.44-1a20.6,20.6,0,0,1-7-2.85,29.72,29.72,0,0,1-3.72-2.9c-1.44-1.31-3-2.72-3.76-4.58L59.27,58a54.56,54.56,0,0,0,9.06,1.59,37.06,37.06,0,0,1,7.8,1.49,23.92,23.92,0,0,0,4.43,1l17.5,2.43,25.53,3.55,22.15,3.07,6.39.89a22.71,22.71,0,0,1,5.42,1.65A5.28,5.28,0,0,1,160.06,76c.62,1,2.52,1,2.74-.35,1-5.72,0-11.08-1-16.71a77.65,77.65,0,0,1-.74-8.74A4.46,4.46,0,0,0,159.63,47c-.39-.34-.65-.44-.93-.68-1.46-1.27-2.79-2.68-4.29-3.92a73.87,73.87,0,0,0-9.6-6.78,54.65,54.65,0,0,0-30.64-7.9,61.31,61.31,0,0,0-24.56,6.51c-.63.32-1.26.78-1.92,1a8.24,8.24,0,0,0-2.48,1.14,6.84,6.84,0,0,0-2.06,3.69c-.4,1.56-.6,3.15-1,4.71-.48,1.71-1.09,3.37-1.72,5a57.66,57.66,0,0,0-3.2,10.11c-.34,1.88,2.55,2.69,2.9.79Z"/></g></g></svg>