<svg xmlns="http://www.w3.org/2000/svg" viewBox="0 0 235 235"><g id="hair-2"><g class="c-hair"><path d="M133.44,53.07C96.25,40.54,84.63,65.38,81.27,71.72s11.86,6.79,11.86,6.79c4.64-.24,8.49-5.18,13.09-4.38,6.61,1.15,14.09,7.5,20.71,6.52,4.52-.67,7.82-6.9,12.36-6.78,3,.08,6.63,3,9.65,6.17,1.95,2,5.16.59,5.26-2.36C154.43,70.38,151.5,59.15,133.44,53.07Z" /></g><path id="stroke" d="M155.69,75.9a23.41,23.41,0,0,0-1.41-7.17c-2.45-6.51-7.72-11.28-13.83-14.37a52.27,52.27,0,0,0-6.61-2.74c-13.23-4.42-28.63-5.7-40.54,2.83a38.77,38.77,0,0,0-9.47,9.86c-.93,1.37-1.78,2.79-2.57,4.24a15.09,15.09,0,0,0-1.88,4c-1,5.52,7.08,6.75,10.86,7.2a12.22,12.22,0,0,0,5.28-.2c3.69-1.15,7.07-4.79,11.15-3.83,7.5,1.76,16.21,10,24,5,1.59-1,3-2.33,4.45-3.49,1.26-1,2.79-2,4.47-1.84,2.26.27,4.37,2,6,3.5s2.89,3.41,5.16,3.58A4.64,4.64,0,0,0,155,80.16,7.67,7.67,0,0,0,155.69,75.9Zm-4.06,3.48a1.46,1.46,0,0,1-1.41-.19,33.82,33.82,0,0,1-2.66-2.57A19.45,19.45,0,0,0,142,73c-3.67-1.45-6.74.35-9.55,2.65a26,26,0,0,1-4,3,7.47,7.47,0,0,1-5,.45c-4.15-.85-7.87-3.12-11.74-4.75a20,20,0,0,0-5.74-1.71,10.28,10.28,0,0,0-5.4,1.24C98.07,75,95.55,77.09,92.74,77a29.72,29.72,0,0,1-5.16-.65,18,18,0,0,1-3.12-.91,5.28,5.28,0,0,1-1.93-1.3c-.36-.5-.31-.93.08-1.73.21-.45.46-.89.7-1.34.66-1.25,1.35-2.48,2.1-3.68a37.26,37.26,0,0,1,7.42-8.78c9.42-8.09,22.21-8.75,33.84-5.94,2.15.52,4.27,1.15,6.37,1.86,6.66,2.27,13.36,5.94,17,12.21a20.17,20.17,0,0,1,2.4,6.69C152.69,74.9,153.45,78.63,151.63,79.38Z"/></g></svg>