<svg xmlns="http://www.w3.org/2000/svg" viewBox="0 0 235 235"><g id="hair-10"><g class="c-hair"><path d="M166.24,144.31c-.39-3.4-.85-4.86-.65-8.28.6-10.23-2.56-20.41-2-30.64q-.64-.17-1.29-.27a16.13,16.13,0,0,0,3-7.38c.13-.92-2.56-8.93-3-9.74-1.1-2.12-1.32-5.26-1.85-7.07-2.35-8-.89-15.32-5.33-22.46-3.13-5-8.18-8.71-13.61-11.19a54.34,54.34,0,0,0-6.14-2.36c-1.57-1.7-5.41-2.27-9.1-2.49L124.43,42,122,41.87c.09.14.17.28.25.42-1.07,0-2,0-2.78-.07L118.15,42a47.39,47.39,0,0,0-32,9.92,46.47,46.47,0,0,0-17,28.61c-1.39,8.49-.39,17.38-3.06,25.57-1.18,3.63-3.08,7.07-3.6,10.86-.79,5.65,1.57,11.37.86,17-.59,4.66-3.24,9.07-2.79,13.75.16,1.69,1.53,3.61.63,5.06-10.94,17.58-6,25.1-7.43,31.91a4.07,4.07,0,0,0,6.57,4c2.33-1.93,5.12-1.68,7.9-2.47-.23,14.32,2,6.19.32,20.41-.57,4.88,2.39,3.73,2.78,4S79.17,215,79.58,215c5.72,0,5.68-9.09,11.4-9.09a5.47,5.47,0,0,0,2.24-.31c2-.85,2.27-3.65,1.43-5.64s-2.41-3.61-3.18-5.62c-1.66-4.33.74-9,1.21-13.63.71-7.09-3.25-13.91-3.25-21,0-4.81.25-8.32-.52-13.07-.64-4-1.46-8.8-1.89-12.8-.72-6.58,4-12.8,3.55-19.4-.38-5.54-4.32-10.37-4.73-15.91-.56-7.78,5.88-14.5,6.52-22.26.2-2.41-.17-4.89.5-7.22,1.46-5.14,7.2-7.68,12.36-9.22a131.62,131.62,0,0,1,18-4,27.77,27.77,0,0,1,3.07.28v.12l.39-.08c3.39.4,8,.94,8.16.35a20.59,20.59,0,0,1,7.82,4.22c4.44,3.83,7.23,9.26,8.71,14.9,1.41,5.38,2.1,27.19,2.21,34.2-1.63,4.36-3.49,14.12-5,17.55s1,6.66-1.61,9.31c-3,3-3.43,4-6.71,6.79l-5.43,9.74c1,3,2.4,5.88,2.91,9,.9,5.57-3,8.29-2.91,13.94,0,3.92.06,11.71,0,15.63-.06,4.63-.42,8.21-.09,12.83,0,.41,1.64.81,1.95,1.08a1.71,1.71,0,0,0,.94.32c4,.51,10.54,4.71,14.58,4.71,1.32,0,2.89-.17,3.51-1.32.29-.54-1-5-1.07-5.62-.16-6.58-3.87-13-2.17-19.35,1-3.64,5.35-5.45,5.72-9.19.38-3.92-3.49,10.84-2.53,7,1.74,0,3.34.85,5,1.42s5.93,4.17,7.29,3.1,1.29-27.95,1.49-29.59C169.92,152.72,167.17,152.36,166.24,144.31Z"  /></g><path id="stroke" d="M67.51,139.11c-1,4.58-2.07,9.3-1.59,14,.46,4.46,2.17,8.76,1.78,13.29-.2,2.32-.83,4.58-1.19,6.87a25,25,0,0,0-.17,6.91c.26,2.27.73,4.51,1,6.79a26.64,26.64,0,0,1-.29,6.67c-.73,4.64-1.73,9.29.31,13.75.81,1.75,3.39.23,2.59-1.51-1.7-3.73-.53-8,.06-11.88a28.89,28.89,0,0,0,.4-6.09c-.13-2.26-.56-4.49-.89-6.73a23.59,23.59,0,0,1-.14-6.66c.29-2.13.85-4.22,1.16-6.36.64-4.41-.38-8.44-1.21-12.74-1-5.28,0-10.37,1.12-15.53.42-1.88-2.47-2.69-2.89-.8Z"/><path id="stroke-2" data-name="stroke" d="M158.59,139.41c.67,4.75-.42,9.52-1.34,14.15s-1.62,9.34-1,14.14a29.93,29.93,0,0,1,.47,7.13c-.27,2.36-1.62,4.17-2.82,6.13a19.12,19.12,0,0,0-2.32,12.85,43.11,43.11,0,0,0,1.93,7.21c.79,2.38,1.71,5.18.64,7.63-.77,1.75,1.82,3.28,2.59,1.51,2-4.6-.19-9-1.47-13.42s-1.51-9.42.8-13.55c1.15-2.07,2.65-3.91,3.29-6.24a18.71,18.71,0,0,0,.15-7.23,42.28,42.28,0,0,1-.5-7.37,53.43,53.43,0,0,1,1-7.33c1.07-5.44,2.25-10.84,1.47-16.41-.26-1.9-3.15-1.09-2.89.8Z"/><path id="stroke-3" data-name="stroke" d="M152.41,110.27c0,6.33-4.57,11.23-5.44,17.38a31.75,31.75,0,0,0-.14,4.47,4.76,4.76,0,0,1-.83,3.32c-1.73,2.07-4.13,3.48-5.86,5.52-2,2.37-2.38,5.36-3.85,8-.82,1.48-2.56,2.3-2.52,4.1a13.6,13.6,0,0,0,1.27,4.58c1.41,3.67.45,7.58-.36,11.27-.86,3.87-1.62,7.75-.8,11.69.43,2.07,1.25,4.07,1.48,6.18.26,2.27-.6,4.33-1.15,6.49a33.29,33.29,0,0,0-.57,13.37c.29,1.9,3.18,1.09,2.89-.8a33.07,33.07,0,0,1,1.27-14.22,13.72,13.72,0,0,0,.32-6.52c-.44-2.24-1.34-4.38-1.56-6.66-.46-4.69,1.36-9.27,2-13.86a16.38,16.38,0,0,0-.18-6.47c-.52-1.93-1.66-3.6-1.58-5.66l-.44,1.06a11.27,11.27,0,0,0,3.07-4.1c.64-1.43,1-3,1.68-4.37,1.28-2.8,4.11-4.43,6.21-6.58a8,8,0,0,0,2.22-3.26,16.43,16.43,0,0,0,.28-4.8c-.06-3.33,1.11-6.34,2.54-9.3,1.68-3.48,3.07-6.88,3.07-10.81a1.5,1.5,0,0,0-3,0Z"/><path id="stroke-4" data-name="stroke" d="M117.82,55.52a19.41,19.41,0,0,1-6.76,1.87,34.67,34.67,0,0,0-5.17.67A27.81,27.81,0,0,0,97,61.65a15.09,15.09,0,0,0-6.14,6.89c-1.62,4,0,8.38-1,12.54s-3.79,7.55-5.31,11.49-1.11,7.73.08,11.55,2.9,7.19,3.64,11a12.93,12.93,0,0,1-.17,5.87c-.58,2.17-1.55,4.19-2.24,6.32-1.57,4.88-.64,9.76.51,14.62a43.94,43.94,0,0,1,1.38,7.73,45.3,45.3,0,0,1-.52,8.22c-.23,1.91,2.77,1.89,3,0A40.34,40.34,0,0,0,90,144.18c-.91-4.28-2.42-8.66-1.9-13.09s3.14-8,3.44-12.34c.27-3.78-1.06-7.46-2.37-10.94S86.33,100.75,86.58,97c.28-4,2.93-7.4,4.62-10.92a20.57,20.57,0,0,0,1.93-6.21,45.68,45.68,0,0,0,0-6.92,9.58,9.58,0,0,1,4-7.66A23.19,23.19,0,0,1,106.4,61a46.37,46.37,0,0,1,5.87-.73,22.45,22.45,0,0,0,7.06-2.18c1.76-.79.24-3.38-1.51-2.59Z"/><path id="stroke-5" data-name="stroke" d="M71,212.57a11.62,11.62,0,0,1,5.1,2.12c1.41,1.07,2.46,2.57,4.44,2.44,1.79-.12,3.23-1.53,4.3-2.84s1.73-3.08,2.76-4.52,2.81-1.09,4.23-1.48a5,5,0,0,0,3.42-3c1.39-3.66-1.24-6.64-2.45-9.87a16,16,0,0,1,.49-12.4c.82-1.73-1.76-3.26-2.59-1.51a19.27,19.27,0,0,0-1.35,12.92A35,35,0,0,0,92,200.5c.67,1.45,1.36,4-.59,4.79s-3.85.37-5.44,1.85-2,3.6-3.35,5.19c-.49.59-1.47,1.91-2.37,1.82s-1.82-1.47-2.44-1.94a14.21,14.21,0,0,0-6-2.54c-1.88-.32-2.7,2.57-.79,2.9Z"/><path id="stroke-6" data-name="stroke" d="M170.09,170.72a54.89,54.89,0,0,1-.48-10.4c.32-3.35,1.15-6.65.54-10-.56-3.09-2.67-5.65-3.09-8.78-.45-3.31.35-6.67.06-10a58.74,58.74,0,0,0-2-9.8,35.67,35.67,0,0,1-1.68-9.65,26.55,26.55,0,0,1,2-9.46,15.3,15.3,0,0,0,1.31-4.37,11.85,11.85,0,0,0-.34-3.93,16.28,16.28,0,0,0-2.2-4.79,15.19,15.19,0,0,1-1.91-5.89,75.76,75.76,0,0,1-.86-8.5c-.15-3.36,0-6.75-.88-10a24.26,24.26,0,0,0-3.36-7.33c-7.54-11.23-21.84-17.15-35.08-16.84a1.41,1.41,0,0,0-.57.12,1.6,1.6,0,0,0-.84-.34A50.54,50.54,0,0,0,84.3,51.45a49.76,49.76,0,0,0-18,31.81,81.37,81.37,0,0,0-.76,10.81c0,3.6.35,7.24.16,10.83a11.17,11.17,0,0,1-1.47,5,30.07,30.07,0,0,0-2.41,4.73c-1,2.84-.75,5.89-.34,8.81s1.1,6,.85,9c-.27,3.25-2.38,5.75-3.44,8.75a17.22,17.22,0,0,0-.14,10,9,9,0,0,1,.36,4.6,8.83,8.83,0,0,1-1.84,3.07c-1.71,2.07-3.68,4.1-4,6.9-.2,1.74.29,3.43.09,5.19-.22,2-.49,4-.67,6s-.31,4-.35,6c0,1.69-.35,3.88.35,5.47s2.68,1.93,4.32,2a4.7,4.7,0,0,0,4.38-2.06c1.06-1.62-1.53-3.13-2.59-1.52-.51.8-3.12.9-3.44,0a7.7,7.7,0,0,1,0-2.25c0-1,0-1.92.05-2.87.14-3.46.54-6.89.94-10.32a19.84,19.84,0,0,0-.06-4.22A5,5,0,0,1,57,164c1.15-1.93,2.92-3.42,4.08-5.35,1.45-2.43,1.36-5,.73-7.67-.76-3.25-1.13-6.25.14-9.45,1.14-2.87,2.92-5.22,3.31-8.37a30.18,30.18,0,0,0-.55-8.37c-.42-2.7-.93-5.57-.31-8.28.71-3.08,3.08-5.43,3.86-8.49s.4-6.47.33-9.67a104.13,104.13,0,0,1,.21-10.45c.92-12,5.71-23.23,14.5-31.62A47.44,47.44,0,0,1,120,43.66a15.12,15.12,0,0,1,4.93,12.56,1.16,1.16,0,0,0,.21.77,1.31,1.31,0,0,0,1.39,1c4.2-.13,8.6-.26,12.36,1.93a21.5,21.5,0,0,1,7.94,8.83c4.11,7.87,4.17,17,4,25.66-.05,1.93,2.95,1.93,3,0,.17-7.56.12-15.35-2.4-22.57C149.19,65.6,145,59.26,138.7,56.52c-3.39-1.47-7.08-1.6-10.73-1.53a18,18,0,0,0-3.65-11.05c10.63.31,21.39,4.76,28.41,12.86A23.86,23.86,0,0,1,157,63.7a26,26,0,0,1,1.41,8.79c.07,2.86.3,5.68.6,8.52a31.62,31.62,0,0,0,1.45,7.55,27.36,27.36,0,0,0,2,3.71,9.93,9.93,0,0,1,1.33,6.15,18.64,18.64,0,0,1-1.34,3.82A30.65,30.65,0,0,0,161,107a26.4,26.4,0,0,0-.28,9c.92,6.22,3.67,12,3.48,18.45-.09,3.14-.62,6.32.31,9.4.86,2.87,2.72,5.31,2.86,8.4.17,3.54-.92,7-.87,10.55s.6,7.32.87,11c.24,3.4.59,7.31-.35,10.63-.25.88-.3.58-1,.17a13.43,13.43,0,0,0-2.25-1.11,12,12,0,0,0-5-.7c-1.92.13-1.93,3.13,0,3a9.16,9.16,0,0,1,4.59.78c1.35.63,2.56,1.85,4.17,1.44,2.84-.71,2.82-5.16,2.92-7.43A71,71,0,0,0,170.09,170.72Z"/><g class="accessory-1"><path d="M78.41,55.87c6.07-3.55,12.78-4.58,19.26-4.34s12.82,1.69,19.17,2.87c11.68,2.16,23.68,3.48,34.46,8.91,3.39,1.71,8.49,3.14,10.66,6.75,1.6-9.17-1.87-14.93-1.8-24.17A5,5,0,0,0,160,44c-.3-.79-.84-3.85-1.48-4.25A262.22,262.22,0,0,0,133,25.63a30.66,30.66,0,0,0-6.61-1.6,40.94,40.94,0,0,0-6.55-.64C102.31,25,101,26,89,31.5a7.49,7.49,0,0,0-2.42,1.12c-1.07,1.05-1.43,2.83-1.7,4.45C83.79,43.26,79,49.32,78,55.5" fill="#00204a"/><path d="M162,70.06C148.69,72,131.39,68,118,67.18c-9.85-.59-19.7-1.24-29.46-2.73-12-1.84-16.56-.55-25.29-9a11.12,11.12,0,0,1-3-4.15c9,2.46,10.17.59,19,3.8l23.49-14,59.59,26.05Z" fill="#00204a"/><path d="M125.31,48.44a7.31,7.31,0,0,0-2.71-2.29l.3,2.36c1.73-1.36,2.3-3.72,2.44-5.81a10.27,10.27,0,0,0-1.44-6.15c-2.22-3.43-7.39-4.79-10.51-1.7A1.5,1.5,0,0,0,115.51,37a3.25,3.25,0,0,1,3-.78,4.35,4.35,0,0,1,3,2.22,7.59,7.59,0,0,1,.83,4.19,5,5,0,0,1-1.57,3.78,1.51,1.51,0,0,0,.3,2.36c.24.11.49.22.72.35s.2.12.3.18c-.15-.1-.14-.14,0,0,.39.42.75.85,1.11,1.29a1.51,1.51,0,0,0,2.12,0,1.53,1.53,0,0,0,0-2.12Z" fill="#fff"/><path d="M116.7,48.36a3.86,3.86,0,0,1-4.33.39,4.44,4.44,0,0,1-2-4.07,10.57,10.57,0,0,1,.35-2.79,17.56,17.56,0,0,0,.77-2.93c.1-1.54-1.06-2.85-2-4a1.5,1.5,0,0,0-2.12,0,1.53,1.53,0,0,0,0,2.12l0,0,.23.31c.22.3.44.61.63.92.44.71-.16,1.6-.38,2.35a11.89,11.89,0,0,0-.13,6.84A6.82,6.82,0,0,0,118.21,51a1.54,1.54,0,0,0,.54-2.05,1.51,1.51,0,0,0-2-.54Z" fill="#fff"/><path d="M116.27,41.86l-.82.62.75-.21h0l.4.06a.6.6,0,0,1-.19-.06l.35.16a.76.76,0,0,1-.19-.12l.3.23a1.37,1.37,0,0,1-.17-.17l.23.3a1.13,1.13,0,0,1-.12-.21l.15.36a1.09,1.09,0,0,1-.07-.24l.06.4a1.27,1.27,0,0,1,0-.2l-.05.4a.49.49,0,0,1,.05-.16l-.16.36.07-.12-.23.3.1-.1-.31.24a.33.33,0,0,1,.1-.06l-.36.15.11,0-.4.05H116l-.4-.06.16.05-.36-.15a.69.69,0,0,1,.19.1l-.31-.23a.67.67,0,0,1,.15.14l-.23-.3a.64.64,0,0,1,.08.14l-.15-.36,0,.12-.06-.4a.31.31,0,0,1,0,.1l0-.4a.32.32,0,0,1,0,.09l.15-.36,0,.08.23-.3s0,0,0,0a1.24,1.24,0,0,0-.31.48,1.29,1.29,0,0,0-.13.58,1.27,1.27,0,0,0,.13.58,1.11,1.11,0,0,0,.31.48l.31.24a1.5,1.5,0,0,0,.75.2l.4,0a1.39,1.39,0,0,0,.66-.39l0,0a2.85,2.85,0,0,0,.25-.33l0,0h0a3.08,3.08,0,0,0,.16-.38,1.47,1.47,0,0,0,.08-.55c0-.13,0-.3-.06-.43s0,0,0,0a2.14,2.14,0,0,0-.18-.44l0-.08c-.09-.13-.19-.25-.28-.37a2.54,2.54,0,0,0-.45-.36l-.17-.11a3.83,3.83,0,0,0-.43-.17,2.07,2.07,0,0,0-.49-.07h-.14c-.14,0-.3,0-.44.06a1.55,1.55,0,0,0-.51.22,2.17,2.17,0,0,0-.67.68,1.75,1.75,0,0,0-.24.54,2,2,0,0,0-.07.6,4.1,4.1,0,0,0,.06.49l0,.11a2.33,2.33,0,0,0,.11.28,2.39,2.39,0,0,0,.13.28l.06.1c.1.13.19.26.3.38a.3.3,0,0,0,.08.08,3.68,3.68,0,0,0,.39.3l.11.07a3.85,3.85,0,0,0,.47.19,3,3,0,0,0,.32.06l.21,0a1.14,1.14,0,0,0,.58-.12.56.56,0,0,0,.19-.09l.09-.07.72-.53a1.13,1.13,0,0,0,.42-.39,1.26,1.26,0,0,0,.27-.51,1.22,1.22,0,0,0,0-.6,1.12,1.12,0,0,0-.18-.56l-.24-.3a1.39,1.39,0,0,0-.66-.39l-.4-.05a1.5,1.5,0,0,0-.75.2Z" fill="#00bbf0"/><path d="M81.21,55c1-5.84,4.07-11.06,5.35-16.84.26-1.18.38-2.4.75-3.56A3.61,3.61,0,0,1,88.14,33c.6-.56,1.42-.56,2.12-.9.34-.16.65-.38,1-.56a56.91,56.91,0,0,1,20.26-6.3,51.21,51.21,0,0,1,30,5.55A66.34,66.34,0,0,1,157,42a12.21,12.21,0,0,0,1.11,1c.51.38.94.57,1,1.26a17.94,17.94,0,0,1,0,2.32c0,1.55.2,3.1.4,4.64.81,6,2.44,11.78,1.42,17.87l2.74-.36a8.74,8.74,0,0,0-3-3.12,19.24,19.24,0,0,0-3.37-1.26,15.4,15.4,0,0,0-2.29-.84c-1.61-.27-3.24-.45-4.85-.67L129.47,60l-26-3.61L84,53.63c-1.22-.16-2.5-.24-3.7-.51C78,52.62,76,51.7,73.72,51.31c-2.42-.42-4.88-.5-7.31-.87a49,49,0,0,1-5.22-1.13c-1-.27-2.27.74-1.84,1.85,1.24,3.25,4,5.66,6.74,7.75a24.18,24.18,0,0,0,6.83,3.83,34.91,34.91,0,0,0,7.17,1.51c3.19.41,6.38.76,9.56,1.23,8.68,1.28,17.42,1.93,26.17,2.47,7.43.46,14.77,1.44,22.15,2.33,8.25,1,16.63,1.82,24.91.66,1.9-.26,1.09-3.15-.8-2.89-6.9,1-14,.35-20.89-.4-7.05-.77-14.07-1.89-21.14-2.43-8.22-.62-16.44-1-24.62-2-3.75-.44-7.48-1.06-11.22-1.5-2.49-.3-5-.53-7.45-1.05a20.56,20.56,0,0,1-7-2.85A28.81,28.81,0,0,1,66,54.94c-1.44-1.31-3-2.72-3.76-4.58L60.39,52.2a54.74,54.74,0,0,0,9.06,1.59,37.06,37.06,0,0,1,7.8,1.49,23.92,23.92,0,0,0,4.43,1l17.5,2.43,25.53,3.55,22.15,3.07,6.39.89a22.71,22.71,0,0,1,5.42,1.65,5.28,5.28,0,0,1,2.51,2.34c.62,1,2.52,1,2.74-.35,1-5.72,0-11.08-1-16.71a77.65,77.65,0,0,1-.74-8.74,4.48,4.48,0,0,0-1.44-3.24c-.39-.34-.65-.44-.93-.68-1.46-1.27-2.79-2.68-4.29-3.92a73.2,73.2,0,0,0-9.6-6.78,54.63,54.63,0,0,0-30.64-7.9,61.35,61.35,0,0,0-24.56,6.51c-.63.32-1.26.78-1.92,1a8.14,8.14,0,0,0-2.48,1.15,6.78,6.78,0,0,0-2.06,3.68c-.4,1.56-.59,3.16-1,4.71-.49,1.71-1.1,3.37-1.72,5a56.87,56.87,0,0,0-3.21,10.11C78,56,80.87,56.85,81.21,55Z"/></g></g></svg>