<svg xmlns="http://www.w3.org/2000/svg" viewBox="0 0 235 235"><g id="hair-8"><g class="c-hair"><path d="M166.24,144.31c-.39-3.4-.85-4.86-.65-8.28.6-10.23-2.56-20.41-2-30.64q-.64-.17-1.29-.27a16.13,16.13,0,0,0,3-7.38c.13-.92-2.56-8.93-3-9.74-1.1-2.12-1.32-5.26-1.85-7.07-2.35-8-.89-15.32-5.33-22.46-3.13-5-8.18-8.71-13.61-11.19a54.34,54.34,0,0,0-6.14-2.36c-1.57-1.7-5.41-2.27-9.1-2.49L124.43,42,122,41.87c.09.14.17.28.25.42-1.07,0-2,0-2.78-.07L118.15,42a47.39,47.39,0,0,0-32,9.92,46.47,46.47,0,0,0-17,28.61c-1.39,8.49-.39,17.38-3.06,25.57-1.18,3.63-3.08,7.07-3.6,10.86-.79,5.65,1.57,11.37.86,17-.59,4.66-3.24,9.07-2.79,13.75.16,1.69.73,3.36.63,5.06-.32,5.49-7.32,9.14-7,14.63,5.4-2.47,8.27-1.66,14-3.27-.23,14.32,2,28.22.32,42.44-.57,4.88,2.39,3.73,2.78,4S79.17,215,79.58,215c5.72,0,5.68-9.09,11.4-9.09a5.47,5.47,0,0,0,2.24-.31c2-.85,2.27-3.65,1.43-5.64s-2.41-3.61-3.18-5.62c-1.66-4.33.74-9,1.21-13.63.71-7.09-3.25-13.91-3.25-21,0-4.81.25-8.32-.52-13.07-.64-4-1.46-8.8-1.89-12.8-.72-6.58,4-12.8,3.55-19.4-.38-5.54-4.32-10.37-4.73-15.91-.56-7.78,5.88-14.5,6.52-22.26.2-2.41-.17-4.89.5-7.22,1.46-5.14,7.2-7.68,12.36-9.22a131.62,131.62,0,0,1,18-4,27.77,27.77,0,0,1,3.07.28v.12l.39-.08c3.39.4,8,.94,8.16.35a20.59,20.59,0,0,1,7.82,4.22c4.44,3.83,7.23,9.26,8.71,14.9,1.41,5.38,2.1,27.19,2.21,34.2-1.63,4.36-3.49,14.12-5,17.55s1,6.66-1.61,9.31c-3,3-3.43,4-6.71,6.79l-5.43,9.74c1,3,2.4,5.88,2.91,9,.9,5.57-3,8.29-2.91,13.94,0,3.92.06,11.71,0,15.63-.06,4.63-.42,8.21-.09,12.83,0,.41,1.64.81,1.95,1.08a1.71,1.71,0,0,0,.94.32c4,.51,10.54,4.71,14.58,4.71,1.32,0,2.89-.17,3.51-1.32.29-.54-1-5-1.07-5.62-.16-6.58-3.87-13-2.17-19.35,1-3.64,5.35-5.45,5.72-9.19.38-3.92-2.89-9.84-1.93-13.67,1.74,0,3.34.85,5,1.43s5.93,4.17,7.29,3.1.69-7.27.89-8.91C169.92,152.72,167.17,152.36,166.24,144.31Z" /></g><g id="stroke"><path d="M69.9,205.9c-1.7-3.73-.53-8,.06-11.88a29.57,29.57,0,0,0,.4-6.09c-.13-2.26-.56-4.49-.89-6.73a23.59,23.59,0,0,1-.14-6.66c.29-2.13.85-4.22,1.16-6.36.64-4.41-.38-8.44-1.21-12.74-1-5.28,0-10.37,1.12-15.53.42-1.88-2.47-2.69-2.89-.8-1,4.58-2.07,9.3-1.59,14,.46,4.46,2.17,8.76,1.78,13.29-.2,2.32-.83,4.58-1.19,6.87a24.93,24.93,0,0,0-.17,6.9c.26,2.28.73,4.52,1,6.8a26.64,26.64,0,0,1-.29,6.67c-.73,4.64-1.73,9.29.31,13.75C68.12,209.16,70.7,207.64,69.9,205.9Z"/><path d="M158.59,139.41c.67,4.75-.42,9.52-1.34,14.15s-1.62,9.34-1,14.14a29.93,29.93,0,0,1,.47,7.13c-.27,2.36-1.62,4.17-2.82,6.13a19.12,19.12,0,0,0-2.32,12.85,42.17,42.17,0,0,0,1.93,7.21c.79,2.38,1.71,5.18.64,7.63-.77,1.75,1.82,3.28,2.59,1.51,2-4.6-.19-9-1.47-13.42s-1.51-9.42.8-13.55c1.15-2.07,2.65-3.91,3.29-6.24a18.71,18.71,0,0,0,.15-7.23,42.28,42.28,0,0,1-.5-7.37,53.43,53.43,0,0,1,1-7.33c1.07-5.44,2.25-10.84,1.47-16.41C161.22,136.71,158.33,137.52,158.59,139.41Z"/><path d="M170.19,150.59c-.4-2.56-1.83-4.68-2.66-7.09-.92-2.69-.49-5.52-.36-8.3.28-5.64-1.46-11-2.8-16.37a25.63,25.63,0,0,1,1.09-16.22,13,13,0,0,0,1.23-7,14.42,14.42,0,0,0-1.85-5.19,16.89,16.89,0,0,1-1.68-3.21A31.52,31.52,0,0,1,162,80.64c-.25-2.47-.49-4.94-.55-7.43a35,35,0,0,0-.87-8.29,27.38,27.38,0,0,0-7.28-12c-8.09-8.07-19.76-12.3-31.11-12a1.41,1.41,0,0,0-.57.12,1.6,1.6,0,0,0-.84-.34,50.6,50.6,0,0,0-32.24,7.7A50,50,0,0,0,69.22,72a56.08,56.08,0,0,0-3.5,17.28c-.18,3.16-.18,6.34-.1,9.5s.57,6.37-.5,9.28c-1,2.66-2.94,4.8-3.59,7.61a21,21,0,0,0,0,7.71,57.69,57.69,0,0,1,.9,7.64c0,2.88-1.09,5.06-2.38,7.57a16.27,16.27,0,0,0-1.85,9.48c.33,2.71,1.91,5.71.67,8.37-1.77,3.78-6.82,6.9-5.3,11.65.58,1.83,3.48,1.05,2.89-.8-.53-1.68.57-3.17,1.53-4.46A32,32,0,0,0,61.44,158a9.85,9.85,0,0,0,.44-6.79c-.65-2.87-1.16-5.5-.33-8.41.73-2.61,2.48-4.77,3.27-7.36a18,18,0,0,0,.36-7.49c-.31-2.55-.87-5.08-1-7.65a12.46,12.46,0,0,1,1.69-7.21,17.92,17.92,0,0,0,2.83-7.72c.23-3-.09-6-.12-8.91A69.21,69.21,0,0,1,70.42,78,46.74,46.74,0,0,1,86.57,53.44,47.63,47.63,0,0,1,120,43.65a15.15,15.15,0,0,1,4.93,12.57,1.16,1.16,0,0,0,.21.77,1.31,1.31,0,0,0,1.39,1c4.2-.13,8.6-.26,12.36,1.93a21.5,21.5,0,0,1,7.94,8.83c4.11,7.87,4.17,17,4,25.66-.05,1.93,2.95,1.93,3,0,.17-7.56.12-15.35-2.4-22.57C149.19,65.6,145,59.26,138.7,56.52c-3.39-1.47-7.08-1.6-10.73-1.53a18,18,0,0,0-3.65-11.05,40.1,40.1,0,0,1,25.37,9.8A25.48,25.48,0,0,1,157.42,65a29,29,0,0,1,1,8c.06,2.45.27,4.87.51,7.31.37,3.68.73,7.71,2.82,10.88a12.87,12.87,0,0,1,1.72,3.63,9.5,9.5,0,0,1-.71,6.6,27.65,27.65,0,0,0-1.87,15.55c1,5.34,3.14,10.46,3.33,15.94.11,3.09-.52,6.16-.07,9.24.42,2.91,2.19,5.27,2.93,8.07.68,2.6.18,5.37-.18,8a20.13,20.13,0,0,0,.16,8.29,1.5,1.5,0,0,0,2.89-.79C168.52,160.72,171,155.62,170.19,150.59Z"/><path d="M152.34,121.08c1.68-3.48,3.07-6.88,3.07-10.81a1.5,1.5,0,0,0-3,0c0,6.33-4.57,11.23-5.44,17.38a31.75,31.75,0,0,0-.14,4.47,4.76,4.76,0,0,1-.83,3.32c-1.73,2.07-4.13,3.48-5.86,5.52-2,2.37-2.38,5.36-3.85,8-.82,1.48-2.56,2.3-2.52,4.1a13.6,13.6,0,0,0,1.27,4.58c1.41,3.67.45,7.58-.36,11.27-.86,3.87-1.62,7.75-.8,11.69.43,2.07,1.25,4.07,1.48,6.18.26,2.27-.6,4.33-1.15,6.49a33.29,33.29,0,0,0-.57,13.37c.29,1.9,3.18,1.09,2.89-.8a33.07,33.07,0,0,1,1.27-14.22,13.72,13.72,0,0,0,.32-6.52c-.44-2.24-1.34-4.38-1.56-6.66-.46-4.69,1.36-9.27,2-13.86a16.38,16.38,0,0,0-.18-6.47c-.46-1.73-1.42-3.25-1.56-5a11.23,11.23,0,0,0,2.61-3.67c.64-1.43,1-3,1.68-4.37,1.28-2.8,4.11-4.43,6.21-6.58a8,8,0,0,0,2.22-3.26,16.43,16.43,0,0,0,.28-4.8C149.74,127.05,150.91,124,152.34,121.08Z"/><path d="M117.82,55.52a19.41,19.41,0,0,1-6.76,1.87,34.67,34.67,0,0,0-5.17.67A27.81,27.81,0,0,0,97,61.65a15.09,15.09,0,0,0-6.14,6.89c-1.62,4,0,8.38-1,12.54s-3.79,7.55-5.31,11.49-1.11,7.73.08,11.55,2.9,7.19,3.64,11a12.93,12.93,0,0,1-.17,5.87c-.58,2.17-1.55,4.19-2.24,6.32-1.57,4.88-.64,9.76.51,14.62a43.94,43.94,0,0,1,1.38,7.73,45.3,45.3,0,0,1-.52,8.22c-.23,1.91,2.77,1.89,3,0A40.34,40.34,0,0,0,90,144.18c-.91-4.28-2.42-8.66-1.9-13.09s3.14-8,3.44-12.34c.27-3.78-1.06-7.46-2.37-10.94S86.33,100.75,86.58,97c.28-4,2.93-7.4,4.62-10.92a20.57,20.57,0,0,0,1.93-6.21,45.68,45.68,0,0,0,0-6.92,9.58,9.58,0,0,1,4-7.66A23.19,23.19,0,0,1,106.4,61a46.37,46.37,0,0,1,5.87-.73,22.45,22.45,0,0,0,7.06-2.18C121.09,57.32,119.57,54.73,117.82,55.52Z"/><path d="M93.29,183c.82-1.73-1.76-3.26-2.59-1.51a19.27,19.27,0,0,0-1.35,12.92A35,35,0,0,0,92,200.5c.67,1.45,1.36,4-.59,4.79s-3.85.37-5.44,1.85-2,3.6-3.35,5.19c-.49.59-1.47,1.91-2.37,1.82s-1.82-1.47-2.44-1.94a14.21,14.21,0,0,0-6-2.54c-1.88-.32-2.7,2.57-.79,2.9a11.62,11.62,0,0,1,5.1,2.12c1.41,1.07,2.46,2.57,4.44,2.44,1.79-.12,3.23-1.53,4.3-2.84s1.73-3.08,2.76-4.52,2.81-1.09,4.23-1.48a5,5,0,0,0,3.42-3c1.39-3.66-1.24-6.64-2.45-9.87A16,16,0,0,1,93.29,183Z"/></g></g></svg>