<svg xmlns="http://www.w3.org/2000/svg" viewBox="0 0 235 235"><g id="hair-7"><g class="c-hair"><path d="M191.8,93.15c1.9-5.55-3.24-11.29-2.64-17.13.28-2.72,1.8-5.28,1.6-8-.24-3.13-2.71-5.65-5.38-7.29s-5.69-2.71-8.19-4.59a3.31,3.31,0,0,1-1.38-1.76,5.37,5.37,0,0,1,.26-2.16c.67-3.21-1.43-6.5-4.23-8.2s-6.18-2.14-9.44-2.43a10.26,10.26,0,0,1-3.82-.83c-2.6-1.32-3.57-4.6-5.9-6.35-5.17-3.9-12.81,1.79-18.94-.32-1.44-.5-2.7-1.41-4.1-2a10.79,10.79,0,0,0-11.73,2.33l-1.64,2.68A3.54,3.54,0,0,0,115,34.67l-3.15-4.1c-2.74-2.08-5.54-4.2-8.79-5.32s-7.1-1.11-9.9.89c-1.66,1.2-2.86,3-4.68,4-5.24,2.76-12.12-3-17.32-.15a16.22,16.22,0,0,0-3.61,3.27,22,22,0,0,1-9.74,5.83,19.1,19.1,0,0,0-4.59,1.55,8.52,8.52,0,0,0-3,3.29,11.78,11.78,0,0,0,.54,11.93c.94,1.42,2.25,2.75,2.4,4.44.2,2.17-1.52,4-3,5.54a18,18,0,0,0-4.3,6.37,8,8,0,0,0,.84,7.4c1.88,2.45,5.65,3.65,6.13,6.71a7.51,7.51,0,0,1-.64,3.56A30.75,30.75,0,0,0,50,98.58c-.15,3,.76,6.24,3.06,8.19,2.75,2.33,6.85,2.41,9.77,4.54,3.68,2.71,4.55,8,7.86,11.1a9.82,9.82,0,0,0,8.58,2.46l6.09-4.21c1.76-8.58-3.38-14.94-.94-23.34.48-1.63,1.07-3.21,1.47-4.86,1.3-5.39.41-11.13,1.62-16.55a25.49,25.49,0,0,1,7.88-13,37.83,37.83,0,0,1,13.34-7.56c1.79-.61,5.55-1.13,6.93-2.75a2.26,2.26,0,0,0,.22.37,4.86,4.86,0,0,0,2.68,1.39c9.14,2.4,19.8,3,25.82,10.3,2.54,3.08,3.85,7,5,10.8,5.38,17.63,3.53,25.91,4.94,44.29-.61-.3,3.47,4.83,4.14,4.74l3,.58c3.82-2.69,7.36-1.06,11.92,0a5.08,5.08,0,0,0,3.17.11,4.55,4.55,0,0,0,1.37-1.18l7.39-8.42a10.24,10.24,0,0,0,2-2.93c1.29-3.36-1.19-7.13-.49-10.66C187.43,98.6,190.7,96.36,191.8,93.15Z"  /></g><g id="stroke"><path d="M192.69,94.88c2.28-4.63.05-9.19-1.32-13.7a12.35,12.35,0,0,1-.16-7.51c.76-2.59,1.55-5.19.6-7.85-1.81-5.08-7-7-11.35-9.38-.87-.48-2.58-1.21-3.06-2.13-.32-.62.08-1.41.19-2.06a7.9,7.9,0,0,0,.08-1.88A9.88,9.88,0,0,0,174.28,44a15.23,15.23,0,0,0-7.22-3.28c-1.26-.25-2.53-.4-3.81-.53a10.24,10.24,0,0,1-4.21-.86c-1.8-1.06-2.75-3.27-4.08-4.8a8.57,8.57,0,0,0-5.46-2.9c-4.46-.58-8.71,1.66-13.15,1.45-2.51-.11-4.38-1.71-6.65-2.57a12.28,12.28,0,0,0-12.85,2.85,1.51,1.51,0,0,0-.39.69,5.4,5.4,0,0,0-.41-.42c-1.46-1.24-3.59.87-2.12,2.13a2.47,2.47,0,0,1,.76,1.14,1.11,1.11,0,0,0-.42.71,73.63,73.63,0,0,0-.75,9.26,18.78,18.78,0,0,0,.3,5.27l-.46.25c-2.22,1.05-4.8,1.36-7.1,2.26a40.25,40.25,0,0,0-9.37,5.07c-5.34,4-9.62,9.64-11,16.27-.77,3.78-.63,7.64-.88,11.47A27.86,27.86,0,0,1,84.16,93c-.53,1.88-1.27,3.7-1.63,5.63-1.38,7.58,2.36,15,1.19,22.51l-3.32,1.56a12.24,12.24,0,0,1-1.76.83,7.42,7.42,0,0,1-3.23-.16c-6.11-1.5-6.69-8.59-10.77-12.41-2.26-2.12-5.22-2.72-8-3.81a7.67,7.67,0,0,1-5.09-6.27c-.54-3.47.76-7,1.91-10.18a9.29,9.29,0,0,0,.78-4.78,6.33,6.33,0,0,0-1.76-3.22c-1.78-1.84-4.57-2.92-5.39-5.53-1-3,.6-6.12,2.46-8.44s4.85-4.44,5.1-7.68S52,55.79,51,53a10.27,10.27,0,0,1,.91-9c1.83-2.83,5-3,7.89-4A23.81,23.81,0,0,0,68,34.86a35.57,35.57,0,0,1,3.2-3.18,5.66,5.66,0,0,1,3.61-1c3,.06,6,1.33,9,1.65a9.59,9.59,0,0,0,8.13-3A10.38,10.38,0,0,1,96,26.39a10,10,0,0,1,5.1-.13c3.78.83,7,3.31,10,5.6,1.54,1.17,3-1.43,1.51-2.59-4.16-3.17-8.77-6.45-14.26-6.27a11,11,0,0,0-6.84,2.56c-1.72,1.45-3,3.43-5.44,3.76-2.12.3-4.32-.4-6.36-.89a17.86,17.86,0,0,0-6.33-.7,9.61,9.61,0,0,0-5.9,3.39,23.66,23.66,0,0,1-6,4.86c-2.35,1.26-4.87,1.65-7.32,2.58a9.77,9.77,0,0,0-5.28,4.74A13.42,13.42,0,0,0,50,57.39c.68.94,1.66,2,1.64,3.25A5.21,5.21,0,0,1,50,63.73a31.22,31.22,0,0,0-4.74,6A11.28,11.28,0,0,0,44,77.18a9.16,9.16,0,0,0,3.66,5.4c1.35,1.06,3.52,2.24,3.67,4.15.1,1.32-.65,2.76-1.08,4a38.07,38.07,0,0,0-1.31,4.34c-1.07,4.81-.46,10.44,3.9,13.46,2,1.36,4.35,1.88,6.56,2.72a9.66,9.66,0,0,1,5,4.21c2.46,4,4,8.4,8.72,10.29,2,.8,4.78,1.26,6.85.42,1-.42,2-1,3-1.43a21.82,21.82,0,0,0,2.81-1.32c1-.67,1-2.34,1-3.43a23.34,23.34,0,0,0,0-4.18c-.43-5.18-2.18-10.33-1.56-15.56.34-2.85,1.63-5.48,2.18-8.28a53.83,53.83,0,0,0,.73-8.69,32.75,32.75,0,0,1,1.12-8.53,23.11,23.11,0,0,1,3.49-6.85,31.17,31.17,0,0,1,12.62-9.68,38.13,38.13,0,0,1,6.07-2.08,14.73,14.73,0,0,0,4-1.49c1.77,1.35,4.47,1.63,6.58,2.09,2.31.5,4.63,1,6.93,1.53,4.4,1.06,9,2.47,12.43,5.53,4.13,3.67,5.7,9.16,7.15,14.3a86.26,86.26,0,0,1,2.88,14.58c.46,4.47.57,9,.7,13.47.07,2.57.15,5.15.28,7.72.06,1.33.14,2.67.23,4a16.41,16.41,0,0,0,.25,3.51,6.62,6.62,0,0,0,3.34,3.53c.28.17.57.33.86.48s.47.34.25.14a4.78,4.78,0,0,0,2.69,1.59,6.14,6.14,0,0,0,4.34-1.4,4.52,4.52,0,0,1,4.73-.47c2.12.76,4.72,1.93,7,1.53a4.94,4.94,0,0,0,2.8-1.77c1.09-1.21,2.14-2.44,3.21-3.66a75.85,75.85,0,0,0,5.68-6.61c1.52-2.21,1.48-4.69,1-7.23s-1.16-4.76.13-7.07C190,98.48,191.7,96.9,192.69,94.88ZM185.81,100a11.16,11.16,0,0,0-.21,6.72c.5,2.45,1,4.66-.63,6.8s-3.74,4.28-5.6,6.4c-.9,1-1.78,2.06-2.7,3.06s-2,.79-3.37.45c-1.91-.47-3.71-1.46-5.67-1.7a7.35,7.35,0,0,0-5.17,1.68c.47-.33-.14.08-.25.15a4.79,4.79,0,0,1-.78.4c-1,.35-1.27.06-1.94-.57-.84-.8-2-1.14-2.91-1.88a2,2,0,0,1-.84-1.28c-.13-1.3-.11-2.68-.19-4q-.23-3.84-.34-7.68c-.28-8.7-.48-17.34-2.38-25.87A66,66,0,0,0,148,67.66a20.42,20.42,0,0,0-9.47-9.3,54.75,54.75,0,0,0-12.78-3.9c-2.17-.46-4.35-.91-6.51-1.47a5.51,5.51,0,0,1-1.85-.69,13,13,0,0,0,.11-4.65c-.1-1.36-.2-2.72-.17-4.08s.29-2.69.43-4a8.94,8.94,0,0,0-.29-3.72,1.35,1.35,0,0,0,1.48-.35,9.3,9.3,0,0,1,5.71-2.67c2.51-.23,4.44.69,6.6,1.82,4.16,2.19,8.3,1.3,12.69.42a13.93,13.93,0,0,1,5.74-.36c2,.47,3.18,1.94,4.33,3.56s2.5,3.37,4.53,4.16c2.4.93,5.18.71,7.69,1.2a11.89,11.89,0,0,1,6.59,3.18,7,7,0,0,1,1.67,2.91c.35,1.31,0,2.35-.2,3.64-.35,2.69,2,4.21,4.07,5.39,2.25,1.31,4.71,2.26,6.87,3.73,1.79,1.21,3.58,3,4,5.24.42,2.54-1.06,5-1.45,7.52-.73,4.73,1.84,8.85,2.76,13.34a7.76,7.76,0,0,1-1.12,6C188.21,96.41,186.67,98,185.81,100Z"/><path d="M145.93,49a6.05,6.05,0,0,0,2.44,5,11.08,11.08,0,0,0,6,2.2c2.08.24,4.39.09,6.33,1,1.5.68,2.85,1.94,2.66,3.7a1.51,1.51,0,0,0,1.5,1.5,1.53,1.53,0,0,0,1.5-1.5,5.94,5.94,0,0,0-2.24-5,10.81,10.81,0,0,0-6-2.31c-2.11-.26-4.41-.11-6.41-.95-1.47-.62-2.9-1.83-2.83-3.54.09-1.93-2.91-1.93-3,0Z"/><path d="M75.78,43c-2.48-.84-5.67-1.56-8,0a5.45,5.45,0,0,0-1.57,1.67c-.37.61-.61,1.29-1,1.89-.09.13-.13.15-.22.28s.08,0,0,0l-.17.09c.13-.05.15-.06,0,0s-.27,0,0,0a1.63,1.63,0,0,1-.38,0c.17,0,.21,0,.1,0s-.08,0,.08,0l.13.18c.13.14.05.17,0-.08a1.51,1.51,0,0,0-1.84-1A1.55,1.55,0,0,0,61.83,48c.24,1.68,2.16,2.28,3.61,2,1.67-.37,2.38-1.82,3.09-3.21a2.94,2.94,0,0,1,1.09-1.28A3.05,3.05,0,0,1,71,45.11a6.67,6.67,0,0,1,1.81.18A17.89,17.89,0,0,1,75,45.9a1.5,1.5,0,1,0,.8-2.89Z"/><path d="M70.47,72.32a3.12,3.12,0,0,0-3.61,1.38,4.63,4.63,0,0,0-.55,4c.18.63.44,1.24.65,1.87a9.41,9.41,0,0,1,.25.91c.08.31,0-.07,0,.22,0,.07,0,.48,0,.29s-.07.18-.07.22,0,.08,0-.07c0,.07-.07.15-.11.22s-.26.36,0,.1a2,2,0,0,1-.24.26c-.26.28.23-.16-.06,0s.24,0,0,0,.28,0,0,0c.22,0,.25,0,.08,0,.19.08.21.09.06,0a1.5,1.5,0,1,0-1.52,2.59,3,3,0,0,0,3.86-.8,4.49,4.49,0,0,0,.87-4.13,17.86,17.86,0,0,0-.63-1.87,8.62,8.62,0,0,1-.29-1,1.55,1.55,0,0,1,0-.23q0,.19,0,0c0-.12,0-.24,0-.37,0,.34,0,0,0-.08s.13-.35,0-.12a2.71,2.71,0,0,1,.21-.37.56.56,0,0,1,.1-.15c-.11.14-.11.15,0,0s.35-.22,0-.06c.13-.07.33-.1,0,0,.3-.07-.28-.05,0,0-.43-.07,0,0,.14.07a1.51,1.51,0,0,0,1.85-1,1.54,1.54,0,0,0-1-1.84Z"/><path d="M158.89,70.73l.24-.14c-.21.08-.26.1-.15.07l.12,0c0,.07-.4,0-.06,0,.06,0,.33,0,.06,0s0,0,.06,0a.89.89,0,0,0,.26.09l-.14-.06.12.07a1.28,1.28,0,0,1,.25.15s.3.15.09,0,.07.06.12.11a3.59,3.59,0,0,1,.39.39c.06.06.12.16.19.22l-.11-.15.11.16.28.42c.88,1.36,1.94,2.91,3.66,3.18a1.59,1.59,0,0,0,1.15-.15,1.49,1.49,0,0,0,.69-.89,1.51,1.51,0,0,0-1-1.85,3.47,3.47,0,0,0-.51-.13c.22.1.26.11.12,0l-.08,0-.22-.14c-.25-.15.23.21,0,0l-.19-.18c-.13-.13-.25-.27-.37-.4s.18.24,0,0l-.17-.22-.31-.47c-.24-.37-.48-.74-.75-1.09-1.21-1.56-3.46-2.91-5.36-1.66a1.5,1.5,0,0,0,1.51,2.6Z"/><path d="M78.42,57.71a7,7,0,0,1,3.74-1.63,13.09,13.09,0,0,1,4.59.69,7.28,7.28,0,0,0,4.43-.12A4.31,4.31,0,0,0,94,53.55a1.54,1.54,0,0,0-1-1.85,1.52,1.52,0,0,0-1.85,1,1.77,1.77,0,0,1-1.73,1.31c-1.47.18-3-.56-4.4-.82a10.25,10.25,0,0,0-8.64,2.35,1.51,1.51,0,0,0,0,2.12,1.53,1.53,0,0,0,2.12,0Z"/><path d="M176.26,77.28a4.56,4.56,0,0,1,1.57,5.14,10.34,10.34,0,0,0-.77,3.75,4.17,4.17,0,0,0,1.87,3.32c1.65,1,3.16-1.58,1.52-2.6-.19-.11-.13-.06-.23-.24a1.1,1.1,0,0,1-.15-.47,2.64,2.64,0,0,1,.09-1.12,19.47,19.47,0,0,0,.93-4,7.58,7.58,0,0,0-3.32-6.41,1.51,1.51,0,0,0-2.05.53,1.54,1.54,0,0,0,.54,2.06Z"/></g><g class="accessory-1"><path d="M80.15,43.82c6.07-3.55,12.78-4.58,19.26-4.34s12.81,1.68,19.17,2.86c11.68,2.17,23.68,3.48,34.46,8.92,3.39,1.7,8.49,3.14,10.66,6.75,1.6-9.18-1.87-14.93-1.8-24.17a5,5,0,0,0-.21-1.86c-.3-.8-.84-3.85-1.48-4.25a263.4,263.4,0,0,0-25.44-14.15,30.66,30.66,0,0,0-6.61-1.6,39.82,39.82,0,0,0-6.55-.64c-17.56,1.59-18.87,2.56-30.91,8.1a7.73,7.73,0,0,0-2.42,1.13c-1.07,1-1.43,2.83-1.7,4.45-1.06,6.19-5.84,12.24-6.89,18.43" fill="#00204a"/><path d="M163.7,58c-13.27,1.91-30.57-2.08-43.95-2.88-9.85-.6-19.71-1.24-29.46-2.74-12-1.83-16.56-.54-25.29-9a11.2,11.2,0,0,1-3-4.15c9,2.45,10.17.58,19,3.79l23.49-14,59.59,26.06Z" fill="#00204a"/><path d="M127.05,36.39a7.18,7.18,0,0,0-2.72-2.29l.31,2.35c1.73-1.35,2.3-3.71,2.44-5.8a10.27,10.27,0,0,0-1.44-6.15c-2.22-3.43-7.39-4.8-10.51-1.71-1.38,1.36.75,3.48,2.12,2.12a3.27,3.27,0,0,1,3-.77,4.35,4.35,0,0,1,3,2.22,7.5,7.5,0,0,1,.82,4.19,5,5,0,0,1-1.56,3.78,1.51,1.51,0,0,0,.3,2.36c.24.11.49.21.72.34l.3.19c-.16-.1-.14-.14,0,0,.39.42.74.85,1.11,1.29a1.5,1.5,0,1,0,2.12-2.12Z" fill="#fff"/><path d="M118.44,36.31a3.86,3.86,0,0,1-4.33.39,4.46,4.46,0,0,1-2-4.07,10.93,10.93,0,0,1,.34-2.79,16.67,16.67,0,0,0,.78-2.93c.1-1.54-1.06-2.85-2-4a1.51,1.51,0,0,0-2.13,0,1.55,1.55,0,0,0,0,2.12s.16.2,0,0l.23.31c.22.3.43.6.63.92.44.71-.17,1.6-.38,2.35a11.86,11.86,0,0,0-.13,6.83A6.81,6.81,0,0,0,120,38.9a1.54,1.54,0,0,0,.54-2,1.5,1.5,0,0,0-2-.54Z" fill="#fff"/><path d="M118,29.81l-.82.62.75-.21h0l.39.05a.61.61,0,0,1-.18-.05l.35.15a1.18,1.18,0,0,1-.19-.11l.3.23a.73.73,0,0,1-.17-.18l.23.31a.94.94,0,0,1-.12-.22l.15.36a.88.88,0,0,1-.07-.23l0,.4v-.2l0,.4a.75.75,0,0,1,0-.16l-.15.36s0-.09.07-.13l-.23.31a.47.47,0,0,1,.1-.1l-.31.23.1-.05-.36.15a.2.2,0,0,1,.11,0l-.4.05h.15l-.4-.05.16,0-.36-.15a1.18,1.18,0,0,1,.19.11l-.31-.24a1.06,1.06,0,0,1,.15.15l-.23-.3.08.13-.16-.35a.34.34,0,0,1,0,.12l-.06-.4a.14.14,0,0,1,0,.09l.06-.4,0,.1.15-.36s0,.05,0,.08l.23-.3,0,0a1.17,1.17,0,0,0-.31.48,1.36,1.36,0,0,0,0,1.16,1.24,1.24,0,0,0,.31.48l.31.23a1.42,1.42,0,0,0,.75.21l.4-.05a1.47,1.47,0,0,0,.66-.39l0,0a4.08,4.08,0,0,0,.25-.33.05.05,0,0,0,0,0v0a2.43,2.43,0,0,0,.16-.37,1.52,1.52,0,0,0,.08-.56c0-.13,0-.29-.06-.42s0,0,0-.05a2.77,2.77,0,0,0-.18-.43.59.59,0,0,0,0-.08c-.09-.13-.19-.25-.29-.37a2.22,2.22,0,0,0-.44-.37,1,1,0,0,0-.17-.1,3.34,3.34,0,0,0-.44-.17,2.53,2.53,0,0,0-.48-.08h-.14a3.32,3.32,0,0,0-.44.06,1.7,1.7,0,0,0-.52.22,2.41,2.41,0,0,0-.67.68,2.09,2.09,0,0,0-.3,1.14,4.1,4.1,0,0,0,.06.49l0,.11a2.33,2.33,0,0,0,.11.28c0,.09.08.19.13.28l.06.1a3.57,3.57,0,0,0,.3.38.3.3,0,0,0,.08.08,2.88,2.88,0,0,0,.39.3.41.41,0,0,0,.11.07,3.85,3.85,0,0,0,.47.19,1.64,1.64,0,0,0,.32,0l.21,0a1.06,1.06,0,0,0,.58-.13.41.41,0,0,0,.19-.08l.09-.07.72-.54a1.18,1.18,0,0,0,.42-.38,1.26,1.26,0,0,0,.27-.51,1.22,1.22,0,0,0,0-.6,1.12,1.12,0,0,0-.18-.56l-.24-.3a1.39,1.39,0,0,0-.66-.39l-.4-.05a1.5,1.5,0,0,0-.75.2Z" fill="#00bbf0"/><path d="M83,42.9C84,37.06,87,31.83,88.3,26.06c.26-1.18.38-2.41.75-3.57A3.52,3.52,0,0,1,89.88,21c.6-.56,1.42-.57,2.12-.9.33-.16.65-.38,1-.56a57.13,57.13,0,0,1,20.26-6.31,51.17,51.17,0,0,1,30,5.56A65.86,65.86,0,0,1,158.75,29.9,12.32,12.32,0,0,0,159.86,31c.51.38.94.56,1,1.26a17.78,17.78,0,0,1,0,2.31c.05,1.56.2,3.11.4,4.65.81,6,2.44,11.77,1.42,17.87l2.74-.36a8.58,8.58,0,0,0-2.95-3.12,19.24,19.24,0,0,0-3.37-1.26,14.36,14.36,0,0,0-2.29-.84c-1.61-.28-3.24-.45-4.86-.67l-20.83-2.9-26-3.61L85.69,41.58c-1.22-.17-2.5-.24-3.71-.51-2.2-.5-4.27-1.42-6.52-1.82-2.42-.42-4.88-.49-7.31-.86a49,49,0,0,1-5.22-1.13c-1-.28-2.27.74-1.85,1.84,1.25,3.25,4.06,5.67,6.74,7.76a24.37,24.37,0,0,0,6.84,3.83,34.25,34.25,0,0,0,7.17,1.5c3.18.41,6.38.77,9.56,1.24,8.68,1.27,17.42,1.93,26.17,2.47,7.43.46,14.77,1.44,22.15,2.33,8.25,1,16.63,1.82,24.9.66,1.91-.27,1.1-3.16-.79-2.89-6.9,1-14,.35-20.89-.4-7.05-.77-14.07-1.9-21.14-2.43-8.22-.62-16.44-1-24.63-2-3.74-.44-7.47-1.06-11.22-1.51-2.48-.29-5-.52-7.44-1a20.68,20.68,0,0,1-7-2.85,30.68,30.68,0,0,1-3.72-2.9c-1.44-1.31-3-2.72-3.76-4.58l-1.85,1.84a54.74,54.74,0,0,0,9.06,1.59A37.06,37.06,0,0,1,79,43.23a25.64,25.64,0,0,0,4.43,1l17.5,2.43,25.53,3.55,22.15,3.07,6.39.89a22.71,22.71,0,0,1,5.42,1.65,5.28,5.28,0,0,1,2.51,2.34c.62,1,2.52,1,2.74-.36,1-5.71,0-11.07-1-16.7a77.63,77.63,0,0,1-.74-8.75,4.46,4.46,0,0,0-1.44-3.23c-.39-.34-.65-.44-.93-.69-1.46-1.27-2.79-2.67-4.29-3.91a74,74,0,0,0-9.6-6.79A54.81,54.81,0,0,0,117,9.87a61.63,61.63,0,0,0-24.56,6.51c-.63.32-1.26.79-1.92,1.05a8.24,8.24,0,0,0-2.48,1.14A6.81,6.81,0,0,0,86,22.26c-.4,1.56-.6,3.15-1,4.71s-1.09,3.37-1.72,5a57.82,57.82,0,0,0-3.2,10.1c-.34,1.89,2.56,2.7,2.9.8Z"/></g></g></svg>