<svg xmlns="http://www.w3.org/2000/svg" viewBox="0 0 235 235"><g id="hair-2"><g class="c-hair"><path d="M133.44,53.07C96.25,40.54,84.63,65.38,81.27,71.72s11.86,6.79,11.86,6.79c4.64-.24,8.49-5.18,13.09-4.38,6.61,1.15,14.09,7.5,20.71,6.52,4.52-.67,7.82-6.9,12.36-6.78,3,.08,6.63,3,9.65,6.17,1.95,2,5.16.59,5.26-2.36C154.43,70.38,151.5,59.15,133.44,53.07Z" /></g><path id="stroke" d="M155.69,75.9a23.41,23.41,0,0,0-1.41-7.17c-2.45-6.51-7.72-11.28-13.83-14.37a52.27,52.27,0,0,0-6.61-2.74c-13.23-4.42-28.63-5.7-40.54,2.83a38.77,38.77,0,0,0-9.47,9.86c-.93,1.37-1.78,2.79-2.57,4.24a15.09,15.09,0,0,0-1.88,4c-1,5.52,7.08,6.75,10.86,7.2a12.22,12.22,0,0,0,5.28-.2c3.69-1.15,7.07-4.79,11.15-3.83,7.5,1.76,16.21,10,24,5,1.59-1,3-2.33,4.45-3.49,1.26-1,2.79-2,4.47-1.84,2.26.27,4.37,2,6,3.5s2.89,3.41,5.16,3.58A4.64,4.64,0,0,0,155,80.16,7.67,7.67,0,0,0,155.69,75.9Zm-4.06,3.48a1.46,1.46,0,0,1-1.41-.19,33.82,33.82,0,0,1-2.66-2.57A19.45,19.45,0,0,0,142,73c-3.67-1.45-6.74.35-9.55,2.65a26,26,0,0,1-4,3,7.47,7.47,0,0,1-5,.45c-4.15-.85-7.87-3.12-11.74-4.75a20,20,0,0,0-5.74-1.71,10.28,10.28,0,0,0-5.4,1.24C98.07,75,95.55,77.09,92.74,77a29.72,29.72,0,0,1-5.16-.65,18,18,0,0,1-3.12-.91,5.28,5.28,0,0,1-1.93-1.3c-.36-.5-.31-.93.08-1.73.21-.45.46-.89.7-1.34.66-1.25,1.35-2.48,2.1-3.68a37.26,37.26,0,0,1,7.42-8.78c9.42-8.09,22.21-8.75,33.84-5.94,2.15.52,4.27,1.15,6.37,1.86,6.66,2.27,13.36,5.94,17,12.21a20.17,20.17,0,0,1,2.4,6.69C152.69,74.9,153.45,78.63,151.63,79.38Z"/><g class="accessory-1"><path d="M77.29,64.92c6.06-3.55,12.78-4.58,19.26-4.34s12.81,1.69,19.17,2.87c11.68,2.17,23.68,3.48,34.46,8.91,3.39,1.71,8.49,3.15,10.66,6.75,1.6-9.17-1.87-14.92-1.8-24.17a5.14,5.14,0,0,0-.21-1.85c-.3-.8-.84-3.86-1.48-4.25a261.28,261.28,0,0,0-25.44-14.15,30,30,0,0,0-6.62-1.6,38.55,38.55,0,0,0-6.54-.64C101.19,34,99.88,35,87.84,40.55a7.51,7.51,0,0,0-2.42,1.13c-1.07,1-1.43,2.82-1.7,4.45-1.06,6.18-5.84,12.24-6.89,18.43" fill="#00204a"/><path d="M160.84,79.11C147.57,81,130.27,77,116.89,76.24,107,75.64,97.18,75,87.43,73.5c-12-1.83-16.56-.55-25.29-9a11,11,0,0,1-3-4.15c9,2.46,10.17.59,19,3.8l23.49-14L161.2,76.24Z" fill="#00204a"/><path d="M124.19,57.49a7.27,7.27,0,0,0-2.72-2.29l.31,2.36c1.73-1.36,2.3-3.71,2.44-5.8a10.26,10.26,0,0,0-1.44-6.15c-2.22-3.44-7.39-4.8-10.51-1.71-1.38,1.36.74,3.48,2.12,2.12a3.27,3.27,0,0,1,3-.78,4.39,4.39,0,0,1,3,2.23,7.55,7.55,0,0,1,.82,4.18,5,5,0,0,1-1.56,3.79,1.51,1.51,0,0,0,.3,2.36,6.74,6.74,0,0,1,.72.34l.3.18c-.16-.09-.15-.13,0,0,.39.42.74.85,1.11,1.28a1.5,1.5,0,0,0,2.12,0,1.53,1.53,0,0,0,0-2.12Z" fill="#fff"/><path d="M115.58,57.41a3.86,3.86,0,0,1-4.33.39,4.41,4.41,0,0,1-2-4.06,10.88,10.88,0,0,1,.34-2.79,16.9,16.9,0,0,0,.78-2.93c.09-1.55-1.06-2.85-2-4a1.53,1.53,0,0,0-2.13,0,1.55,1.55,0,0,0,0,2.12s.16.21,0,.05l.23.3c.22.31.43.61.63.93.44.71-.17,1.59-.38,2.34a11.9,11.9,0,0,0-.13,6.84A6.81,6.81,0,0,0,117.09,60a1.54,1.54,0,0,0,.54-2,1.51,1.51,0,0,0-2-.54Z" fill="#fff"/><path d="M115.14,50.92l-.82.61.76-.2h0l.39.05-.19-.05.36.15a.76.76,0,0,1-.19-.12l.3.24a.73.73,0,0,1-.17-.18l.23.3a.72.72,0,0,1-.12-.21l.15.36a.88.88,0,0,1-.07-.23l0,.4a1.33,1.33,0,0,1,0-.2l0,.4a1,1,0,0,1,0-.17l-.15.36.07-.12-.23.31a.47.47,0,0,1,.1-.1l-.31.23.1,0-.36.15.11,0-.4.06h.15l-.4,0a.42.42,0,0,1,.16,0l-.36-.15a.54.54,0,0,1,.18.11l-.3-.24a.54.54,0,0,1,.15.15l-.24-.31a1.1,1.1,0,0,1,.09.14L114,52.2a.56.56,0,0,1,0,.12l-.06-.4a.17.17,0,0,1,0,.1l.06-.4,0,.1.15-.36a.35.35,0,0,1,0,.08l.24-.31,0,0a1,1,0,0,0-.31.48,1.15,1.15,0,0,0-.13.58,1.72,1.72,0,0,0,.44,1.06l.3.23a1.48,1.48,0,0,0,.76.21l.4-.06a1.51,1.51,0,0,0,.66-.38s0,0,0,0a4.08,4.08,0,0,0,.25-.33.08.08,0,0,0,0,0v0a3,3,0,0,0,.16-.37,1.52,1.52,0,0,0,.08-.56c0-.13,0-.3-.06-.43v0a2.77,2.77,0,0,0-.18-.43l0-.09c-.09-.12-.19-.25-.29-.36a2.22,2.22,0,0,0-.44-.37,1,1,0,0,0-.17-.1c-.15-.06-.29-.13-.44-.18a3.7,3.7,0,0,0-.48-.07h-.14a3.32,3.32,0,0,0-.44.06,1.48,1.48,0,0,0-.52.22,2.51,2.51,0,0,0-.67.67,2.31,2.31,0,0,0-.23.54,2.12,2.12,0,0,0-.07.61,3.93,3.93,0,0,0,.06.48l0,.12c0,.09.07.19.11.28s.08.19.13.28l.06.1c.09.12.19.26.3.38a.6.6,0,0,0,.08.08,4,4,0,0,0,.39.3l.11.06a2.76,2.76,0,0,0,.47.2,1.64,1.64,0,0,0,.32,0l.21,0a1.15,1.15,0,0,0,.58-.13.46.46,0,0,0,.19-.08l.09-.07.72-.54a1.12,1.12,0,0,0,.42-.39,1.14,1.14,0,0,0,.27-.51,1.22,1.22,0,0,0,0-.6,1.12,1.12,0,0,0-.18-.55l-.24-.31a1.51,1.51,0,0,0-.66-.38l-.4-.06a1.58,1.58,0,0,0-.76.21Z" fill="#00bbf0"/><path d="M80.09,64c1-5.84,4.07-11.07,5.35-16.84.26-1.19.38-2.41.75-3.57A3.52,3.52,0,0,1,87,42.07c.6-.56,1.42-.57,2.12-.91.33-.16.65-.37,1-.55a56.72,56.72,0,0,1,20.26-6.31,51.16,51.16,0,0,1,30,5.55A66.19,66.19,0,0,1,155.89,51,12.21,12.21,0,0,0,157,52.06c.51.39.94.57,1.05,1.27a17.75,17.75,0,0,1,0,2.31c0,1.56.2,3.1.4,4.65.81,6,2.44,11.77,1.42,17.86l2.74-.36a8.71,8.71,0,0,0-3-3.11,18.51,18.51,0,0,0-3.37-1.27,15.07,15.07,0,0,0-2.3-.83c-1.6-.28-3.23-.45-4.85-.68L128.35,69l-26-3.61L82.83,62.69c-1.22-.17-2.5-.24-3.71-.51-2.2-.5-4.27-1.43-6.53-1.82-2.41-.42-4.87-.49-7.3-.86a46.7,46.7,0,0,1-5.22-1.14c-1-.27-2.27.74-1.85,1.85C59.47,63.46,62.28,65.87,65,68A24.4,24.4,0,0,0,71.8,71.8,34.29,34.29,0,0,0,79,73.3c3.19.41,6.39.77,9.57,1.23C97.2,75.81,106,76.47,114.7,77c7.43.46,14.77,1.43,22.15,2.32,8.25,1,16.63,1.83,24.9.67,1.91-.27,1.1-3.16-.79-2.89-6.9,1-14,.35-20.89-.41-7-.77-14.07-1.89-21.15-2.42-8.21-.62-16.43-1-24.62-2-3.74-.45-7.47-1.06-11.22-1.51-2.48-.3-5-.52-7.44-1a20.8,20.8,0,0,1-7-2.85A29.79,29.79,0,0,1,64.88,64c-1.44-1.3-3-2.71-3.76-4.58l-1.85,1.85a53.52,53.52,0,0,0,9.06,1.58,37.06,37.06,0,0,1,7.8,1.49,24.78,24.78,0,0,0,4.43,1l17.5,2.43,25.53,3.54,22.15,3.08,6.39.88A22.71,22.71,0,0,1,157.55,77a5.25,5.25,0,0,1,2.51,2.35c.62,1,2.52,1,2.74-.36,1-5.71,0-11.08-1-16.7a77.63,77.63,0,0,1-.74-8.75,4.44,4.44,0,0,0-1.44-3.23c-.39-.34-.65-.44-.93-.69-1.46-1.27-2.79-2.67-4.29-3.91a73,73,0,0,0-9.6-6.79A54.73,54.73,0,0,0,114.17,31a61.47,61.47,0,0,0-24.56,6.51c-.63.32-1.26.78-1.92,1a8.53,8.53,0,0,0-2.48,1.15,6.82,6.82,0,0,0-2.06,3.68c-.4,1.57-.6,3.16-1,4.71-.48,1.71-1.09,3.38-1.72,5a58.2,58.2,0,0,0-3.2,10.11c-.34,1.89,2.55,2.7,2.9.8Z"/></g></g></svg>