<svg xmlns="http://www.w3.org/2000/svg" viewBox="0 0 235 235"><g id="hair-7"><g class="c-hair"><path d="M178,185.56c-.38-29.29-3.06-42.16-3.44-71.46a88.58,88.58,0,0,0-1-14.19,89.45,89.45,0,0,0-4.19-14.28c-2.24-6.3-2.28-20.19-6.59-25.3s-10.54-12.8-17.1-16l-.12.66a22.89,22.89,0,0,0-4.79-2.6c-4-1.61-8.16-4.82-12.44-5.44-7.33-1.06-14.83.45-22.16-.62l-1.56-.62-3.87,6.56.32-1.66c-12.8,4.41-20.75,6.49-25.33,14.81-4.39,8-8.8,16-11.63,24.62-3,9.09-4.13,18.67-4.71,28.21-1.28,21.2.24,42.45,1.75,63.63.74,10.25,1.49,20.63,4.83,30.34,1.47,4.29,3.58-.41,7.25,2.27,3.07,2.23,6.79,3,10.49,3.36,3.31.33,9,1.58,12.17.84,5.78-1.37,2.37-8.65,2.65-13.55,1.13-19.3-8.92-56.31-8.92-56.31-.1-2,.64-4,.47-5.86-.39-4.33-2.6-8.83-3.29-13.21-1.4-8.85-11-18.22-7-26.37,2.75-5.54,7-10.17,10.6-15.19s6.72-10.79,6.63-17l.69-3.52c1.6,1.46,4,1.91,6.19,2.21a158.9,158.9,0,0,0,29.73,1.29A53.4,53.4,0,0,0,143.47,60c3.32,6.72,7.64,15.92,9,23.06,13.06,67.48-11,70.83-11.32,111.42,0,3.6.05,1.2.27,4.8.12,2.17-.39,7.09,1.07,8.89,1.68,2.08,6.61,1.43,9,1.58q6.22.36,12.47.44c2.5,0,5.14,0,7.27-1.31s3.47-3.84,4.32-6.29C178.17,195.28,178.09,193.33,178,185.56Z" /></g><path id="stroke" d="M178.83,165.86c-.73-13.42-2-26.8-2.49-40.23-.31-8.29.12-16.73-1.1-24.95a67.42,67.42,0,0,0-3.15-11.93,57.25,57.25,0,0,1-2.44-8.5c-1-5.61-1.37-11.54-3.47-16.89a22.59,22.59,0,0,0-4.33-6.5A95.14,95.14,0,0,0,154.57,49a34.53,34.53,0,0,0-8.09-5.91,1.6,1.6,0,0,0-.68-.16,35.58,35.58,0,0,0-9-5.07,61.4,61.4,0,0,0-16.68-3.5c-3-.28-5.94-.51-8.91-.64a18,18,0,0,0-8.06,1.19,1.34,1.34,0,0,0-.72,1.3,1.56,1.56,0,0,0-.52.48c-.62.89-1.23,1.81-1.82,2.73-5.5,1.88-11.19,3.54-16.31,6.31A24.79,24.79,0,0,0,78,50a29.06,29.06,0,0,0-4.63,6.76A146.92,146.92,0,0,0,63.45,77.5a95.86,95.86,0,0,0-4.82,22.35c-1.76,16.32-1.34,32.86-.45,49.22.44,8.09,1,16.17,1.6,24.25.56,7.73,1.19,15.51,3,23.07q.65,2.73,1.51,5.38c.41,1.27.84,2.77,2.07,3.49,1.8,1.07,3.58-.67,5.36.07a15.64,15.64,0,0,1,1.85,1.18,17.86,17.86,0,0,0,2.19,1.09A22.49,22.49,0,0,0,80.89,209c3,.49,6,.84,9,1.19,2.55.3,5.51.62,7.89-.57,2.14-1.06,3-3.27,3-5.54.08-2.44-.56-4.84-.72-7.27-.14-2.23.1-4.5,0-6.74-.28-10.46-2.16-20.92-4.25-31.15q-1.35-6.58-2.93-13.11c-.56-2.31-1.3-4.63-1.76-7-.34-1.74.49-3.62.45-5.42-.09-3.65-1.62-7.17-2.59-10.64-.83-2.94-1.22-5.86-2.41-8.7s-2.68-5.56-4-8.35a19.52,19.52,0,0,1-2.31-8c0-3.17,2-6,3.7-8.49,4.11-6,9.33-11.36,12.3-18.12a24.85,24.85,0,0,0,2.2-9.06c3.34,1.34,7.63.82,11,.81q8.19,0,16.38-.17a80.63,80.63,0,0,0,14-1.22c.77-.15,1.52-.33,2.27-.53a116.72,116.72,0,0,1,7.84,18.74A91.47,91.47,0,0,1,152.38,91c.6,3.62,1.12,7.26,1.52,10.92,1.2,10.86,1.51,22-.22,32.79A126.84,126.84,0,0,1,147.57,157c-2.47,6.95-4.92,13.89-6.31,21.15a91.68,91.68,0,0,0-1.51,13.2,39.63,39.63,0,0,0,.06,6.26c0-.33,0,.33,0,.42,0,.35.06.71.08,1.07,0,.64,0,1.27,0,1.9a33.88,33.88,0,0,0,.12,4.39c.33,2.82,1.51,4.89,4.43,5.55s5.9.3,8.79.45c4.24.23,8.56.51,12.82.34,3.8-.16,7-1.49,9.14-4.78a31.07,31.07,0,0,0,3.49-9.51,36.5,36.5,0,0,0,.78-8.34C179.51,181.33,179.25,173.59,178.83,165.86ZM87.17,80.15C85,83,82.7,85.82,80.74,88.86c-1.64,2.54-3.19,5.19-3.36,8.27-.32,5.63,3.14,10.93,5.47,15.8a32.93,32.93,0,0,1,2.68,8.12c.69,3.48,2.12,6.77,2.83,10.25a13.62,13.62,0,0,1,0,4.89,9.82,9.82,0,0,0-.14,3.15c.12.57.3,1.13.45,1.68q1.13,4.39,2.15,8.8a277.24,277.24,0,0,1,5.4,29,100.9,100.9,0,0,1,.93,14.32,42.33,42.33,0,0,0,.3,6.75c.25,1.83.86,4.35,0,6.1-1,2-4.3,1.54-6.07,1.39-2.82-.23-5.63-.72-8.44-1.06a25.06,25.06,0,0,1-4.85-1A20.23,20.23,0,0,1,73.72,203a5.62,5.62,0,0,0-3.41-.86,16.9,16.9,0,0,1-2.41.49c-.18,0,0,.14-.21-.26a12.66,12.66,0,0,1-.81-2.31q-.82-2.67-1.43-5.4a99.19,99.19,0,0,1-1.78-11.11c-.84-7.67-1.27-15.39-1.79-23.08-1.06-15.88-1.85-31.82-1.18-47.73A149.68,149.68,0,0,1,63.11,90,87.23,87.23,0,0,1,70.36,68.9c1.62-3.34,3.36-6.6,5.14-9.85a30.37,30.37,0,0,1,4.41-6.76c3.38-3.52,8-5.42,12.54-7.07,1.76-.64,3.53-1.25,5.3-1.85a46.59,46.59,0,0,0-2.88,6.37c-1.2,3.4-1.69,7.82,1,10.6a1.44,1.44,0,0,0-.31.93C95.59,68.46,91.38,74.65,87.17,80.15Zm48.19-21a1.4,1.4,0,0,0-.73-1.29c-3.28-1.53-6.58-3-9.83-4.61-2.42-1.18-4.91-2.55-6.22-5-.91-1.71-3.5-.19-2.59,1.51,1.47,2.75,4.13,4.5,6.84,5.85s5.48,2.62,8.23,3.89l-2.54.11c-2.08.07-4.17.11-6.25.14a1.28,1.28,0,0,0-.37-.29c-3.28-1.54-6.58-3-9.84-4.62-2.41-1.18-4.9-2.54-6.22-5-.91-1.7-3.5-.19-2.59,1.52,1.47,2.74,4.13,4.49,6.85,5.85,1.81.9,3.64,1.76,5.48,2.61h-.86q-3.56,0-7.12,0a43.49,43.49,0,0,1-6.15-.16c-10.6-1.5.17-17.41,3.06-21.56a1.33,1.33,0,0,0,.26-.74,14.63,14.63,0,0,1,6.23-.75c2.25.09,4.5.27,6.75.45a74.75,74.75,0,0,1,13.94,2.17,35.45,35.45,0,0,1,10.62,4.74,25.33,25.33,0,0,1,4.33,3.68,12.26,12.26,0,0,1,3.1,4.68c.61,2.17-1.22,2.93-2.89,3.75a29.36,29.36,0,0,1-6,2.1A44.5,44.5,0,0,1,135.36,59.2ZM175.9,196.46c-.7,3.09-1.62,6.64-3.45,9.27-2.31,3.31-6.33,3-9.93,3-4-.07-8-.43-12-.45-1.33,0-2.66.06-4-.05-.92-.07-2.29-.17-2.92-.94s-.68-2.63-.71-3.7c0-1.31,0-2.61,0-3.92,0-.62-.06-1.26-.13-1.88,0-.22,0-.43-.07-.65,0,0-.05-.37-.06-.45a.32.32,0,0,1,0-.08c0-.17,0-.34,0-.51,0-.76,0-1.51,0-2.26a88,88,0,0,1,1.13-13,125.12,125.12,0,0,1,5.91-21A149.12,149.12,0,0,0,156,138.79a113.64,113.64,0,0,0,1.55-29.86,202.56,202.56,0,0,0-2.63-21,75.57,75.57,0,0,0-2.35-10.53,102.73,102.73,0,0,0-3.92-10c-1.1-2.48-2.27-4.92-3.46-7.35.55-.2,1.11-.42,1.66-.65,1.92-.82,4.36-1.79,5.46-3.69a5.33,5.33,0,0,0,.22-4.67A95.33,95.33,0,0,1,160,59.26a17.78,17.78,0,0,1,3.76,6.12,57.11,57.11,0,0,1,1.86,8.39c.45,2.77.82,5.56,1.36,8.31a69.43,69.43,0,0,0,2.62,8.57,60.42,60.42,0,0,1,2.91,11.84,115.77,115.77,0,0,1,.58,12.35c.2,13.8,1.2,27.52,2.16,41.28.47,6.84.86,13.68,1.07,20.54q.19,5.93.23,11.85A34.7,34.7,0,0,1,175.9,196.46Z"/></g></svg>