<svg xmlns="http://www.w3.org/2000/svg" viewBox="0 0 235 235"><g id="hair-1"><g class="c-hair"><path d="M159.43,76.44c-2-5.51-7.31-12.77-13.17-12.87a2.29,2.29,0,0,0-2.55,1.61c-2,4-2.4,11.6-1.77,16A47.59,47.59,0,0,0,146,93.81c2.75,6.11,5.76-6.44,12.28-4.87.55.13,1.25.17,1.57-.3a1.5,1.5,0,0,0,.19-.73S163.19,86.68,159.43,76.44Z" /><path d="M71.52,79.14c2-5.5,7.31-12.77,13.18-12.87a2.88,2.88,0,0,1,1.4.23,3,3,0,0,1,1.15,1.38c2,4,2.39,11.6,1.76,16A47.59,47.59,0,0,1,85,96.51c-2.75,6.11-5.76-6.44-12.28-4.87-.55.13-1.24.17-1.57-.3a1.5,1.5,0,0,1-.19-.73S67.77,89.38,71.52,79.14Z" /></g><g id="stroke"><path d="M160.88,76c-2-5.25-5.67-10.93-11-13.18a9.24,9.24,0,0,0-3.95-.79,4,4,0,0,0-3.55,2.48,24.09,24.09,0,0,0-2,8.28,39.62,39.62,0,0,0,3.42,19.63c.71,1.69,1.54,4.47,3.81,4.54,1.51,0,2.67-1.17,3.6-2.19,1.29-1.43,2.51-3.09,4.23-4a3.61,3.61,0,0,1,2.34-.42c1.71.23,3.44,0,3.72-2l-1,1a3.78,3.78,0,0,0,2.13-2.81c.8-3.44-.53-7.31-1.68-10.51-.65-1.8-3.55-1-2.89.8.94,2.61,2,5.53,1.76,8.36a5.65,5.65,0,0,1-.15.82c-.12.49,0,.06-.18.44s.09.07-.1.13c-.34.11.17-.09,0,0l-.06,0c.31-.18.32-.24,0,0a1.69,1.69,0,0,0-.69.89c-.27,1,.13-.05.26,0-.12,0-.28,0-.41-.08a5.41,5.41,0,0,0-3.23.17,12.21,12.21,0,0,0-4.93,3.7c-.59.66-1.15,1.35-1.78,2-.13.14-.68.62-.57.53-.11.09-.24.13-.34.21.15-.12-.16,0,.11,0-.21,0,.21,0,.19,0s0,.12-.1-.1-.43-.75-.6-1.11a60.82,60.82,0,0,1-2.3-5.83c-2.06-6.26-2.56-13.61-.36-19.93.19-.55.5-1.68,1.05-2a4.18,4.18,0,0,1,2.41.25,10.91,10.91,0,0,1,4.11,2.54A23.65,23.65,0,0,1,158,76.84C158.66,78.63,161.56,77.85,160.88,76Z"/><path d="M73,79.54a24.06,24.06,0,0,1,4.88-7.93,14.36,14.36,0,0,1,3.71-3c.84-.44,3-1.41,3.92-.73s1.29,2.87,1.53,3.92a31.29,31.29,0,0,1,.68,4.81,32.18,32.18,0,0,1-.74,10A45,45,0,0,1,85,92.51a20.27,20.27,0,0,1-1.82,4.09c-.26.33-.15.13.09.1,0,0,.19.11-.08,0,.28.15-.06,0-.14-.11s-.38-.32-.58-.51-.59-.63-.88-1A19.29,19.29,0,0,0,77.23,91a7,7,0,0,0-3-1,6.6,6.6,0,0,0-1.6.1c-.07,0-.29,0-.34.07l-.1,0c-.24,0-.16.14.23.38.18-.33-.37-1-.59-1.16s-.86-.55-.18-.13l-.07,0c.33.15,0,.16,0,0s.18.27,0,0a3.07,3.07,0,0,1-.17-.31s0,.17,0-.11-.09-.35-.13-.52c-.53-2.6.77-6.19,1.71-8.78.65-1.82-2.24-2.6-2.9-.8-1.15,3.2-2.48,7.07-1.67,10.51a3.79,3.79,0,0,0,2.12,2.81l-1-1a2.56,2.56,0,0,0,3.13,2.16,4.49,4.49,0,0,1,2.44.07c1.58.61,2.77,2.06,3.86,3.29s2,2.54,3.47,3c1.67.55,3-.54,3.74-2a40.17,40.17,0,0,0,4.65-19.64,31.23,31.23,0,0,0-1.39-8.8,7.6,7.6,0,0,0-2.06-3.61c-1.19-.94-2.83-.84-4.24-.58-6.38,1.19-10.89,8.19-13,13.8C69.4,80.55,72.3,81.33,73,79.54Z"/></g></g></svg>