<svg xmlns="http://www.w3.org/2000/svg" viewBox="0 0 235 235"><g id="hair-6"><g class="c-hair"><path d="M146.5,61.87c.43-2.76-.05-8,2.06-9.56-2.44-.31-2.57-4.5-5-5.08a10.35,10.35,0,0,0-1.85-.06c-3.59-.2-5.6-5.55-9.15-5a28.16,28.16,0,0,0-3,1.12c-3,.81-6.17-1.92-9.08-.87-1.33.48-2.29,1.67-3.57,2.25-2.75,1.25-6.21-.54-8.91.81a19.06,19.06,0,0,1-2.27,1.31,7.31,7.31,0,0,1-3.41-.12A14.6,14.6,0,0,0,93.72,48a2.41,2.41,0,0,0-.93.7c-.55.81,0,1.88.17,2.84.38,1.88-.61,3.72-1.24,5.53a6.73,6.73,0,0,0-.36,3.51,1.71,1.71,0,0,0-.83.2c-13.91,6.72-6.19,33.46-6.19,33.46,10.41-12.17,9.77-22.71,9.77-22.71-.33-2.41-.31-6.83-1.15-9.25,4.4-.9,36.44-7.07,51.17.82-.33,3.07.53,9,.19,11.48,0,0-.64,10.55,9.77,22.72C154.09,97.31,162.13,72.55,146.5,61.87Z" /></g><g id="stroke"><path d="M127,49.26h0Z"/><path d="M129,48.35a1.53,1.53,0,0,0-1.77.88h0l-.11,0H127c.06,0,.1,0,0,0h0l-.25-.07h0c-.17-.09-.33-.17-.49-.27-.32-.19-.62-.41-.93-.61a5.36,5.36,0,0,0-2.5-.9,5.45,5.45,0,0,0-2.8.78,1.5,1.5,0,1,0,1.52,2.59l.31-.16.15-.06.2-.07.27-.07h.41l.16.05.2.09.23.12.5.32c.34.23.68.47,1,.67a4.21,4.21,0,0,0,2.88.51,3,3,0,0,0,2.21-2A1.51,1.51,0,0,0,129,48.35Zm-2.34.81c-.08,0-.07,0,0,0Zm.53.16s0,0,0,.08Zm.1-.13c.11-.08.07,0,0,0Z"/><path d="M155.69,70a15.94,15.94,0,0,0-7-7.48,4.85,4.85,0,0,0-.71-.27c.09-.52.13-1,.17-1.52.18-2.1-.29-5.92,1.5-7.39a1.5,1.5,0,0,0-.66-2.5c-.78-.15-1.11-.88-1.48-1.52a10,10,0,0,0-1.79-2.63,4.33,4.33,0,0,0-3-1.06,4.37,4.37,0,0,1-3.05-1.06c-1.63-1.33-3-3.11-5.09-3.76a5.06,5.06,0,0,0-3.47.22c-1.44.57-2.42,1-4,.68-2.7-.63-5.31-1.8-8-.31-1.11.62-2,1.67-3.22,2-1.44.42-3.06,0-4.53,0a8,8,0,0,0-4,.72c-.56.29-1,.72-1.6,1a4,4,0,0,1-2.5.12,16.73,16.73,0,0,0-9.48,1.08c-1.22.53-2.35,1.21-2.63,2.6a5.05,5.05,0,0,0,.21,2.25,4.69,4.69,0,0,1,0,2.52c-.51,1.94-1.5,3.81-1.57,5.77C78.61,65.39,79.6,80.71,82,91.17c.27,1.17.55,2.34.92,3.48a1.5,1.5,0,0,0,2.5.66A51,51,0,0,0,92.69,84c1.94-4.15,3.37-8.38,2.86-13a63.92,63.92,0,0,0-.74-7.56l.43-.08a159.32,159.32,0,0,1,20.89-2.56,91.75,91.75,0,0,1,15.19.29,33,33,0,0,1,12.56,3.57l.23.11c-1.09,3-1,7.54-1.23,9.29-.5,4.56.88,8.72,2.77,12.82A51.21,51.21,0,0,0,153,98.37a1.52,1.52,0,0,0,2.51-.66,55.73,55.73,0,0,0,2-9.9C158.3,81.9,158.21,75.54,155.69,70Zm-10.22-7.92c.07,0,.09,0,0,0ZM89.53,83.7A48.69,48.69,0,0,1,85,91a58.16,58.16,0,0,1-1.08-5.81c-.73-5.35-.87-11.26,1.24-16.33a13.37,13.37,0,0,1,5.38-6.37,2.88,2.88,0,0,0,1.24,1.14,16.42,16.42,0,0,1,.3,1.93c.27,2.33.52,4.74.62,7.09C92.86,76.51,91.22,80.33,89.53,83.7ZM120.4,57.65A156.75,156.75,0,0,0,96.93,60c-1,.18-2.09.37-3.13.57a3.34,3.34,0,0,0-1.09-1.17c0-1.77,1.32-3.93,1.62-5.33a7.64,7.64,0,0,0-.11-3.68c-.21-.84-.13-1,.64-1.3a14.07,14.07,0,0,1,2.45-.81,13.15,13.15,0,0,1,4.24-.26c1.41.14,2.82.59,4.24.27s2.16-1.27,3.37-1.69a10.77,10.77,0,0,1,4.12-.05,10.17,10.17,0,0,0,3.39-.23,13.9,13.9,0,0,0,3.62-2.13c2.12-1.35,4.63.24,6.85.58a6.74,6.74,0,0,0,3.64-.35c1-.4,2-1.11,3.08-.68,1.71.66,2.95,2.47,4.4,3.54a6.58,6.58,0,0,0,2.82,1.28c1.28.22,2.24-.27,3,.9a20.55,20.55,0,0,0,2.21,3.29,14.17,14.17,0,0,0-1,5.37c-.07,1.09-.07,2.29-.23,3.32,0,.12-.05.25-.07.39C137.65,57.89,128.54,57.5,120.4,57.65Zm25.33,18.07c.09-2.34.35-4.75.61-7.09a11.13,11.13,0,0,1,.63-3c.05-.11.17-.3.25-.43,9.84,5.26,8.4,19.42,6.26,28.56,0,.11,0,.21-.07.31a47.16,47.16,0,0,1-4.51-7.3C147.22,83.38,145.57,79.57,145.73,75.72Z"/></g><g id="accessory-1"><path d="M77.29,61.65c6.06-3.55,12.78-4.58,19.26-4.34s12.81,1.69,19.17,2.87c11.68,2.16,23.68,3.47,34.46,8.91,3.39,1.71,8.49,3.14,10.66,6.75,1.6-9.17-1.87-14.93-1.8-24.17a5.17,5.17,0,0,0-.21-1.86c-.3-.8-.84-3.85-1.48-4.25a263.4,263.4,0,0,0-25.44-14.15,30.6,30.6,0,0,0-6.62-1.6,39.6,39.6,0,0,0-6.54-.64c-17.56,1.59-18.87,2.56-30.91,8.1a7.73,7.73,0,0,0-2.42,1.13c-1.07,1.05-1.43,2.83-1.7,4.45C82.66,49,77.88,55.1,76.83,61.28" fill="#00204a"/><path d="M160.84,75.84c-13.27,1.91-30.57-2.07-43.95-2.88-9.85-.59-19.71-1.24-29.46-2.73-12-1.84-16.56-.55-25.29-9a11.2,11.2,0,0,1-3-4.15c9,2.46,10.17.59,19,3.8l23.49-14L161.2,73Z" fill="#00204a"/><path d="M124.19,54.22a7.27,7.27,0,0,0-2.72-2.29l.31,2.36c1.73-1.36,2.3-3.72,2.44-5.81a10.27,10.27,0,0,0-1.44-6.15c-2.22-3.43-7.39-4.8-10.51-1.71a1.5,1.5,0,0,0,2.12,2.13,3.25,3.25,0,0,1,3-.78,4.35,4.35,0,0,1,3,2.22,7.58,7.58,0,0,1,.82,4.19,5,5,0,0,1-1.56,3.78,1.51,1.51,0,0,0,.3,2.36c.24.11.49.22.72.34l.3.19c-.16-.1-.15-.14,0,0,.39.42.74.85,1.11,1.29a1.51,1.51,0,0,0,2.12,0,1.53,1.53,0,0,0,0-2.12Z" fill="#fff"/><path d="M115.58,54.14a3.86,3.86,0,0,1-4.33.39,4.43,4.43,0,0,1-2-4.07,11,11,0,0,1,.34-2.79,16.67,16.67,0,0,0,.78-2.93c.09-1.54-1.06-2.85-2-4a1.51,1.51,0,0,0-2.13,0,1.55,1.55,0,0,0,0,2.12s.16.2,0,0,.2.27.23.31c.22.3.43.6.63.92.44.71-.17,1.6-.38,2.35a11.89,11.89,0,0,0-.13,6.84,6.81,6.81,0,0,0,10.4,3.39,1.54,1.54,0,0,0,.54-2,1.51,1.51,0,0,0-2-.54Z" fill="#fff"/><path d="M115.14,47.64l-.82.62.76-.21h0l.39.06-.19-.06.36.15a.72.72,0,0,1-.19-.11l.3.23a.91.91,0,0,1-.17-.17l.23.3a1.13,1.13,0,0,1-.12-.21l.15.35a.88.88,0,0,1-.07-.23l0,.4a1.33,1.33,0,0,1,0-.2l0,.4a.75.75,0,0,1,0-.16l-.15.36a.63.63,0,0,1,.07-.12l-.23.3a.47.47,0,0,1,.1-.1l-.31.24a.21.21,0,0,1,.1-.06l-.36.15.11,0-.4.05h.15l-.4-.05a.43.43,0,0,1,.16.05l-.36-.16a.78.78,0,0,1,.18.11l-.3-.23a.67.67,0,0,1,.15.14l-.24-.3a.67.67,0,0,1,.09.14l-.16-.36a.56.56,0,0,1,0,.12l-.06-.4a.17.17,0,0,1,0,.1l.06-.4,0,.09.15-.36a.22.22,0,0,1,0,.08l.24-.3,0,0a1.14,1.14,0,0,0-.31.48,1.36,1.36,0,0,0,0,1.16,1.08,1.08,0,0,0,.31.48l.3.24a1.57,1.57,0,0,0,.76.2l.4-.05a1.44,1.44,0,0,0,.66-.39l0,0a2.85,2.85,0,0,0,.25-.33.05.05,0,0,0,0,0h0a3.08,3.08,0,0,0,.16-.38,1.47,1.47,0,0,0,.08-.55c0-.13,0-.3-.06-.43s0,0,0,0a2.89,2.89,0,0,0-.18-.44s0,0,0-.08-.19-.25-.29-.37A2.17,2.17,0,0,0,116,47a.62.62,0,0,0-.17-.11,4,4,0,0,0-.44-.17,2.53,2.53,0,0,0-.48-.08h-.14c-.14,0-.3,0-.44.06a1.7,1.7,0,0,0-.52.22,2.41,2.41,0,0,0-.67.68,2.09,2.09,0,0,0-.3,1.14,4.1,4.1,0,0,0,.06.49l0,.11a2.33,2.33,0,0,0,.11.28,2.39,2.39,0,0,0,.13.28l.06.1a3.57,3.57,0,0,0,.3.38.3.3,0,0,0,.08.08,2.88,2.88,0,0,0,.39.3.41.41,0,0,0,.11.07,3.85,3.85,0,0,0,.47.19,1.64,1.64,0,0,0,.32.05l.21,0a1.06,1.06,0,0,0,.58-.13.46.46,0,0,0,.19-.08l.09-.07.72-.54a1.18,1.18,0,0,0,.42-.38,1.26,1.26,0,0,0,.27-.51,1.22,1.22,0,0,0,0-.6,1.12,1.12,0,0,0-.18-.56l-.24-.3a1.44,1.44,0,0,0-.66-.39l-.4-.05a1.57,1.57,0,0,0-.76.2Z" fill="#00bbf0"/><path d="M80.09,60.73c1-5.84,4.07-11.06,5.35-16.84.26-1.18.38-2.41.75-3.56A3.61,3.61,0,0,1,87,38.79c.6-.56,1.42-.57,2.12-.9.33-.16.65-.38,1-.56A57.13,57.13,0,0,1,110.38,31a51.24,51.24,0,0,1,30,5.56,66.19,66.19,0,0,1,15.51,11.16,13.77,13.77,0,0,0,1.11,1c.51.38.94.56,1.05,1.26a17.81,17.81,0,0,1,0,2.31c0,1.56.2,3.11.4,4.65.81,6,2.44,11.77,1.42,17.87l2.74-.36a8.66,8.66,0,0,0-3-3.12,19.24,19.24,0,0,0-3.37-1.26,15.12,15.12,0,0,0-2.3-.84c-1.6-.27-3.23-.45-4.85-.67l-20.83-2.9-26-3.6L82.83,59.41c-1.22-.17-2.5-.24-3.71-.51-2.2-.5-4.27-1.42-6.53-1.81-2.41-.42-4.87-.5-7.3-.87a49,49,0,0,1-5.22-1.13c-1-.27-2.27.74-1.85,1.84,1.25,3.25,4.06,5.67,6.74,7.76a24.37,24.37,0,0,0,6.84,3.83A34.29,34.29,0,0,0,79,70c3.19.42,6.39.77,9.57,1.24,8.67,1.27,17.42,1.93,26.17,2.47,7.43.46,14.77,1.44,22.15,2.33,8.25,1,16.63,1.82,24.9.66,1.91-.26,1.1-3.15-.79-2.89-6.9,1-14,.35-20.89-.4-7-.77-14.07-1.9-21.15-2.43-8.21-.62-16.43-1-24.62-2-3.74-.44-7.47-1.06-11.22-1.51-2.48-.29-5-.52-7.44-1a20.6,20.6,0,0,1-7-2.85,29.72,29.72,0,0,1-3.72-2.9c-1.44-1.31-3-2.72-3.76-4.58L59.27,58a54.56,54.56,0,0,0,9.06,1.59,37.06,37.06,0,0,1,7.8,1.49,23.92,23.92,0,0,0,4.43,1l17.5,2.43,25.53,3.55,22.15,3.07,6.39.89a22.71,22.71,0,0,1,5.42,1.65A5.28,5.28,0,0,1,160.06,76c.62,1,2.52,1,2.74-.35,1-5.72,0-11.08-1-16.71a77.65,77.65,0,0,1-.74-8.74A4.46,4.46,0,0,0,159.63,47c-.39-.34-.65-.44-.93-.68-1.46-1.27-2.79-2.68-4.29-3.92a73.87,73.87,0,0,0-9.6-6.78,54.65,54.65,0,0,0-30.64-7.9,61.31,61.31,0,0,0-24.56,6.51c-.63.32-1.26.78-1.92,1a8.24,8.24,0,0,0-2.48,1.14,6.84,6.84,0,0,0-2.06,3.69c-.4,1.56-.6,3.15-1,4.71-.48,1.71-1.09,3.37-1.72,5a57.66,57.66,0,0,0-3.2,10.11c-.34,1.88,2.55,2.69,2.9.79Z"/></g></g></svg>