<svg xmlns="http://www.w3.org/2000/svg" viewBox="0 0 235 235"><g id="hair-1"><g class="c-hair"><path d="M158.82,77.44c-1.43-5.51-5.17-12.77-9.31-12.87a1.52,1.52,0,0,0-1,.23,3,3,0,0,0-.82,1.38c-1.41,4-1.69,11.6-1.24,16a61.94,61.94,0,0,0,2.86,12.64c1.94,6.11,4.07-6.44,8.67-4.87.39.13.89.17,1.11-.3a1.9,1.9,0,0,0,.14-.73S161.47,87.68,158.82,77.44Z"  /></g><g class="c-hair" data-name="c-hair"><path d="M79,77.44c1.29-5.51,4.66-12.77,8.39-12.87a1.28,1.28,0,0,1,.9.23A3.12,3.12,0,0,1,89,66.18c1.27,4,1.52,11.6,1.12,16a68.24,68.24,0,0,1-2.58,12.64c-1.75,6.11-3.67-6.44-7.82-4.87-.35.13-.8.17-1-.3a2.11,2.11,0,0,1-.12-.73S76.58,87.68,79,77.44Z"  /></g><path id="stroke" d="M91.06,68.42c-.43-2.46-1.12-5.8-4.32-5.29-2.55.41-4.35,2.72-5.61,4.79A32.23,32.23,0,0,0,77.52,77c-.76,3.34-1.6,7-1.07,10.45a5,5,0,0,0,.75,2.1,2.17,2.17,0,0,0,2.63,1.87,4.59,4.59,0,0,0,.56-.15l.18,0,.37.2a11.42,11.42,0,0,1,2.19,3.14c.6,1.06,1.22,2.46,2.34,3.07,1.6.86,2.8-.55,3.31-1.92a52.8,52.8,0,0,0,2.37-10,53,53,0,0,0,.64-8.63A53.81,53.81,0,0,0,91.06,68.42Zm-4.13,26.7c.2,0,.08.2,0,0Zm1.13-8.94c-.33,1.89-.77,3.76-1.25,5.61-.2.74-.4,1.48-.61,2.22l-.47-.85a12.49,12.49,0,0,0-3-4,3.83,3.83,0,0,0-2.27-.85c-.07,0-.27,0-.5,0a.67.67,0,0,0-.08-.17,1,1,0,0,0-.24-.26h0a.3.3,0,0,1-.07-.11l0,0,0,0a.14.14,0,0,1,0-.07s0,0,0,0a2.76,2.76,0,0,1-.08-.27L79.38,87a.9.9,0,0,1,0-.26,28.3,28.3,0,0,1,1.07-8.86,29,29,0,0,1,3.39-8.55,9,9,0,0,1,2.34-2.73c.19-.13.89-.62,1.17-.5s.42,1.17.49,1.47a40.58,40.58,0,0,1,1,8.93A49.45,49.45,0,0,1,88.06,86.18Z"/><path id="stroke-2" data-name="stroke" d="M160.26,77A31.84,31.84,0,0,0,157,69c-1.26-2.12-2.93-4.36-5.24-5.39a4.54,4.54,0,0,0-3.64-.25c-1.25.58-1.71,2-2.07,3.25A36.88,36.88,0,0,0,144.83,75a55.11,55.11,0,0,0,2.64,18.94c.45,1.5,1,4.09,3,4.1,1.43,0,2.32-1.4,3-2.46.81-1.27,1.65-3,2.78-3.84a1.18,1.18,0,0,1,1.3-.32,2.3,2.3,0,0,0,3-1.69,4.77,4.77,0,0,0,.87-2.2C162,84.05,161.11,80.35,160.26,77ZM150.07,95.12h0l0,0S150.09,95.12,150.07,95.12Zm1,.08.05,0S151.06,95.22,151.06,95.2Zm0,0s0,0,0,0Zm7.42-7.56a1,1,0,0,1-.19.17.09.09,0,0,0,0,0C158.42,87.66,158.53,87.56,158.49,87.61Zm.11-1.53a4.5,4.5,0,0,1-.26,1.55v0s-.05.1-.06.1l0,0s0,0,0,0l-.05.07-.14.13a2.33,2.33,0,0,0-.17.26,6.36,6.36,0,0,0-2,.29c-1.68.61-2.81,2.18-3.75,3.61-.45.69-.86,1.4-1.32,2.08l0,.07c-.63-1.85-1.15-3.74-1.61-5.64a46,46,0,0,1-.67-19.46A19.82,19.82,0,0,1,149,67c.21-.65.23-1,.93-.84A6.42,6.42,0,0,1,153,68.51a25.34,25.34,0,0,1,4.35,9.33A28.8,28.8,0,0,1,158.6,86.08Z"/><g class="accessory-1"><path d="M77.29,63.64c6.06-3.55,12.78-4.58,19.26-4.34s12.81,1.68,19.17,2.86c11.68,2.17,23.68,3.48,34.46,8.92,3.39,1.7,8.49,3.14,10.66,6.75,1.6-9.18-1.87-14.93-1.8-24.17a5.17,5.17,0,0,0-.21-1.86c-.3-.8-.84-3.85-1.48-4.25A263.4,263.4,0,0,0,131.91,33.4a30,30,0,0,0-6.62-1.6,39.6,39.6,0,0,0-6.54-.64c-17.56,1.59-18.87,2.56-30.91,8.1a7.73,7.73,0,0,0-2.42,1.13c-1.07,1-1.43,2.83-1.7,4.45C82.66,51,77.88,57.08,76.83,63.27" fill="#00204a"/><path d="M160.84,77.83c-13.27,1.91-30.57-2.08-43.95-2.88-9.85-.6-19.71-1.24-29.46-2.74-12-1.83-16.56-.54-25.29-9a11.2,11.2,0,0,1-3-4.15c9,2.45,10.17.58,19,3.79l23.49-14L161.2,75Z" fill="#00204a"/><path d="M124.19,56.21a7.18,7.18,0,0,0-2.72-2.29l.31,2.35c1.73-1.35,2.3-3.71,2.44-5.8a10.27,10.27,0,0,0-1.44-6.15c-2.22-3.43-7.39-4.8-10.51-1.71-1.38,1.36.74,3.48,2.12,2.12a3.27,3.27,0,0,1,3-.77,4.35,4.35,0,0,1,3,2.22,7.58,7.58,0,0,1,.82,4.19,5,5,0,0,1-1.56,3.78,1.51,1.51,0,0,0,.3,2.36c.24.11.49.21.72.34l.3.19c-.16-.1-.15-.14,0,0,.39.42.74.85,1.11,1.29a1.5,1.5,0,0,0,2.12-2.12Z" fill="#fff"/><path d="M115.58,56.13a3.86,3.86,0,0,1-4.33.39,4.44,4.44,0,0,1-2-4.07,10.93,10.93,0,0,1,.34-2.79,16.67,16.67,0,0,0,.78-2.93c.09-1.54-1.06-2.85-2-4a1.51,1.51,0,0,0-2.13,0,1.55,1.55,0,0,0,0,2.12s.16.2,0,0l.23.31c.22.3.43.6.63.92.44.71-.17,1.6-.38,2.35a11.86,11.86,0,0,0-.13,6.83,6.81,6.81,0,0,0,10.4,3.4,1.55,1.55,0,0,0,.54-2.06,1.5,1.5,0,0,0-2-.53Z" fill="#fff"/><path d="M115.14,49.63l-.82.62.76-.21h0l.39.05a.77.77,0,0,1-.19-.05l.36.15a1.18,1.18,0,0,1-.19-.11l.3.23a.73.73,0,0,1-.17-.18l.23.31a.94.94,0,0,1-.12-.22l.15.36a.88.88,0,0,1-.07-.23l0,.4a1.34,1.34,0,0,1,0-.2l0,.4a.75.75,0,0,1,0-.16l-.15.36s0-.09.07-.13l-.23.31a.47.47,0,0,1,.1-.1l-.31.23.1-.05-.36.15a.2.2,0,0,1,.11,0l-.4,0h.15l-.4,0,.16,0-.36-.15a.78.78,0,0,1,.18.11l-.3-.24.15.15-.24-.3a.6.6,0,0,1,.09.13l-.16-.35a.34.34,0,0,1,0,.12l-.06-.4a.14.14,0,0,1,0,.09l.06-.4,0,.1.15-.36a.35.35,0,0,1,0,.08l.24-.3s0,0,0,0a1,1,0,0,0-.31.48,1.36,1.36,0,0,0,0,1.16,1.14,1.14,0,0,0,.31.48l.3.23a1.48,1.48,0,0,0,.76.21l.4-.05a1.53,1.53,0,0,0,.66-.39l0,0a4.08,4.08,0,0,0,.25-.33.05.05,0,0,0,0,0v0a2.43,2.43,0,0,0,.16-.37,1.52,1.52,0,0,0,.08-.56c0-.13,0-.29-.06-.42s0,0,0,0a2.77,2.77,0,0,0-.18-.43.59.59,0,0,0,0-.08c-.09-.13-.19-.25-.29-.37a2.22,2.22,0,0,0-.44-.37,1,1,0,0,0-.17-.1,4,4,0,0,0-.44-.17,2.53,2.53,0,0,0-.48-.08h-.14a3.32,3.32,0,0,0-.44.06,1.7,1.7,0,0,0-.52.22,2.41,2.41,0,0,0-.67.68,2.09,2.09,0,0,0-.3,1.14,3.7,3.7,0,0,0,.06.48l0,.12a2.33,2.33,0,0,0,.11.28c0,.09.08.19.13.28l.06.1a3.57,3.57,0,0,0,.3.38.6.6,0,0,0,.08.08,2.88,2.88,0,0,0,.39.3.41.41,0,0,0,.11.07,3.85,3.85,0,0,0,.47.19,1.64,1.64,0,0,0,.32,0l.21,0a1.06,1.06,0,0,0,.58-.13.46.46,0,0,0,.19-.08l.09-.07.72-.54a1.18,1.18,0,0,0,.42-.38,1.26,1.26,0,0,0,.27-.51,1.22,1.22,0,0,0,0-.6,1.12,1.12,0,0,0-.18-.56l-.24-.3a1.44,1.44,0,0,0-.66-.39l-.4,0a1.57,1.57,0,0,0-.76.2Z" fill="#00bbf0"/><path d="M80.09,62.72c1-5.84,4.07-11.07,5.35-16.84.26-1.18.38-2.41.75-3.57A3.52,3.52,0,0,1,87,40.78c.6-.56,1.42-.57,2.12-.9.33-.16.65-.38,1-.56A56.92,56.92,0,0,1,110.38,33a51.17,51.17,0,0,1,30,5.56,65.86,65.86,0,0,1,15.51,11.15A12.32,12.32,0,0,0,157,50.78c.51.38.94.56,1.05,1.26a17.78,17.78,0,0,1,0,2.31c0,1.56.2,3.11.4,4.65.81,6,2.44,11.77,1.42,17.87l2.74-.36a8.66,8.66,0,0,0-3-3.12,19.24,19.24,0,0,0-3.37-1.26,14.12,14.12,0,0,0-2.3-.84c-1.6-.28-3.23-.45-4.85-.67l-20.83-2.9-26-3.61L82.83,61.4c-1.22-.17-2.5-.24-3.71-.51-2.2-.5-4.27-1.42-6.53-1.82-2.41-.42-4.87-.49-7.3-.86a49,49,0,0,1-5.22-1.13c-1-.28-2.27.74-1.85,1.84,1.25,3.25,4.06,5.67,6.74,7.76a24.37,24.37,0,0,0,6.84,3.83A34.29,34.29,0,0,0,79,72c3.19.41,6.39.77,9.57,1.24,8.67,1.27,17.42,1.93,26.17,2.47,7.43.46,14.77,1.44,22.15,2.33,8.25,1,16.63,1.82,24.9.66,1.91-.27,1.1-3.16-.79-2.89-6.9,1-14,.35-20.89-.4-7-.77-14.07-1.9-21.15-2.43-8.21-.62-16.43-1-24.62-2-3.74-.44-7.47-1.06-11.22-1.51-2.48-.29-5-.52-7.44-1a20.6,20.6,0,0,1-7-2.85,30.68,30.68,0,0,1-3.72-2.9c-1.44-1.31-3-2.72-3.76-4.59L59.27,60a54.56,54.56,0,0,0,9.06,1.59,36.44,36.44,0,0,1,7.8,1.49,25.64,25.64,0,0,0,4.43,1l17.5,2.43,25.53,3.55,22.15,3.07,6.39.89a22.71,22.71,0,0,1,5.42,1.65A5.28,5.28,0,0,1,160.06,78c.62,1,2.52,1,2.74-.36,1-5.71,0-11.07-1-16.7a77.63,77.63,0,0,1-.74-8.75A4.46,4.46,0,0,0,159.63,49c-.39-.34-.65-.44-.93-.69-1.46-1.27-2.79-2.67-4.29-3.91a74,74,0,0,0-9.6-6.79,54.81,54.81,0,0,0-30.64-7.9A61.63,61.63,0,0,0,89.61,36.2c-.63.32-1.26.79-1.92,1a8.24,8.24,0,0,0-2.48,1.14,6.81,6.81,0,0,0-2.06,3.69c-.4,1.56-.6,3.15-1,4.71s-1.09,3.37-1.72,5a57.82,57.82,0,0,0-3.2,10.1c-.34,1.89,2.55,2.7,2.9.8Z"/></g></g></svg>