<svg xmlns="http://www.w3.org/2000/svg" viewBox="0 0 235 235"><g id="hair-4"><g class="c-hair"><path d="M161.89,71.31c-1-1.76-2.41-3.2-3.29-5-1.51-3.08-1-2.61,1.18-5.21a11.93,11.93,0,0,0,1.83-2.26,4.69,4.69,0,0,0-1.31-5.32A10.46,10.46,0,0,0,155,51.24l.51,0c-8.48-2.34-17.16-8.27-25.93-9-5.67-.44-11.57-.49-16.82,1.71a17.2,17.2,0,0,0-7.21,5.69q.35-.81.63-1.62V46.9c-.62-1.46-3-1.12-4.62-1.17a25.13,25.13,0,0,0-18.72,8.06,33.09,33.09,0,0,0-8.43,18.84c-.83,7,2.33,14.6,9.58,20,2.33-2.81,1.46-4.5,2-7.57.64-4,.92-9.11,2.69-12.75,3-6.14,2.86-6.68,6.62-8.18,2.51-1,2.88-.49,5.45-1.35a1.19,1.19,0,0,0,.66-.4,1.32,1.32,0,0,0,.13-.79,16.26,16.26,0,0,1,2-7.47,11.45,11.45,0,0,0-.33,2.69,7.37,7.37,0,0,0,2.3,5.6,9.55,9.55,0,0,0,4.33,1.75c10,2,20.72-.31,30.22,3.34a14.67,14.67,0,0,1,5.28,3.24c3.27,3.34,3.82,8.38,5,12.9s1.24,12.16,5.89,12.67a3.55,3.55,0,0,0,3.64-1.52A4.61,4.61,0,0,0,160.1,93l.48-8C160.81,81.23,163.67,74.59,161.89,71.31Z"  /></g><path id="stroke" d="M163.08,70.36c-.9-1.62-2.22-3-3.09-4.61a5.08,5.08,0,0,1-.75-1.74v0a3.48,3.48,0,0,1,.24-.28A33.6,33.6,0,0,0,162.7,60c1.86-3,.15-6.68-2.56-8.46A11.73,11.73,0,0,0,156.43,50a1.5,1.5,0,0,0-.55-.28c-7.24-2-13.73-6.12-21-8.07a41.68,41.68,0,0,0-11-1.18,30.57,30.57,0,0,0-11.37,1.92,19.91,19.91,0,0,0-5.4,3.29c-1.18-1.55-3.36-1.47-5.17-1.48A26.34,26.34,0,0,0,81.47,53,33.55,33.55,0,0,0,74,67c-1.22,4.5-1.68,9.15-.36,13.68A26,26,0,0,0,83.2,94,1.5,1.5,0,0,0,85,93.72a9.09,9.09,0,0,0,2.14-5c.16-1.77.26-3.51.5-5.28.28-2.08.52-4.17,1-6.23a26.46,26.46,0,0,1,2.18-6c1-2.11,1.76-4.17,3.84-5.18A15.31,15.31,0,0,1,99,64.78c1.8-.3,3.89-.78,4-3v0a7.29,7.29,0,0,0,3.17,2.86c3.21,1.48,7.14,1.66,10.63,1.85,7.6.4,15.54-.33,22.78,2.48a11.56,11.56,0,0,1,7.09,6.94A65.87,65.87,0,0,1,149,85.13c.87,4.1,1.06,11.17,6.07,12.54,3.11.85,6.15-.86,6.48-4.12.35-3.53.12-7.16.84-10.63C163,80,164,77.12,164,74.15A7.78,7.78,0,0,0,163.08,70.36ZM97.65,62a16.17,16.17,0,0,0-4.43,1.43c-2.18,1-3.31,2.83-4.35,4.94a46,46,0,0,0-2.42,5.36,32.19,32.19,0,0,0-1.28,5.92c-.32,2.17-.7,4.38-.88,6.57a12.46,12.46,0,0,1-.7,4.27A22.59,22.59,0,0,1,77,81.51a20,20,0,0,1-.75-11.34c1.79-9,7.11-17.22,15.65-21a21.82,21.82,0,0,1,7.18-1.86c1.11-.09,2.21-.05,3.32-.05.58,0,1.84-.18,2.31.3l0,.09c-.15.43-.32.86-.5,1.29A14.27,14.27,0,0,0,102,53.67a21.15,21.15,0,0,0-1.87,5.59c-.07.45-.12.91-.15,1.37,0,.22-.12.61,0,.79s0,0,0,0A10.52,10.52,0,0,1,97.65,62Zm62.59,17a47,47,0,0,0-1.27,7.9c-.1,1.73-.21,3.46-.31,5.19,0,.64.08,1.69-.34,2.24a2.26,2.26,0,0,1-1.9.59c-1.9-.16-2.65-2.17-3.12-3.76-.68-2.31-.94-4.71-1.46-7-1.23-5.58-2.21-12-7.11-15.68-5.44-4-13-4.47-19.5-4.65-3.41-.09-6.84-.08-10.24-.35a40.32,40.32,0,0,1-5.26-.72,6.4,6.4,0,0,1-4-2,7.22,7.22,0,0,1-.89-5.93c.66-1.41,1.35-2.8,2-4.23a15.4,15.4,0,0,1,4.43-4,22.58,22.58,0,0,1,10.67-2.86,40.25,40.25,0,0,1,11.79.91c7,1.78,13.24,5.58,20.08,7.76a1.33,1.33,0,0,0,.82.47A10,10,0,0,1,159,54.33c1.07.84,1.94,2.4,1.37,3.76-.9,2.15-4.14,3.35-4.09,5.94a8,8,0,0,0,1.27,3.42c.82,1.5,2,2.77,2.88,4.24C161.63,73.79,160.74,76.75,160.24,79Z"/><g class="accessory-1"><path d="M75.41,62.79C81.82,59,88.93,57.94,95.78,58.2s13.56,1.78,20.28,3c12.35,2.29,25,3.68,36.45,9.43,3.58,1.8,9,3.32,11.27,7.14,1.7-9.71-2-15.79-1.9-25.57a5.28,5.28,0,0,0-.22-2c-.32-.85-.89-4.08-1.57-4.5a279.41,279.41,0,0,0-26.9-15,32.35,32.35,0,0,0-7-1.69c-1.76-.21-5.11-.84-6.93-.68-18.57,1.68-20,2.71-32.69,8.58A7.84,7.84,0,0,0,84,38.2c-1.14,1.1-1.51,3-1.8,4.71-1.12,6.54-6.17,13-7.29,19.49" fill="#00204a"/><path d="M163.78,77.8c-14,2-32.33-2.2-46.48-3-10.42-.63-20.85-1.31-31.16-2.89-12.69-1.94-17.52-.58-26.76-9.49A11.81,11.81,0,0,1,56.22,58c9.57,2.6,10.76.63,20.07,4l24.84-14.8,63,27.56Z" fill="#00204a"/><path d="M125,55a7.75,7.75,0,0,0-2.86-2.41l.31,2.36c1.81-1.42,2.4-3.89,2.55-6.08a10.75,10.75,0,0,0-1.51-6.46c-2.32-3.59-7.72-5-11-1.79-1.38,1.36.75,3.48,2.12,2.12,1.94-1.92,5.22-.7,6.49,1.55a8,8,0,0,1,.89,4.47,5.39,5.39,0,0,1-1.69,4.07,1.5,1.5,0,0,0,.31,2.35c.25.12.51.23.76.37l.31.19c-.16-.11-.11-.11,0,0,.4.44.78.9,1.16,1.36a1.52,1.52,0,0,0,2.13,0A1.54,1.54,0,0,0,125,55Z" fill="#fff"/><path d="M116,54.92a4.18,4.18,0,0,1-4.67.41A4.78,4.78,0,0,1,109.15,51a11.53,11.53,0,0,1,.37-3,17.47,17.47,0,0,0,.81-3.08c.11-1.6-1.11-3-2-4.15a1.5,1.5,0,0,0-2.12,0,1.54,1.54,0,0,0,0,2.12s.16.21,0,.06l.25.33c.24.32.46.64.67,1,.49.78-.16,1.73-.39,2.54a12.49,12.49,0,0,0-.14,7.19,7.12,7.12,0,0,0,10.88,3.54,1.54,1.54,0,0,0,.54-2,1.52,1.52,0,0,0-2.06-.54Z" fill="#fff"/><path d="M115.49,48.05l-.86.65.75-.21h0l.4,0a.46.46,0,0,1-.2,0l.35.15-.21-.12.31.23a1.07,1.07,0,0,1-.19-.18l.24.3a1,1,0,0,1-.13-.23l.15.36a1.09,1.09,0,0,1-.07-.24l0,.4a.81.81,0,0,1,0-.22l0,.4a1,1,0,0,1,0-.17l-.15.36.08-.13-.24.31a.57.57,0,0,1,.11-.11l-.31.24a.27.27,0,0,1,.1-.06l-.36.15a.27.27,0,0,1,.12,0L115,50a.43.43,0,0,1,.16,0l-.4-.05.17,0-.36-.15a1.18,1.18,0,0,1,.19.11l-.3-.23a1.21,1.21,0,0,1,.16.16l-.24-.31a.46.46,0,0,1,.09.15l-.15-.36a.5.5,0,0,1,0,.13l0-.4v.1l0-.4a.19.19,0,0,1,0,.1l.16-.36a.56.56,0,0,1,0,.08l.23-.3,0,.05a1,1,0,0,0-.31.48,1.15,1.15,0,0,0-.13.58,1.72,1.72,0,0,0,.44,1.06,1.56,1.56,0,0,0,1.06.44l.4-.06a1.57,1.57,0,0,0,.66-.38l0,0a3,3,0,0,0,.25-.34l0,0a2.66,2.66,0,0,0,.16-.39,1.36,1.36,0,0,0,.08-.56,3.32,3.32,0,0,0-.06-.44.06.06,0,0,0,0,0,2.14,2.14,0,0,0-.18-.44l0-.09c-.09-.13-.19-.25-.29-.37a2,2,0,0,0-.45-.37,1.18,1.18,0,0,0-.19-.11c-.14-.06-.28-.13-.43-.18a4.13,4.13,0,0,0-.49-.07H115a3.32,3.32,0,0,0-.44.06,1.6,1.6,0,0,0-.52.22,2.24,2.24,0,0,0-.68.69,1.8,1.8,0,0,0-.24.55,2.08,2.08,0,0,0-.07.61,2.63,2.63,0,0,0,.06.49.79.79,0,0,0,0,.13c0,.09.07.19.11.28a2.55,2.55,0,0,0,.13.29.61.61,0,0,0,.07.1,3.57,3.57,0,0,0,.3.38l.09.09a2.88,2.88,0,0,0,.39.3l.12.07a2.76,2.76,0,0,0,.47.2,1.88,1.88,0,0,0,.33.05l.21,0a1.06,1.06,0,0,0,.58-.13.41.41,0,0,0,.19-.08l.1-.07.76-.57a1.21,1.21,0,0,0,.42-.39,1.14,1.14,0,0,0,.27-.51,1.11,1.11,0,0,0,0-.6,1,1,0,0,0-.17-.55l-.24-.31a1.51,1.51,0,0,0-.66-.38l-.4-.06a1.48,1.48,0,0,0-.76.21Z" fill="#00bbf0"/><path d="M78.28,61.8c1.09-6.07,4.18-11.51,5.59-17.48.31-1.31.45-2.66.82-3.94a3.31,3.31,0,0,1,2.51-2.56,8.42,8.42,0,0,0,1.58-.74,60.39,60.39,0,0,1,21-6.7,54.1,54.1,0,0,1,31.9,5.55,70.46,70.46,0,0,1,16.85,12c.31.3.6.65.93.93.56.49,1.19.67,1.42,1.45A10.59,10.59,0,0,1,161,52.9a47.39,47.39,0,0,0,.42,4.9c.85,6.38,2.59,12.52,1.5,19l2.75-.35a9.17,9.17,0,0,0-3-3.24A18.74,18.74,0,0,0,159,71.86a15,15,0,0,0-2.45-.89c-1.68-.29-3.39-.48-5.09-.71l-22-3.06L102,63.39,81.28,60.51c-1.3-.18-2.67-.26-4-.55a21,21,0,0,1-2-.68,35.55,35.55,0,0,0-4.75-1.21c-2.63-.47-5.29-.54-7.92-1a51.08,51.08,0,0,1-5.46-1.19c-1-.27-2.27.74-1.84,1.85,1.33,3.49,4.4,6.09,7.3,8.31A25.3,25.3,0,0,0,69.75,70a37.61,37.61,0,0,0,7.66,1.57c3.28.42,6.57.78,9.85,1.27,9.08,1.34,18.25,2,27.41,2.6,7.94.5,15.78,1.52,23.67,2.47,8.74,1.06,17.62,1.95,26.39.72,1.9-.27,1.09-3.16-.8-2.89-7.32,1-14.84.37-22.15-.43-7.54-.83-15-2-22.61-2.58-8.66-.64-17.32-1.06-25.94-2.1-3.86-.46-7.7-1.1-11.56-1.56-2.67-.31-5.35-.55-8-1.11a21.93,21.93,0,0,1-7.34-2.92,30.12,30.12,0,0,1-4.06-3.14C60.72,60.51,59,59,58.22,57l-1.85,1.85A58,58,0,0,0,66,60.5a39.24,39.24,0,0,1,8.32,1.61,16,16,0,0,0,2.66.81l2,.27,18.58,2.58,27,3.74,23.45,3.26,6.71.93a11.5,11.5,0,0,1,1.45.2,2.34,2.34,0,0,1,.47.18c1.25.51,2.56.86,3.81,1.36A5.69,5.69,0,0,1,163,78c.62,1,2.51,1,2.74-.36a34,34,0,0,0,.28-9.4c-.32-2.89-.92-5.74-1.4-8.61-.23-1.35-.42-2.7-.54-4.07-.16-1.73,0-3.49-.21-5.22a4.48,4.48,0,0,0-1.75-3.17c-.36-.28-.47-.31-.75-.56-1.59-1.41-3.07-2.93-4.72-4.28a78,78,0,0,0-10.24-7.17A57.65,57.65,0,0,0,113.74,27a65,65,0,0,0-25.35,6.88c-.65.33-1.29.79-2,1.08a8.83,8.83,0,0,0-2.76,1.33,7.61,7.61,0,0,0-2,4C81.24,42,81,43.59,80.53,45.2,80,47,79.35,48.81,78.67,50.58A58.62,58.62,0,0,0,75.39,61c-.34,1.89,2.55,2.7,2.89.8Z"/></g></g></svg>