<svg xmlns="http://www.w3.org/2000/svg" viewBox="0 0 235 235"><g id="hair-6"><g class="c-hair"><path d="M184.67,118.84c-.92-3-3.14-5.33-4.5-8.12-3.71-7.64-.38-16.91-2.36-25.17a6.52,6.52,0,0,0-1.19-2.7c-1.16-1.4-3.1-1.8-4.73-2.6-8.55-4.23-7.92-19-17-22-1.83-.61-3.85-.62-5.6-1.45-2-1-3.35-2.86-4.92-4.43C139,46.91,130.64,45.51,123,46s-15.16,2.56-22.83,2.93c-3.94.18-8.3.06-11.27,2.64-2.5,2.18-3.3,5.68-5,8.51-2.3,3.77-6.21,6.25-10.14,8.26-2.35,1.2-4.85,2.36-6.4,4.49-3.83,5.28.31,12.73-.88,19.15-.78,4.21-7.77,4.85-10.3,8.3s-2.34,13.36-1.3,17.51c.87,3.51,4.58,4.78,6.65,7.74,3.08,4.39,5,8.41,3.75,13.62l.27,1.56c.25,5,.67,10.38,4,14.09,4.06,4.54,8,7.23,14.1,6.74s8.43-1.81,13.85,1a76.37,76.37,0,0,0,9.19,3.76c1.89.53,2.08-7,3.22-10-3-1.55-1.7-2.53-4.73-4.75-6.1-4.46-12.19-9.73-15-15.68-3-6.22-3.88-10.53-4.42-17.67-1.15-15,1-25.22,2.48-40.18,1.15-11.92,3.34-9.48,13.6-11.65,12.07-2.55,17.52-1.7,25.46-.35s7.53-2.36,12.59,1.07c4.33,2.93,10.7,5,11.68,11.08.78,4.75,1,2.49,1.47,9.45,1.23,16.41.79,25.83-1.33,42.1-.89,6.82-3.4,12.28-8,16.57L136.48,156c-1.46,1-6.89,5.84-9.27,7.34,8.07,3.73,19,2.77,26.4,2.58,4.35-.11,8.66-1.1,13-.91,4.5.2,9,1.66,13.43,1.09a2.62,2.62,0,0,0,1.44-.51,2.79,2.79,0,0,0,.68-2c.54-9.77-1.92-19.73.31-29.26C183.67,129.18,186.24,123.9,184.67,118.84Z" fill="#ddd"/></g><path id="stroke" d="M109.73,45.93c-4.46,3.22-10.46.43-15.45.71a10.91,10.91,0,0,0-6.56,2.27c-2.06,1.72-2.7,4.26-3.33,6.74a8.8,8.8,0,0,1-3.77,5.71c-1.93,1.26-4.1,2.1-6.14,3.18A13.33,13.33,0,0,0,66.81,75C66,79.54,66.47,84.39,65,88.86a11.39,11.39,0,0,1-4.41,5.67,23,23,0,0,0-5.48,5.21C50,107.18,51,118.54,57.9,124.53c2.25,2,5.07,3.55,5.33,6.83s-1,6.39-.74,9.64a17.49,17.49,0,0,0,9,14c1.69.92,3.21-1.66,1.51-2.59a14.43,14.43,0,0,1-7.5-11.81c-.13-2.84.76-5.59.78-8.42a9.42,9.42,0,0,0-3-7.1c-1.71-1.65-3.77-2.88-5.24-4.79a15.27,15.27,0,0,1-2.67-5.71A16.91,16.91,0,0,1,57,102.34C59.51,98,64.67,96.39,67,92c2.07-4,2-8.69,2.37-13.08S70.65,70.4,74.56,68c3.67-2.3,8.24-3.37,10.88-7.06,1.71-2.39,1.67-5.37,2.9-7.94s3.75-3.24,6.29-3.33c5.54-.19,11.63,2.5,16.61-1.1,1.55-1.12.06-3.73-1.51-2.59Z"/><path id="stroke-2" data-name="stroke" d="M85.56,83.1c-.5,9.6-1.23,19.22-1.41,28.84-.16,8.53.32,18.19,5.08,25.58a37.24,37.24,0,0,0,8,8.63c1.54,1.26,3.14,2.44,4.78,3.56.6.41,1.61,1,2,1.32,0,0,.52.51.7.73a16.65,16.65,0,0,1,3.2,6c.54,1.77,1,4.31-.78,5.52s-4.21.14-6-.79a20.63,20.63,0,0,0-6.93-2.15,57.05,57.05,0,0,0-15.66.34c-1.9.29-1.09,3.18.8,2.9a54.05,54.05,0,0,1,14.43-.29,18.49,18.49,0,0,1,6.42,2.09c1.95,1,4.1,1.83,6.32,1.37a6.07,6.07,0,0,0,4.89-5.59,14.52,14.52,0,0,0-2-7.64,13.7,13.7,0,0,0-3.88-5,70.35,70.35,0,0,1-9.68-7.59,25.31,25.31,0,0,1-6.49-10.19,50.78,50.78,0,0,1-2.14-14.08c-.15-5.47.22-10.93.51-16.39l.89-17.08c.1-1.93-2.9-1.92-3,0Z"/><path id="stroke-3" data-name="stroke" d="M127.21,47.64A32.16,32.16,0,0,1,139.51,52a35.72,35.72,0,0,1,5.13,3.84,13.71,13.71,0,0,0,5.28,3.33c2,.55,4,.49,5.87,1.59a11.69,11.69,0,0,1,3.8,3.83c2.11,3.26,2.65,7,4,10.58a11.69,11.69,0,0,0,7.12,7.58,22,22,0,0,1,4.73,1.89c1.73,1.17,1.82,3.28,1.93,5.19.28,4.72-.26,9.45.11,14.16a25.87,25.87,0,0,0,1.3,6.65,47.44,47.44,0,0,0,2.77,5.8,14.13,14.13,0,0,1,2,7.38,45.22,45.22,0,0,1-1.59,8.22c-1.31,5.42-2.57,11-2,16.57.2,1.9,3.2,1.92,3,0-.57-5.28.58-10.43,1.8-15.54,1.12-4.68,2.68-9.68,1-14.43a46.66,46.66,0,0,0-2.91-6.1,21.42,21.42,0,0,1-2.21-6.75c-.73-4.83-.11-9.76-.25-14.61-.06-2.21-.09-4.68-1.14-6.68a7.72,7.72,0,0,0-4.07-3.32c-1.59-.66-3.32-1-4.85-1.82a7.91,7.91,0,0,1-3.52-4c-1.58-3.58-2-7.51-3.88-11s-4.73-6.41-8.56-7.39c-1.34-.34-2.76-.33-4.07-.79a9.62,9.62,0,0,1-3-1.9,47.57,47.57,0,0,0-5.79-4.51,35.78,35.78,0,0,0-14.35-5.1c-.81-.11-1.5.77-1.5,1.5a1.53,1.53,0,0,0,1.5,1.5Z"/><path id="stroke-4" data-name="stroke" d="M83.82,75.37c1.51-3.49,5.74-3.77,9-4.52,3.77-.87,7.29-2.58,11-3.5a13.87,13.87,0,0,1,5.55-.4,27.16,27.16,0,0,0,3.49.5c2.62.12,5.58-.25,5.33-3.55-.27-3.74-2.6-6.89-2.88-10.61-.14-1.91-3.14-1.92-3,0,.25,3.27,1.87,5.92,2.63,9a11.08,11.08,0,0,1,.21,1.15,4.21,4.21,0,0,0,.06.63s.24.68.18.24c0-.21.22-.06-.11,0s-.48.09-.71.12a12.76,12.76,0,0,1-3.15-.11,20.48,20.48,0,0,0-4.62-.48,23.26,23.26,0,0,0-5.47,1.08c-3.6,1.1-7,2.55-10.73,3.32s-7.78,1.87-9.41,5.61c-.76,1.75,1.83,3.28,2.6,1.51Z"/><path id="stroke-5" data-name="stroke" d="M184.57,157.79c-.67-1.79-3.57-1-2.89.8a5,5,0,0,1-.63,4.75,4.94,4.94,0,0,1-4.91,2c-2.58-.29-5.1-1.15-7.67-1.52a55.1,55.1,0,0,0-7.8-.57,57.7,57.7,0,0,0-7.76.62,32,32,0,0,1-3.52.34c-1.31,0-2.49-.34-3.77-.42a5,5,0,0,0-3.64,1.51c-.2.17-.67.55-.69.55-.54,0-1.4-.71-1.95-.92a22,22,0,0,0-5.76-1,21.16,21.16,0,0,1-2.9-.43c4.48-2.51,7.85-7.45,10.47-11.51,3.79-5.87,7.36-12.35,9.39-19,2.74-9.08,3.27-18.86,3.71-28.27q.36-7.57.26-15.16c0-2.89,0-5.82-.27-8.7A19.81,19.81,0,0,0,153,75.45a9.68,9.68,0,0,1,2.79,3.33c.85,1.73,3.44.21,2.59-1.51-1.93-3.93-5.84-5.82-9.74-7.56a9.94,9.94,0,0,0-3.08-1.39c-.5-.24-1-.48-1.47-.74a31.18,31.18,0,0,0-10.19-3.69,68.67,68.67,0,0,0-11-.54,1.5,1.5,0,0,0,0,3,64.65,64.65,0,0,1,10.22.43,28.83,28.83,0,0,1,9.46,3.39c.41.22.84.43,1.27.63a1.34,1.34,0,0,0,.65.33l.21.06,2,.89c2.84,1.8,4.18,5.39,4.5,8.52.24,2.39.22,4.82.27,7.22.09,4.72,0,9.45-.12,14.16-.33,9-.77,18.18-2.85,26.93-1.59,6.71-4.71,12.88-8.21,18.79a58.15,58.15,0,0,1-6.34,9c-1.94,2.19-4.25,4.46-7.16,5.22a1.51,1.51,0,0,0-.66,2.51c3,2.94,7.47,2.13,11.25,3.06,1.61.4,3,1.78,4.73,1.25,1.16-.34,1.84-1.68,3-1.93a2.84,2.84,0,0,1,1.15.16,14.83,14.83,0,0,0,2,.25,22.93,22.93,0,0,0,4.38-.28,61.3,61.3,0,0,1,8.77-.65,48.86,48.86,0,0,1,8.87.89c2.66.52,5.35,1.53,8.08,1.15A8.1,8.1,0,0,0,184.57,157.79Z"/></g></svg>