<svg xmlns="http://www.w3.org/2000/svg" viewBox="0 0 235 235"><g id="hair-5"><g class="c-hair"><path d="M155.39,76.23a49.07,49.07,0,0,0-2.16-10.74c-1-2.92-1.76-5.26-4-7.7a35.53,35.53,0,0,0-9.6-7.77h.09a9.13,9.13,0,0,0,2.52-14.35c-2.82-3-7.25-3.79-11.35-4.29-7.53-.91-15.37-1.5-22.53,1-3.33,1.17-6.65,3.24-7.9,6.55s-.24,6.7.72,9.95L103,49c-1.79,1-3.58,2-5.37,3a41.44,41.44,0,0,0-6,4,31.41,31.41,0,0,0-7.05,7.66c-3.49,5-5.54,11.22-4.26,17.18.91,4.24-.42,8.83,2.22,11.76a1.32,1.32,0,0,0,2.24-.57c.43-1.72.35-3.86.8-5.39,3.62-12.42,4.4-11.76,7-16s6.55-7,11.17-8.93,10.19-1.85,15.34-1.67a84.63,84.63,0,0,1,11,1,35.21,35.21,0,0,1,9.9,3.91c4.05,2.93,4.32,3.35,5.86,6.28,2.91,5.52,3.46,9.07,3.77,14.79a23.11,23.11,0,0,0,1.75,8.5,1.48,1.48,0,0,0,2.74-.17C155.9,88.47,155.78,82.23,155.39,76.23Z" /></g><path id="stroke" d="M156.84,75.6a48.72,48.72,0,0,0-2.74-12.16,20,20,0,0,0-2.91-5.61,43.58,43.58,0,0,0-3.16-3.5,19.48,19.48,0,0,0-5.85-4.2,10.71,10.71,0,0,0,3.57-11c-1.38-5-5.93-7.59-10.74-8.57a71.21,71.21,0,0,0-16.48-1.39c-5.21.17-11.07,1.09-15.4,4.23a10.9,10.9,0,0,0-4.52,6.45c-.66,3.2.18,6.43,1.09,9.49a0,0,0,0,0,0,0,33.48,33.48,0,0,0-7.41,4.19c-7.38,5.42-12.78,13-13.47,22.33-.18,2.38,0,4.74,0,7.12a29.09,29.09,0,0,0,.53,6.59c.42,1.71,1.44,4.22,3.33,4.74,2.2.61,3.42-1.24,3.7-3.14.16-1.11.19-2.25.38-3.36a28.55,28.55,0,0,1,1-3.51c.56-1.82,1.13-3.62,1.8-5.4a24.15,24.15,0,0,1,2.54-5c1.57-2.37,3-4.8,5.12-6.72a23.54,23.54,0,0,1,12.42-5.6,70.24,70.24,0,0,1,13.13,0,38.85,38.85,0,0,1,11.59,2.18c3.12,1.17,6.58,2.87,8.68,5.56a22.36,22.36,0,0,1,2.47,4.53,25.78,25.78,0,0,1,2,6.17c.86,4.63.34,9.47,2.07,13.94.68,1.76,2,3.27,4.08,2.57s2.42-3.63,2.77-5.52A57.07,57.07,0,0,0,156.84,75.6ZM152.7,93.69l0,.07C152.73,93.68,152.65,93.63,152.7,93.69Zm1.4-9.08a36.65,36.65,0,0,1-.95,7.38,6,6,0,0,1-.45,1.69c-.55-.58-.79-2.18-1-3-.94-4.12-.59-8.42-1.53-12.55a29.35,29.35,0,0,0-4.48-10.32,19.11,19.11,0,0,0-7.27-5.62A35.46,35.46,0,0,0,127.55,59c-3.55-.41-7.14-.57-10.72-.65-4.7-.11-9.49.09-13.88,1.95a25.52,25.52,0,0,0-9.66,6.66,53.59,53.59,0,0,0-4,5.77,26.39,26.39,0,0,0-2.44,4.94A44.41,44.41,0,0,0,83.7,88.75a17.61,17.61,0,0,1-.23,2.51,3.4,3.4,0,0,1-.3-.39,5.7,5.7,0,0,1-.67-1.41,20.46,20.46,0,0,1-.62-6.09c0-4.33-.35-8.53.9-12.75A27.39,27.39,0,0,1,89.25,60a32.94,32.94,0,0,1,11.06-7.76,27.17,27.17,0,0,1,11.6-1.81c2.14.07,4.27.26,6.4.42,1.93.15,1.92-2.85,0-3-4.42-.35-8.86-.75-13.27,0a23.49,23.49,0,0,0-2.49.54,19.31,19.31,0,0,1-1.16-6.89,7.49,7.49,0,0,1,2.84-5.21c3.29-2.76,8.1-3.71,12.27-4a71.79,71.79,0,0,1,14.35.64c3.77.47,8.35,1.15,10.78,4.43a7.76,7.76,0,0,1-2.71,11.42,1.76,1.76,0,0,0-.34.25,26.59,26.59,0,0,0-4.87-.46,1.5,1.5,0,0,0,0,3,16.5,16.5,0,0,1,9.82,2.81A21.4,21.4,0,0,1,146.42,57a25.18,25.18,0,0,1,3,3.46c2.08,3.18,3.08,7.25,3.8,10.94A58,58,0,0,1,154.1,84.61Z"/></g></svg>