<svg xmlns="http://www.w3.org/2000/svg" viewBox="0 0 235 235"><g id="hair-1"><g class="c-hair"><path d="M158.82,77.44c-1.43-5.51-5.17-12.77-9.31-12.87a1.52,1.52,0,0,0-1,.23,3,3,0,0,0-.82,1.38c-1.41,4-1.69,11.6-1.24,16a61.94,61.94,0,0,0,2.86,12.64c1.94,6.11,4.07-6.44,8.67-4.87.39.13.89.17,1.11-.3a1.9,1.9,0,0,0,.14-.73S161.47,87.68,158.82,77.44Z" fill="#ddd"/></g><g class="c-hair" data-name="c-hair"><path d="M79,77.44c1.29-5.51,4.66-12.77,8.39-12.87a1.28,1.28,0,0,1,.9.23A3.12,3.12,0,0,1,89,66.18c1.27,4,1.52,11.6,1.12,16a68.24,68.24,0,0,1-2.58,12.64c-1.75,6.11-3.67-6.44-7.82-4.87-.35.13-.8.17-1-.3a2.11,2.11,0,0,1-.12-.73S76.58,87.68,79,77.44Z" fill="#ddd"/></g><path id="stroke" d="M91.06,68.42c-.43-2.46-1.12-5.8-4.32-5.29-2.55.41-4.35,2.72-5.61,4.79A32.23,32.23,0,0,0,77.52,77c-.76,3.34-1.6,7-1.07,10.45a5,5,0,0,0,.75,2.1,2.17,2.17,0,0,0,2.63,1.87,4.59,4.59,0,0,0,.56-.15l.18,0,.37.2a11.42,11.42,0,0,1,2.19,3.14c.6,1.06,1.22,2.46,2.34,3.07,1.6.86,2.8-.55,3.31-1.92a52.8,52.8,0,0,0,2.37-10,53,53,0,0,0,.64-8.63A53.81,53.81,0,0,0,91.06,68.42Zm-4.13,26.7c.2,0,.08.2,0,0Zm1.13-8.94c-.33,1.89-.77,3.76-1.25,5.61-.2.74-.4,1.48-.61,2.22l-.47-.85a12.49,12.49,0,0,0-3-4,3.83,3.83,0,0,0-2.27-.85c-.07,0-.27,0-.5,0a.67.67,0,0,0-.08-.17,1,1,0,0,0-.24-.26h0a.3.3,0,0,1-.07-.11l0,0,0,0a.14.14,0,0,1,0-.07s0,0,0,0a2.76,2.76,0,0,1-.08-.27L79.38,87a.9.9,0,0,1,0-.26,28.3,28.3,0,0,1,1.07-8.86,29,29,0,0,1,3.39-8.55,9,9,0,0,1,2.34-2.73c.19-.13.89-.62,1.17-.5s.42,1.17.49,1.47a40.58,40.58,0,0,1,1,8.93A49.45,49.45,0,0,1,88.06,86.18Z"/><path id="stroke-2" data-name="stroke" d="M160.26,77A31.84,31.84,0,0,0,157,69c-1.26-2.12-2.93-4.36-5.24-5.39a4.54,4.54,0,0,0-3.64-.25c-1.25.58-1.71,2-2.07,3.25A36.88,36.88,0,0,0,144.83,75a55.11,55.11,0,0,0,2.64,18.94c.45,1.5,1,4.09,3,4.1,1.43,0,2.32-1.4,3-2.46.81-1.27,1.65-3,2.78-3.84a1.18,1.18,0,0,1,1.3-.32,2.3,2.3,0,0,0,3-1.69,4.77,4.77,0,0,0,.87-2.2C162,84.05,161.11,80.35,160.26,77ZM150.07,95.12h0l0,0S150.09,95.12,150.07,95.12Zm1,.08.05,0S151.06,95.22,151.06,95.2Zm0,0s0,0,0,0Zm7.42-7.56a1,1,0,0,1-.19.17.09.09,0,0,0,0,0C158.42,87.66,158.53,87.56,158.49,87.61Zm.11-1.53a4.5,4.5,0,0,1-.26,1.55v0s-.05.1-.06.1l0,0s0,0,0,0l-.05.07-.14.13a2.33,2.33,0,0,0-.17.26,6.36,6.36,0,0,0-2,.29c-1.68.61-2.81,2.18-3.75,3.61-.45.69-.86,1.4-1.32,2.08l0,.07c-.63-1.85-1.15-3.74-1.61-5.64a46,46,0,0,1-.67-19.46A19.82,19.82,0,0,1,149,67c.21-.65.23-1,.93-.84A6.42,6.42,0,0,1,153,68.51a25.34,25.34,0,0,1,4.35,9.33A28.8,28.8,0,0,1,158.6,86.08Z"/></g></svg>