<svg xmlns="http://www.w3.org/2000/svg" viewBox="0 0 235 235"><g id="hair-2"><g class="c-hair"><path d="M137.07,54.35C92.71,40.77,78.85,67.69,74.85,74.56S89,81.93,89,81.93c5.55-.26,10.13-5.62,15.62-4.75,7.88,1.25,16.8,8.14,24.7,7.07,5.38-.72,9.32-7.48,14.74-7.35,3.59.09,7.91,3.28,11.51,6.68A3.71,3.71,0,0,0,161.83,81C162.11,73.11,158.61,60.94,137.07,54.35Z"/></g><path id="stroke" d="M137.47,52.9c-15.66-4.76-33.78-6.28-48.12,3.05a43.9,43.9,0,0,0-11.1,10.52,52.63,52.63,0,0,0-3.13,4.66,16.86,16.86,0,0,0-2.2,4.2c-1.54,6.12,8.34,7.36,12.28,7.81a18.38,18.38,0,0,0,5.59.06,28,28,0,0,0,6.95-2.85c2-1,4.19-2,6.47-1.72,5.15.63,10,3.56,14.75,5.36,4.48,1.68,9.6,2.88,14.07.56a48,48,0,0,0,5.61-3.9c1.67-1.19,3.59-2.42,5.73-2.23,2.49.22,4.84,1.85,6.76,3.32s3.72,4,6.31,4.32a5.27,5.27,0,0,0,5.21-2.57,8.06,8.06,0,0,0,.67-4.45,23.68,23.68,0,0,0-1.74-7.83c-3-7.22-9.42-12.2-16.36-15.38a64.59,64.59,0,0,0-7.75-2.93c-1.85-.57-2.64,2.33-.8,2.9,7.72,2.38,15.88,6.2,20.41,13.23a20.72,20.72,0,0,1,2.9,7.18c.33,1.71,1.19,5.62-.84,6.65s-3.65-1.42-5-2.53a25,25,0,0,0-6.72-4.21c-4.38-1.69-8,.21-11.52,2.84a23.45,23.45,0,0,1-5.19,3.37,11.05,11.05,0,0,1-6.37.16c-4.95-1.06-9.45-3.58-14.18-5.32a19.65,19.65,0,0,0-6.94-1.58,15.52,15.52,0,0,0-6.36,1.85c-2.7,1.3-5.48,3.12-8.59,3a43,43,0,0,1-6.41-.79,20.35,20.35,0,0,1-3.7-1.06,8.92,8.92,0,0,1-1.43-.76,4.6,4.6,0,0,1-.77-.74.88.88,0,0,1-.19-.71,3.69,3.69,0,0,1,.41-1.09c.27-.5.57-1,.86-1.48.78-1.35,1.6-2.68,2.48-4a42.43,42.43,0,0,1,8.94-9.58c11.54-8.88,26.69-9.46,40.43-6.47,2.62.57,5.21,1.27,7.77,2C138.53,56.36,139.32,53.46,137.47,52.9Z"/></g></svg>