<svg xmlns="http://www.w3.org/2000/svg" viewBox="0 0 235 235"><g class="hair-0"><g class="accessory-1"><path d="M80.39,67.14a31.44,31.44,0,0,1,17.32-3.9c5.83.21,11.52,1.52,17.24,2.58,10.5,2,21.29,3.13,31,8,3.05,1.54,7.63,2.83,9.58,6.07,1.45-8.25-1.68-13.42-1.61-21.73a4.57,4.57,0,0,0-.19-1.67c-.27-.72-.76-3.47-1.33-3.82A234.53,234.53,0,0,0,129.51,40a27.05,27.05,0,0,0-5.95-1.44,36.17,36.17,0,0,0-5.89-.58c-15.79,1.43-17,2.3-27.79,7.29a6.77,6.77,0,0,0-2.18,1c-1,.93-1.29,2.54-1.53,4-1,5.56-5.25,11-6.2,16.57" fill="#00204a"/><path d="M155.52,79.9C143.6,81.63,128,78,116,77.31c-8.85-.53-17.72-1.11-26.49-2.45-10.79-1.65-14.9-.5-22.75-8.08a10,10,0,0,1-2.69-3.73c8.13,2.21,9.15.53,17.06,3.42l21.13-12.59,53.59,23.44Z" fill="#00204a"/><path d="M122.67,60.35a6.72,6.72,0,0,0-2.47-2.08l.3,2.36c1.59-1.25,2.11-3.41,2.24-5.33a9.35,9.35,0,0,0-1.31-5.61c-2.05-3.17-6.81-4.41-9.69-1.56-1.38,1.36.74,3.48,2.12,2.12a2.78,2.78,0,0,1,2.56-.66,3.65,3.65,0,0,1,2.6,1.93,6.47,6.47,0,0,1,.73,3.69,4.36,4.36,0,0,1-1.37,3.3,1.5,1.5,0,0,0,.31,2.35l.64.31.27.17c-.13-.08-.19-.18,0,0,.34.37.66.76,1,1.15a1.5,1.5,0,0,0,2.12,0,1.53,1.53,0,0,0,0-2.12Z" fill="#fff"/><path d="M114.75,60.26a3.36,3.36,0,0,1-3.75.35,3.84,3.84,0,0,1-1.7-3.53,9.77,9.77,0,0,1,.3-2.47,13.82,13.82,0,0,0,.7-2.67c.09-1.44-1-2.64-1.8-3.69a1.51,1.51,0,0,0-2.13,0,1.55,1.55,0,0,0,0,2.12s.15.19,0,0l.2.26c.19.27.39.55.57.83s.19.25.06.7-.3.86-.42,1.3a10.84,10.84,0,0,0-.12,6.23,6.29,6.29,0,0,0,9.58,3.14,1.54,1.54,0,0,0,.54-2.05,1.51,1.51,0,0,0-2-.54Z" fill="#fff"/><path d="M114.36,54.42l-.74.55.75-.21h0l.4.06-.17,0,.36.15a.77.77,0,0,1-.18-.1l.3.23a.75.75,0,0,1-.15-.16l.23.31A1.28,1.28,0,0,1,115,55l.15.36a.65.65,0,0,1-.06-.21l.05.4v-.18l-.05.4a.57.57,0,0,1,0-.14L115,56l.06-.1-.23.3.08-.09-.3.23.09,0-.36.16a.17.17,0,0,1,.1,0l-.4.05h.13l-.4-.05.15,0-.36-.15a.51.51,0,0,1,.16.09l-.3-.23a.8.8,0,0,1,.13.13l-.23-.3a.75.75,0,0,1,.07.12l-.15-.36,0,.11-.05-.4v.09l.05-.4a.19.19,0,0,1,0,.08l.15-.35,0,.07.24-.31,0,0a1.27,1.27,0,0,0-.32.48,1.46,1.46,0,0,0,0,1.16,1.13,1.13,0,0,0,.32.48l.3.24a1.54,1.54,0,0,0,.76.2l.39,0a1.47,1.47,0,0,0,.67-.39l0,0,.24-.31v0l0,0h0c0-.1.12-.27.16-.37a1.64,1.64,0,0,0,.07-.54c0-.13,0-.3-.06-.43a.08.08,0,0,0,0,0,3.07,3.07,0,0,0-.17-.42l0-.08a4.39,4.39,0,0,0-.28-.36l-.06-.06a2.63,2.63,0,0,0-.37-.29.51.51,0,0,0-.16-.09c-.14-.06-.27-.13-.42-.18h0c-.14,0-.29,0-.44-.06h-.12a3.32,3.32,0,0,0-.44.06,1.57,1.57,0,0,0-.5.21,3.75,3.75,0,0,0-.33.26l0,0,0,0a2.18,2.18,0,0,0-.26.34,1.62,1.62,0,0,0-.23.52,1.88,1.88,0,0,0-.07.58,3.93,3.93,0,0,0,.06.48s0,.07,0,.1.08.18.11.27.08.18.13.27a.41.41,0,0,0,0,.09l.29.37.08.07a3.57,3.57,0,0,0,.38.3l.1.06.4.17,0,0c.1,0,.21,0,.31.05l.21,0a1.14,1.14,0,0,0,.58-.12.56.56,0,0,0,.19-.09l.08-.06.65-.48a1.31,1.31,0,0,0,.42-.39,1.14,1.14,0,0,0,.27-.51,1.22,1.22,0,0,0,0-.6,1.16,1.16,0,0,0-.18-.56l-.24-.3a1.45,1.45,0,0,0-.66-.38l-.4-.06a1.42,1.42,0,0,0-.75.21Z" fill="#00bbf0"/><path d="M83.05,66.36c.94-5.21,3.61-9.88,4.79-15,.23-1,.35-2.11.64-3.13a3.31,3.31,0,0,1,.67-1.4c.5-.52,1.16-.55,1.79-.82.35-.15.67-.36,1-.54a50.86,50.86,0,0,1,18-5.66,45.82,45.82,0,0,1,26.83,4.78,59.82,59.82,0,0,1,14.14,10.09c.28.27.53.57.82.82.47.41,1,.56,1.17,1.21a10.53,10.53,0,0,1,0,2.25,39.71,39.71,0,0,0,.38,4.2c.72,5.33,2.15,10.46,1.25,15.87l2.75-.36a8.11,8.11,0,0,0-2.64-2.82,16.45,16.45,0,0,0-3.11-1.18,13.53,13.53,0,0,0-2.1-.76c-1.46-.26-2.95-.41-4.42-.62l-18.72-2.6L85.43,65c-1.13-.16-2.31-.23-3.43-.48-1.42-.31-2.8-1-4.23-1.29a33.36,33.36,0,0,0-4.1-.67,56.2,56.2,0,0,1-8.73-1.45c-1-.27-2.27.74-1.85,1.84,1.14,3,3.68,5.15,6.13,7.06a22.33,22.33,0,0,0,6.15,3.46c4.64,1.66,9.85,1.69,14.69,2.41,7.78,1.16,15.61,1.77,23.46,2.26,6.76.42,13.44,1.28,20.17,2.09,7.52.91,15.15,1.68,22.7.63,1.9-.27,1.09-3.16-.8-2.9-6.24.87-12.66.31-18.89-.38s-12.7-1.72-19.09-2.18c-7.43-.55-14.86-.91-22.26-1.81-3.28-.39-6.54-.93-9.81-1.32-2.21-.26-4.44-.47-6.62-.93a18.5,18.5,0,0,1-6.34-2.59A26.18,26.18,0,0,1,69.15,66,11,11,0,0,1,66,62.15L64.14,64c5.07,1.35,10.36,1.22,15.35,2.83a20.08,20.08,0,0,0,3.78.87L99,69.88l42.85,6,6.16.85a9,9,0,0,1,1,.15c.87.23,1.93.78,2.87,1.08a4.69,4.69,0,0,1,2.79,2.25c.62,1,2.51,1,2.74-.36.86-5.17,0-10-.9-15.11-.2-1.19-.38-2.39-.49-3.6-.14-1.47-.05-2.94-.18-4.39-.14-1.73-1.1-2.54-2.18-3.49-1.36-1.19-2.61-2.48-4-3.63A66,66,0,0,0,141,43.5a49.33,49.33,0,0,0-27.55-7,55.28,55.28,0,0,0-22.12,5.89c-.56.28-1.12.7-1.71.93a7,7,0,0,0-2.36,1.14,6.48,6.48,0,0,0-1.8,3.34c-.37,1.48-.56,3-1,4.45s-.91,2.79-1.43,4.16a53,53,0,0,0-2.92,9.18c-.34,1.89,2.55,2.7,2.9.8Z"/></g></g></svg>