<svg xmlns="http://www.w3.org/2000/svg" viewBox="0 0 48 48"><g id="btn-accessory-8"><path d="M10.24,10c9-.54,16.87-1.46,25.9-1.61q-4,15.17-8.37,30.25c-4.7-8.39-6-10.81-11.18-17.81a79.19,79.19,0,0,1-6.31-10.75Z" fill="#7d77c9"/><path d="M10.24,10.76c8.63-.52,17.24-1.46,25.9-1.61l-.73-1q-4,15.17-8.36,30.25l1.37-.18c-2.18-3.88-4.3-7.79-6.74-11.51S16.55,19.7,14.31,16a70.06,70.06,0,0,1-3.42-6.32c-.41-.87-1.71-.11-1.3.76a65.34,65.34,0,0,0,6.48,11,116.73,116.73,0,0,1,7,10.39c1.4,2.39,2.74,4.83,4.1,7.25a.76.76,0,0,0,1.37-.18Q32.85,23.78,36.86,8.6a.76.76,0,0,0-.72-.95c-8.66.15-17.27,1.09-25.9,1.61C9.28,9.31,9.27,10.82,10.24,10.76Z"/><path d="M27.21,13.08c-.42-2.2-2.81-1.79-4.25-.87A4.31,4.31,0,0,0,21.22,17a3.74,3.74,0,0,0,1.43,2,4.44,4.44,0,0,0,2.59.48c2.14.06,2.67,3.32,1.86,4.88a1.86,1.86,0,0,1-2,.8,2.23,2.23,0,0,1-1.89-1.5c-.35-.89-1.8-.51-1.45.4a3.85,3.85,0,0,0,3.79,2.61,3.31,3.31,0,0,0,3.37-3.29c.19-1.82-.41-4.29-2.23-5.12a3.8,3.8,0,0,0-1.52-.28,3.53,3.53,0,0,1-1.45-.11A2.26,2.26,0,0,1,22.55,16a2.76,2.76,0,0,1,1.11-2.46,3.33,3.33,0,0,1,1.6-.63c.37,0,.44.23.5.57.18.95,1.62.55,1.45-.4Z"/></g></svg>