<svg xmlns="http://www.w3.org/2000/svg" viewBox="0 0 48 48"><g id="btn-accessory-2"><g id="c-hair_c-f-hair_mustache" data-name="c-hair c-f-hair mustache"><path d="M42.77,21.14c-1.67-1.46-4.05-1.74-6.27-1.85a68.36,68.36,0,0,0-9.81.22,6.09,6.09,0,0,0-2.69.73,6.09,6.09,0,0,0-2.69-.73,68.36,68.36,0,0,0-9.81-.22c-2.22.11-4.6.39-6.27,1.85a9,9,0,0,0-3,7.05.73.73,0,0,0,1.33.27A7.43,7.43,0,0,1,6.82,26.1a29.23,29.23,0,0,1,8.38-1,19.53,19.53,0,0,0,5.51-.19A5.19,5.19,0,0,0,24,22a5.19,5.19,0,0,0,3.29,2.91,19.53,19.53,0,0,0,5.51.19,29.23,29.23,0,0,1,8.38,1,7.43,7.43,0,0,1,3.28,2.36.73.73,0,0,0,1.33-.27A9,9,0,0,0,42.77,21.14Z"/></g></g></svg>