<svg xmlns="http://www.w3.org/2000/svg" viewBox="0 0 48 48"><g id="btn-accessory-4"><path d="M42.85,22.76a6.12,6.12,0,0,0-2-4.23A7.62,7.62,0,0,0,36.05,17c-2.92-.1-6.31.39-8.12,3a6.4,6.4,0,0,0-1,2.44.88.88,0,0,0-.36-.1,18.34,18.34,0,0,0-3.23.12c-.76.07-1.53.16-2.29.29a5.9,5.9,0,0,0-1.88-3.57,7.62,7.62,0,0,0-4.84-1.58c-2.92-.11-6.31.39-8.12,3a7.3,7.3,0,0,0,.69,8.64c2.33,2.2,6.29,2.11,9.24,1.6a5.61,5.61,0,0,0,3.95-2.33,8.26,8.26,0,0,0,1.06-4.1A20.86,20.86,0,0,1,23.45,24a18.29,18.29,0,0,1,3.14-.11.63.63,0,0,0,.24,0,7.06,7.06,0,0,0,1.79,4.73c2.33,2.19,6.29,2.1,9.24,1.59a5.61,5.61,0,0,0,3.94-2.33A8.79,8.79,0,0,0,42.85,22.76ZM19.13,26.69A3.51,3.51,0,0,1,16.44,29a14.9,14.9,0,0,1-4.37.32,6.16,6.16,0,0,1-4-1.35,5.76,5.76,0,0,1-.84-6c1-2.25,3.71-2.8,5.93-2.87,2.58-.08,5.5.4,6.24,3.3a6.21,6.21,0,0,1,.14.88.89.89,0,0,0,0,.76A8.79,8.79,0,0,1,19.13,26.69Zm21.7-.56a3.51,3.51,0,0,1-2.69,2.31,14.57,14.57,0,0,1-4.37.32,6.21,6.21,0,0,1-4-1.34,5.81,5.81,0,0,1-.85-6c1-2.25,3.72-2.8,5.94-2.87,2.58-.08,5.5.41,6.24,3.3A8.06,8.06,0,0,1,40.83,26.13Z"/></g></svg>