<svg xmlns="http://www.w3.org/2000/svg" viewBox="0 0 48 48"><g id="btn-accessory-7"><path d="M15.24,35.37c-.47-.49.19-1.35.09-2L14.56,28S10.7,34.55,8,33.45s-4.62-10.54.65-13.57S22,12.1,23.51,12.47c0,0,4.34.23,6.14,1.82s12.06,6.44,12.64,10.44.3,12.82-5,8.94-4.44-7.33-4.44-7.33v7a26.07,26.07,0,0,1-2.13,3.92S24.32,44.84,15.24,35.37Z" fill="#e59863" fill-rule="evenodd"/><path d="M24,31.91l-1,.29a.83.83,0,0,0-.41,1.34l1.13,1.37A.84.84,0,0,0,24.9,35l1.16-1.15a.84.84,0,0,0-.29-1.38l-1.27-.5A.78.78,0,0,0,24,31.91Z" fill-rule="evenodd"/><path d="M15.06,22.34a32,32,0,0,0-1,5.13c-.31,2.73-.41,5.94,1,8.38a5.18,5.18,0,0,0,3.71,2.52c.9.14,1.28-1.23.38-1.37a3.83,3.83,0,0,1-2.79-1.75,7.82,7.82,0,0,1-1-3.44A24.55,24.55,0,0,1,16,24.37c.12-.55.24-1.11.4-1.65a.71.71,0,0,0-1.37-.38Z"/><path d="M31.05,22.72a34,34,0,0,1,.8,4.12,17.75,17.75,0,0,1-.15,7.26,3.61,3.61,0,0,1-1.82,2.42.75.75,0,0,0-.5.88.72.72,0,0,0,.88.49c2.46-1,3.11-3.8,3.25-6.23a30,30,0,0,0-.7-7.62c-.12-.57-.24-1.14-.39-1.7a.71.71,0,0,0-1.37.38Z"/><path d="M23.79,31.22c-.71.19-1.54.31-1.95,1a1.67,1.67,0,0,0-.18,1.14,1.75,1.75,0,0,0,.38.71c.38.46.74.95,1.15,1.39a1.57,1.57,0,0,0,2.21,0c.21-.2.4-.4.6-.6s.43-.4.62-.62a1.57,1.57,0,0,0,0-2.11,3.53,3.53,0,0,0-1.25-.64l-.55-.21a1.6,1.6,0,0,0-1-.07.73.73,0,0,0-.5.88.74.74,0,0,0,.88.49c.15,0,0,0,0,0a.47.47,0,0,1,.12,0s-.14,0,0,0l0,0,.07,0,.39.15.8.32c.06,0,0,0-.12,0l.06,0s.07.08,0,0,0,0,0,0l.05,0c.08.08,0,0,0,0l.05.09c0,.07,0-.14,0-.06l0,.08c0,.06,0-.08,0-.09s0,.06,0,.08v.08s0-.17,0-.07l0,.06c0,.07.08-.13,0,0l-.05.07s.13-.13,0,0l0,0-.07.07-.29.28-.69.69-.08.09h0c-.1.11.07,0,0,0l-.08,0c-.06.05.06,0,.06,0s-.08,0-.09,0,.05,0,.06,0h-.09c-.11,0,0,0,.05,0l-.07,0c-.07,0,.13.08,0,0l-.07,0s.12.12,0,0l-.07-.08-.05,0-.23-.29-.66-.79L23,33s.09.14,0,0,0,0,0,0,0,.14,0,0A.24.24,0,0,0,23,33s0,.16,0,0V33c0,.12,0,.15,0,.09s0,0,0-.06v0c0-.08-.07.13,0,0a.43.43,0,0,1,0-.07c.06-.11-.08.07,0,0l.06-.06s-.14.08,0,0l.06,0c.05,0-.15,0,0,0,.35-.07.69-.2,1-.29a.71.71,0,0,0,.49-.87A.72.72,0,0,0,23.79,31.22Z"/><path d="M16.19,16.85l.22-.18c-.17.14.12-.08.17-.12l.41-.29a19.39,19.39,0,0,1,2.4-1.42,11,11,0,0,1,7.11-1.18A8.7,8.7,0,0,1,31,16.38c.62.67,1.62-.34,1-1a9.81,9.81,0,0,0-8.62-3.22,16.11,16.11,0,0,0-6.76,2.68,15.5,15.5,0,0,0-1.39,1c-.69.59.31,1.59,1,1Z"/><path d="M24.19,12.31l.09-.22c0-.06-.09.21-.05.1l0,0,.06-.13c0-.1.09-.2.14-.3a5.52,5.52,0,0,1,.4-.66l.06-.08,0,0,.12-.15a2.76,2.76,0,0,1,.3-.29l0,0c.08-.08-.08,0-.08,0s.08,0,.09-.06l.18-.11c.07,0,.2,0,0,0l.08,0,.23-.05-.19,0h.32l-.19,0h0a.81.81,0,0,0,.55-.07.77.77,0,0,0,.32-.43.73.73,0,0,0-.07-.54A.69.69,0,0,0,26.15,9a2.27,2.27,0,0,0-.78,0,2.13,2.13,0,0,0-.55.2,2.85,2.85,0,0,0-.83.67,6.08,6.08,0,0,0-1,1.55c-.07.17-.15.34-.21.51a.71.71,0,0,0,.5.87.73.73,0,0,0,.87-.49Z"/><path d="M25.67,13c0-.07,0-.13.08-.19l-.07.17A4.72,4.72,0,0,1,26.27,12l-.11.14a2.44,2.44,0,0,1,.42-.43l-.15.11a1.45,1.45,0,0,1,.32-.18l-.17.07a.77.77,0,0,1,.26-.07l-.19,0h.26l-.19,0h0a.78.78,0,0,0,.54-.07.75.75,0,0,0,.33-.43.73.73,0,0,0-.07-.54.68.68,0,0,0-.43-.33,2,2,0,0,0-.69,0,1.69,1.69,0,0,0-.47.18,2.26,2.26,0,0,0-.68.55,4.8,4.8,0,0,0-.79,1.25l-.18.44a.75.75,0,0,0,.07.55.77.77,0,0,0,.43.32.72.72,0,0,0,.87-.49Z"/><path d="M22.25,12.38l.08-.2-.07.17a4.65,4.65,0,0,1,.59-1l-.11.14a2.14,2.14,0,0,1,.42-.43l-.15.11a2.07,2.07,0,0,1,.32-.19l-.17.08a1.12,1.12,0,0,1,.26-.08l-.19,0h.26l-.19,0h0a.78.78,0,0,0,.54-.07.75.75,0,0,0,.33-.43.76.76,0,0,0-.07-.55.67.67,0,0,0-.43-.32,1.78,1.78,0,0,0-.69,0,1.69,1.69,0,0,0-.47.18,2.26,2.26,0,0,0-.68.55,4.8,4.8,0,0,0-.79,1.25l-.18.44a.76.76,0,0,0,.07.55.77.77,0,0,0,.43.32.72.72,0,0,0,.87-.49Z"/><circle cx="20.51" cy="28.27" r="0.97"/><path d="M20.78,28.27c0,.05,0,.09,0,.14l0-.19a.72.72,0,0,1-.07.25l.08-.17a1.59,1.59,0,0,1-.13.22l.11-.15a1.37,1.37,0,0,1-.17.17l.15-.12a1,1,0,0,1-.22.14l.17-.08a.72.72,0,0,1-.25.07l.19,0h-.27l.19,0a.72.72,0,0,1-.25-.07l.17.08a1,1,0,0,1-.22-.14l.14.12a1.29,1.29,0,0,1-.16-.17l.11.15a1.59,1.59,0,0,1-.13-.22l.07.17a1.82,1.82,0,0,1-.07-.25l0,.19a1.22,1.22,0,0,1,0-.27l0,.19a1.82,1.82,0,0,1,.07-.25l-.07.17a1.59,1.59,0,0,1,.13-.22l-.11.14a1.21,1.21,0,0,1,.16-.16l-.14.11.22-.13-.17.07.25-.07-.19,0h.27l-.19,0,.25.07L20.54,28l.22.13L20.61,28a1.29,1.29,0,0,1,.17.16L20.67,28a1.59,1.59,0,0,1,.13.22l-.08-.17a.72.72,0,0,1,.07.25l0-.19s0,.09,0,.13a.71.71,0,1,0,1.42,0,1.73,1.73,0,0,0-.29-.93,1.76,1.76,0,0,0-.86-.66,1.68,1.68,0,0,0-1.8.48,2.08,2.08,0,0,0-.32.54,1.86,1.86,0,0,0-.1.48,1.66,1.66,0,0,0,.23.95,1.69,1.69,0,0,0,.7.65,1.86,1.86,0,0,0,1.12.14,1.59,1.59,0,0,0,.88-.52,1.74,1.74,0,0,0,.44-1.13.71.71,0,1,0-1.42,0Z"/><circle cx="28.1" cy="28.76" r="1.01"/><path d="M28.4,28.76a.61.61,0,0,1,0,.14l0-.19a1.12,1.12,0,0,1-.08.26l.07-.17a1,1,0,0,1-.13.23l.11-.15a.87.87,0,0,1-.16.17l.14-.11a1,1,0,0,1-.23.13l.17-.07a.77.77,0,0,1-.26.07l.19,0H28l.18,0A.72.72,0,0,1,27.9,29l.17.07a.86.86,0,0,1-.23-.13l.14.11a.87.87,0,0,1-.16-.17l.11.15a1.09,1.09,0,0,1-.14-.23l.08.17a1.12,1.12,0,0,1-.08-.26l0,.19a1.31,1.31,0,0,1,0-.28l0,.19a1,1,0,0,1,.08-.25l-.08.16a1,1,0,0,1,.14-.22l-.11.14a1.21,1.21,0,0,1,.16-.16l-.14.11a.88.88,0,0,1,.23-.14l-.17.07.25-.07-.18,0a1.22,1.22,0,0,1,.27,0l-.19,0,.26.07-.17-.07a1.09,1.09,0,0,1,.23.14l-.14-.11a1.21,1.21,0,0,1,.16.16l-.11-.14a1,1,0,0,1,.13.22l-.07-.16a1,1,0,0,1,.08.25l0-.19a.71.71,0,0,1,0,.14.71.71,0,0,0,1.42,0,1.69,1.69,0,0,0-.29-1,1.89,1.89,0,0,0-.88-.67,1.69,1.69,0,0,0-2.15,1,1.59,1.59,0,0,0-.11.49,1.72,1.72,0,0,0,.95,1.63,1.83,1.83,0,0,0,1.13.14,1.63,1.63,0,0,0,.91-.53,1.79,1.79,0,0,0,.44-1.15.71.71,0,0,0-1.42,0Z"/><path d="M34.64,18.79a15.21,15.21,0,0,1,5.51,3.94c1.53,1.79,1.52,4.37,1.41,6.61a10.12,10.12,0,0,1-.62,3.23,4.25,4.25,0,0,1-.7,1.27c-.45.51-.86.38-1.38,0a13.84,13.84,0,0,1-4-4.47A14.51,14.51,0,0,1,33,22.83c0-.91-1.47-.92-1.43,0a16,16,0,0,0,6.61,12.26c2.73,1.88,4.28-1.78,4.64-4A18.92,18.92,0,0,0,43,27.22a10.13,10.13,0,0,0-.78-4A10.15,10.15,0,0,0,39.33,20a16.52,16.52,0,0,0-4-2.41c-.83-.36-1.55.86-.71,1.22Z"/><path d="M15.05,21.75A14.79,14.79,0,0,1,9.73,32.34a3.11,3.11,0,0,1-1.25.78c-.51.07-.85-.52-1.06-.9a8.11,8.11,0,0,1-.91-3.16,19.6,19.6,0,0,1,0-3.34,6.9,6.9,0,0,1,.84-3.34,13.31,13.31,0,0,1,6-4.67c.84-.36.12-1.58-.71-1.23a15.18,15.18,0,0,0-6.34,4.85A7.49,7.49,0,0,0,5.1,25.09a20.26,20.26,0,0,0,0,4C5.28,31,6.24,35.33,9,34.44a8,8,0,0,0,2.84-2.15,16,16,0,0,0,2.18-2.79,16.14,16.14,0,0,0,2.41-7.75c0-.92-1.38-.92-1.42,0Z"/></g></svg>