<svg xmlns="http://www.w3.org/2000/svg" viewBox="0 0 48 48"><g id="btn-accessory-6"><path d="M30.41,21l-2.1,11.41a.89.89,0,0,0,.05.7.94.94,0,0,0,.77.29q3.12.15,6.26.1a1.39,1.39,0,0,0,1-.27c.39-.38.21-1,0-1.52L32,21.05" fill="#ea2a74"/><path d="M31.39,21.22,33.77,27,35,30l.54,1.31c.13.33.52,1,.43,1.34s-.69.24-1,.24H33.37c-1,0-2.09,0-3.13-.07l-.71,0c-.09,0-.6,0-.67-.06a3.17,3.17,0,0,1,.11-.57l.15-.8.57-3.1L31,21.17l-.6.46,1.58,0a.62.62,0,0,0,0-1.23l-1.58-.05a.63.63,0,0,0-.59.46l-1.37,7.4-.66,3.6a2.35,2.35,0,0,0,0,1.46,1.3,1.3,0,0,0,1.14.69c1.2.14,2.44.11,3.65.13h1.72A9.86,9.86,0,0,0,36,34.07,1.54,1.54,0,0,0,37.11,32a14.89,14.89,0,0,0-.62-1.56l-.72-1.77-3.19-7.77C32.28,20.17,31.09,20.48,31.39,21.22Z"/><path d="M29.53,16.6a2.68,2.68,0,0,1,4.16.82A2.73,2.73,0,0,1,31.39,21a2.4,2.4,0,0,1-1.33-.36,2.71,2.71,0,0,1-.62-3.93Z" fill="#2e97cc"/><path d="M30,17a1.14,1.14,0,0,0,.11-.11c.08-.08-.06,0,0,0a2.38,2.38,0,0,1,.3-.18s.14-.06,0,0l.14-.05a2.21,2.21,0,0,1,.35-.08c.12,0-.08,0,0,0h.51c.12,0-.08,0,0,0l.16,0,.34.1.15.06,0,0a1.92,1.92,0,0,1,.31.18s.12.09,0,0l.11.1a3.07,3.07,0,0,1,.25.26c-.07-.08,0,0,0,0l.08.13a.61.61,0,0,1,.07.14s0,.08,0,0,0,.08,0,.08a1.87,1.87,0,0,1,.08.32c0-.11,0,0,0,.05v.2a1.28,1.28,0,0,1,0,.19c0,.12,0-.07,0,.05s0,.23-.09.35l-.06.18c0-.09,0,0,0,.06a1.92,1.92,0,0,1-.18.31,1.63,1.63,0,0,1-.11.17c.06-.09,0,0,0,0a2.06,2.06,0,0,1-.25.26l-.09.08,0,0-.07,0c-.1.07-.21.12-.31.18h0l-.08,0-.18.06-.16,0s-.1,0,0,0h-.06a1.69,1.69,0,0,1-.82-.13,2.25,2.25,0,0,1-.3-.16,1,1,0,0,1-.17-.12l-.08-.07a1.75,1.75,0,0,1-.23-.24c0-.06,0,0,0,0l-.06-.09-.1-.17a.89.89,0,0,1-.08-.17l0-.08a3,3,0,0,1-.11-.4s0-.1,0,0,0,0,0-.06,0-.13,0-.19a1.77,1.77,0,0,1,0-.23.22.22,0,0,1,0-.08s0-.13,0-.06,0,0,0,0,0-.07,0-.11a1.33,1.33,0,0,1,0-.19c0-.08.05-.15.07-.22s0,0,0,0a.54.54,0,0,1,.05-.11,3.47,3.47,0,0,1,.37-.57.61.61,0,0,0-.23-.84.63.63,0,0,0-.84.22,3.47,3.47,0,0,0-.51,3.38,3,3,0,0,0,3.56,1.85,3.43,3.43,0,0,0,2.37-2.67,2.92,2.92,0,0,0-1.55-3.13,3.26,3.26,0,0,0-3.77.45C28.53,16.72,29.4,17.59,30,17Z"/><path d="M15,22.3,12.88,33.71a.93.93,0,0,0,.06.7.94.94,0,0,0,.77.29q3.12.15,6.26.1a1.41,1.41,0,0,0,1-.27c.38-.38.21-1,0-1.52L16.56,22.34" fill="#ea2a74"/><path d="M16,22.51l2.38,5.8,1.23,3,.54,1.31c.13.33.52,1,.43,1.34s-.69.23-1,.24H18c-1,0-2.09,0-3.13-.07l-.71,0c-.1,0-.6,0-.67-.06a3.17,3.17,0,0,1,.11-.57l.15-.8.57-3.1,1.32-7.11-.6.46,1.57,0a.62.62,0,0,0,0-1.23L15,21.68a.63.63,0,0,0-.59.46L13,29.54l-.66,3.6a2.35,2.35,0,0,0,0,1.46,1.3,1.3,0,0,0,1.14.69c1.2.13,2.44.11,3.65.13h1.72a9.86,9.86,0,0,0,1.72-.07,1.54,1.54,0,0,0,1.11-2.08,14.89,14.89,0,0,0-.62-1.56L20.34,30l-3.18-7.77C16.86,21.46,15.67,21.77,16,22.51Z"/><path d="M14.11,17.89a2.68,2.68,0,0,1,4.16.82A2.73,2.73,0,0,1,16,22.3a2.38,2.38,0,0,1-1.33-.36A2.71,2.71,0,0,1,14,18Z" fill="#2e97cc"/><path d="M14.55,18.33l.11-.11c.08-.08-.06,0,0,0A2.38,2.38,0,0,1,15,18c.05,0,.14-.06,0,0l.14,0a2.21,2.21,0,0,1,.35-.08c.12,0-.08,0,0,0h.51c.12,0-.08,0,0,0l.15,0,.35.1.15.06,0,0a2.48,2.48,0,0,1,.31.18s.12.09,0,0l.11.1a3.07,3.07,0,0,1,.25.26c-.07-.08,0,0,0,0l.08.13a.61.61,0,0,1,.07.14s0,.08,0,0l0,.08a1.87,1.87,0,0,1,.08.32c0-.11,0,0,0,0v.2a1.28,1.28,0,0,1,0,.19c0,.12,0-.07,0,.05s0,.23-.09.35l-.06.18c0-.09,0,0,0,.06a1.92,1.92,0,0,1-.18.31.91.91,0,0,1-.11.16l0,.05a2.06,2.06,0,0,1-.25.26l-.09.08c.06-.05,0,0-.05,0l-.06.05c-.1.07-.21.12-.31.18h0l-.08,0-.18.06-.16,0s-.1,0,0,0h-.06a1.69,1.69,0,0,1-.82-.13l-.31-.16a1.67,1.67,0,0,1-.16-.12l-.08-.07a2.61,2.61,0,0,1-.23-.24c0-.06,0,0,0,0l-.06-.09-.1-.17a.89.89,0,0,1-.08-.17l0-.08a3.45,3.45,0,0,1-.11-.4s0-.1,0,0,0-.05,0-.06,0-.13,0-.19a1.77,1.77,0,0,1,0-.23v-.08s0-.13,0-.06,0,0,0,0,0-.07,0-.11a1.33,1.33,0,0,1,.05-.19c0-.08.05-.15.07-.22s0,0,0,0a.54.54,0,0,1,0-.11,4.21,4.21,0,0,1,.36-.57.6.6,0,0,0-.22-.84.62.62,0,0,0-.84.22A3.47,3.47,0,0,0,13.07,21a3,3,0,0,0,3.56,1.85A3.43,3.43,0,0,0,19,20.14,2.93,2.93,0,0,0,17.45,17a3.26,3.26,0,0,0-3.77.45C13.11,18,14,18.88,14.55,18.33Z"/></g></svg>