<svg xmlns="http://www.w3.org/2000/svg" viewBox="0 0 48 48"><g id="btn-accessory-5"><path d="M38.86,30.26c-1.28,3.51-6.21,4.22-9.93,4.56a39.27,39.27,0,0,1-11.1-1c-2.73-.54-7.17-3.75-7.17-3.75,4.15-5.47.9-11.57.9-11.57l8.29-3c3.57-1.29,7.45-2.6,11.1-1.54,3.23.94,5.65,3.58,7.89,6.09C38.84,20,41.06,24.2,38.86,30.26Z" fill="#82dcf4"/><path d="M38.17,30.08c-.63,1.66-2.3,2.57-3.92,3.09a24.44,24.44,0,0,1-5.77,1,33.67,33.67,0,0,1-8.32-.62,20.09,20.09,0,0,1-3.27-.73,17.2,17.2,0,0,1-2.41-1.16A34.87,34.87,0,0,1,11,29.44l.26,1a11.84,11.84,0,0,0,.91-12.29l-.43,1c3.08-1.11,6.14-2.25,9.22-3.34,2.88-1,6.08-2,9.16-1.37,2.69.59,4.8,2.42,6.65,4.37a9.65,9.65,0,0,1,1.53,1.74c.09.16,0-.09,0,.11l.12.33c.11.32.21.65.29,1a14.1,14.1,0,0,1-.6,8.1c-.31.86,1.07,1.23,1.37.37a15.71,15.71,0,0,0,.75-8.15,10.18,10.18,0,0,0-.56-2,4.5,4.5,0,0,0-1-1.48A18.72,18.72,0,0,0,32,13.56c-3.12-1.25-6.53-.68-9.64.29-3.72,1.16-7.36,2.61-11,3.94A.73.73,0,0,0,11,18.84a4.84,4.84,0,0,1,.37.87A12.37,12.37,0,0,1,12,22.26,10,10,0,0,1,10,29.69a.72.72,0,0,0,.26,1,31.57,31.57,0,0,0,3.2,2.05A21.47,21.47,0,0,0,16.18,34a16.52,16.52,0,0,0,3.26.8,36.59,36.59,0,0,0,9,.74,26.64,26.64,0,0,0,6.15-1,7.24,7.24,0,0,0,4.91-4.09C39.87,29.6,38.49,29.23,38.17,30.08Z"/><path d="M7.88,19.81a7.72,7.72,0,0,0,4.27-.59.73.73,0,0,0,.26-1,.74.74,0,0,0-1-.25l-.12.05c.07,0,.06,0,0,0l-.19.07-.45.14a6.11,6.11,0,0,1-.85.18H9.74l-.23,0-.44,0-.47,0H8.4l-.14,0a.72.72,0,0,0-.87.5.71.71,0,0,0,.49.87Z"/><path d="M38.82,20.51a10.83,10.83,0,0,0,4.18.68.73.73,0,0,0,.71-.72.72.72,0,0,0-.71-.71,8.85,8.85,0,0,1-1,0l-.45,0-.17,0-.22,0a9.82,9.82,0,0,1-1.93-.52.72.72,0,0,0-.88.49.74.74,0,0,0,.5.88Z"/><path d="M24.78,18.85a5.74,5.74,0,0,1,6.91.42c.68.62,1.68-.39,1-1a7.16,7.16,0,0,0-8.63-.65c-.76.52,0,1.75.72,1.23Z"/></g></svg>