<svg xmlns="http://www.w3.org/2000/svg" viewBox="0 0 48 48"><g id="btn-accessory-9"><path d="M20.89,39.4c-1.44-.73-4.84-2.19-5.56-3.64a9.5,9.5,0,0,1-.6-4.47L15,23.63a.83.83,0,0,0-.08-.47c-.13-.22-.42-.27-.66-.35a2.82,2.82,0,0,1-1.7-1.71c-.32-.77-1.47-2-1.55-2.83-.13-1.46-.08-3.8-.22-5.26,1.25.61,3.4,2.46,4.67,3a2.74,2.74,0,0,0,1.1.3A2.85,2.85,0,0,0,18,15.72c3.24-2.13,5.6-2.34,9.48-2.16a6.12,6.12,0,0,1,3.41.95c.11.09,1.8-.68,1.94-.66a.8.8,0,0,0,.49-.14,22.26,22.26,0,0,1,4.93-1.87c.59,2.13,1.33,4.22.19,6.12a18.78,18.78,0,0,1-2,3.37c-.23.23-1.72,0-1.83.34s.93,2.38.93,2.61a60.15,60.15,0,0,0,0,6.44,10.73,10.73,0,0,1-3.87,8.35S25.69,41.8,20.89,39.4Z" fill="#91a3b0" fill-rule="evenodd"/><path d="M25.34,29.32l-1.25.35a1,1,0,0,0-.51,1.63L25,33a1,1,0,0,0,1.5.08l1.41-1.4A1,1,0,0,0,27.52,30L26,29.36A.94.94,0,0,0,25.34,29.32Z" fill="#e25495" fill-rule="evenodd"/><path d="M25.11,28.48c-.86.24-1.87.38-2.36,1.21a1.88,1.88,0,0,0-.22,1.37,2.13,2.13,0,0,0,.46.88c.46.56.9,1.15,1.39,1.68a1.92,1.92,0,0,0,2.69,0l.73-.73c.25-.25.52-.49.75-.75a1.92,1.92,0,0,0-.05-2.57A4.05,4.05,0,0,0,27,28.83l-.67-.26a2,2,0,0,0-1.2-.09.87.87,0,0,0,.46,1.67c.19,0,0,0,0,0h.14s-.17,0,0,0l.07,0,.08,0,.48.19,1,.38c.08,0,0,0-.13-.06a.16.16,0,0,0,.07,0c.06,0,.08.1,0,0s0,0,0,0a.12.12,0,0,1,.05.05c.11.1,0,0,0-.06l.06.11c.07.08,0-.17,0-.07l0,.09c0,.07,0-.09,0-.1a.27.27,0,0,0,0,.09s0,.09,0,.1.05-.21,0-.08a.19.19,0,0,0,0,.07c0,.08.09-.16,0,0l0,.09s.14-.16,0-.05,0,0,0,0l-.08.08-.35.35L26,32.3l-.1.1,0,0c-.13.13.08,0,0,0l-.1.06c-.08.06.07,0,.07,0l-.1,0c-.16,0,.05,0,.06,0h-.11c-.13,0,.06,0,.07,0l-.08,0c-.1,0,.15.1,0,0s-.1,0-.09-.06.15.16,0,0l-.09-.09,0-.07-.29-.35L24.43,31l-.23-.28s.09.17,0,0l0-.07c-.06-.06,0,.18,0,0a.47.47,0,0,0,0-.09c0,.05,0,.2,0,.05s0-.06,0-.07c0,.14,0,.17,0,.11a.22.22,0,0,1,0-.08.14.14,0,0,0,0-.07c0-.08-.09.17,0,.05a.22.22,0,0,0,.05-.08c.07-.12-.1.09,0,0l.07-.07c.05-.06-.17.09,0,0l.07,0c.06-.05-.18.05,0,0,.42-.09.83-.24,1.25-.35a.88.88,0,0,0,.61-1.06A.9.9,0,0,0,25.11,28.48Z"/><circle cx="20.89" cy="26.09" r="1.18"/><path d="M21.21,26.09a.92.92,0,0,1,0,.16l0-.23a1,1,0,0,1-.08.3l.09-.2a2.26,2.26,0,0,1-.16.26l.13-.17a1.8,1.8,0,0,1-.19.2l.17-.14a1.4,1.4,0,0,1-.26.16l.2-.09a1.71,1.71,0,0,1-.3.09l.23,0a1.82,1.82,0,0,1-.33,0l.23,0a1.58,1.58,0,0,1-.31-.09l.21.09a1.91,1.91,0,0,1-.27-.16l.18.14a1.89,1.89,0,0,1-.2-.2l.14.17a1.4,1.4,0,0,1-.16-.26l.09.2a1.32,1.32,0,0,1-.09-.3l0,.23a1.82,1.82,0,0,1,0-.33l0,.23a1.71,1.71,0,0,1,.09-.3l-.09.2a1.4,1.4,0,0,1,.16-.26l-.14.17a1.19,1.19,0,0,1,.2-.19l-.18.13.27-.16-.21.09a1.58,1.58,0,0,1,.31-.09l-.23,0a.91.91,0,0,1,.33,0l-.23,0a1.71,1.71,0,0,1,.3.09l-.2-.09a2.26,2.26,0,0,1,.26.16L21,25.77a1.14,1.14,0,0,1,.19.19l-.13-.17a2.26,2.26,0,0,1,.16.26l-.09-.2a1.11,1.11,0,0,1,.08.3l0-.23a1,1,0,0,1,0,.17.87.87,0,0,0,1.73,0A2,2,0,0,0,22.6,25a2.19,2.19,0,0,0-1.05-.8,2,2,0,0,0-2.19.58,2.56,2.56,0,0,0-.39.66,2.3,2.3,0,0,0-.12.58A2,2,0,0,0,20,27.91a2.1,2.1,0,0,0,1.35.17,1.93,1.93,0,0,0,1.08-.63,2.14,2.14,0,0,0,.53-1.36.87.87,0,0,0-.86-.87A.88.88,0,0,0,21.21,26.09Z"/><circle cx="30.36" cy="25.5" r="1.22"/><path d="M30.71,25.5a1,1,0,0,1,0,.17l0-.23a1.09,1.09,0,0,1-.08.31l.08-.21a1.12,1.12,0,0,1-.16.28l.13-.18a1,1,0,0,1-.2.21l.18-.14a1.12,1.12,0,0,1-.28.16l.21-.08a1.68,1.68,0,0,1-.32.09l.23,0a.91.91,0,0,1-.33,0l.23,0a1.68,1.68,0,0,1-.32-.09l.21.08a1.12,1.12,0,0,1-.28-.16l.18.14a1,1,0,0,1-.2-.21l.13.18a1.56,1.56,0,0,1-.16-.28l.09.21a.85.85,0,0,1-.09-.31l0,.23a1,1,0,0,1,0-.34l0,.23a1,1,0,0,1,.09-.32l-.09.21a1.2,1.2,0,0,1,.16-.27l-.13.17a1.26,1.26,0,0,1,.2-.2l-.18.13a1.56,1.56,0,0,1,.28-.16l-.21.09a1.17,1.17,0,0,1,.32-.09l-.23,0h.33l-.23,0a1.17,1.17,0,0,1,.32.09l-.21-.09a1.56,1.56,0,0,1,.28.16l-.18-.13a1.26,1.26,0,0,1,.2.2l-.13-.17a.92.92,0,0,1,.16.27l-.08-.21a1.25,1.25,0,0,1,.08.32l0-.23a1,1,0,0,1,0,.17.87.87,0,0,0,1.73,0,2.16,2.16,0,0,0-.35-1.16A2.29,2.29,0,0,0,31,23.52a2.07,2.07,0,0,0-2.22.6,2.38,2.38,0,0,0-.4.67,1.94,1.94,0,0,0-.12.59,2,2,0,0,0,.28,1.18,2.14,2.14,0,0,0,.86.8,2.27,2.27,0,0,0,1.38.17,1.91,1.91,0,0,0,1.1-.64,2.18,2.18,0,0,0,.54-1.39.88.88,0,0,0-.86-.87A.89.89,0,0,0,30.71,25.5Z"/><path d="M24.83,33.6c0,.12.08.23.11.35a2.17,2.17,0,0,0,.07.35c0-.15,0-.17,0-.08v.05c0,.07,0,.13,0,.2a1,1,0,0,1,0,.35l0-.13s0,.07,0,.1A1.36,1.36,0,0,0,25,35l-.06.17c0,.17.09-.16,0,0a2.58,2.58,0,0,1-.18.32c-.08.12.15-.17,0,0l-.09.11-.1.08c-.16.15.14-.09,0,0l-.23.14-.14.07c-.14.07.19-.07.05,0l-.3.09a.47.47,0,0,1-.17,0l.15,0h-.39c-.16,0,.22,0,.06,0l-.16,0-.12,0c-.14,0,.21.1,0,0a.88.88,0,0,0-1.18.31.87.87,0,0,0,.31,1.18,3,3,0,0,0,3.38-.55,3.45,3.45,0,0,0,.65-3.6.86.86,0,1,0-1.67.45Z"/><path d="M24.49,33.94a8.57,8.57,0,0,0,.11,1.52,3.33,3.33,0,0,0,.7,1.48,2.83,2.83,0,0,0,2.81.92.86.86,0,0,0-.46-1.66l-.23,0,.23,0a1.41,1.41,0,0,1-.41,0l.23,0a1.37,1.37,0,0,1-.35-.08l-.13,0c.26.08.06,0,0,0s-.18-.12-.27-.17c.11.09.14.1.07.05l-.07-.06-.11-.11a1,1,0,0,0-.1-.11c.09.12.11.14.06.07l-.05-.07-.07-.13a.41.41,0,0,1-.05-.09c0-.09,0-.07,0,.06a2.24,2.24,0,0,0-.11-.34c0-.14-.06-.27-.08-.41l0,.23a9.94,9.94,0,0,1-.05-1.09.86.86,0,0,0-1.72,0Z"/><path d="M30.38,13.49a12.35,12.35,0,0,0-13.13,1.72l-6.08-2.94a.87.87,0,0,0-1.3.74c-.21,3.69.08,7.75,2.86,10.5a.76.76,0,0,0,1,.15c-.15.86-.27,1.71-.37,2.57a32.55,32.55,0,0,0-.23,3.62A14.15,14.15,0,0,1,11,29.17a.88.88,0,0,0-1.06.6.9.9,0,0,0,.61,1.07,16.9,16.9,0,0,0,2.65.8,13.68,13.68,0,0,0,.32,2A20.72,20.72,0,0,1,7,32.25c-1-.4-1.49,1.27-.46,1.66A22,22,0,0,0,14,35.34a10.72,10.72,0,0,0,.54,1.07,6.34,6.34,0,0,0,4.51,3.06c1.09.17,1.56-1.49.46-1.66a4.64,4.64,0,0,1-3.39-2.13,3.75,3.75,0,0,1-.21-.4,21,21,0,0,0,3.43-.51c1.08-.25.62-1.91-.46-1.66a19.64,19.64,0,0,1-3.64.48A10.31,10.31,0,0,1,15,32a21.24,21.24,0,0,0,3.71.52.87.87,0,0,0,0-1.73l-.75,0c-.39,0-.47-.05-.81-.11-.77-.11-1.53-.26-2.29-.42h0a32.4,32.4,0,0,1,.84-7.79c.15-.67.3-1.35.49-2A.86.86,0,0,0,14.51,20c-.22.76-.4,1.53-.56,2.31h0c-2.11-2.09-2.46-5.08-2.4-7.93l5.09,2.47.07,0a.84.84,0,0,0,1.23,0A10.55,10.55,0,0,1,29.51,15C30.51,15.45,31.38,14,30.38,13.49Z"/><path d="M43.57,29.22a.89.89,0,0,0,.3-1.18.87.87,0,0,0-1.18-.31,18,18,0,0,1-5.76,2.9,37.47,37.47,0,0,0-.85-8.51.77.77,0,0,0,.88-.18c2.78-2.76,3.07-6.81,2.85-10.5a.87.87,0,0,0-1.29-.75l-6.34,3.08c-1,.48-.13,2,.87,1.49l5.09-2.47c.06,2.83-.29,5.82-2.38,7.9,0-.23-.09-.47-.15-.7a.87.87,0,0,0-1.67.46,42.6,42.6,0,0,1,1,5A31.23,31.23,0,0,1,35.25,31a18,18,0,0,1-4.52.29c-1.11-.07-1.11,1.65,0,1.72a19,19,0,0,0,4.32-.22c-.07.38-.15.75-.25,1.12a24.65,24.65,0,0,1-3.52-.5c-1.08-.23-1.54,1.43-.46,1.67a29.43,29.43,0,0,0,3.35.5,3.48,3.48,0,0,1-1.66,1.62.89.89,0,0,0-.6,1.06.86.86,0,0,0,1.06.6,5.7,5.7,0,0,0,3-3.16,27.19,27.19,0,0,0,3.93-.15.9.9,0,0,0,.86-.87.87.87,0,0,0-.86-.86,27.48,27.48,0,0,1-3.39.16,13.56,13.56,0,0,0,.28-1.57A19.17,19.17,0,0,0,43.57,29.22Z"/></g></svg>