<svg xmlns="http://www.w3.org/2000/svg" viewBox="0 0 48 48"><g id="btn-accessory-3"><path d="M37.33,15.64c-.82,2.72-1.53,5.8-3.9,7.37a3.13,3.13,0,0,1-3.05.4A7.12,7.12,0,0,1,28.85,22c-2.33-2.22-6.22-1.8-9-.13-1.22.74-2.48,1.74-3.9,1.57a3.49,3.49,0,0,1-2.59-2.14,10.22,10.22,0,0,1-.69-3.43,13.07,13.07,0,0,0-2.58-7.76A22.51,22.51,0,0,0,5.36,5.25L5.24,6c-.08,4.45-.16,8.9-.18,13.35a21.45,21.45,0,0,0,.65,6.45c1,3.32,3.53,5.94,6,8.43a38.69,38.69,0,0,0,5.47,4.93,22.24,22.24,0,0,0,5,3,9.11,9.11,0,0,0,3,.52,4.57,4.57,0,0,0,3-1c2.9-2,5.74-4.21,8.49-6.46,2.1-1.72,4.24-3.59,5.21-6.12a16.61,16.61,0,0,0,.77-5.62l.35-16.57C40.46,10.39,38.56,11.52,37.33,15.64ZM30.78,27.17c-1.59,3.47-3.63,5.75-7.52,5.46l-.19,0a8.4,8.4,0,0,1-6.63-4.27.23.23,0,0,1,.24-.34,29.67,29.67,0,0,0,13.81-1.15A.24.24,0,0,1,30.78,27.17Z"/></g></svg>