<svg xmlns="http://www.w3.org/2000/svg" viewBox="0 0 48 48"><g id="btn-accessory-1"><path d="M9.86,27.41A14.75,14.75,0,0,1,18,25.57a55.69,55.69,0,0,1,8.11,1.21c4.95.92,10,1.48,14.59,3.77,1.43.73,3.59,1.34,4.51,2.86.68-3.88-.79-6.32-.76-10.23a2.2,2.2,0,0,0-.09-.78c-.13-.34-.36-1.64-.63-1.8a110.37,110.37,0,0,0-10.76-6,13,13,0,0,0-2.8-.68,16.16,16.16,0,0,0-2.78-.27c-7.43.67-8,1.08-13.08,3.43a3,3,0,0,0-1,.48,3.32,3.32,0,0,0-.72,1.88c-.45,2.62-2.47,5.18-2.92,7.8" fill="#00204a"/><path d="M45.22,33.41c-5.62.81-12.94-.88-18.6-1.22-4.17-.25-8.34-.52-12.47-1.15-5.08-.78-7-.24-10.71-3.8a4.76,4.76,0,0,1-1.26-1.76c3.83,1,4.3.25,8,1.61l9.94-5.92,25.22,11Z" fill="#00204a"/><path d="M29.67,24.3a3,3,0,0,0-1.14-1l.12.91a3.29,3.29,0,0,0,1-2.42,4.22,4.22,0,0,0-.61-2.57,2.88,2.88,0,0,0-4.36-.71c-.53.52.29,1.34.82.82a1.75,1.75,0,0,1,2.63.62,3.28,3.28,0,0,1,.36,1.8,2.21,2.21,0,0,1-.68,1.64.58.58,0,0,0,.11.91,3,3,0,0,1,.31.15l.12.08c-.06-.05,0,0,0,0s.31.36.47.54a.58.58,0,0,0,.82,0,.59.59,0,0,0,0-.82Z" fill="#fff"/><path d="M26.09,24.27a1.68,1.68,0,0,1-1.89.17,1.93,1.93,0,0,1-.86-1.77,4.79,4.79,0,0,1,.15-1.19,7.41,7.41,0,0,0,.32-1.23A2.63,2.63,0,0,0,23,18.6a.59.59,0,0,0-.82,0,.58.58,0,0,0,0,.82s.06.08,0,0,.09.11.11.13.18.26.26.39c.2.32-.06.7-.15,1a5,5,0,0,0-.06,2.86,2.84,2.84,0,0,0,4.33,1.41.61.61,0,0,0,.21-.8.6.6,0,0,0-.8-.21Z" fill="#fff"/><path d="M25.91,21.52l-.35.27.29-.08h0l.15,0-.08,0,.14.06L26,21.71l.11.09a.46.46,0,0,1-.07-.07l.09.12a.41.41,0,0,1-.05-.09l.06.14a.22.22,0,0,1,0-.1l0,.15v-.08l0,.15a.25.25,0,0,1,0-.07l-.06.14,0-.05-.09.12a.08.08,0,0,1,0,0l-.12.09,0,0-.14.06h.05l-.15,0h.06l-.16,0,.07,0-.14-.06.08,0-.12-.09s.05,0,.06.07l-.09-.12,0,.06L25.45,22a.07.07,0,0,1,0,0l0-.16v0l0-.15a.06.06,0,0,1,0,0l.06-.14,0,0,.09-.11,0,0a.57.57,0,0,0-.12.18.59.59,0,0,0-.05.23.54.54,0,0,0,.05.22.76.76,0,0,0,.12.19.66.66,0,0,0,.42.17l.15,0a.68.68,0,0,0,.26-.15v0a1.47,1.47,0,0,0,.1-.13h0l.07-.16a.55.55,0,0,0,0-.22,1.11,1.11,0,0,0,0-.17h0l-.07-.18,0,0a.76.76,0,0,0-.11-.14.84.84,0,0,0-.18-.15l-.07,0a.61.61,0,0,0-.17-.07,1.25,1.25,0,0,0-.19,0h-.06l-.17,0a.67.67,0,0,0-.21.09.84.84,0,0,0-.26.27.79.79,0,0,0-.13.45l0,.19a.43.43,0,0,0,0,.05s0,.08,0,.11l.06.12,0,0,.12.15,0,0,.15.12.05,0,.18.08.13,0h.08a.59.59,0,0,0,.23-.05l.07,0,0,0,.3-.23a.5.5,0,0,0,.17-.15.47.47,0,0,0,.1-.2.45.45,0,0,0,0-.23.44.44,0,0,0-.07-.22.58.58,0,0,0-.35-.26l-.15,0a.59.59,0,0,0-.29.07Z" fill="#00bbf0"/><path d="M11,27c.44-2.46,1.71-4.66,2.26-7.09a15.08,15.08,0,0,1,.35-1.62,1.44,1.44,0,0,1,.34-.6,2.12,2.12,0,0,1,.77-.33,4,4,0,0,0,.54-.29,24.35,24.35,0,0,1,8.52-2.67A21.75,21.75,0,0,1,36.4,16.65a28.26,28.26,0,0,1,6.73,4.8c.13.12.24.26.38.38s.48.27.57.58a4.34,4.34,0,0,1,0,1,18.85,18.85,0,0,0,.17,2c.34,2.55,1,5,.6,7.6l1.06-.14a3.6,3.6,0,0,0-1.22-1.29,7.11,7.11,0,0,0-1.44-.54,4.81,4.81,0,0,0-1-.35c-.68-.12-1.37-.19-2-.29l-8.81-1.22-11-1.53-8.24-1.14c-.53-.08-1.08-.11-1.6-.23A5.61,5.61,0,0,1,9.83,26a13.71,13.71,0,0,0-1.91-.49c-1-.19-2.12-.22-3.18-.38a20.88,20.88,0,0,1-2.19-.48c-.39-.1-.87.29-.71.72a8.1,8.1,0,0,0,2.87,3.28,10.05,10.05,0,0,0,2.86,1.59,14.57,14.57,0,0,0,3.07.64c1.32.16,2.64.31,3.95.51,3.65.54,7.33.81,11,1,3.17.2,6.31.61,9.47,1a40.66,40.66,0,0,0,10.51.28c.74-.1.43-1.22-.31-1.12a35.59,35.59,0,0,1-8.87-.17c-3-.33-6-.81-9.06-1-3.49-.25-7-.43-10.44-.85-1.55-.18-3.08-.44-4.62-.62-1-.12-2.11-.22-3.14-.44a8.76,8.76,0,0,1-3-1.21A13.39,13.39,0,0,1,4.52,27,5.47,5.47,0,0,1,3,25.09l-.71.71a22.63,22.63,0,0,0,3.85.67,15.2,15.2,0,0,1,3.34.66,6.63,6.63,0,0,0,1.05.31l.78.11,7.44,1,10.77,1.5,9.4,1.3,2.69.38c.18,0,.38,0,.57.07l.18.08c.5.21,1,.34,1.53.54a2.29,2.29,0,0,1,1.09,1c.24.39,1,.38,1.06-.14a13.71,13.71,0,0,0,.12-3.73c-.13-1.15-.37-2.28-.56-3.41-.1-.58-.18-1.16-.23-1.74s0-1.36-.08-2a1.83,1.83,0,0,0-.81-1.35.75.75,0,0,1-.18-.13c-.64-.56-1.23-1.17-1.89-1.71a30.48,30.48,0,0,0-4.08-2.86,23,23,0,0,0-12.9-3.26A25.94,25.94,0,0,0,15.1,15.84c-.27.14-.54.32-.82.45a3.91,3.91,0,0,0-1,.48,2.89,2.89,0,0,0-.85,1.58c-.17.66-.26,1.34-.45,2s-.46,1.41-.72,2.1A23.56,23.56,0,0,0,9.87,26.7c-.13.73,1,1,1.12.3Z"/></g></svg>