<svg xmlns="http://www.w3.org/2000/svg" viewBox="0 0 235 235"><g id="mouth-1"><g id="fill"><path d="M102,129.61c.14,2.65,3.27,4.63,6.1,6.22a30.13,30.13,0,0,0,6.51,3,16.39,16.39,0,0,0,12-1.22c3.35-1.89,5.3-5.15,5-8.42l.2-.53c-2.1,1.58-5.49,1.45-8.48,1.21l-21.22-1.64" fill="#fff"/></g><path id="stroke" d="M100.47,129.61c.36,3.6,3.62,5.68,6.5,7.32,3.59,2,7.24,3.82,11.44,4a17.18,17.18,0,0,0,10.5-3c2.8-1.93,5.5-4.77,5.33-8.41,0-.86-1-1.85-1.9-1.45a13.37,13.37,0,0,1-6.38.51l-7.5-.61-16.29-1.26c-1.93-.15-1.92,2.85,0,3L119,131c2.47.19,5,.42,7.42.6a14.64,14.64,0,0,0,6.77-.65l-1.9-1.44c.12,2.73-2.23,4.79-4.34,6.16a14.37,14.37,0,0,1-8.49,2.23c-3.29-.13-6.18-1.49-9-3.06-1.9-1.06-5.68-2.72-5.93-5.25-.18-1.91-3.18-1.93-3,0Z"/></g></svg>