<svg xmlns="http://www.w3.org/2000/svg" viewBox="0 0 235 235"><g id="mouth-8"><g id="fill"><path d="M130.11,126.86a13.42,13.42,0,0,1-6.23,16.9s-14.24,2.08-21.3-15c-1.73-4.2,8.5-3.75,12.92-2.72,2,.47,4,1.36,6.12,1.28,3-.12,6.2-2.25,8.86-.79" fill="#fff"/></g><path id="stroke" d="M131.78,127.13a1.29,1.29,0,0,0-.54-1.93,8.28,8.28,0,0,0-6-.2c-.93.24-1.84.54-2.79.69a8.4,8.4,0,0,1-3.69-.35,37.68,37.68,0,0,0-9.25-1.54c-2.38,0-5.64,0-7.51,1.69-2.38,2.19,0,5.66,1.2,7.83a23.58,23.58,0,0,0,12.91,11,17.5,17.5,0,0,0,7.79.95c1.6-.24,3.17-1.61,4.29-2.71a15,15,0,0,0,3.23-4.84A14.75,14.75,0,0,0,131.78,127.13Zm-27.9.7h0C103.85,127.69,103.89,127.8,103.88,127.83Zm19.83,14.45-.21,0C123.6,142.24,124,142.27,123.71,142.28Zm5.09-6.17a12,12,0,0,1-2.21,3.72A11.34,11.34,0,0,1,125,141.3a14.06,14.06,0,0,0-1.55,1h-.15c-.42,0-.83,0-1.25,0a15.32,15.32,0,0,1-3.8-.51,19.36,19.36,0,0,1-10.74-7.28,26.89,26.89,0,0,1-2.51-4.06,18.54,18.54,0,0,1-1.05-2.26c0-.1-.11-.38-.11-.4a1.73,1.73,0,0,1,.47-.36,4.94,4.94,0,0,1,1.2-.38,15.08,15.08,0,0,1,3.22-.29,30.3,30.3,0,0,1,8.72,1.31,12.34,12.34,0,0,0,6.32.35c1.5-.33,3.35-1.18,5-.94l0,.1A11.53,11.53,0,0,1,128.8,136.11Z"/></g></svg>