<svg xmlns="http://www.w3.org/2000/svg" viewBox="0 0 235 235"><g id="mouth-3"><g id="fill"><path d="M111.72,130.24a22.25,22.25,0,0,0,17.8-.82,11.15,11.15,0,0,1-2.41,6.18,8.75,8.75,0,0,1-9.16,2.18,12.25,12.25,0,0,1-7-6.69c-.22-.47-.13-1.31.37-1.18" fill="#fff"/></g><path id="stroke" d="M128.76,128.12a20.93,20.93,0,0,1-16.44.74,1.47,1.47,0,0,0-1-.45c-1.65-.07-2.28,1.74-1.82,3.08a12.59,12.59,0,0,0,2.29,3.73,12.2,12.2,0,0,0,7.22,4.35,10.39,10.39,0,0,0,8.06-1.88c2.59-2,3.58-5.14,4-8.27C131.17,128.19,129.66,127.68,128.76,128.12Zm-3.27,7a7.14,7.14,0,0,1-5,1.62,8.46,8.46,0,0,1-5-2,11.67,11.67,0,0,1-2-2.17,1.4,1.4,0,0,1-.1-.16,24,24,0,0,0,14.13-.48A7.44,7.44,0,0,1,125.49,135.11Z"/></g></svg>