<svg xmlns="http://www.w3.org/2000/svg" viewBox="0 0 235 235"><g id="mouth-5"><path id="stroke" d="M131,130.8c-.44.47-1.27,0-1.75-.23a12.68,12.68,0,0,0-3-1.52,4.16,4.16,0,0,0-2.92.31c-.49.23-1.58,1.33-2.13,1.27.07,0-.46-.51-.58-.61a3.72,3.72,0,0,0-1.4-.71,4.65,4.65,0,0,0-2.92.29c-1,.41-1.88,1.19-2.91,1.61a5.86,5.86,0,0,1-3.56-.1c-1.88-.43-2.68,2.46-.79,2.89a16.82,16.82,0,0,0,2.34.4,1.58,1.58,0,0,0,.15.48,10.72,10.72,0,0,0,12,5.13,1.51,1.51,0,0,0-.8-2.9c-.23.07-.46.12-.69.17l-.23,0-.22,0a9.62,9.62,0,0,1-1.42,0l-.35,0h-.1l-.7-.15-.68-.2-.34-.12-.14-.06a9.51,9.51,0,0,1-1.22-.65c-.2-.12-.39-.26-.58-.4l0,0-.27-.23a9.54,9.54,0,0,1-1-1l0,0,0-.06c-.07-.1-.14-.19-.2-.29a.56.56,0,0,0,0-.08,14.86,14.86,0,0,0,1.88-1c.89-.56,1.78-1.13,2.66-.34a3.12,3.12,0,0,0,3,.9,11.58,11.58,0,0,0,2.46-1.36c1-.56,1.9.18,2.8.73,1.76,1.1,4.21,1.76,5.82,0C134.47,131.51,132.35,129.38,131,130.8Zm-14.85,4.93c.06.05,0,0,0,0Z"/></g></svg>