<svg xmlns="http://www.w3.org/2000/svg" viewBox="0 0 235 235"><g id="mouth-7"><path id="stroke" d="M140.21,132.61a24.38,24.38,0,0,1-3.32-1.91l-.75-.55-.07-.05L136,130l-.34-.28q-.76-.63-1.47-1.32a1.5,1.5,0,0,0-2.12,2.12,25.48,25.48,0,0,0,2.76,2.32,1.65,1.65,0,0,0-.24.33c-2.77,4.88-7.74,8.92-13.51,9.32a13.22,13.22,0,0,1-13-7.4,1.69,1.69,0,0,0-.24-.37,15.67,15.67,0,0,0,1.63-2.69,1.57,1.57,0,0,0,.15-1.16,1.5,1.5,0,0,0-2.74-.36,15.33,15.33,0,0,1-.92,1.69c-.18.27-.36.54-.55.79l-.11.15h0l-.33.41a15.86,15.86,0,0,1-1.35,1.37c-.23.21-.47.4-.71.6l-.18.14-.44.3a1.5,1.5,0,1,0,1.52,2.59,17.35,17.35,0,0,0,1.91-1.51c2.78,5.58,9.24,8.88,15.39,8.44,6.84-.48,12.78-5,16.1-10.81a1.19,1.19,0,0,0,.11-.26c.48.27,1,.53,1.44.76a1.53,1.53,0,0,0,2.05-.54A1.52,1.52,0,0,0,140.21,132.61Zm-34.93.52Zm0,.05,0,.06Z"/></g></svg>