<svg xmlns="http://www.w3.org/2000/svg" viewBox="0 0 235 235"><g id="body-6"><path class="c-skin" d="M38.29,235l3.6-30.54,10.67-23.93S69,167.89,89.11,163.68c0,0,8.63,2.28,8.17-7.84S95.94,139,95.94,139l49.29,1s.22,18.66,2.75,20.38,30.77,8.61,38.33,14,10.91,4.25,13.86,22.21S205.06,235,205.06,235Z" /><path class="c-shirt" d="M39.71,209.74l26.58,9.73.79,15.88H175.15l-1.59-16.18,28.92-6.77s-.47-28.47-10.75-34.49C180.42,171.3,148,160.32,148,160.32s-1.62,15.76-26.3,17.64-25.07-16.47-25.07-16.47l-25.69,8.32s-17.68,6.66-21,15.31S39.71,209.74,39.71,209.74Z"  /><path id="stroke" d="M205.48,220c-.41-3.13-1.13-6.11-1.43-8.78-.45-3.95-1.07-7.88-1.79-11.78-.58-3.06-1.22-6.11-1.95-9.14a35.78,35.78,0,0,0-2-7.05c-2.71-5.74-9.25-9.34-14.7-12a127.77,127.77,0,0,0-21.12-7.74c-4-1.13-8-2.18-12.07-3a50.11,50.11,0,0,1-3.65-18.89c.06-1.93-2.94-1.93-3,0a51.83,51.83,0,0,0,3.1,17.87,1.54,1.54,0,0,0-.36.84c-.58,5.11-4.62,9.09-8.84,11.59a33.59,33.59,0,0,1-16.36,4.56c-5.27.11-11.37-.77-15.72-4a16.55,16.55,0,0,1-4.32-5.36,19.82,19.82,0,0,0-2.6-4,5.88,5.88,0,0,0-1.24-1,1.33,1.33,0,0,0,1-1,56.7,56.7,0,0,0,.29-10.82,59.89,59.89,0,0,0-1.28-10.76c-.45-1.88-3.34-1.08-2.9.8a55.51,55.51,0,0,1,1.18,10,52.42,52.42,0,0,1-.18,10,1.85,1.85,0,0,0,.19,1.17c-2.9-.64-6.39.55-9,1.3-5.17,1.47-10.23,3.35-15.28,5.18-7.74,2.8-17.24,6.32-21.55,13.89a80.27,80.27,0,0,0-3.89,9l-3.81,9.16q-1.94,4.65-3.85,9.29a1.52,1.52,0,0,0,1,1.82,89.94,89.94,0,0,0-1.78,10.69,83,83,0,0,0-.66,11.47c0,1.93,3,1.93,3,0a81,81,0,0,1,.62-11.12,85.26,85.26,0,0,1,1.66-10L58.32,218,63,219.6c.53.19,1.64.36,2,.79s.37,1.53.44,2.11q.63,5.15.87,10.32c.09,1.92,3.1,1.93,3,0-.18-3.78-.5-7.55-1-11.3-.2-1.56-.47-3-2-3.81a33.62,33.62,0,0,0-4.91-1.83l-19.75-7q4.76-11.52,9.57-23a16.78,16.78,0,0,1,3.33-5.35,25.27,25.27,0,0,1,5-3.89A66.87,66.87,0,0,1,71.87,171c5-1.81,10-3.66,15.1-5.14,2.38-.69,5.16-1.75,7.68-1.48a3.49,3.49,0,0,1,2.68,2c1,1.59,1.8,3.27,2.89,4.8A16.4,16.4,0,0,0,106,176.3a32.14,32.14,0,0,0,16.1,3.14c10.19-.44,23.57-5.63,26.75-16.26a1.91,1.91,0,0,0,.36.13c.69.17,1.39.3,2.08.46a182,182,0,0,1,19.31,5.44c7.33,2.53,15.26,5.53,21.17,10.71a16.5,16.5,0,0,1,3,3.3,15,15,0,0,1,1.92,5.1,183.33,183.33,0,0,1,3.77,18.74c.19,1.29.35,2.59.5,3.89h-.1c-8.51,1.33-16.64,4.14-25.08,5.75a1.25,1.25,0,0,0-1,.77c-.52-4.48-1.12-8.95-1.84-13.41-.31-1.9-3.2-1.09-2.89.8q2.17,13.56,3.07,27.29a1.6,1.6,0,0,0,0,.5l.16,1.24c.22,1.86,3.11,2,3,0q-.47-7.51-1.29-15a1.5,1.5,0,0,0,1.6.7c8.36-1.59,16.41-4.36,24.82-5.7.18.87.37,1.73.51,2.59a96.89,96.89,0,0,1,1.61,17.41c0,1.93,3,1.93,3,0A95.29,95.29,0,0,0,205.48,220Z"/></g></svg>