<svg xmlns="http://www.w3.org/2000/svg" viewBox="0 0 235 235"><g id="body-8"><path class="c-skin" d="M228,235.17c0-1.51-7.07-20.17-9.59-35.7s-1.28-8.31-9.67-18.45-59.26-15.41-61.81-17.76-5.25-25.56-5.25-25.56H92.37l1.35,25.56S57.29,169.91,45.14,173s-22.81,14.76-22.81,14.76l-4.16,24.18-7.93,23.76" /><path class="c-shirt" d="M14.39,220.76s12.85,12.38,31.83,8.75l7.35-1.95-1.37,8.13H186v-7.47s17.87,4.64,24.29,1,13.88-7.66,13.88-7.66-3.91-6.7-4.57-12.36.25-19.1-6.62-24.52S197.39,172.77,181.51,170s-34.59-6.76-34.59-6.76.51,15.14-27.63,15.16-27.14-17-27.14-17-21.39,6.4-33.1,8.5-32.8,10.45-35.52,16.59-4.67,21.38-4.67,21.38Z"  /><path id="stroke" d="M229.44,235.29a69.2,69.2,0,0,0-3.94-14.44c-1-2.31-2.15-4.47-3.32-6.68l-.05-.08a.23.23,0,0,0,0-.09c-.06-.19-.12-.38-.17-.56-.16-.54-.27-1.09-.38-1.63-1.23-6.36-1.5-12.88-2.64-19.26-.42-2.37-.85-4.64-2.5-6.47a49,49,0,0,0-11-9.14c-7.83-4.76-16.79-7.12-25.71-8.8-10.65-2-21.42-3.27-31.87-6.2h0a1.55,1.55,0,0,0-.68-1.13,50.48,50.48,0,0,1-4-19.72c0-1.93-3-1.93-3,0a52.57,52.57,0,0,0,4.09,20.58,1.94,1.94,0,0,0,.58.79,11.75,11.75,0,0,1-5.06,9.86c-3.68,2.73-8.41,3.68-12.87,4.16-8.87.93-18.78.9-26.27-4.62a17.63,17.63,0,0,1-6.91-10.23,1.36,1.36,0,0,0,1.08-1,56.68,56.68,0,0,0,.29-10.82A60.59,60.59,0,0,0,93.82,139c-.44-1.88-3.33-1.09-2.89.79a55.62,55.62,0,0,1,1.18,10,54.2,54.2,0,0,1-.18,10c0,.07,0,.13,0,.2a1.57,1.57,0,0,0-1.21,1.83v0c-9.46,2.68-19.2,4-28.88,5.69-8.94,1.55-17.92,3.52-26,7.72a49.43,49.43,0,0,0-11.22,8,19.14,19.14,0,0,0-3.85,4.24,11.63,11.63,0,0,0-1,3C18.26,196.92,18,203.52,17,210a29.74,29.74,0,0,1-.77,3.73c0,.08-.13.35-.14.41-.19.37-.41.73-.61,1.09-.71,1.26-1.37,2.55-2,3.86a67.29,67.29,0,0,0-4.71,16.23c-.34,1.88,2.55,2.69,2.89.79a75.58,75.58,0,0,1,3.1-12.32A20.6,20.6,0,0,0,21,228.34a34.29,34.29,0,0,0,9,2.51,44.59,44.59,0,0,0,21.13-1.61c-.22,1.63-.37,3.27-.43,4.93-.07,1.93,2.93,1.93,3,0a47.3,47.3,0,0,1,.66-6.17,1.68,1.68,0,0,0,.41-2.09A45.44,45.44,0,0,1,58,216.42c.83-1.74-1.76-3.26-2.59-1.52a49.7,49.7,0,0,0-3.68,10.95A41.58,41.58,0,0,1,30.8,228a33.28,33.28,0,0,1-8.16-2.14,19.1,19.1,0,0,1-6.58-5.11c1.24-2.55,2.85-5,3.43-7.74,1.29-6.23,1.55-12.65,2.59-18.92.22-1.27.45-2.55.79-3.79.06-.21.12-.42.19-.62s.2-.51.18-.49a3.59,3.59,0,0,1,.17-.34l.06-.08c.09-.09.5-.57.6-.68a46.81,46.81,0,0,1,10.73-8.8c7.67-4.54,16.4-6.71,25.08-8.31,10.58-2,21.27-3.25,31.64-6.19,2.85,7.82,10.82,12.85,18.82,14.39a55.68,55.68,0,0,0,16.15.38c5-.5,10.28-1.46,14.5-4.39a15.72,15.72,0,0,0,6.75-10.1c8.9,2.43,18,3.73,27.12,5.29,8.79,1.5,17.73,3.3,25.74,7.38a46.59,46.59,0,0,1,11.08,7.8q1.22,1.17,2.34,2.4l.68.76.06.06h0c.08.13.15.27.22.41s.14.36.16.42c.07.23.15.47.21.7.17.59.3,1.18.42,1.78,1.29,6.28,1.61,12.73,2.63,19.05a22.39,22.39,0,0,0,.75,3.53c.65,2,1.94,3.73,2.82,5.6l.21.48a19.34,19.34,0,0,1-6.45,5.05,32.22,32.22,0,0,1-8.3,2.21,41.56,41.56,0,0,1-20.94-2.11,49.73,49.73,0,0,0-3.69-10.95c-.82-1.74-3.41-.22-2.59,1.52a44.31,44.31,0,0,1,3.24,9.49,1.68,1.68,0,0,0,.42,2.09,45.62,45.62,0,0,1,.65,6.17c.07,1.93,3.07,1.94,3,0a47.5,47.5,0,0,0-.43-4.93,44.61,44.61,0,0,0,21.13,1.61,34.52,34.52,0,0,0,8.88-2.44,21,21,0,0,0,6.33-4.63,74.12,74.12,0,0,1,3.11,12.3C226.89,238,229.78,237.18,229.44,235.29Z"/></g></svg>