<svg xmlns="http://www.w3.org/2000/svg" viewBox="0 0 235 235"><g id="body-2"><path class="c-skin" d="M52,235s.7-44.84,3.78-48.7S62,177.22,91.21,170c0,0,17.39-3.42,10.73-30.71l31.79.28s-7.11,16.38,2.89,25.11,44.39,11.47,44.64,24.89S183,235.16,183,235.16Z" fill="#f9d0b4"/><path class="c-shirt" d="M52,215.38s9,8,17.9,6.32l5.68-1.8v15.26h85.67l.11-12s11.24,3.8,13.75,1,7.93-5.67,7.93-5.67,1.88-32.58-7.17-37.09-34.21-10.52-34.21-10.52-3.65,8.81-23.61,7.6-23.37-9.92-23.37-9.92-37.08,9.11-38.9,17.69S52,215.38,52,215.38Z" fill="#ddd"/><path id="stroke" d="M184.26,218a.35.35,0,0,0,.05-.08,1.26,1.26,0,0,0-.05-1.6c0-2.82,0-5.65,0-8.47,0-4.21-.06-8.44-.43-12.64-.41-4.68-1.74-8.94-4.91-12.49a26.91,26.91,0,0,0-10.69-6.94,97.47,97.47,0,0,0-10.45-3.3c-3.8-1-7.66-1.52-11.33-2.95a22.86,22.86,0,0,1-8.15-5.22,18.81,18.81,0,0,1-4.82-9.46,28.32,28.32,0,0,1-.44-6.63,15.56,15.56,0,0,1,2-7.86c1-1.64-1.56-3.15-2.59-1.52-2.46,3.91-2.71,9-2.32,13.51a24.27,24.27,0,0,0,3,10,21.93,21.93,0,0,0,7.76,7.7,1.6,1.6,0,0,0-.26.26c-5.57,7.09-15.12,7.47-23.37,6.65-7.26-.72-16.15-2-20.49-8.45a21.55,21.55,0,0,0,4.54-4.46,22.33,22.33,0,0,0,4.14-10.66c.63-4.85.5-10.59-2.17-14.83-1-1.63-3.62-.13-2.59,1.51,2.32,3.69,2.35,8.79,1.8,13a19.74,19.74,0,0,1-3.52,9.15,17.88,17.88,0,0,1-3.9,3.87,1.61,1.61,0,0,0-2,1.33,42.22,42.22,0,0,1-12.12,4.1,101.58,101.58,0,0,0-10,2.85,35,35,0,0,0-11.58,5.69,19,19,0,0,0-6.85,10.71c-1,4.32-.89,8.9-1,13.31-.33,9.74-.44,19.48-.91,29.21-.09,1.93,2.91,1.93,3,0,.24-4.86.38-9.74.51-14.61,3,2,6.19,4.19,9.7,4.8S71,223,74.5,221.85a68.56,68.56,0,0,1-.44,11.55,1.51,1.51,0,0,0,1.5,1.5,1.54,1.54,0,0,0,1.5-1.5,67.93,67.93,0,0,0,.39-12.75,1.64,1.64,0,0,0,0-.32c.43-1.05-.35-2.52-1.71-2.05-3.49,1.2-7.63,3-11.41,2.26s-7.09-3.33-10.2-5.41q.11-4,.22-8.06c.13-4.34.15-8.73.63-13a16.89,16.89,0,0,1,6.19-11.63c3.42-2.81,7.49-4.15,11.62-5.5a93.87,93.87,0,0,1,10.4-2.8,37.76,37.76,0,0,0,11.06-3.95c3.5,5.27,9.89,7.82,16,8.89,7.47,1.31,15.86,2.29,23.18-.25a20.18,20.18,0,0,0,9.33-6.35,1.6,1.6,0,0,0,.33-1.19,35.07,35.07,0,0,0,6.61,2.46c3.63,1,7.33,1.55,10.92,2.7,3.95,1.27,8,2.36,11.56,4.56a17.28,17.28,0,0,1,8,10c1.15,4.26,1,8.94,1.09,13.33s0,8.51,0,12.77c-2,2.82-4.57,5.33-8.08,6.09s-7.07-.14-10.41-1.1c0-2,0-3.94,0-5.91a1.5,1.5,0,0,0-3,0l.11,17.57a1.5,1.5,0,0,0,3,0q0-4.28-.05-8.55c3.71,1,7.64,1.73,11.42.83a14.55,14.55,0,0,0,7-4.26c0,4,.07,8,.26,12,.09,1.93,3.09,1.94,3,0C184.27,228.48,184.25,223.23,184.26,218Z"/></g></svg>