<svg xmlns="http://www.w3.org/2000/svg" viewBox="0 0 235 235"><g id="body-3"><path class="c-skin" d="M42.68,235.05s2.37-46.3,9.91-48.75S93.82,175.19,97,164.68s6.73-9,4.12-24.29l32.78-.92S131,163.18,147,171,183.8,186.3,183.8,186.3s5,6.2,6.75,24.15,1.82,24.71,1.82,24.71Z" /><path class="c-shirt" d="M71.93,235l-.79-14.35s-26-1-26.95-3.87,3.94-29.13,8.4-30.48,40.52-15.16,41-16.94c0,0,6,13.42,27.79,12.09S148.17,172,148.17,172s29.3,10.61,33.49,12.84,7.42,17.32,7.42,17.32l2,14.23a47.89,47.89,0,0,1-24.74,4.24l-1,14.51Z" fill="#ddd"/><path id="stroke" d="M190.88,203.68c-.46-2.48-.94-5-1.41-7.45a36.67,36.67,0,0,0-1.53-6.45c-1.63-4.21-5-6.27-9.23-7.38a132.39,132.39,0,0,1-25-9.19c-6.23-3.1-12.08-7.4-15.47-13.61s-3.67-13.3-2.85-20.13c.24-1.91-2.77-1.9-3,0-.75,6.18-.56,12.65,1.79,18.5a31.76,31.76,0,0,0,11.27,13.79c-2.06,3-5.49,4.77-8.84,6A37.76,37.76,0,0,1,125,179.92a51.48,51.48,0,0,1-12.19-1.09,46.42,46.42,0,0,1-10.67-3.29c-3-1.45-6-3.54-7.13-6.79a23.57,23.57,0,0,0,7.23-10.21c2-5.83,1.11-12.19.38-18.15-.24-1.89-3.24-1.91-3,0,.65,5.24,1.47,10.82.12,16-1.47,5.68-5.74,9.81-10.51,12.94a86,86,0,0,1-12.11,6.32c-4.21,1.88-8.43,3.76-12.8,5.28-2.36.82-4.76,1.53-7.18,2.16a18.21,18.21,0,0,0-6.36,2.57c-4,2.9-4.57,7.92-5.42,12.42-2.25,11.89-4.53,23.79-4.17,36,.06,1.93,3.06,1.93,3,0A105,105,0,0,1,45,218.28a61.77,61.77,0,0,0,25.23,3.77q.09,6.15.19,12.3c0,1.93,3,1.93,3,0l-.3-19c0-1.93-3-1.94-3,0l.06,3.67a59.69,59.69,0,0,1-24.78-3.81c.62-4.45,1.41-8.88,2.25-13.3.5-2.6.91-5.23,1.51-7.81.49-2.12,1.22-4.31,3-5.74s4.09-1.95,6.25-2.51q3.7-1,7.31-2.25c4.28-1.51,8.43-3.36,12.57-5.21A89.89,89.89,0,0,0,90.59,172q1-.64,2-1.35c3,6.49,11.07,9.07,17.54,10.61,8.72,2.08,18.14,2.48,26.72-.45,4.27-1.46,8.52-3.65,11.14-7.44a78.9,78.9,0,0,0,10.12,5.05c4,1.71,8,3.29,12.1,4.62,2.29.74,4.59,1.4,6.92,2a14.48,14.48,0,0,1,5.79,2.39,9.58,9.58,0,0,1,2.87,5.35c.57,2.32.93,4.69,1.37,7,1,5.09,1.9,10.17,2.59,15.28-7,4.28-15.35,4.81-23.34,4-.11-1.38-.22-2.77-.37-4.14a1.54,1.54,0,0,0-1.5-1.5A1.52,1.52,0,0,0,163,215q.22,2.19.39,4.38a1.69,1.69,0,0,0,.13,2q.41,6.48.28,13c0,1.93,3,1.93,3,0,.09-4.07,0-8.13-.24-12.19,8,.77,16.44.17,23.55-3.78a102.15,102.15,0,0,1,.72,14.75c-.06,1.93,2.94,1.93,3,0C194.11,223.21,192.68,213.41,190.88,203.68Z"/></g></svg>