<svg xmlns="http://www.w3.org/2000/svg" viewBox="0 0 235 235"><g id="body-1"><path class="c-skin" d="M59.76,235c.31-1.87-2.31-51,3.83-54.32s33.07-9,36.07-11,12-8.65,9.45-21.58h23.67s-6.26,21.71,9,25,29.41,1.1,31.49,22S175.11,235,175.11,235Z" /><path class="c-shirt" d="M59.89,200.16s-2.08-18.49,10.36-21.65,28-7.58,28-7.58,7.17,13.45,22.52,11c0,0,13.76-2.1,17.9-8.81,0,0,30.91,5.13,32.46,10.71s3.77,22.45,4,25.8c0,0-7,7.46-20.06,2.21V235H81.53V213.91S70.7,211,59.89,200.16Z"  /><path id="stroke" d="M176.67,209.71v0c0-.25,0-.49,0-.74-.4-8-1.21-16.23-3.51-23.93a12.12,12.12,0,0,0-2.48-4.82,12.52,12.52,0,0,0-5.06-3,48.4,48.4,0,0,0-9-2.25c-5.49-.92-11.62-1.24-16.41-4.38-7-4.59-8.47-14.62-5.91-22,.62-1.83-2.27-2.62-2.9-.8-2.51,7.29-1.42,16,3.5,22a16,16,0,0,0,2.61,2.53,42.51,42.51,0,0,1-7.84,6,18.85,18.85,0,0,1-11.16,2.09,49.72,49.72,0,0,1-11.79-2.65c-3.07-1.11-6-3.17-6.77-6.41a26,26,0,0,0,4.2-2.79,17.54,17.54,0,0,0,5.5-7.8,23.8,23.8,0,0,0,.5-12c-.33-1.89-3.22-1.09-2.89.8,1.1,6.28,0,12.47-5.06,16.71-4.56,3.82-10.75,5.47-16.4,6.86-6.43,1.58-13.3,2.51-19.35,5.31A11.69,11.69,0,0,0,61.06,183,18.23,18.23,0,0,0,59,190c-.51,4.16-.58,8.4-.68,12.59-.25,10.16-.2,20.35.25,30.51.09,1.92,3.09,1.93,3,0-.4-9-.46-18.11-.32-27.15,0-1.27,0-2.55.08-3.82,5.08,5.24,10.84,10.63,18.15,12.13q.6,9.71.54,19.42a1.5,1.5,0,0,0,3,0q.08-9.94-.57-19.9a1.14,1.14,0,0,0,.17-.33,1.59,1.59,0,0,0-.66-1.7,1.72,1.72,0,0,0-1.72-.39c-7.24-1.53-12.72-7.12-17.7-12.29a1.36,1.36,0,0,0-1.1-.45c.07-1.82.16-3.65.28-5.47a26.3,26.3,0,0,1,1.14-6.93,9,9,0,0,1,5-5.26,52.23,52.23,0,0,1,9.73-2.94c3.14-.74,6.29-1.41,9.41-2.19a64.8,64.8,0,0,0,10.09-3.25c1,3.39,3.95,5.92,7.13,7.33a47.58,47.58,0,0,0,13.26,3.29,22.08,22.08,0,0,0,12.88-2,44.82,44.82,0,0,0,9.68-7.28,33,33,0,0,0,9.88,3c3,.51,6,.89,9,1.52a43.41,43.41,0,0,1,4.48,1.18c1.79.59,3.79,1.25,5.08,2.7a11.74,11.74,0,0,1,2.13,5c.5,2,.92,3.93,1.28,5.92a114.22,114.22,0,0,1,1.5,12.36c.08,1.1.14,2.2.2,3.31a16.77,16.77,0,0,1-17.83,1.65,1.47,1.47,0,0,0-.91-.17,1.44,1.44,0,0,0-2.32,1.18q.63,11.06.57,22.12a1.5,1.5,0,0,0,3,0q.06-9.94-.46-19.88a19.91,19.91,0,0,0,18.09-1.37c.22,7.08,0,14.18-.35,21.25-.1,1.93,2.9,1.93,3,0C176.85,225.72,177,217.71,176.67,209.71Z"/></g></svg>