<svg xmlns="http://www.w3.org/2000/svg" viewBox="0 0 235 235"><g id="body-4"><path class="c-skin" d="M36.86,234.52s3.41-37.39,6.36-40.78,22.67-18.58,36.67-20,17.61-4.22,17.34-25.15l-1.1-8.19L139.37,143s-8.2,22.81,2.08,25.23,39.16,7,49.39,24.27l5.53,42.15Z" fill="#f9d0b4"/><path class="c-shirt" d="M68.13,235.16V220s-20.42,1-28.58-7.28c0,0-2.26-19.44,8.86-25.23s24.94-13.46,33-13.78,11.76-4.37,11.76-4.37,8,6.29,11.07,7.13,18.7,4.46,25.68.56a52.26,52.26,0,0,0,11.55-8.84s23.09,4.35,28.91,7.72,20.65,12.26,21.73,20.38,2.2,18.7,2.2,18.7-7.36,8.92-26.67,5l1.56,15.14Z" fill="#ddd"/><path id="stroke" d="M197.87,234.63l-3.06-28.95c-.45-4.2-.59-8.69-2.13-12.67s-4.41-6.59-7.73-9c-7.08-5.2-14.32-10.13-22.86-12.56a100,100,0,0,0-12.45-2.67c-2.23-.34-4.83-.39-6.93-1.37a1.66,1.66,0,0,0-.93-.52c-2.72-1.92-3-6.36-3.15-9.34a38.66,38.66,0,0,1,2.19-14.14c.62-1.83-2.27-2.62-2.89-.8a42.17,42.17,0,0,0-2.31,12.53c-.11,3.73.18,8,2,11.39a8,8,0,0,0,1.64,2.1,27.87,27.87,0,0,1-20.12,9.15c-8.55.23-16.89-3.16-23.52-8.45a13.78,13.78,0,0,0,1.3-3.49,71.84,71.84,0,0,0,1.76-12.38c.23-4,.23-8.35-1.07-12.22-.61-1.82-3.5-1-2.89.8a29.14,29.14,0,0,1,1,10.48,69.14,69.14,0,0,1-1.4,11.2c-.55,2.66-1.22,5.48-4,6.58s-6.18,1.12-9.15,1.7A84.26,84.26,0,0,0,67,175.59a60.22,60.22,0,0,0-12.35,6.7c-3.67,2.49-7.75,5-10.79,8.26s-4.21,7.62-4.77,12.08c-1.43,11.57-2.46,23.2-3.69,34.79-.2,1.92,2.8,1.9,3,0q1.17-11,2.32-21.93a36.36,36.36,0,0,0,26,6.46q.1,6,.23,12c0,1.93,3,1.93,3,0l-.47-24.55c0-1.93-3-1.93-3,0l.18,9.53A33,33,0,0,1,41.05,212l.63-6c.47-4.44.8-9.32,3.85-12.87a28.51,28.51,0,0,1,5.11-4.38c1.94-1.4,3.87-2.79,5.85-4.12A54.74,54.74,0,0,1,69.06,178a90.72,90.72,0,0,1,14-3.36c3-.53,6.16-.56,8.93-1.86a7.52,7.52,0,0,0,1.73-1.14c11.34,8.9,27,12.38,40.13,5.07a28.67,28.67,0,0,0,7.89-6.51,10.35,10.35,0,0,0,1.68.56c3.1.77,6.34,1,9.47,1.61a73.63,73.63,0,0,1,13.23,3.56,59.82,59.82,0,0,1,11.35,6.4c3.45,2.36,7.3,4.7,10.08,7.85s3.41,7.64,3.85,11.78.86,8.07,1.28,12.1a1.53,1.53,0,0,0-.79.38,22.3,22.3,0,0,1-23,3.81q-.68-6.36-1.36-12.73c-.21-1.9-3.21-1.92-3,0l1.26,11.79a1.48,1.48,0,0,0-.26,2.67l.58.28,1.53,14.25c.2,1.9,3.2,1.92,3,0q-.7-6.47-1.39-12.93A25.47,25.47,0,0,0,193,217.38l1.83,17.25C195.07,236.53,198.07,236.55,197.87,234.63Z"/></g></svg>