<svg xmlns="http://www.w3.org/2000/svg" viewBox="0 0 235 235"><g id="body-5"><path class="c-skin" d="M37.62,235.35S41.26,196,48,187.51,63.9,168.36,82.6,168.94s16.19-8.06,16.3-12.54-1.5-18.7-1.5-18.7l42.69-2.81s-2.73,26.38,3.4,28.14,35.78-.65,44.58,16.9,15.43,34.6,16.66,55.07Z" fill="#f9d0b4"/><path class="c-shirt" d="M40.38,211.79s13.48,5.66,19.34,4.86,5.3,2.54,5.3,2.54l0,16.16H176.37V211.79s22.27-2.13,22.16-7.55-9.6-32.28-24-35.86a267.92,267.92,0,0,0-31-5.35s-.33,13.74-12.05,17.65-20.09,5-28.74,1.11-11.23-13.58-11.23-13.58S58,166.4,49.93,185.12,40.38,211.79,40.38,211.79Z" fill="#ddd"/><path id="stroke" d="M206.17,234.6c-1.24-8.75-2.57-17.5-4.61-26.11s-4.75-17.37-9.32-25.05c-4.85-8.17-12.38-15.76-21.75-18.28a62.93,62.93,0,0,0-15.59-1.8c-3.44,0-8.15.63-11-1.87-1.52-1.36-2.09-3.47-2.46-5.39a36.74,36.74,0,0,1-.56-7c0-4.74.48-9.46.66-14.19.07-1.93-2.93-1.92-3,0-.16,4.12-.56,8.23-.64,12.35s0,8.53,1.4,12.41a9.65,9.65,0,0,0,2.75,4,1.59,1.59,0,0,0-.11.51c-.45,8.53-7.5,14.8-15.22,17.23-8.27,2.6-18.29,2.36-25.74-2.4a19.48,19.48,0,0,1-7.84-9.48,8.84,8.84,0,0,0,5.44-4.71c1.8-3.93,1.92-8.55,1.88-12.8s-.49-8.72-.66-13.09c-.07-1.92-3.07-1.93-3,0,.15,3.82.51,7.62.62,11.43s.16,8-1,11.71A6.83,6.83,0,0,1,93.87,166,9.84,9.84,0,0,1,89,167.34c-1.88.13-3.77.06-5.66.08-2.36,0-4.73.22-7.08.44-5,.46-10,1.35-14.42,3.75a39.89,39.89,0,0,0-11,9.37c-5.73,6.62-8.86,14.79-10.68,23.26-.41,1.9-.75,3.82-1.06,5.74a1.31,1.31,0,0,0-.07.44c-1.23,7.81-1.81,15.71-2.91,23.53a1.56,1.56,0,0,0,1,1.85,1.51,1.51,0,0,0,1.84-1.05c1-7.15,1.58-14.36,2.61-21.51a22.06,22.06,0,0,0,8.84,4.24c4.17.9,8.48.71,12.71.47a119.79,119.79,0,0,0-.31,14.92c.07,1.92,3.07,1.93,3,0a119.68,119.68,0,0,1,2.59-30.26c.41-1.89-2.48-2.69-2.89-.8a124.12,124.12,0,0,0-2.1,13.13h0c-3.94.22-8,.49-11.9-.3a19.72,19.72,0,0,1-9.39-4.85c.09-.57.18-1.15.29-1.72,1.54-8.39,4.05-17,9.51-23.77a39.9,39.9,0,0,1,10.63-9.69c4.56-2.64,9.81-3.46,15-3.87,2.2-.17,4.39-.32,6.59-.32a52.69,52.69,0,0,0,5.76-.16l.27,0c3.16,8.93,11.83,14.26,21,15.48,9.51,1.26,20.56-.92,27.53-7.91a21.11,21.11,0,0,0,6.14-12.44,12.74,12.74,0,0,0,3.12.79,48.15,48.15,0,0,0,6.24.22c2.42,0,4.84.17,7.25.38,5.48.47,10.89,1.52,15.56,4.58a41.21,41.21,0,0,1,10.44,10.3c4.67,6.49,7.52,14.14,9.67,21.82-5.89,5.15-13.7,6-21.26,6.35a105.77,105.77,0,0,0-2.68-10.8c-.57-1.84-3.46-1.06-2.89.79A106.57,106.57,0,0,1,173,210.42a1.55,1.55,0,0,0,.44,2.35,103.38,103.38,0,0,1,1.42,20.65c-.07,1.93,2.93,1.93,3,0a106.61,106.61,0,0,0-1.38-20.66c7.67-.43,15.4-1.43,21.57-6.15a265,265,0,0,1,5.28,28.79C203.55,237.3,206.44,236.49,206.17,234.6Z"/></g></svg>