<svg xmlns="http://www.w3.org/2000/svg" viewBox="0 0 235 235"><g id="body-7"><path class="c-skin" d="M24.73,235l2.56-29.77S34.63,181.37,41,179.07s51.84-17.58,51.84-17.58V137.7h48.81s.1,22.86,4.05,23.57,53.47,13.95,53.47,13.95,4.55,7.68,8.74,22.62,4.87,12.88,4.87,12.88l-3.69,1.21,2.39,23.42Z" fill="#f9d0b4"/><path class="c-shirt" d="M26.14,209.21l26.17,9.44,1.94,17h127l-1.3-17.54,32.86-7.43s-9.53-31.85-11.57-33.67-22-6.79-22-6.79l-32.15-8.77s1.4,16.62-27.64,16.93-26.61-16.93-26.61-16.93L51.37,175.65s-11.22,2.86-13.25,5.75S25.24,202.12,26,206.63,26.14,209.21,26.14,209.21Z" fill="#ddd"/><path id="stroke" d="M214.25,210.32c-1.68-6.23-3.51-12.42-5.61-18.53-1-3-2.13-6-3.35-8.91-1.07-2.57-2.1-5.57-3.93-7.71-2-2.38-5.25-2.41-8.11-3s-5.84-1.27-8.72-2c-6.2-1.65-12.31-3.59-18.45-5.42a156,156,0,0,0-19.27-4.81,49.7,49.7,0,0,1-3.63-18.85c0-1.93-3-1.93-3,0a52.44,52.44,0,0,0,4.06,20.48,1.14,1.14,0,0,0,.62,1,11.79,11.79,0,0,1-5.07,9.76c-3.68,2.73-8.41,3.68-12.87,4.16-8.87.93-18.78.9-26.27-4.62A17.88,17.88,0,0,1,94,162.6a1.32,1.32,0,0,0,.34-1.23,1.19,1.19,0,0,0,.51-.78,56.68,56.68,0,0,0,.29-10.82A60.59,60.59,0,0,0,93.82,139c-.44-1.88-3.33-1.09-2.89.79a55.62,55.62,0,0,1,1.18,10,54.2,54.2,0,0,1-.18,10c0,.07,0,.13,0,.2a1.86,1.86,0,0,0-.57.27c-13.1,2.53-25,9.2-37.63,13.24a76.52,76.52,0,0,1-9.55,2.36,7.09,7.09,0,0,0-3.5,1.37,13.47,13.47,0,0,0-1.88,2.31c-1.36,1.91-2.53,3.93-3.81,5.89-1.48,2.28-3.09,4.46-4.62,6.69a30.09,30.09,0,0,0-3.55,6.58,33.42,33.42,0,0,0-1.73,9.19,1.93,1.93,0,0,0,0,.24,1.59,1.59,0,0,0,.6,2.49,88.11,88.11,0,0,0-1.78,10.7,83,83,0,0,0-.67,11.47c.05,1.92,3.05,1.93,3,0a82.79,82.79,0,0,1,.63-11.13,85.1,85.1,0,0,1,1.66-10l16.23,5.78,4.63,1.65c.53.19,1.65.36,2,.79s.37,1.53.44,2.1c.43,3.43.72,6.88.88,10.33.09,1.92,3.09,1.93,3,0q-.27-5.67-1-11.31c-.21-1.56-.47-3-2-3.8a32.22,32.22,0,0,0-4.92-1.83L28,208.29a1.59,1.59,0,0,0,.08-.39,26.8,26.8,0,0,1,4.24-13.31c1.34-2,2.8-4,4.17-6s2.57-4.08,3.91-6.09a27,27,0,0,1,1.72-2.41c.79-1,1.45-1.05,2.85-1.31a77.75,77.75,0,0,0,9.15-2.24c6.21-1.95,12.21-4.52,18.25-6.95a115.45,115.45,0,0,1,18.7-6.2c2.37,8.61,10.81,14.13,19.27,15.76a55.68,55.68,0,0,0,16.15.38c5-.5,10.28-1.46,14.5-4.39,3.91-2.72,6.91-7.14,6.89-12,11.06,2,21.75,5.95,32.55,9,2.78.79,5.58,1.53,8.4,2.18,1.32.3,2.65.58,4,.83a39.67,39.67,0,0,1,4.48.82c2.6.82,3.6,4.22,4.59,6.49,1.23,2.79,2.3,5.65,3.32,8.53,2.15,6.09,4,12.29,5.72,18.52-9.68,1.68-19,4.81-28.66,6.64a1.24,1.24,0,0,0-1,.77q-.78-6.72-1.84-13.4c-.31-1.9-3.2-1.1-2.9.8q2.19,13.56,3.08,27.29a1.35,1.35,0,0,0,0,.5l.15,1.23c.23,1.87,3.12,2,3,0q-.45-7.52-1.29-15a1.52,1.52,0,0,0,1.61.7c8.35-1.59,16.48-4.16,24.79-5.9a91,91,0,0,1,1.47,9.57,85.79,85.79,0,0,1,.67,10.62,1.5,1.5,0,0,0,3,0,83.2,83.2,0,0,0-.71-10.92,96.33,96.33,0,0,0-1.49-9.85c.8-.15,1.6-.3,2.41-.43a1.17,1.17,0,0,0,1.08-1.17A1.54,1.54,0,0,0,214.25,210.32Z"/></g></svg>