<svg xmlns="http://www.w3.org/2000/svg" viewBox="0 0 235 235"><g class="accessory-9"><path d="M53,219.28c-2.8-.21-5.69-6.6-6.93-9.12-1.17-2.37-1.12-5.13-1-7.77l.37-13.31a1.52,1.52,0,0,0-.13-.82c-.24-.38-.73-.47-1.16-.6a5,5,0,0,1-3-3c-.54-1.34-2.54-3.47-2.67-4.91-.24-2.54-.16-6.61-.4-9.15,2.18,1.06,5.91,4.28,8.13,5.26a4.49,4.49,0,0,0,1.91.53,5,5,0,0,0,2.5-1.08c5.63-3.71,9.74-4.07,16.47-3.76A10.79,10.79,0,0,1,73,173.23c.2.15,3.12-1.19,3.37-1.15a1.5,1.5,0,0,0,.86-.24,38.52,38.52,0,0,1,8.56-3.25c1,3.71,2.32,7.34.33,10.63-1,1.73-2.11,4.44-3.54,5.86-.39.4-3,.07-3.18.6-.13.37,1.62,4.13,1.61,4.52a107.48,107.48,0,0,0,0,11.21c.33,4.89,0,15.07-4,17.87" fill="#91a3b0" fill-rule="evenodd"/><path d="M31.68,235c.4-4.69.79-10,3.6-13.75A53.38,53.38,0,0,1,45,211c0,1.46,3.13,3.48,4.42,4.16a11.49,11.49,0,0,0,4.23,1c3,.28,6,.41,9,.4,4.83,0,9.9-.51,13.89-3.21a6.49,6.49,0,0,1,2.23-1.18c1.72-.32,3.23,1.12,4.25,2.53A29.57,29.57,0,0,1,87.87,235Z" fill="#91a3b0" fill-rule="evenodd"/><path d="M62.36,233.13c1.68,1.29,3.28-2.81,4.12-5.13A35.13,35.13,0,0,0,68,220.58l-12.6-.45A18.44,18.44,0,0,0,62.36,233.13Z" fill="#fff" fill-rule="evenodd"/><path d="M63.42,199c-.58.15-1.39.38-2.19.61a1.76,1.76,0,0,0-.87,2.83l2.38,2.89a1.77,1.77,0,0,0,2.62.13L67.8,203a1.77,1.77,0,0,0-.6-2.91L64.52,199A1.73,1.73,0,0,0,63.42,199Z" fill="#e25495" fill-rule="evenodd"/><path d="M43.37,216c4.6,5.24,12.3,5.06,18.69,4.93,6.74-.13,13.81-1.18,19.34-5.33a2.33,2.33,0,0,0,.81-3.08,2.27,2.27,0,0,0-3.08-.81c-4.81,3.61-10.72,4.56-16.59,4.71-5.24.13-12.17.75-16-3.61-1.92-2.18-5.09,1-3.18,3.19Z" fill="#00bff0"/><path d="M44.58,182.76a67.73,67.73,0,0,0-2.06,10.84c-.66,5.75-.87,12.53,2.19,17.7a11,11,0,0,0,7.84,5.32c1.89.29,2.7-2.6.8-2.89a8.17,8.17,0,0,1-5.9-3.7,16.51,16.51,0,0,1-2.15-7.26,52.62,52.62,0,0,1,1.32-15.72c.26-1.17.52-2.34.86-3.49a1.51,1.51,0,0,0-2.9-.8Z"/><path d="M78.36,183.56A73.17,73.17,0,0,1,80,192.27c.68,5,1.13,10.44-.32,15.32-.62,2.06-1.77,4.25-3.84,5.13a1.56,1.56,0,0,0-1,1.84,1.51,1.51,0,0,0,1.85,1.05c5.21-2.19,6.58-8,6.87-13.17a64,64,0,0,0-1.48-16.09c-.25-1.2-.5-2.4-.81-3.59a1.51,1.51,0,0,0-2.9.8Z"/><path d="M63,197.52c-1.5.4-3.25.65-4.12,2.09a3.38,3.38,0,0,0-.37,2.39,3.54,3.54,0,0,0,.8,1.52c.79,1,1.56,2,2.42,2.92a3.31,3.31,0,0,0,4.67.05c.44-.41.85-.84,1.28-1.27s.9-.84,1.29-1.3a3.3,3.3,0,0,0-.09-4.46,7,7,0,0,0-2.64-1.34l-1.15-.46a3.47,3.47,0,0,0-2.09-.14A1.51,1.51,0,0,0,62,199.36a1.54,1.54,0,0,0,1.85,1c.32-.07,0,0,0,0a1,1,0,0,1,.25,0c-.06,0-.3-.08,0,0l.12,0,.15.06.82.32,1.68.66c.13,0-.06,0-.23-.1l.12.07c.1,0,.15.17,0,0s0,0,0,0l.09.09c.18.18-.08-.06-.08-.1s.1.17.11.19-.08-.3,0-.12a.75.75,0,0,0,0,.16c.07.12,0-.16,0-.19a1,1,0,0,0,0,.17,1.09,1.09,0,0,0,0,.17s.09-.37,0-.14a.56.56,0,0,0,0,.12c0,.15.17-.28,0-.07a1.12,1.12,0,0,0-.1.16s.26-.28.07-.09l-.08.08-.14.14-.61.61-1.46,1.45-.17.18,0,0c-.22.23.15-.07,0,0a1,1,0,0,0-.17.1c-.14.1.12-.08.13-.06l-.19.06c-.26.08.1-.05.12,0H64c-.23,0,.09-.06.11,0s-.13,0-.14,0c-.17-.06.27.17,0,0a1.06,1.06,0,0,1-.17-.1s.28.27.07,0l-.14-.15-.1-.12-.5-.61-1.38-1.66c-.13-.16-.26-.33-.4-.49s.18.3.07.07a.47.47,0,0,0-.07-.12c-.1-.12.08.31,0,.07,0,0,0-.16,0-.17s0,.35,0,.09a.48.48,0,0,0,0-.12l0,.18,0-.12s0-.09,0-.12-.17.29,0,.08l.09-.15c.12-.21-.18.17,0,.07a.74.74,0,0,0,.13-.12c.09-.1-.3.16,0,.06l.11-.07c.12-.1-.3.09,0,0,.74-.16,1.46-.41,2.19-.61a1.5,1.5,0,0,0-.8-2.89Z"/><circle cx="55.68" cy="193.35" r="2.06"/><path d="M56.24,193.35a2.64,2.64,0,0,1,0,.28l.06-.4a2.31,2.31,0,0,1-.15.53l.15-.35a2.46,2.46,0,0,1-.28.46l.24-.31a2.19,2.19,0,0,1-.34.34l.3-.23a2.35,2.35,0,0,1-.46.28l.36-.16a2,2,0,0,1-.53.15l.4-.05a2.72,2.72,0,0,1-.57,0l.4.05a1.9,1.9,0,0,1-.53-.15l.36.16a2.78,2.78,0,0,1-.47-.28l.31.23a1.82,1.82,0,0,1-.34-.34l.23.31a2.4,2.4,0,0,1-.27-.46l.15.35a2.31,2.31,0,0,1-.15-.53l0,.4a2.71,2.71,0,0,1,0-.57l0,.4a2.63,2.63,0,0,1,.15-.53l-.15.36a2.13,2.13,0,0,1,.27-.46l-.23.3a2.73,2.73,0,0,1,.34-.34l-.31.24a2.78,2.78,0,0,1,.47-.28l-.36.15a1.88,1.88,0,0,1,.53-.14l-.4.05a2.72,2.72,0,0,1,.57,0l-.4-.05a2,2,0,0,1,.53.14l-.36-.15a2.35,2.35,0,0,1,.46.28l-.3-.24a3.64,3.64,0,0,1,.34.34l-.24-.3a2.18,2.18,0,0,1,.28.46l-.15-.36a2.63,2.63,0,0,1,.15.53l-.06-.4a2.83,2.83,0,0,1,0,.29,1.5,1.5,0,0,0,3,0,3.52,3.52,0,0,0-.6-2,3.77,3.77,0,0,0-1.82-1.4,3.55,3.55,0,0,0-3.8,1,4.42,4.42,0,0,0-.68,1.15,3.78,3.78,0,0,0-.21,1,3.46,3.46,0,0,0,.49,2,3.39,3.39,0,0,0,1.47,1.36,3.76,3.76,0,0,0,2.36.3,3.34,3.34,0,0,0,1.88-1.09,3.71,3.71,0,0,0,.91-2.38,1.51,1.51,0,0,0-1.5-1.5A1.53,1.53,0,0,0,56.24,193.35Z"/><circle cx="72.13" cy="192.33" r="2.12"/><path d="M72.75,192.33a1.46,1.46,0,0,1,0,.29l.06-.4a2.64,2.64,0,0,1-.15.55l.15-.36a2.05,2.05,0,0,1-.29.47l.24-.3a2.32,2.32,0,0,1-.35.35l.3-.23a2.31,2.31,0,0,1-.48.28l.36-.15A2.72,2.72,0,0,1,72,193l.39,0a2.81,2.81,0,0,1-.58,0l.4,0a2.64,2.64,0,0,1-.55-.15l.36.15a2.31,2.31,0,0,1-.48-.28l.31.23a1.93,1.93,0,0,1-.35-.35l.23.3a2,2,0,0,1-.28-.47l.15.36a2.16,2.16,0,0,1-.16-.55l.06.4a2,2,0,0,1,0-.59l-.06.4a2,2,0,0,1,.16-.54l-.15.35a2.25,2.25,0,0,1,.28-.47l-.23.3a2.32,2.32,0,0,1,.35-.35l-.31.23a2.87,2.87,0,0,1,.48-.28l-.36.15a2.64,2.64,0,0,1,.55-.15l-.4.05a2.81,2.81,0,0,1,.58,0l-.39-.05a2.72,2.72,0,0,1,.54.15l-.36-.15a2.87,2.87,0,0,1,.48.28l-.3-.23a2.89,2.89,0,0,1,.35.35l-.24-.3a2.29,2.29,0,0,1,.29.47l-.15-.35a2.39,2.39,0,0,1,.15.54l-.06-.4a1.51,1.51,0,0,1,0,.3,1.54,1.54,0,0,0,1.5,1.5,1.52,1.52,0,0,0,1.5-1.5,3.58,3.58,0,0,0-.61-2,3.88,3.88,0,0,0-1.85-1.42,3.6,3.6,0,0,0-3.87,1,4.24,4.24,0,0,0-.69,1.16,3.56,3.56,0,0,0-.21,1,3.58,3.58,0,0,0,2,3.44,3.88,3.88,0,0,0,2.4.3,3.42,3.42,0,0,0,1.91-1.11,3.75,3.75,0,0,0,.93-2.42,1.5,1.5,0,0,0-1.5-1.5A1.53,1.53,0,0,0,72.75,192.33Z"/><path d="M44.21,209.73A39.4,39.4,0,0,0,34,220.52a34.86,34.86,0,0,0-4.41,14.13c-.21,1.92,2.79,1.9,3,0a31.36,31.36,0,0,1,4-12.61,35.36,35.36,0,0,1,9.17-9.72c1.51-1.15,0-3.76-1.52-2.59Z"/><path d="M79.92,211.89A32.66,32.66,0,0,1,87.37,235c-.13,1.93,2.87,1.92,3,0A35.68,35.68,0,0,0,82,209.77c-1.24-1.48-3.35.65-2.12,2.12Z"/><path d="M62.61,207.16c.06.24.11.47.15.71s0,.2.05.3c-.09-.4,0-.09,0,0a8.44,8.44,0,0,1,0,1.33c0,.17,0,.14,0-.09l0,.2-.06.3c-.05.19-.12.38-.18.58s0,.12,0-.08l-.08.18-.15.27-.15.24c-.15.24.24-.27,0,0s-.25.26-.38.39.29-.2,0,0l-.25.16a2,2,0,0,1-.25.14c-.12.07-.34.08,0,0-.17,0-.33.12-.51.17a2.74,2.74,0,0,0-.28,0l.24,0h-.4c-.06,0-.42,0-.12,0s-.06,0-.12,0l-.23-.07c-.27-.09.3.15.07,0l-.28-.17a1.51,1.51,0,0,0-2.06.54,1.54,1.54,0,0,0,.54,2.05,4.84,4.84,0,0,0,6-1c1.7-1.89,1.8-4.59,1.21-6.93a1.5,1.5,0,0,0-1.84-1.05,1.53,1.53,0,0,0-1,1.84Z"/><path d="M62,207.89c-.06,1.9-.06,4,1,5.66a4.79,4.79,0,0,0,5.07,2.27,1.53,1.53,0,0,0,1-1.85,1.55,1.55,0,0,0-1.85-1.05s-.33.05-.07,0,0,0-.07,0a.88.88,0,0,1-.23,0c-.27,0,0,0,.08,0a3.17,3.17,0,0,0-.44-.12c-.3-.1.3.16,0,0l-.17-.09-.24-.15.08.06c-.11-.11-.25-.2-.36-.32l-.19-.21c-.14-.15,0,0,0,.08a4.08,4.08,0,0,0-.28-.44l-.11-.21c-.12-.26.05.16,0,0s-.12-.35-.17-.53a5.41,5.41,0,0,1-.12-.55c0-.09-.09-.35,0,0a.89.89,0,0,1,0-.28,16.49,16.49,0,0,1,0-2.33,1.5,1.5,0,0,0-3,0Z"/><path d="M76.81,174.53l11-5.34-2.26-1.3c.32,5.59.16,11.92-4.08,16.13a1.5,1.5,0,0,0,2.12,2.12c4.83-4.79,5.33-11.83,5-18.25a1.52,1.52,0,0,0-2.26-1.29l-11,5.34c-1.73.84-.21,3.43,1.52,2.59Z"/><path d="M49.81,174.67l-11-5.34a1.52,1.52,0,0,0-2.26,1.29c-.37,6.42.13,13.46,5,18.26a1.5,1.5,0,0,0,2.12-2.12c-4.24-4.22-4.4-10.55-4.08-16.14l-2.26,1.3,11,5.34c1.73.84,3.25-1.75,1.52-2.59Z"/><path d="M50.55,177.38A18.33,18.33,0,0,1,70.66,174c1.73.83,3.26-1.76,1.51-2.59a21.4,21.4,0,0,0-23.74,3.81c-1.4,1.34.72,3.46,2.12,2.12Z"/><path d="M72.78,205.44a33.65,33.65,0,0,0,22.31-6.63,1.57,1.57,0,0,0,.54-2.06,1.52,1.52,0,0,0-2-.54,31,31,0,0,1-20.8,6.23c-1.93-.12-1.92,2.88,0,3Z"/><path d="M72.94,209a47.92,47.92,0,0,0,15.84.82,1.54,1.54,0,0,0,1.5-1.5,1.5,1.5,0,0,0-1.5-1.5,45.51,45.51,0,0,1-15-.71c-1.88-.41-2.69,2.48-.8,2.89Z"/><path d="M52.25,205.56a35.67,35.67,0,0,1-20.79-1.5c-1.8-.69-2.58,2.21-.8,2.9A38.52,38.52,0,0,0,53,208.45c1.89-.43,1.09-3.33-.79-2.89Z"/><path d="M51.87,201.59c-.44,0-.87,0-1.3-.08-.68-.07-.81-.09-1.42-.19-1.33-.2-2.66-.45-4-.74a37.42,37.42,0,0,1-6.74-1.87,1.51,1.51,0,0,0-1.84,1,1.54,1.54,0,0,0,1,1.85,38.23,38.23,0,0,0,6.91,1.91,40.16,40.16,0,0,0,7.31,1.07c1.93,0,1.93-3,0-3Z"/><path d="M55.31,224a3.49,3.49,0,0,0-1,2.67,3.54,3.54,0,0,0,1.57,2.66,3.26,3.26,0,0,0,1.25.5,10.11,10.11,0,0,1,1.1.19c.06,0,.33.12.08,0s0,0,.06.05-.32-.24-.07-.05-.23-.32-.05-.07c.05.1,0,0-.07-.17,0,.13,0,.12,0,0s0-.15,0,0,0,.12,0,0,0,.07,0,.12-.06.21-.09.31a1.5,1.5,0,1,0,2.89.8,2.9,2.9,0,0,0-.49-3,3.81,3.81,0,0,0-2.33-1l-.52-.11c-.12-.05-.12,0,0,0s.13.06,0,0l-.21-.12c-.22-.14.24.24.06,0s-.14-.11-.17-.18.21.29.07.08c0,0-.15-.32,0-.07s0,0,0,0,0-.17,0-.24q0,.39,0,.15v-.08c0-.19.09-.25,0,.06,0-.07,0-.16.06-.24.07-.26-.18.3,0,0a1.74,1.74,0,0,0,.11-.18c.06-.09,0-.05-.11.14l.11-.13a1.52,1.52,0,0,0,0-2.12,1.54,1.54,0,0,0-2.12,0Z"/></g></svg>