<svg xmlns="http://www.w3.org/2000/svg" viewBox="0 0 235 235"><g id="accessory-4"><path d="M157.49,107.58,155.2,120a1,1,0,0,0,.06.77,1.05,1.05,0,0,0,.83.31q3.39.16,6.8.1a1.44,1.44,0,0,0,1-.29c.42-.41.23-1.1,0-1.64l-4.75-11.57" fill="#ea2a74"/><path d="M157.74,108l4.19,10.21.51,1.23a2.72,2.72,0,0,0,.19.5c.21.31-.13.21.15,0,0,0,.2-.44.29-.34a3.38,3.38,0,0,0-.71,0h-1.3c-.87,0-1.75,0-2.62,0l-1.43,0-.66,0c-.51,0,0-.08.13.24l.2.76a4.45,4.45,0,0,1,.16-1.24l.29-1.58.61-3.29,1.19-6.45-1.44,1.1,1.7,0c1.93.06,1.93-2.94,0-3l-1.7,0a1.52,1.52,0,0,0-1.45,1.1l-1.51,8.16c-.24,1.32-.49,2.63-.73,4a3.15,3.15,0,0,0,.12,2.1,2.25,2.25,0,0,0,1.79,1.1,38.76,38.76,0,0,0,4,.15,19.19,19.19,0,0,0,4-.09,2.49,2.49,0,0,0,1.81-3.18,24.68,24.68,0,0,0-1.4-3.53l-3.53-8.61a1.56,1.56,0,0,0-1.85-1A1.51,1.51,0,0,0,157.74,108Z"/><path d="M156.53,102.8a2.91,2.91,0,0,1,4.51.89,3,3,0,0,1-2.49,3.89,2.61,2.61,0,0,1-1.45-.39,2.94,2.94,0,0,1-.67-4.26Z" fill="#2e97cc"/><path d="M157.59,103.86l.21-.18-.3.23a2.66,2.66,0,0,1,.57-.33l-.36.15a2.7,2.7,0,0,1,.69-.18l-.4,0a3.39,3.39,0,0,1,.78,0l-.4,0a3.64,3.64,0,0,1,.86.23l-.36-.15a3,3,0,0,1,.62.37l-.3-.24a3.41,3.41,0,0,1,.47.46l-.24-.3a2.17,2.17,0,0,1,.31.53l-.15-.36a2.44,2.44,0,0,1,.16.57l-.05-.39a2.81,2.81,0,0,1,0,.71l.05-.4a2.87,2.87,0,0,1-.2.75l.15-.36a3.54,3.54,0,0,1-.42.73l.23-.31a3.19,3.19,0,0,1-.54.56l.3-.23a2.88,2.88,0,0,1-.61.36l.36-.15a2.38,2.38,0,0,1-.63.18l.4,0a2.36,2.36,0,0,1-.65,0l.4.06a3.37,3.37,0,0,1-.69-.19l.36.15a2.92,2.92,0,0,1-.61-.37l.3.24a3.55,3.55,0,0,1-.47-.48l.24.3a3.25,3.25,0,0,1-.33-.57l.15.36a3.21,3.21,0,0,1-.21-.75l.06.4a3,3,0,0,1,0-.85l-.05.4a3.37,3.37,0,0,1,.21-.77l-.15.36a3.55,3.55,0,0,1,.48-.79,1.52,1.52,0,0,0,.15-1.16,1.57,1.57,0,0,0-.69-.89,1.47,1.47,0,0,0-1.16-.15,1.76,1.76,0,0,0-.89.68,4.51,4.51,0,0,0-.64,4.32,4.24,4.24,0,0,0,1.78,2.14,4,4,0,0,0,3.1.44,4.53,4.53,0,0,0,3.15-3.48,4.16,4.16,0,0,0-.39-2.73,4,4,0,0,0-1.67-1.6,4.4,4.4,0,0,0-5.1.61,1.5,1.5,0,0,0,2.12,2.12Z"/><path d="M81.84,110.33,79.55,122.7a1,1,0,0,0,.06.77,1.05,1.05,0,0,0,.83.31c2.27.11,4.53.14,6.8.11a1.53,1.53,0,0,0,1.05-.29c.41-.41.22-1.11,0-1.65l-4.75-11.57" fill="#ea2a74"/><path d="M82.1,110.78,86.28,121l.51,1.23a2.82,2.82,0,0,0,.19.51c.21.3-.13.21.15,0,0,0,.2-.45.29-.35a4.24,4.24,0,0,0-.71,0h-1.3c-.87,0-1.75,0-2.62,0l-1.43-.05-.66,0c-.51,0,0-.08.13.25l.2.75a4.45,4.45,0,0,1,.16-1.24l.29-1.58.61-3.29,1.19-6.45-1.44,1.1,1.7,0c1.93.06,1.93-2.94,0-3l-1.7,0a1.53,1.53,0,0,0-1.45,1.1l-1.51,8.16c-.24,1.32-.49,2.64-.73,4a3.09,3.09,0,0,0,.13,2.1,2.24,2.24,0,0,0,1.78,1.1,38.76,38.76,0,0,0,4,.15,19.19,19.19,0,0,0,4-.09,2.47,2.47,0,0,0,1.81-3.17,23.79,23.79,0,0,0-1.4-3.53L85,110a1.54,1.54,0,0,0-1.85-1A1.5,1.5,0,0,0,82.1,110.78Z"/><path d="M80.88,105.55a2.91,2.91,0,0,1,4.51.89,3,3,0,0,1-2.49,3.89,2.64,2.64,0,0,1-1.45-.39,2.94,2.94,0,0,1-.67-4.26Z" fill="#2e97cc"/><path d="M81.94,106.61l.21-.18-.3.23a2.66,2.66,0,0,1,.57-.33l-.36.15a2.7,2.7,0,0,1,.69-.18l-.4,0a2.91,2.91,0,0,1,.78,0l-.4-.06a3.24,3.24,0,0,1,.86.24l-.36-.16a3,3,0,0,1,.62.37l-.3-.24A2.61,2.61,0,0,1,84,107l-.24-.31a2.37,2.37,0,0,1,.31.53l-.15-.36a2.38,2.38,0,0,1,.16.58l0-.4a2.81,2.81,0,0,1,0,.71l0-.4a2.77,2.77,0,0,1-.2.75l.15-.36a3.54,3.54,0,0,1-.42.73l.23-.3a3.51,3.51,0,0,1-.54.55l.3-.23a2.88,2.88,0,0,1-.61.36l.36-.15a2.38,2.38,0,0,1-.63.18l.4,0a2.36,2.36,0,0,1-.65,0l.4.06a3.11,3.11,0,0,1-.68-.19l.35.15a2.92,2.92,0,0,1-.61-.37l.3.24a3.05,3.05,0,0,1-.47-.48l.24.3a3.25,3.25,0,0,1-.33-.57l.15.36a3.21,3.21,0,0,1-.21-.75l.06.4a3,3,0,0,1,0-.85l0,.4a3.37,3.37,0,0,1,.21-.77l-.15.36a3.55,3.55,0,0,1,.48-.79,1.51,1.51,0,0,0,.15-1.16,1.57,1.57,0,0,0-.69-.89,1.47,1.47,0,0,0-1.16-.15,1.73,1.73,0,0,0-.89.69,4.48,4.48,0,0,0-.64,4.31,4.26,4.26,0,0,0,1.78,2.15,4.05,4.05,0,0,0,3.1.43A4.5,4.5,0,0,0,87,108.21a4.11,4.11,0,0,0-.39-2.73,4,4,0,0,0-1.67-1.6,4.41,4.41,0,0,0-5.1.61,1.5,1.5,0,0,0,2.12,2.12Z"/></g></svg>