<svg xmlns="http://www.w3.org/2000/svg" viewBox="0 0 235 235"><g id="accessory-5"><path d="M154.2,233.25l4.78-8.56c2.37-4.24,4.78-8.53,8.13-12.05a8.94,8.94,0,0,0,1.85-2.36,7.76,7.76,0,0,0,.19-4.28l-1.64-11.34s-8.14,13.89-13.91,11.56S143.83,184,155,177.55s28.33-16.41,31.45-15.65c0,0,9.16.49,13,3.85s25.49,13.62,26.71,22.07.62,27.06-10.6,18.87-9.39-15.48-9.39-15.48v14.68s-1.6,3.07,1.07,7.84,6.33,15.36,5.69,21.31H153.59Z" fill="#e59863" fill-rule="evenodd"/><path d="M187.41,203c-.58.15-1.39.38-2.19.61a1.76,1.76,0,0,0-.87,2.83l2.38,2.89a1.77,1.77,0,0,0,2.62.13L191.8,207a1.78,1.78,0,0,0-.6-2.91L188.51,203A1.73,1.73,0,0,0,187.41,203Z" fill="#e25495" fill-rule="evenodd"/><path d="M169.58,235.49c.85-2.54,1.83-5,2.84-7.5,1.11-2.69,2.38-5.49,4.76-7.15a10.48,10.48,0,0,1,7.39-1.5,28.53,28.53,0,0,1,7.35,2.3,38.06,38.06,0,0,1,5.48,2.68,7.07,7.07,0,0,1,2.83,2.83c1.05,2.26,0,5.88.48,8.34Z" fill="#fcb17e" fill-rule="evenodd"/><path d="M188.72,166.06a36.34,36.34,0,0,1-.13,9.55,12.22,12.22,0,0,1-4.81,8c-2.27,1.52-5.26,2-7,4.19-2,2.52-1.37,6.15-.76,9.31a126.75,126.75,0,0,1,1.83,13.17,3.86,3.86,0,0,1-.37,2.52,2.58,2.58,0,0,1-3.05.73,6.25,6.25,0,0,1-2.53-2.18,22.36,22.36,0,0,1-4.51-13.84L157,204.93c-1,.72-2.16,1.48-3.39,1.29-1.72-.25-2.62-2.16-3.07-3.84a29.79,29.79,0,0,1,3.71-23.47c4.43-6.85,7.95-6.36,15.65-8.8,2.92-.92,10.45-4.83,13-6.45,1.12-.69,2.17-1.69,3.49-1.76s2.63,1.65,1.66,2.54" fill="#fcb17e" fill-rule="evenodd"/><path d="M183.45,217.73a11.53,11.53,0,0,0-3.68,7.92,5.93,5.93,0,0,0,.39,2.58,5.46,5.46,0,0,0,2.68,2.53A8.74,8.74,0,0,0,193,228.91a7.94,7.94,0,0,0,.2-10.12,7.28,7.28,0,0,0-9.92-.79" fill="#ea2a74" fill-rule="evenodd"/><path d="M168.57,182.76a67.73,67.73,0,0,0-2.06,10.84c-.66,5.75-.87,12.53,2.19,17.7a11,11,0,0,0,7.84,5.32c1.89.29,2.71-2.6.8-2.89a8.17,8.17,0,0,1-5.9-3.7,16.51,16.51,0,0,1-2.15-7.26,52.62,52.62,0,0,1,1.32-15.72c.26-1.17.53-2.34.86-3.49a1.51,1.51,0,0,0-2.9-.8Z"/><path d="M202.35,183.56a73.17,73.17,0,0,1,1.68,8.71c.68,5,1.13,10.44-.32,15.32-.61,2.06-1.76,4.25-3.84,5.13a1.56,1.56,0,0,0-1.05,1.84,1.51,1.51,0,0,0,1.85,1.05c5.21-2.19,6.58-8,6.87-13.17a64,64,0,0,0-1.48-16.09c-.25-1.2-.5-2.4-.81-3.59a1.51,1.51,0,0,0-2.9.8Z"/><path d="M187,201.52c-1.49.4-3.25.65-4.11,2.09a3.33,3.33,0,0,0-.38,2.39,3.54,3.54,0,0,0,.8,1.52c.79,1,1.56,2,2.42,2.92a3.31,3.31,0,0,0,4.67.05c.44-.41.85-.84,1.28-1.27s.9-.84,1.29-1.3a3.3,3.3,0,0,0-.09-4.46,7,7,0,0,0-2.64-1.34l-1.15-.46a3.47,3.47,0,0,0-2.09-.14,1.52,1.52,0,0,0-1,1.84,1.54,1.54,0,0,0,1.85,1c.32-.07,0,0,0,0a1,1,0,0,1,.25,0c-.05,0-.3-.08,0,0l.12,0,.15.06.82.32,1.68.66c.13,0-.06,0-.23-.1l.12.07c.11,0,.15.17,0,0s0,0,0,0l.09.09c.18.18-.08-.06-.07-.1a1.18,1.18,0,0,0,.1.19c.12.14-.08-.3-.05-.12a.43.43,0,0,0,.05.16c.06.12,0-.16,0-.19a1,1,0,0,0,0,.17,1.09,1.09,0,0,0,0,.17s.09-.37,0-.14a.56.56,0,0,0,0,.12c0,.15.17-.28,0-.07a.61.61,0,0,0-.09.16s.25-.28.06-.09l-.07.08a1.85,1.85,0,0,0-.14.14l-.62.61-1.46,1.45-.17.18,0,0c-.22.23.15-.07,0,0a1,1,0,0,0-.17.1c-.14.1.12-.08.13-.06l-.19.06c-.26.08.1-.05.12,0H188c-.23,0,.09-.06.11,0s-.13,0-.14,0c-.17-.06.27.17,0,0a.7.7,0,0,1-.16-.1s.27.27.07,0l-.15-.15-.1-.12-.5-.61-1.37-1.66-.41-.49s.18.3.07.07a.47.47,0,0,0-.07-.12c-.09-.12.09.31,0,.07,0,0,0-.16,0-.17s0,.35,0,.09a.48.48,0,0,0,0-.12l0,.18,0-.12a.84.84,0,0,0,0-.12c0-.16-.17.29,0,.08l.09-.15c.12-.21-.18.17-.05.07a.74.74,0,0,0,.13-.12c.09-.1-.3.16-.05.06l.12-.07c.11-.1-.31.09-.06,0,.74-.16,1.46-.41,2.19-.61a1.52,1.52,0,0,0,1.05-1.84A1.54,1.54,0,0,0,187,201.52Z"/><path d="M183.35,214.41a49.22,49.22,0,0,0-2.44,5.81,25.24,25.24,0,0,0-1.21,4.51,7.55,7.55,0,0,0,.34,4.44c.71,1.46,2.13,1.86,3.61,2.15a23.61,23.61,0,0,0,5.81.48,10.32,10.32,0,0,0,5.14-1.34,4.55,4.55,0,0,0,2.1-4.48,32.84,32.84,0,0,0-4.21-11.57c-.94-1.68-3.53-.17-2.59,1.52a35.86,35.86,0,0,1,3.39,8.18,11.49,11.49,0,0,1,.46,2.56c0,.08,0,.17,0,.26,0-.06.07-.31,0,0s-.07.26-.11.4.12-.23,0,0l-.08.15c-.22.34.1,0-.14.19l-.3.28c.27-.23-.12.07-.19.11s-.26.14-.4.21l-.12.06c.17-.07-.21.07-.2.07-.32.1-.64.19-1,.27a7.5,7.5,0,0,1-1.05.17,18.24,18.24,0,0,1-2.56.05c-.39,0-.78,0-1.18-.08s-.76-.08-1.07-.13c-.77-.12-1.53-.29-2.29-.48-.23-.06-.26-.13,0,0l-.29-.17c.24.12.18.05,0,0s-.17-.22,0,0,0,0,0-.05-.17-.37-.08-.13,0-.1,0-.16,0-.26-.08-.38,0-.28,0,.1a2.28,2.28,0,0,1,0-.26,7.85,7.85,0,0,1,0-.84,2.93,2.93,0,0,1,0-.41c0-.06,0-.12,0-.18,0-.42-.05.32,0-.1a23.61,23.61,0,0,1,1-4.05c.25-.75.53-1.49.82-2.23.06-.15.13-.31.19-.47s.21-.51.16-.37l.14-.34.17-.38c.26-.59.53-1.18.82-1.76a1.53,1.53,0,0,0-.54-2.05,1.51,1.51,0,0,0-2.05.53Z"/><path d="M171,171.17l.47-.38c-.37.29.24-.17.36-.27.29-.21.57-.41.87-.61a38.35,38.35,0,0,1,5.06-3c4.58-2.26,9.94-3.66,15-2.5a18.38,18.38,0,0,1,9.39,5.73c1.31,1.43,3.43-.7,2.12-2.12A20.75,20.75,0,0,0,186,161.23a34.08,34.08,0,0,0-14.27,5.67,31.89,31.89,0,0,0-2.93,2.15c-1.47,1.25.66,3.36,2.13,2.12Z"/><path d="M186.64,220.09v5.54a1.5,1.5,0,0,0,3,0v-5.54a1.5,1.5,0,0,0-3,0Z"/><path d="M187.86,161.57a3.66,3.66,0,0,1,.18-.46c.05-.13-.2.44-.1.22a.61.61,0,0,0,.05-.12l.13-.28c.1-.21.2-.42.31-.62a10.44,10.44,0,0,1,.85-1.4l.12-.17c.18-.25-.19.23-.08.09l.27-.32a5.18,5.18,0,0,1,.63-.61l.06-.05c.18-.16-.17.12-.17.12s.16-.12.2-.14l.38-.23c.15-.07.41-.11-.09,0l.18-.07a3.57,3.57,0,0,1,.47-.11l-.4.06a2.66,2.66,0,0,1,.69,0l-.4-.05h.05a1.59,1.59,0,0,0,1.15-.15,1.53,1.53,0,0,0,.69-.89,1.51,1.51,0,0,0-.15-1.16,1.45,1.45,0,0,0-.9-.69,4.27,4.27,0,0,0-2.8.43,6,6,0,0,0-1.74,1.42,12.73,12.73,0,0,0-2,3.27c-.15.35-.31.7-.44,1.07a1.51,1.51,0,0,0,1,1.84,1.55,1.55,0,0,0,1.85-1Z"/><path d="M191,163.07a3.47,3.47,0,0,1,.16-.41L191,163a10.27,10.27,0,0,1,1.26-2.21l-.24.3a5.47,5.47,0,0,1,.89-.91l-.31.24a3.49,3.49,0,0,1,.67-.4l-.36.16a1.8,1.8,0,0,1,.55-.15l-.4,0a2.44,2.44,0,0,1,.54,0l-.4,0h0a1.67,1.67,0,0,0,1.16-.15,1.52,1.52,0,0,0,.69-.9,1.49,1.49,0,0,0-.15-1.15,1.45,1.45,0,0,0-.9-.69,4.21,4.21,0,0,0-1.46,0,4,4,0,0,0-1,.37,4.94,4.94,0,0,0-1.44,1.17,10.28,10.28,0,0,0-1.66,2.65c-.13.3-.27.61-.38.92a1.57,1.57,0,0,0,.15,1.16,1.59,1.59,0,0,0,.9.69,1.55,1.55,0,0,0,1.85-1.05Z"/><path d="M183.76,161.71l.16-.4-.15.36a10.16,10.16,0,0,1,1.26-2.22l-.24.31a5.06,5.06,0,0,1,.88-.91l-.3.23a3.45,3.45,0,0,1,.67-.39l-.36.15a2.39,2.39,0,0,1,.54-.15l-.4.05a2,2,0,0,1,.55,0l-.4-.06h0a1.67,1.67,0,0,0,1.16-.15,1.59,1.59,0,0,0,.69-.9,1.57,1.57,0,0,0-.16-1.16,1.47,1.47,0,0,0-.89-.69,4.21,4.21,0,0,0-1.46,0,3.54,3.54,0,0,0-1,.37,4.94,4.94,0,0,0-1.44,1.17,10.39,10.39,0,0,0-1.66,2.64c-.13.31-.27.61-.38.93a1.54,1.54,0,0,0,.15,1.15,1.5,1.5,0,0,0,2.74-.36Z"/><circle cx="180.09" cy="195.29" r="2.06"/><path d="M180.65,195.29a2.46,2.46,0,0,1,0,.28l.05-.39a2.11,2.11,0,0,1-.15.53l.16-.36a3.14,3.14,0,0,1-.28.46l.23-.3a2.73,2.73,0,0,1-.34.34l.31-.24a3.14,3.14,0,0,1-.46.28l.35-.15a1.88,1.88,0,0,1-.53.14l.4,0a2.72,2.72,0,0,1-.57,0l.4,0a2,2,0,0,1-.53-.14l.36.15a2.69,2.69,0,0,1-.46-.28l.3.24c-.12-.11-.23-.22-.34-.34l.24.3a3.14,3.14,0,0,1-.28-.46l.15.36a2.08,2.08,0,0,1-.14-.53l.05.39a2.62,2.62,0,0,1,0-.56l-.05.39a2.08,2.08,0,0,1,.14-.53l-.15.36a2.69,2.69,0,0,1,.28-.46l-.24.3c.11-.12.22-.23.34-.34l-.3.24a2.69,2.69,0,0,1,.46-.28l-.36.15a2,2,0,0,1,.53-.14l-.4.05a2.72,2.72,0,0,1,.57,0l-.4-.05a1.88,1.88,0,0,1,.53.14l-.35-.15a3.14,3.14,0,0,1,.46.28l-.31-.24a2.73,2.73,0,0,1,.34.34l-.23-.3a2.69,2.69,0,0,1,.28.46l-.16-.36a2.11,2.11,0,0,1,.15.53l-.05-.39a2.46,2.46,0,0,1,0,.28,1.5,1.5,0,0,0,3,0,3.54,3.54,0,0,0-.6-2,3.83,3.83,0,0,0-1.82-1.4,3.55,3.55,0,0,0-3.8,1,3.93,3.93,0,0,0-.68,1.15,3.56,3.56,0,0,0,.27,3,3.53,3.53,0,0,0,1.47,1.37,3.84,3.84,0,0,0,2.36.29,3.31,3.31,0,0,0,1.88-1.09,3.67,3.67,0,0,0,.92-2.38,1.5,1.5,0,0,0-3,0Z"/><circle cx="196.12" cy="196.33" r="2.12"/><path d="M196.75,196.33c0,.09,0,.19,0,.29l.05-.4a2.64,2.64,0,0,1-.15.55l.15-.36a2.05,2.05,0,0,1-.29.47l.24-.3a2.32,2.32,0,0,1-.35.35l.3-.23a2.08,2.08,0,0,1-.48.28l.36-.15a2.39,2.39,0,0,1-.54.15l.39,0a2.81,2.81,0,0,1-.58,0l.4,0a2.64,2.64,0,0,1-.55-.15l.36.15a2.31,2.31,0,0,1-.48-.28l.31.23a1.93,1.93,0,0,1-.35-.35l.23.3a2,2,0,0,1-.28-.47l.15.36a1.8,1.8,0,0,1-.15-.55l.05.4a2,2,0,0,1,0-.59l-.05.4a1.67,1.67,0,0,1,.15-.54l-.15.35a2.25,2.25,0,0,1,.28-.47l-.23.3a2.32,2.32,0,0,1,.35-.35l-.31.23a2.87,2.87,0,0,1,.48-.28l-.36.15a2.64,2.64,0,0,1,.55-.15l-.4.05a2.81,2.81,0,0,1,.58,0l-.39-.05a2.39,2.39,0,0,1,.54.15l-.36-.15a2.52,2.52,0,0,1,.48.28l-.3-.23a2.89,2.89,0,0,1,.35.35l-.24-.3a2.29,2.29,0,0,1,.29.47l-.15-.35a2.39,2.39,0,0,1,.15.54l-.05-.4c0,.1,0,.2,0,.3a1.5,1.5,0,1,0,3,0,3.59,3.59,0,0,0-.62-2,3.84,3.84,0,0,0-1.85-1.42,3.6,3.6,0,0,0-3.87,1,4.24,4.24,0,0,0-.69,1.16,3.56,3.56,0,0,0-.21,1,3.58,3.58,0,0,0,2,3.44,3.89,3.89,0,0,0,2.4.3,3.42,3.42,0,0,0,1.91-1.11,3.81,3.81,0,0,0,.94-2.42,1.5,1.5,0,0,0-3,0Z"/><path d="M209.92,175.27a31.76,31.76,0,0,1,11.63,8.3c3.25,3.8,3.22,9.23,3,14a21.17,21.17,0,0,1-1.32,6.82,9.33,9.33,0,0,1-1.47,2.68c-1,1.09-1.83.8-2.92,0a28.94,28.94,0,0,1-8.38-9.43,30.74,30.74,0,0,1-4.07-13.88c-.09-1.92-3.09-1.93-3,0,.46,10,5.57,20.16,13.94,25.91,5.78,4,9-3.78,9.82-8.37a39.35,39.35,0,0,0,.38-8.26,21.16,21.16,0,0,0-1.64-8.36,21.37,21.37,0,0,0-6.07-6.94,35.42,35.42,0,0,0-8.39-5.09c-1.75-.76-3.28,1.83-1.51,2.59Z"/><path d="M168.54,181.51a31.1,31.1,0,0,1-11.22,22.36,6.39,6.39,0,0,1-2.64,1.67c-1.09.14-1.81-1.1-2.25-1.91A17.51,17.51,0,0,1,150.5,197a45,45,0,0,1-.06-7.06,14.67,14.67,0,0,1,1.79-7.06c2.81-4.52,8-7.81,12.78-9.86,1.77-.76.24-3.35-1.51-2.59-5.09,2.19-10.15,5.67-13.39,10.23a15.8,15.8,0,0,0-2.57,7.94,44.48,44.48,0,0,0,0,8.4c.41,4,2.45,13.24,8.35,11.36,2.27-.72,4.36-2.88,6-4.54a34.67,34.67,0,0,0,4.62-5.89,34.12,34.12,0,0,0,5.07-16.38c.09-1.93-2.91-1.93-3,0Z"/><path d="M168.2,209.73A39.4,39.4,0,0,0,158,220.52a34.86,34.86,0,0,0-4.41,14.13c-.21,1.92,2.79,1.9,3,0a31.36,31.36,0,0,1,4-12.61,35.36,35.36,0,0,1,9.17-9.72c1.51-1.15,0-3.76-1.52-2.59Z"/><path d="M203.91,211.89A32.66,32.66,0,0,1,211.36,235c-.13,1.93,2.87,1.92,3,0A35.68,35.68,0,0,0,206,209.77c-1.24-1.48-3.35.65-2.12,2.12Z"/></g></svg>