<svg xmlns="http://www.w3.org/2000/svg" viewBox="0 0 235 235"><g class="accessory-5"><path d="M147.22,145.89c-2.69,7.39-13.1,8.89-20.94,9.6s-15.7-.62-23.42-2.14c-5.76-1.13-15.13-7.91-15.13-7.91C96.48,133.9,89.64,121,89.64,121l17.48-6.33c7.54-2.74,15.71-5.5,23.42-3.26,6.82,2,11.92,7.54,16.65,12.86C147.19,124.29,151.86,133.1,147.22,145.89Z" fill="#82dcf4"/><path d="M145.77,145.49c-1.34,3.52-4.86,5.43-8.26,6.52a51.83,51.83,0,0,1-12.19,2.06,71.8,71.8,0,0,1-17.55-1.32,40.06,40.06,0,0,1-6.88-1.54,35.44,35.44,0,0,1-5.09-2.43,72.15,72.15,0,0,1-7.31-4.64l.53,2.05a24.92,24.92,0,0,0,1.92-25.92l-.9,2.2c6.48-2.35,12.95-4.75,19.45-7,6.08-2.15,12.82-4.31,19.31-2.89,5.68,1.24,10.14,5.1,14,9.21a20.8,20.8,0,0,1,3.23,3.68c.19.32-.07-.2.1.23.09.22.17.45.25.68a21.58,21.58,0,0,1,.62,2.08,29.72,29.72,0,0,1-1.27,17.07c-.65,1.82,2.25,2.61,2.89.8a33.2,33.2,0,0,0,1.59-17.21,22.81,22.81,0,0,0-1.19-4.22,9.6,9.6,0,0,0-2.16-3.14c-4-4.45-8.42-8.82-14.08-11.08-6.58-2.63-13.79-1.43-20.34.62-7.84,2.45-15.52,5.52-23.23,8.32a1.52,1.52,0,0,0-.9,2.2,10.38,10.38,0,0,1,.78,1.84A26.27,26.27,0,0,1,90.48,129a21.09,21.09,0,0,1-4,15.67,1.54,1.54,0,0,0,.54,2,73.67,73.67,0,0,0,6.76,4.32,45.72,45.72,0,0,0,5.66,2.79,35.71,35.71,0,0,0,6.87,1.68,76.75,76.75,0,0,0,19.06,1.55,55,55,0,0,0,13-2.17c4.51-1.44,8.61-4,10.35-8.61C149.35,144.48,146.45,143.7,145.77,145.49Z"/><path d="M81.88,123.84a16.12,16.12,0,0,0,9-1.26,1.5,1.5,0,0,0,.53-2,1.55,1.55,0,0,0-2-.54l-.26.12c.15-.06.13-.06,0,0l-.39.15c-.31.11-.63.21-.94.3A18,18,0,0,1,86,121c.32,0-.13,0-.16,0l-.49.05c-.3,0-.61,0-.91,0s-.66,0-1,0L83,121c-.06,0-.63-.08-.3,0a1.55,1.55,0,0,0-1.85,1,1.52,1.52,0,0,0,1,1.84Z"/><path d="M147.14,125.31a22.51,22.51,0,0,0,8.83,1.43,1.5,1.5,0,0,0,0-3c-.73,0-1.46,0-2.19,0l-.94-.08c-.05,0-.62-.08-.37,0l-.47-.08a21.2,21.2,0,0,1-4.06-1.1,1.51,1.51,0,0,0-1.85,1,1.54,1.54,0,0,0,1,1.84Z"/><path d="M117.52,121.82a12.07,12.07,0,0,1,14.57.89c1.43,1.28,3.56-.83,2.12-2.13A15.12,15.12,0,0,0,116,119.23c-1.59,1.07-.09,3.67,1.52,2.59Z"/></g></svg>