<svg xmlns="http://www.w3.org/2000/svg" viewBox="0 0 235 235"><g id="accessory-8"><path d="M22,7c8.83,4.22,17.58,11.63,26.22,16.23Q36.42,35.54,24.38,47.57a192.1,192.1,0,0,0-2.06-26.94A86,86,0,0,1,22,7.11Z" fill="#7d77c9"/><path d="M190,18.46Q203.11,11.93,216.54,6,219,22.85,221,39.75a190.91,190.91,0,0,0-22.42-15A53.84,53.84,0,0,1,190,18.46Z" fill="#7d77c9"/><path d="M54.41,24.36a382.39,382.39,0,0,0,6.21,37.79C67.45,53.91,73.2,45,78.77,36a12.15,12.15,0,0,0,1.56-3.12C73.22,30.58,66,28.47,58.75,26.59Z" fill="#00bbf0"/><path d="M114.68,35.27C104.89,35,94.44,34.1,85.3,33,88.6,43.82,92,56.91,95.57,67.69a192.32,192.32,0,0,1,14-23,54.34,54.34,0,0,0,5.14-9.37Z" fill="#ea2a74"/><path d="M121.6,35.61c6.26,10.53,14.38,22.15,21.77,32.08,2.88-10.31,4.51-20.78,5.95-31.24.16-1.17,1.2-4.31,1-5.45-7.45.76-14.24,2.58-21.64,3.81Z" fill="#25c191"/><path d="M162.17,36.58C169.4,44,177.25,51,186.53,56l-1.31-35.8c-9.41,3.64-17.29,7-26.94,9l-2.46.61C157.23,31.65,160.53,34.88,162.17,36.58Z" fill="#ff9c4a"/><path d="M21.22,8.31c9.29,4.48,17.15,11.36,26.23,16.23l-.31-2.36Q35.36,34.48,23.32,46.51l2.56,1.06a195.18,195.18,0,0,0-1.46-22.28A95.55,95.55,0,0,1,23.48,7c.13-1.93-2.88-1.92-3,0a95.55,95.55,0,0,0,.94,18.28,195.18,195.18,0,0,1,1.46,22.28,1.52,1.52,0,0,0,2.56,1.06q12-12,23.83-24.33A1.51,1.51,0,0,0,49,22C39.89,17.08,32,10.2,22.73,5.71,21,4.88,19.48,7.47,21.22,8.31Z"/><path d="M190.7,19.76q13.17-6.53,26.6-12.47l-2.2-.9q2.37,16.65,4.38,33.36L222,38.69a188.07,188.07,0,0,0-15.47-10.83C201.25,24.53,195.7,21.62,191,17.4c-1.44-1.29-3.56.83-2.12,2.12,4.69,4.22,10.14,7.19,15.47,10.5a185,185,0,0,1,15.56,10.79c.87.68,2.73.4,2.56-1.06Q220.43,22.65,218,5.59c-.15-1.06-1.43-1.23-2.2-.89q-13.44,5.94-26.6,12.47C187.46,18,189,20.61,190.7,19.76Z"/><path d="M52.91,24.36a376.11,376.11,0,0,0,6.27,38.19,1.5,1.5,0,0,0,2.5.66A181.75,181.75,0,0,0,72.51,48.58c1.65-2.46,3.25-4.94,4.84-7.44s3.53-5,4.43-7.82a1.52,1.52,0,0,0-1-1.85Q72,28.62,63.17,26.21a24.41,24.41,0,0,1-5-1.6l-3-1.54c-1.71-.88-3.23,1.7-1.51,2.59l3,1.54A25,25,0,0,0,61.9,29q9.09,2.46,18,5.39l-1-1.84c-.83,2.6-2.81,5-4.26,7.3s-3.1,4.85-4.71,7.24c-3.24,4.83-6.66,9.54-10.36,14l2.51.67a369.45,369.45,0,0,1-6.16-37.4C55.68,22.47,52.68,22.44,52.91,24.36Z"/><path d="M114.68,33.77c-9.83-.24-19.63-1.1-29.38-2.31a1.51,1.51,0,0,0-1.44,1.9c3.5,11.55,6.5,23.25,10.26,34.73a1.53,1.53,0,0,0,2.75.36,182.86,182.86,0,0,1,9.39-16.23c3.45-5.31,7.22-10.34,9.71-16.2a1.55,1.55,0,0,0-.54-2.05,1.51,1.51,0,0,0-2.05.54c-2.49,5.86-6.26,10.89-9.71,16.19a185.76,185.76,0,0,0-9.39,16.23l2.74.36c-3.76-11.47-6.77-23.18-10.27-34.73l-1.45,1.9c9.75,1.21,19.55,2.07,29.38,2.31C116.61,36.81,116.61,33.81,114.68,33.77Z"/><path d="M120.31,36.37a379.66,379.66,0,0,0,21.76,32.08,1.52,1.52,0,0,0,2.74-.36,189.59,189.59,0,0,0,4.37-20.55c.55-3.4,1-6.81,1.52-10.22.3-2.06,1.34-4.22,1.16-6.32-.06-.74-.64-1.59-1.5-1.5-7,.74-13.75,2.4-20.63,3.62-2.68.48-5.42.69-8.13,1-1.89.21-1.91,3.22,0,3,2.66-.3,5.35-.49,8-.93,6.94-1.15,13.76-2.94,20.77-3.68l-1.5-1.5c.17,1.94-.85,4.07-1.12,6-.47,3.41-1,6.82-1.53,10.22a188.54,188.54,0,0,1-4.29,20.07l2.74-.36A376.47,376.47,0,0,1,122.9,34.85,1.5,1.5,0,0,0,120.31,36.37Z"/><path d="M161.11,37.64c7.34,7.55,15.33,14.6,24.66,19.61A1.52,1.52,0,0,0,188,56l-1.15-31.41-.16-4.39a1.51,1.51,0,0,0-1.9-1.44c-5.56,2.15-11.09,4.41-16.76,6.26-4.16,1.35-8.4,2.3-12.64,3.35a1.51,1.51,0,0,0-.9,2.2,83.67,83.67,0,0,0,6.59,7.12c1.35,1.38,3.47-.74,2.12-2.12A80,80,0,0,1,157.11,29l-.89,2.2c4.23-1.05,8.48-2,12.63-3.35,5.68-1.84,11.21-4.11,16.77-6.26l-1.9-1.45,1.15,31.42L185,56l2.26-1.29c-9.12-4.9-16.88-11.76-24.06-19.14C161.89,34.13,159.77,36.25,161.11,37.64Z"/><path d="M12.61,1.06c11.8,9.45,24.56,17.68,38.52,23.57a152.17,152.17,0,0,0,41,10.7,175.3,175.3,0,0,0,42.7-.22,194.92,194.92,0,0,0,41.9-10A197.9,197.9,0,0,0,217.39,5q2.37-1.54,4.7-3.16c1.58-1.09.08-3.69-1.51-2.59a194.79,194.79,0,0,1-80.69,32.18c-27.53,4.28-56.29,2.36-82.48-7.47-15.54-5.83-29.75-14.63-42.68-25-1.49-1.19-3.63.92-2.12,2.12Z"/><path d="M37.92,23.2a2.79,2.79,0,0,0-1.07-3.28,5.54,5.54,0,0,0-3.2-.66,5.35,5.35,0,0,0-4.73,3.87,4.76,4.76,0,0,0,.32,3.57,5.22,5.22,0,0,0,2.3,1.93,1.48,1.48,0,0,1,.78,1.8,4.41,4.41,0,0,1-1.21,2.48,1.21,1.21,0,0,1-.83.4,2.48,2.48,0,0,1-1.07-.5,2.56,2.56,0,0,1-.52-.56,2,2,0,0,1-.18-1.05,1.55,1.55,0,0,0-1.05-1.85,1.51,1.51,0,0,0-1.84,1,5.14,5.14,0,0,0,.48,3.36,5.2,5.2,0,0,0,2,1.87,4.3,4.3,0,0,0,3.22.56,5.15,5.15,0,0,0,2.83-2.28C35.4,32,36,29,34.38,27.08a12.26,12.26,0,0,0-2.29-1.57.83.83,0,0,1-.36-.66A2.17,2.17,0,0,1,32,23.58a2.2,2.2,0,0,1,1.82-1.34c-.28,0,.29,0,.39,0a3.57,3.57,0,0,1,.72.1c.16,0,.62.17.25,0-.1,0,.08-.47-.1.08-.59,1.84,2.3,2.63,2.89.79Z"/><path d="M65.18,37.2a1.64,1.64,0,0,1,.22-.14c-.21.11,0,0,0,0l-.14,0h.13l-.14,0,.13,0c0-.08-.14-.09,0,0l.23.14c-.23-.17.21.31.05.06a1.37,1.37,0,0,1,.18.9,5.93,5.93,0,0,1-.26,1.4c-.58,2.24-1.21,4.47-1.82,6.7a1.54,1.54,0,0,0,1,1.85,1.52,1.52,0,0,0,1.84-1.05l1.19-4.35a24.12,24.12,0,0,0,1-4.26,4.06,4.06,0,0,0-1.58-3.75,3.09,3.09,0,0,0-3.59-.18,1.56,1.56,0,0,0-.54,2.06,1.51,1.51,0,0,0,2.05.53Z"/><path d="M67.42,39.78a6,6,0,0,0-3.59-1.21,4,4,0,0,0-3.37,2.18,6.93,6.93,0,0,0-.62,1.72,4.34,4.34,0,0,0,0,2.29A3.6,3.6,0,0,0,62.58,47a7.92,7.92,0,0,0,1.82.18,1.93,1.93,0,0,0,2-2.33,1.52,1.52,0,0,0-1.84-1,1.54,1.54,0,0,0-1,1.85l.17-.61a.7.7,0,0,1,.37-.76s.35-.14.2-.09a.38.38,0,0,0-.1,0c.25-.13.36,0,.2,0h-.53l-.25,0h-.11l.18,0-.52-.1L62.93,44c-.14,0-.31-.19.07,0-.13-.08-.26-.16-.4-.23.37.2.19.15.07,0a.46.46,0,0,0-.07-.07c-.09-.07.16.17.14.18l-.11-.19c-.09-.15.11.34.07.17s0-.12,0-.17,0,.3,0,.1a.75.75,0,0,0,0-.15c0-.07,0-.43,0-.19s0-.11,0-.17,0-.21.07-.32a5.52,5.52,0,0,1,.16-.54c0-.06.15-.38,0-.12s0-.08.08-.15a1.76,1.76,0,0,1,.14-.23.36.36,0,0,1,.07-.1c.09-.16-.22.25-.1.12l.18-.2.09-.08c.1-.1.21-.1-.09.06.08,0,.15-.1.23-.15a.67.67,0,0,1,.12-.06s-.38.13-.13.06l.24-.07.17,0c-.05,0-.37,0-.16,0h.34l.17,0c-.1,0-.35-.06-.11,0a5.31,5.31,0,0,1,.68.2l.12,0c-.12,0-.29-.13-.07,0l.31.16a6.18,6.18,0,0,1,.64.4,1.51,1.51,0,0,0,2-.54,1.53,1.53,0,0,0-.54-2Z"/><path d="M97.68,42a.5.5,0,0,1-.25.13c.16,0,.15,0-.05,0h.24c-.19,0-.2,0,0,0-.16-.08-.17-.08,0,0s.14.09,0,0a1.53,1.53,0,0,1,.18.18c-.08-.1-.07-.07,0,.07s.09.19,0,.07c0,.1.07.19.1.29s.1.42.14.62,0,.21,0,.08c0,.11,0,.23,0,.34,0,.26.06.51.08.77a40.33,40.33,0,0,1,.1,6.12,1.5,1.5,0,0,0,3,0A37.11,37.11,0,0,0,101,42.7a4.31,4.31,0,0,0-1.8-3.1,3,3,0,0,0-3.65.26,1.5,1.5,0,0,0,0,2.12,1.54,1.54,0,0,0,2.12,0Z"/><path d="M99.85,43.71a6.21,6.21,0,0,0-3.23-.09,5.45,5.45,0,0,0-2.74,1.54,3.23,3.23,0,0,0-.59,3.69,3.36,3.36,0,0,0,3.11,1.52,7.35,7.35,0,0,0,3.6-1,1.5,1.5,0,1,0-1.51-2.59,5.52,5.52,0,0,1-.69.34l.36-.15a6.74,6.74,0,0,1-1.48.4l.4-.06a5.36,5.36,0,0,1-1.2,0l.4,0a2.69,2.69,0,0,1-.62-.16l.36.15a1.62,1.62,0,0,1-.36-.21l.3.23a1.8,1.8,0,0,1-.2-.19l.24.3a1.58,1.58,0,0,1-.15-.24l.15.35a1.82,1.82,0,0,1-.11-.4l.06.39a1,1,0,0,1,0-.35l-.06.39a2,2,0,0,1,.13-.48l-.15.36a2.56,2.56,0,0,1,.27-.45l-.23.3a3.05,3.05,0,0,1,.48-.47l-.3.24a3.86,3.86,0,0,1,.94-.55l-.36.15a5.12,5.12,0,0,1,1.22-.33l-.4,0a5.26,5.26,0,0,1,1.19,0l-.4-.06a5.06,5.06,0,0,1,.77.18,1.5,1.5,0,0,0,.8-2.9Z"/><path d="M141.64,39.59a3.36,3.36,0,0,0-3.07-2.11,3.82,3.82,0,0,0-3,2.16c-1.29,2.4-.58,5.76,2.31,6.43,1,.25,2.24.13,2.92,1.06a5.67,5.67,0,0,1,.65,3.37,2,2,0,0,1-1.09,1.91c-.36.16-.87.3-1.05-.17a1.55,1.55,0,0,0-1.85-1A1.51,1.51,0,0,0,136.42,53,3.58,3.58,0,0,0,139,55.45a4.43,4.43,0,0,0,3-.53c2.52-1.41,2.64-4.42,2.22-6.94a5.54,5.54,0,0,0-1.77-3.42c-1.15-1-2.39-1.05-3.79-1.38-.41-.09-.53-.11-.66-.48a2.08,2.08,0,0,1,0-1.35c.07-.19.43-.91.7-.89l-.1,0c.19.09.3.45.38.62a1.52,1.52,0,0,0,2,.54,1.55,1.55,0,0,0,.54-2.06Z"/><path d="M172,33l3.49,9.18a7.19,7.19,0,0,0,1.07,2.21A3.14,3.14,0,0,0,182,43,1.55,1.55,0,0,0,181,41.11a1.5,1.5,0,0,0-1.84,1c0,.22,0,.3-.13.37s.21-.15,0-.05.15,0-.08,0h0c.07,0,.06,0,0,0s-.11,0,0,0-.2-.11-.06,0c0,0-.13-.18-.08-.09a24.6,24.6,0,0,1-1.23-3.13l-2.7-7.09a1.54,1.54,0,0,0-1.85-1A1.51,1.51,0,0,0,172,33Z"/><path d="M173.36,40a36.59,36.59,0,0,1,5.69-1.73,1.51,1.51,0,0,0,1-1.84,1.53,1.53,0,0,0-1.84-1,36.38,36.38,0,0,0-5.7,1.73,1.59,1.59,0,0,0-.9.69,1.49,1.49,0,0,0-.15,1.15,1.51,1.51,0,0,0,1.85,1Z"/><path d="M205.52,20.56c.51,1,1,2,1.46,3,.23.49.45,1,.66,1.48.06.13.11.25.17.37s.19.45.1.25.09.21.11.25.11.29.17.43a1.72,1.72,0,0,0,.69.9,1.5,1.5,0,0,0,2.2-1.7c-.89-2.2-1.88-4.36-3-6.46a1.5,1.5,0,0,0-2.05-.54,1.53,1.53,0,0,0-.54,2Z"/><path d="M209.81,22.2a4.58,4.58,0,0,1,0-.64l-.06.4a6.21,6.21,0,0,1,.14-.62c0-.1.09-.2.11-.3-.09.39-.08.19,0,.06a6.05,6.05,0,0,1,.32-.55c.09-.12.06-.09-.09.11l.1-.12.19-.21.2-.19.13-.1c-.2.15-.24.18-.11.09a5.48,5.48,0,0,1,.52-.31c.32-.16-.29.1,0,0l.31-.1a4.53,4.53,0,0,1,.64-.13l-.4.05a4.7,4.7,0,0,1,1.06,0l-.4-.05a5.05,5.05,0,0,1,.56.12,1.5,1.5,0,0,0,.8-2.89,5.6,5.6,0,0,0-5,1.05,5.52,5.52,0,0,0-2,4.33,1.5,1.5,0,0,0,3,0Z"/></g></svg>