<svg xmlns="http://www.w3.org/2000/svg" viewBox="0 0 235 235"><g id="accessory-2"><path d="M86,113c4.34,4.08,11.69,3.91,17.19,3,2.91-.51,5.7-1.76,7.33-4.32s2.16-6.4,1.94-9.43a11.36,11.36,0,0,0-3.63-7.86c-2.5-2.16-5.79-2.83-9-2.94-5.44-.19-11.74.73-15.1,5.51C81.51,101.48,82.13,109,86,113c1.35,1.39,3.47-.74,2.12-2.12-2.66-2.74-3.09-7.73-1.57-11.14,1.87-4.18,6.91-5.21,11-5.33,4.81-.15,10.24.75,11.61,6.13a14.8,14.8,0,0,1-.48,7.94,6.57,6.57,0,0,1-5,4.31,27.33,27.33,0,0,1-8.12.59c-2.63-.14-5.48-.64-7.47-2.5C86.71,109.56,84.58,111.68,86,113Z"/><path d="M126.35,112c4.34,4.09,11.69,3.91,17.19,3,2.91-.5,5.7-1.76,7.33-4.32s2.16-6.4,1.94-9.42a11.36,11.36,0,0,0-3.63-7.86c-2.5-2.17-5.8-2.83-9-3-5.43-.19-11.74.74-15.09,5.51-3.2,4.56-2.58,12.11,1.28,16.08,1.35,1.39,3.47-.73,2.12-2.12-2.66-2.74-3.09-7.73-1.57-11.13,1.86-4.19,6.91-5.21,11-5.34,4.81-.15,10.24.75,11.61,6.14a14.81,14.81,0,0,1-.49,7.94,6.52,6.52,0,0,1-5,4.3,27.33,27.33,0,0,1-8.12.59c-2.63-.13-5.49-.63-7.47-2.5C127.07,108.53,124.94,110.64,126.35,112Z"/><path d="M111.17,104.32a30.27,30.27,0,0,1,5.56-.87,33.64,33.64,0,0,1,5.85-.21,1.5,1.5,0,0,0,0-3,35.66,35.66,0,0,0-6,.22,36.8,36.8,0,0,0-6.18,1,1.5,1.5,0,0,0,.79,2.89Z"/></g></svg>