<svg xmlns="http://www.w3.org/2000/svg" viewBox="0 0 235 235"><g id="eyes-5"><path d="M106.47,97.72c-3.07-.49-6.19-.79-9.28-1.19a1.5,1.5,0,0,0-1.5,1.5,1.53,1.53,0,0,0,1.5,1.5l5.28.68a3.32,3.32,0,0,0-.81,2.2,3.61,3.61,0,0,0,1.77,2.92,3.94,3.94,0,0,0,5.64-1.63C110.15,101.39,109.26,98.17,106.47,97.72Zm-1.82,4.62v0h0v0Zm.61-.54Zm0,0h0c-.06,0-.09,0-.11,0Zm-.58.57v0a.08.08,0,0,1,0,0Z"/><path d="M139.74,96.57l-8.11,1a8.1,8.1,0,0,0-1.95.37A3.37,3.37,0,0,0,128,99.44a4.61,4.61,0,0,0-.44,3.43,4,4,0,0,0,5.15,2.88,3.9,3.9,0,0,0,2.44-2.41,3.35,3.35,0,0,0-.65-3.1l5.27-.67a1.56,1.56,0,0,0,1.5-1.5C141.24,97.34,140.55,96.46,139.74,96.57Z"/><path d="M110.59,81a124.05,124.05,0,0,0-17.11,6.79,1.52,1.52,0,0,0-.54,2.05,1.55,1.55,0,0,0,2.06.54,118.6,118.6,0,0,1,16.39-6.49C113.23,83.27,112.44,80.37,110.59,81Z"/><path d="M141.81,87.5c-4.19-2.68-9.31-3.49-13.48-6.17-1.63-1-3.14,1.55-1.52,2.59,4.18,2.69,9.31,3.5,13.48,6.17C141.92,91.14,143.43,88.54,141.81,87.5Z"/></g></svg>