<svg xmlns="http://www.w3.org/2000/svg" viewBox="0 0 235 235"><g id="eyes-8"><path d="M144.09,85.83a5.53,5.53,0,0,1-5,0c-1.63-.86-3.06-2.08-4.89-2.53a10.4,10.4,0,0,0-9.54,2.94c-1.4,1.34.72,3.46,2.12,2.12,2.3-2.2,5.54-3.07,8.38-1.41,1.55.91,3,2,4.81,2.34a9.16,9.16,0,0,0,5.68-.87C147.35,87.59,145.83,85,144.09,85.83Z"/><path d="M106.92,94.84a4.12,4.12,0,0,0-3.27-.35,4.19,4.19,0,0,0-.84.44A1.53,1.53,0,0,0,101.35,96a6.55,6.55,0,0,0-.44,3.85,4,4,0,0,0,.76,1.47,3.85,3.85,0,0,0,2.13,2,4.05,4.05,0,0,0,3.22-.13,4.68,4.68,0,0,0,2.13-5.76A5,5,0,0,0,106.92,94.84Z"/><path d="M135.07,94.84a4.11,4.11,0,0,0-3.27-.35,4.48,4.48,0,0,0-.84.44A1.53,1.53,0,0,0,129.5,96a6.63,6.63,0,0,0-.44,3.85,4,4,0,0,0,.76,1.47,3.87,3.87,0,0,0,2.14,2,4,4,0,0,0,3.21-.13,4.69,4.69,0,0,0,2.14-5.76A5,5,0,0,0,135.07,94.84Z"/><path d="M104.53,83.3c-1.78.44-3.18,1.6-4.76,2.46a5.61,5.61,0,0,1-5.18.07c-1.73-.82-3.25,1.76-1.51,2.59a9.27,9.27,0,0,0,5.53.9c1.87-.3,3.36-1.43,5-2.37,2.85-1.66,6.09-.79,8.39,1.41,1.39,1.34,3.52-.78,2.12-2.12A10.41,10.41,0,0,0,104.53,83.3Z"/></g></svg>