<svg xmlns="http://www.w3.org/2000/svg" viewBox="0 0 235 235"><g id="eyes-6"><path d="M107.58,96a4.23,4.23,0,0,0-5.12,2.85,2.64,2.64,0,0,0,.54,2.21h0c.12,0-.29,0-.37,0H102l-.07,0-.46-.14a1.24,1.24,0,0,1-.2-.1l-.18-.11a.83.83,0,0,0-.14-.13l0,0a.33.33,0,0,0,0-.06v0h0l0-.17a1.5,1.5,0,0,0-1.5-1.5,1.54,1.54,0,0,0-1.5,1.5c-.21,2.39,2.39,3.75,4.43,3.78a7.47,7.47,0,0,0,5.46-2.36A6.26,6.26,0,0,0,109.38,99,2.53,2.53,0,0,0,107.58,96Zm-6.68,4.54h0c0,.05,0,.09,0,.09A.2.2,0,0,1,100.9,100.57Zm.2.17h0C100.94,100.64,101,100.67,101.1,100.74ZM105,99Zm1.41-.6h0S106.46,98.41,106.45,98.43Zm-2.09,1.16c0,.11,0,.12,0,0Z"/><path d="M140.6,98.84a1.52,1.52,0,0,0-1.5,1.5,1.09,1.09,0,0,1,0,.18h0l0,.06,0,0a.57.57,0,0,0-.11.11s0,0,0,0h0l-.35.2-.06,0-.06,0-.39.11h-.17a6.91,6.91,0,0,1-.91,0h0c.19,0,.12,0,0,0a2.22,2.22,0,0,0,.55-1c.56-2.39-2.18-4.36-4.35-4.17a2.72,2.72,0,0,0-2.55,1.85,4.09,4.09,0,0,0,1,3.34,7.61,7.61,0,0,0,5.34,3,5.52,5.52,0,0,0,3.26-.65,3.42,3.42,0,0,0,1.84-3.1A1.53,1.53,0,0,0,140.6,98.84Zm-6,.7,0,0,0,0Zm1.3,1.25h0l-.07,0ZM133.13,99Zm5.41,2Zm.51-.33,0,0Zm.06-.06c0,.12,0,0,0,0Z"/><path d="M106.36,87.05a1.5,1.5,0,1,0,.79-2.89,13.32,13.32,0,0,0-15.49,5,1.5,1.5,0,1,0,2.59,1.51A10.34,10.34,0,0,1,106.36,87.05Z"/><path d="M145.23,88.77a10.73,10.73,0,0,0-6.78-4.64c-3.34-.78-6.77-.26-10.11.25a1.52,1.52,0,0,0-1,1.85,1.54,1.54,0,0,0,1.85,1c4.42-.67,10.72-1.51,13.5,3C143.65,91.93,146.24,90.42,145.23,88.77Z"/></g></svg>