<svg xmlns="http://www.w3.org/2000/svg" viewBox="0 0 235 235"><g id="eyes-1"><path d="M101.49,96.09a2.69,2.69,0,0,0-1.4.47,3.13,3.13,0,0,0-1.55.9,3,3,0,0,0-.4.55,1.39,1.39,0,0,0-.68.57,4.61,4.61,0,0,0-.55,1.43,5.4,5.4,0,0,0-.11.9,5.23,5.23,0,0,0,.09,1l.15.36a1.18,1.18,0,0,0,.38.42,1.5,1.5,0,0,0,.91.32,6.33,6.33,0,0,0,.76,0,2.47,2.47,0,0,0,2,.41c1.29-.29,2-1.57,2.34-2.7a4.8,4.8,0,0,0,.21-.91,4.78,4.78,0,0,0,.23-.45,2.29,2.29,0,0,0-.45-2.46A2.57,2.57,0,0,0,101.49,96.09Z"/><path d="M135.52,96.35a2.78,2.78,0,0,0-1.39.47,3.2,3.2,0,0,0-1.55.9,4.13,4.13,0,0,0-.41.55,1.42,1.42,0,0,0-.67.57,4.61,4.61,0,0,0-.55,1.43,5.53,5.53,0,0,0-.11.9,6.24,6.24,0,0,0,.08,1l.15.36a1.13,1.13,0,0,0,.39.42,1.49,1.49,0,0,0,.91.33,6.32,6.32,0,0,0,.76-.06,2.4,2.4,0,0,0,2,.41c1.29-.28,1.95-1.56,2.33-2.7a4.65,4.65,0,0,0,.22-.91c.08-.15.16-.29.23-.45a2.28,2.28,0,0,0-.46-2.45A2.55,2.55,0,0,0,135.52,96.35Z"/><path d="M147.24,89.63a8.69,8.69,0,0,1-3.52-2,12,12,0,0,0-4.19-1.9,27.64,27.64,0,0,0-9.21-.19,1.54,1.54,0,0,0-1.5,1.5,1.51,1.51,0,0,0,1.5,1.5c2.86-.28,5.86-.59,8.67.15a10.39,10.39,0,0,1,3.63,1.84,9.15,9.15,0,0,0,3.82,2,1.56,1.56,0,0,0,1.85-1A1.52,1.52,0,0,0,147.24,89.63Z"/><path d="M107.47,85.13a27.64,27.64,0,0,0-9.21.2,12,12,0,0,0-4.08,1.82C93,88,92,89,90.55,89.24a1.51,1.51,0,0,0-1,1.84,1.53,1.53,0,0,0,1.85,1,8.76,8.76,0,0,0,3.71-1.93,11,11,0,0,1,3.74-1.92c2.81-.74,5.81-.43,8.67-.15a1.51,1.51,0,0,0,1.5-1.5A1.54,1.54,0,0,0,107.47,85.13Z"/></g></svg>