<svg xmlns="http://www.w3.org/2000/svg" viewBox="0 0 235 235"><g id="eyes-7"><path d="M101,94.83a8.45,8.45,0,0,0-6.91,5.45,1.52,1.52,0,0,0,1,1.85,1.54,1.54,0,0,0,1.85-1,6,6,0,0,1,.65-1.17,6.24,6.24,0,0,1,1.09-1.09l.24-.15a3.59,3.59,0,0,0,.47,2,3.15,3.15,0,0,0,.6.76,2.34,2.34,0,0,0,.27.2c.06.13.12.26.19.38a1.5,1.5,0,0,0,.89.69,1.52,1.52,0,0,0,1.16-.15,1.67,1.67,0,0,0,.49-.5c.12,0,.23-.08.35-.14a3.08,3.08,0,0,0,1.32-1.33,3.7,3.7,0,0,0,.43-1.59,4.93,4.93,0,0,1,1.11,1.25c1,1.63,3.62.12,2.6-1.52A8.37,8.37,0,0,0,101,94.83Z"/><path d="M136,94.83a8.36,8.36,0,0,0-7.85,3.91c-1,1.64,1.57,3.15,2.59,1.52A5.11,5.11,0,0,1,131.86,99a3,3,0,0,0,.17.95,3.16,3.16,0,0,0,.42.89,3.7,3.7,0,0,0,.92.93,2.19,2.19,0,0,0,.59.3,1.3,1.3,0,0,0,.5.49,1.52,1.52,0,0,0,2-.54,2.26,2.26,0,0,0,.17-.35,2.73,2.73,0,0,0,.5-.46,3.84,3.84,0,0,0,.69-1.21,3.13,3.13,0,0,0,.19-1c0-.1,0-.19,0-.29a5.33,5.33,0,0,1,2,2.4,1.54,1.54,0,0,0,1.85,1,1.52,1.52,0,0,0,1-1.85A8.4,8.4,0,0,0,136,94.83Z"/><path d="M111.06,83.89c-2.23-.6-4.62-1.54-7-1.58a24.14,24.14,0,0,0-6.79,1.39c-4,1.16-7.87,3.09-10.21,6.7-1,1.63,1.55,3.14,2.59,1.52,2-3,5.44-4.5,8.81-5.44a20.78,20.78,0,0,1,5.6-1.17c2,0,4.21,1,6.16,1.47A1.5,1.5,0,0,0,111.06,83.89Z"/><path d="M150.35,90a26.6,26.6,0,0,0-26.08-6.6c-1.85.55-1.06,3.44.79,2.89a23.58,23.58,0,0,1,23.17,5.83A1.5,1.5,0,0,0,150.35,90Z"/></g></svg>