<svg xmlns="http://www.w3.org/2000/svg" viewBox="0 0 235 235"><g id="eyes-3"><path d="M93.34,90.78a1.5,1.5,0,0,0,2.59,1.51c2.35-3.5,8-4.45,11.3-1.88a1.54,1.54,0,0,0,2.12,0,1.51,1.51,0,0,0,0-2.12A11.26,11.26,0,0,0,93.34,90.78Z"/><path d="M140.56,92.22a11.46,11.46,0,0,0-14.26-4.39,1.5,1.5,0,0,0-.53,2,1.53,1.53,0,0,0,2,.54l.17-.07.39-.14c.26-.08.52-.15.79-.21a5.56,5.56,0,0,1,1.38-.16,7.84,7.84,0,0,1,2.92.42,8.75,8.75,0,0,1,2.6,1.35l.18.14.31.27a7.66,7.66,0,0,1,.57.57,5.77,5.77,0,0,1,.84,1.15A1.5,1.5,0,0,0,140.56,92.22Z"/><path d="M131.69,96.5a1.51,1.51,0,0,0-1.31.38,6.05,6.05,0,0,0-1.87,2.57,3.24,3.24,0,0,0,.78,3.28,2.81,2.81,0,0,0,1.8.73,3.17,3.17,0,0,0,1.59-.39,3.48,3.48,0,0,0,1.21-1.11,3.3,3.3,0,0,0,.53-1.67,4.73,4.73,0,0,0-1.4-3.41A1.49,1.49,0,0,0,131.69,96.5Z"/><path d="M104.88,97.68a3.08,3.08,0,0,0-1.74-1,3.88,3.88,0,0,0-1.48,0,3.66,3.66,0,0,0-2.6,2.47,1.46,1.46,0,0,0,.41,1.48,3.66,3.66,0,0,0,.26.86,3,3,0,0,0,1.71,1.49,3.34,3.34,0,0,0,2,.07,3.12,3.12,0,0,0,2.36-3.23,4,4,0,0,0-.29-1.18A3.63,3.63,0,0,0,104.88,97.68Zm-2.11,2.41v0l-.05,0-.1,0a.33.33,0,0,1-.14,0h0v-.08a.3.3,0,0,1,0-.1l0,0,.06-.07a.72.72,0,0,0,.15-.11.41.41,0,0,1,0,.09l0,.13Z"/></g></svg>