<svg xmlns="http://www.w3.org/2000/svg" viewBox="0 0 235 235"><g id="eyes-2"><path d="M110.37,82.91c-3-1.16-6.34.73-9.06,1.77q-4.73,1.81-9.41,3.73a1.53,1.53,0,0,0-1,1.84,1.5,1.5,0,0,0,1.84,1q4.36-1.78,8.77-3.48c1.43-.55,2.85-1.11,4.29-1.63a5.27,5.27,0,0,1,3.81-.38,1.52,1.52,0,0,0,1.85-1A1.54,1.54,0,0,0,110.37,82.91Z"/><path d="M146.93,88.36l-10.51-4.15c-2.79-1.1-6.06-2.17-8.6.07-1.45,1.27.68,3.39,2.12,2.12a3.16,3.16,0,0,1,2.84-.28,32.5,32.5,0,0,1,4.14,1.5l9.21,3.63a1.51,1.51,0,0,0,1.85-1A1.53,1.53,0,0,0,146.93,88.36Z"/><path d="M103.24,96.74a3.18,3.18,0,0,0-2.48.35,3.1,3.1,0,0,0-1.29,4.13,2.81,2.81,0,0,0,0,.29,3.1,3.1,0,0,0,.67,1.88,2.06,2.06,0,0,0,1.7.66,2.85,2.85,0,0,0,1.07-.3,3.3,3.3,0,0,0,.7-.47l0,0a1.56,1.56,0,0,0,.72-.8,6.5,6.5,0,0,0,.65-1.22,3.87,3.87,0,0,0,.19-2.42A3,3,0,0,0,103.24,96.74Z"/><path d="M135.63,96.74a3.17,3.17,0,0,0-2.48.35,3.24,3.24,0,0,0-1.54,2,3.19,3.19,0,0,0,.25,2.12,2.81,2.81,0,0,0,0,.29,3.1,3.1,0,0,0,.67,1.88,2.05,2.05,0,0,0,1.7.66,2.91,2.91,0,0,0,1.07-.3,3.57,3.57,0,0,0,.7-.47s0,0,.05,0a1.54,1.54,0,0,0,.71-.8,6.55,6.55,0,0,0,.66-1.22,3.87,3.87,0,0,0,.19-2.42A3,3,0,0,0,135.63,96.74Z"/></g></svg>