<svg xmlns="http://www.w3.org/2000/svg" viewBox="0 0 235 235"><g id="eyes-4"><path d="M111.52,89.17a61.64,61.64,0,0,1-13-1.07,1.55,1.55,0,0,0-1.84,1.05,1.51,1.51,0,0,0,1,1.84,65.07,65.07,0,0,0,13.79,1.18C113.45,92.13,113.45,89.13,111.52,89.17Z"/><path d="M139.6,89.27a26.93,26.93,0,0,1-12,.94,1.55,1.55,0,0,0-1.85,1,1.51,1.51,0,0,0,1,1.85,30.52,30.52,0,0,0,13.63-.93C142.24,91.6,141.45,88.7,139.6,89.27Z"/><path d="M135.46,100.31a1.46,1.46,0,0,0-1.15.15,1.75,1.75,0,0,0-.46.44,1.33,1.33,0,0,0-.56-.3,1.43,1.43,0,0,0-1.16.15,3.83,3.83,0,0,0-.92.92,3.09,3.09,0,0,0-.41.86,3.9,3.9,0,0,0-.08,2,4.12,4.12,0,0,0,2,2.82,3.34,3.34,0,0,0,3.88-.47,4.11,4.11,0,0,0,1.23-3.11,4,4,0,0,0-.54-2A3.44,3.44,0,0,0,135.46,100.31Z"/><path d="M106.91,101.29a2.58,2.58,0,0,0-.44-.22,2,2,0,0,0-.49-.17,2.89,2.89,0,0,0-1.4,0l-.37.17a1.13,1.13,0,0,0-.3-.24,1.52,1.52,0,0,0-2,.54,4.14,4.14,0,0,0-.53,2.23,4.26,4.26,0,0,0,.21,1.12,4.41,4.41,0,0,0,.72,1.29,3.38,3.38,0,0,0,1.81,1.13,3.62,3.62,0,0,0,2.16-.1,3.25,3.25,0,0,0,1.83-1.55,3.35,3.35,0,0,0,.22-2.35A3.43,3.43,0,0,0,106.91,101.29Z"/></g></svg>