<svg xmlns="http://www.w3.org/2000/svg" viewBox="0 0 235 235"><g id="nose-5"><path d="M115.1,114.44a4.82,4.82,0,0,0,1.31,7.43,5.46,5.46,0,0,0,4.39.19,6,6,0,0,0,3.42-3.41,7.35,7.35,0,0,0,.12-5,1.5,1.5,0,1,0-2.89.79c.08.26.15.53.21.79l0,.21c0,.29,0-.1,0-.1a2.22,2.22,0,0,1,0,.46,7.4,7.4,0,0,1,0,.82c0,.21.06-.3,0-.1a1.18,1.18,0,0,1,0,.2,3.63,3.63,0,0,1-.1.45l-.12.38c0,.06-.06.13-.08.19s.15-.31,0-.08a6.15,6.15,0,0,1-.44.73c-.11.17.19-.21,0-.06a.86.86,0,0,1-.13.14,3.31,3.31,0,0,1-.26.27l-.14.12c-.12.11.12-.09.12-.09a3.42,3.42,0,0,0-.4.26l-.33.17c-.19.09,0-.07.1,0a.75.75,0,0,0-.18.07l-.36.1-.18.05c-.06,0-.32,0-.07,0s-.11,0-.17,0h-.56c-.25,0,.1,0,.13,0-.15,0-.3,0-.45-.1l-.18,0c-.17-.06,0-.08.11,0-.06-.07-.25-.12-.33-.17s-.33-.25-.14-.08l-.16-.15c-.08-.08-.14-.18-.22-.25.22.18.15.22.08.1l-.09-.14a2.69,2.69,0,0,1-.16-.29c-.12-.2,0,.1,0,.13s-.06-.16-.09-.24l-.09-.32,0-.16c-.07-.3,0,.37,0,.07a2.41,2.41,0,0,1,0-.38v-.16c0-.26,0,0,0,.11a2.48,2.48,0,0,0,.1-.39l0-.12c.08-.25,0,0,0,.1a2.08,2.08,0,0,0,.2-.36c.08-.13.11,0-.08.11a1.37,1.37,0,0,0,.16-.18,1.52,1.52,0,0,0,0-2.13,1.54,1.54,0,0,0-2.12,0Z"/></g></svg>