<svg xmlns="http://www.w3.org/2000/svg" viewBox="0 0 235 235"><g id="nose-4"><path d="M116.9,92.3a11.3,11.3,0,0,0,2.79,8.37c.88,1,2.18,1.93,2.52,3.29s.11,2.8.85,4.18a13.87,13.87,0,0,0,2.18,2.77,4.94,4.94,0,0,1,1.61,2.58c.12,1.28-1.08,2.28-2.17,2.68-1.74.63-3.76.11-5.49-.28s-2.68,2.47-.8,2.89c3.45.79,7.51,1.29,10.11-1.69,2.23-2.55,1.31-5.52-.71-7.83-.83-.94-2-1.87-2.34-3.11a19.7,19.7,0,0,1-.26-2.54,6,6,0,0,0-1-2.41c-1-1.36-2.34-2.36-3.19-3.81a8.45,8.45,0,0,1-1.08-5.09c.15-1.93-2.85-1.92-3,0Z"/></g></svg>