<svg xmlns="http://www.w3.org/2000/svg" viewBox="0 0 235 235"><g id="nose-8"><path d="M114.31,101.12a30.73,30.73,0,0,1,.63,8.23c-.3,3.08-1.77,5.2-4,7.21-2.08,1.84-4.34,4-4.34,7a4.86,4.86,0,0,0,4.46,5c1.93.11,1.93-2.89,0-3-.93-.06-1.45-1.12-1.46-2a4.89,4.89,0,0,1,1.58-3.16c1.82-2,4.08-3.39,5.34-5.82,2.31-4.41,1.55-9.61.72-14.3-.33-1.9-3.22-1.09-2.89.8Z"/><path d="M127.6,126.77a4.36,4.36,0,0,0,2.77-3.27,5.27,5.27,0,0,0-.73-4,4.38,4.38,0,0,0-2.17-1.64,1.5,1.5,0,0,0-1.84,1.05,1.53,1.53,0,0,0,1,1.84c.35.12-.28-.14-.06,0a1.29,1.29,0,0,1,.16.09l.21.13c.2.13-.28-.25-.12-.09l.3.3c.16.17-.24-.35,0-.06l.09.15.12.22c.12.25,0-.06,0-.14a2,2,0,0,0,.14.41c0,.14.06.29.09.43-.12-.56,0,0,0,.14a3.27,3.27,0,0,1,0,.44c0,.31.07-.38,0-.12,0,.07,0,.14,0,.21a3.31,3.31,0,0,1-.12.42c0,.13-.18.34,0-.1l-.09.19c-.07.13-.15.24-.23.36s.29-.32.07-.09l-.15.15s-.11.09-.15.14l.16-.12-.08.05c-.13.09-.64.3-.12.09a1.65,1.65,0,0,0-.89.69,1.5,1.5,0,0,0,1.69,2.2Z"/></g></svg>