<svg xmlns="http://www.w3.org/2000/svg" viewBox="0 0 235 235"><g id="accessory-1"><path d="M67.27,54.06c6.62-3.88,14-5,21-4.74s14,1.84,20.94,3.13c12.76,2.37,25.86,3.8,37.64,9.74,3.7,1.86,9.27,3.43,11.65,7.37,1.75-10-2-16.31-2-26.4a5.64,5.64,0,0,0-.24-2c-.33-.87-.92-4.21-1.61-4.64A287.07,287.07,0,0,0,126.94,21a33.31,33.31,0,0,0-7.23-1.75c-1.82-.22-5.27-.87-7.16-.7-19.17,1.73-20.61,2.79-33.76,8.85a8.16,8.16,0,0,0-2.64,1.24c-1.18,1.13-1.57,3.08-1.87,4.86-1.15,6.75-6.37,13.37-7.52,20.13" fill="#00204a"/><path d="M158.54,69.56c-14.49,2.09-33.4-2.26-48-3.14-10.76-.65-21.53-1.36-32.18-3-13.11-2-18.1-.6-27.64-9.81a12.14,12.14,0,0,1-3.26-4.53c9.87,2.68,11.11.64,20.72,4.15L93.83,38l65.1,28.47Z" fill="#00204a"/><path d="M118.4,46a7.84,7.84,0,0,0-2.94-2.48l.31,2.36c1.86-1.46,2.47-4,2.62-6.25A11,11,0,0,0,116.84,33c-2.38-3.68-7.92-5.15-11.27-1.84-1.37,1.36.75,3.48,2.13,2.12,2.07-2.05,5.48-.67,6.78,1.61a8.45,8.45,0,0,1,.92,4.64,5.64,5.64,0,0,1-1.75,4.24,1.5,1.5,0,0,0,.3,2.35c.26.12.53.24.78.38l.33.2c-.17-.11-.1-.09,0,0,.43.45.81.93,1.21,1.4a1.51,1.51,0,0,0,2.12,0,1.53,1.53,0,0,0,0-2.12Z" fill="#fff"/><path d="M109.16,46a4.37,4.37,0,0,1-4.87.42,5,5,0,0,1-2.23-4.56,12.39,12.39,0,0,1,.38-3.09,17.33,17.33,0,0,0,.84-3.16c.11-1.64-1.14-3.05-2.1-4.25a1.5,1.5,0,0,0-2.12,0,1.53,1.53,0,0,0,0,2.12l0,.06.26.35c.24.33.47.66.69,1,.51.82-.16,1.81-.4,2.66a12.78,12.78,0,0,0-.14,7.4,7.31,7.31,0,0,0,11.16,3.63,1.54,1.54,0,0,0,.53-2.06,1.5,1.5,0,0,0-2-.53Z" fill="#fff"/><path d="M108.69,38.88l-.9.67.76-.2h0l.4.06a.83.83,0,0,1-.21-.06l.36.15a.72.72,0,0,1-.21-.12l.3.23a1.7,1.7,0,0,1-.19-.19l.24.3a1.09,1.09,0,0,1-.14-.23l.15.36a1.25,1.25,0,0,1-.07-.26l0,.4a.81.81,0,0,1,0-.22l0,.4a.48.48,0,0,1,0-.17l-.16.35.08-.13-.23.31a.52.52,0,0,1,.1-.11l-.3.23.1-.06-.36.15a.5.5,0,0,1,.13,0l-.4,0h.16l-.4,0,.17,0-.35-.15.2.11-.31-.23a.81.81,0,0,1,.16.16l-.23-.3.09.14-.15-.35a.5.5,0,0,1,0,.13l-.05-.4V40l.05-.4a.23.23,0,0,1,0,.11l.16-.36-.06.09.24-.31,0,0a1.08,1.08,0,0,0-.31.48,1.36,1.36,0,0,0,0,1.16,1.14,1.14,0,0,0,.31.48,1.5,1.5,0,0,0,1.06.44l.4-.05a1.59,1.59,0,0,0,.66-.39l0,0a2.69,2.69,0,0,0,.26-.33l0,0a3.2,3.2,0,0,0,.16-.39,1.39,1.39,0,0,0,.08-.57,3,3,0,0,0-.06-.43.09.09,0,0,0,0-.05,2.14,2.14,0,0,0-.18-.44.41.41,0,0,0,0-.09,3.37,3.37,0,0,0-.28-.38,2.76,2.76,0,0,0-.46-.37.72.72,0,0,0-.19-.11,2.39,2.39,0,0,0-.44-.18,2.78,2.78,0,0,0-.49-.08h-.15a3.47,3.47,0,0,0-.45.06,1.55,1.55,0,0,0-.53.23,2.14,2.14,0,0,0-.68.69,2.18,2.18,0,0,0-.32,1.18,4.13,4.13,0,0,0,.07.49.79.79,0,0,0,0,.13c0,.09.07.19.11.28a2.55,2.55,0,0,0,.13.29l.07.11c.1.13.2.27.31.39l.09.09a3.68,3.68,0,0,0,.39.3l.13.08a3.85,3.85,0,0,0,.47.19,1.91,1.91,0,0,0,.33.06l.22,0a1.27,1.27,0,0,0,.58-.13.48.48,0,0,0,.19-.09l.1-.07.78-.59a1,1,0,0,0,.42-.39,1,1,0,0,0,.27-.51,1.08,1.08,0,0,0,0-.59,1.12,1.12,0,0,0-.18-.56,1.52,1.52,0,0,0-.9-.69l-.39,0a1.44,1.44,0,0,0-.76.2Z" fill="#00bbf0"/><path d="M70.18,53c1.14-6.35,4.41-12,5.83-18.3a39.55,39.55,0,0,1,.91-4.19A3.71,3.71,0,0,1,77.8,29a5.14,5.14,0,0,1,2-.85,12.55,12.55,0,0,0,1.4-.75,62.34,62.34,0,0,1,22-6.9,56,56,0,0,1,32.61,5.8,72.89,72.89,0,0,1,17.38,12.39c.32.32.62.68,1,1,.59.51,1.25.69,1.49,1.51a11,11,0,0,1,.07,2.63,48.84,48.84,0,0,0,.44,5.13c.87,6.59,2.67,12.92,1.55,19.62l2.74-.36a9.43,9.43,0,0,0-3.15-3.34,20.19,20.19,0,0,0-3.71-1.39,15.31,15.31,0,0,0-2.47-.91c-1.76-.29-3.54-.49-5.31-.73L123,58.66,94.64,54.72l-21.29-3c-1.35-.19-2.78-.27-4.12-.57a21,21,0,0,1-2-.68,36.91,36.91,0,0,0-4.94-1.27c-2.71-.49-5.47-.56-8.19-1A54.87,54.87,0,0,1,48.41,47c-1-.28-2.26.74-1.84,1.84,1.35,3.56,4.48,6.21,7.42,8.48a26.22,26.22,0,0,0,7.38,4.11,38,38,0,0,0,7.92,1.64c3.4.43,6.8.81,10.19,1.31,9.43,1.39,18.93,2.11,28.43,2.7,8.2.51,16.3,1.58,24.45,2.56,9,1.08,18.13,2,27.14.72,1.91-.26,1.1-3.15-.8-2.89-7.57,1.06-15.35.39-22.91-.44-7.8-.85-15.55-2.1-23.38-2.67-9-.65-18-1.1-26.95-2.18-4-.48-7.94-1.14-11.92-1.61-2.71-.32-5.44-.57-8.11-1.13a22.93,22.93,0,0,1-7.71-3.12A33.89,33.89,0,0,1,53.49,53c-1.56-1.42-3.26-2.94-4-5l-1.84,1.84a59.6,59.6,0,0,0,9.94,1.74,39.9,39.9,0,0,1,8.64,1.68,16.28,16.28,0,0,0,2.69.81l2,.28,19.19,2.66L117.9,61l24.28,3.37,6.93,1a12.08,12.08,0,0,1,1.47.2,2.6,2.6,0,0,1,.47.18c1.3.55,2.65.9,3.95,1.42a5.86,5.86,0,0,1,2.81,2.62c.62,1,2.51,1,2.74-.36a34.91,34.91,0,0,0,.3-9.63c-.32-3-.93-5.87-1.43-8.81-.25-1.48-.47-3-.6-4.47-.15-1.75,0-3.53-.2-5.27a4.75,4.75,0,0,0-2.09-3.48,4.33,4.33,0,0,1-.47-.33c-1.64-1.46-3.17-3-4.88-4.43a79.18,79.18,0,0,0-10.52-7.38,59.56,59.56,0,0,0-33.31-8.42,67,67,0,0,0-26.56,7.08c-.7.36-1.39.83-2.11,1.15A10.06,10.06,0,0,0,76,26.61a7.48,7.48,0,0,0-2.21,4.06c-.41,1.72-.65,3.47-1.13,5.17s-1.2,3.65-1.88,5.44a61.9,61.9,0,0,0-3.46,10.95c-.34,1.88,2.55,2.69,2.89.79Z"/></g></svg>