<svg xmlns="http://www.w3.org/2000/svg" viewBox="0 0 235 235"><g id="accessory-2"><path d="M79.13,89.59a52.46,52.46,0,0,0,1.19,8,6.23,6.23,0,0,0,4.28,4.57,35.69,35.69,0,0,0,8.5,1,38.57,38.57,0,0,0,9-.52c3.4-.75,4-4.45,4.52-7.35a33.35,33.35,0,0,0,.76-9.34c-.14-1.3-.47-2.79-1.73-3.46s-2.93-.52-4.2-.62c-1.7-.14-3.41-.18-5.12-.16-1.93,0-1.93,3,0,3a52.77,52.77,0,0,1,7.44.4c.5.07.72.26.32-.1.11.1,0-.18.07.1,0-.08,0,.06.1.3s.11.5.12.54a25.38,25.38,0,0,1-.45,7.37c-.18,1.12-.39,2.25-.64,3.36a6,6,0,0,1-.93,2.51c-.61.74-1.89.67-2.77.76-1.23.11-2.46.19-3.69.22a53.64,53.64,0,0,1-7.39-.35A10.11,10.11,0,0,1,84.63,99a3.57,3.57,0,0,1-1.42-2.16,47.28,47.28,0,0,1-1.08-7.22,1.54,1.54,0,0,0-1.5-1.5,1.5,1.5,0,0,0-1.5,1.5Z"/><path d="M127,82.66a40.39,40.39,0,0,0-6.78,0,4.36,4.36,0,0,0-2.62.71,2.92,2.92,0,0,0-.78,2.37c0,3.08-.21,6.31.71,9.3,1.11,3.56,3.78,5.49,7.41,6.12a52.54,52.54,0,0,0,6.87.51c2.35.1,4.71.27,7.06.29s3.62-1.46,4.15-3.66a26.93,26.93,0,0,0,.71-7.54c-.09-1.92-3.09-1.93-3,0a23.85,23.85,0,0,1-.55,6.53c-.25,1.07-.31,1.69-1.5,1.67s-2.21-.09-3.32-.14c-2.33-.1-4.66-.17-7-.3-2-.11-4.45-.25-6.14-1.49-2.36-1.73-2.41-5.46-2.44-8.09,0-.75,0-1.49,0-2.24a4.42,4.42,0,0,0,0-1.09c.06-.41-.07-.37-.4.13l.58-.06a40.91,40.91,0,0,1,7,0c1.93.17,1.91-2.83,0-3Z"/><path d="M143.24,91q7.35-5.37,15.06-10.22c1.62-1,.12-3.62-1.52-2.59Q149.09,83,141.72,88.39a1.54,1.54,0,0,0-.53,2,1.51,1.51,0,0,0,2.05.54Z"/><path d="M81.48,88.08A22.59,22.59,0,0,0,77,81.42a23.8,23.8,0,0,1-4.44-6,1.5,1.5,0,0,0-2.59,1.52,24.73,24.73,0,0,0,4.54,6.22,20.3,20.3,0,0,1,4.11,5.75,1.55,1.55,0,0,0,1.85,1,1.5,1.5,0,0,0,1-1.84Z"/><path d="M106.78,91.93a13.94,13.94,0,0,1,10.9-.89,1.52,1.52,0,0,0,1.85-1,1.54,1.54,0,0,0-1-1.85,16.9,16.9,0,0,0-13.21,1.19,1.51,1.51,0,0,0-.54,2,1.53,1.53,0,0,0,2,.54Z"/></g></svg>