<svg xmlns="http://www.w3.org/2000/svg" viewBox="0 0 235 235"><g id="body-1"><path d="M23.79,208.44c6.56,1.38,11.7,6.58,18,8.82,1.54.55,4.42-2.25,5.72-1.25,4.66,3.59,4.17,12.66,3.24,18.47h127c.37-5.22-1.77-6.55-1.4-11.76.1-1.41.26-3,1.27-3.95a5.85,5.85,0,0,1,3.15-1.25,242.22,242.22,0,0,1,25.46-3.19c-.07-11.3-3.5-22.27-6.9-33a13.65,13.65,0,0,0-1.88-4.23c-2.26-3-6.42-3.59-10.14-4.1a161.32,161.32,0,0,1-37-9.59,5.46,5.46,0,0,0-3.75-.52,5.21,5.21,0,0,0-2.23,2c-2.35,3.22-4.61,6.58-7.69,9.11-4.66,3.83-10.77,5.43-16.77,6-6.6.62-13.46.06-19.46-2.77s-11-8.16-12.42-14.64L46.2,174.38A23.21,23.21,0,0,0,40,176.79a23.82,23.82,0,0,0-5.3,5.12c-6.16,7.37-12.66,15.61-12.62,25.22" fill="#91a3b0"/><path class="skin-tone" d="M89.07,138.23c-.58,7.14.68,12.22.1,19.36a9.64,9.64,0,0,0,.21,3.9c.64,1.9,2.47,6.78,3.23,8.7,4.11,10.44,18.74,10.57,23.91,10.43,11.13-.29,23.48-7.4,27.79-15.73.34-.66-2.42-2.88-2.08-3.62.42-.89-1.79-3-1.89-4-.84-7.95-1.37-7.5-2.16-17.08" fill="#f5c399"/><path class="skin-tone" d="M205.39,211.17c.32,6.69,2.51,16.61,2.83,23.31-9.22-.1-20.32-.47-29.53,0-.07-4.31-.14-11.27-.22-15.58" fill="#f5c399"/><path class="skin-tone" d="M23.47,211.17c-.32,6.69-3.34,16.1-3.65,22.79,9.21-.09,21.14,0,30.35.52.07-4.31.14-11.27.21-15.58" fill="#f5c399"/><path d="M89,160.05c-13.55,2.35-25.74,9.31-38.74,13.46a76.52,76.52,0,0,1-9.55,2.36,7.17,7.17,0,0,0-3.51,1.37,14,14,0,0,0-1.88,2.31c-1.36,1.91-2.53,3.93-3.8,5.89-1.48,2.28-3.09,4.46-4.62,6.69a30.09,30.09,0,0,0-3.55,6.58,33.42,33.42,0,0,0-1.73,9.19c-.14,1.92,2.86,1.91,3,0a26.79,26.79,0,0,1,4.23-13.31c1.35-2,2.81-4,4.18-6s2.57-4.08,3.9-6.09c.55-.82,1.1-1.65,1.72-2.41.79-1,1.45-1.05,2.86-1.31a77.75,77.75,0,0,0,9.15-2.24c6.21-1.95,12.21-4.52,18.25-6.95,6.77-2.72,13.66-5.38,20.89-6.64,1.9-.33,1.09-3.22-.8-2.89Z"/><path d="M141.84,162.71c11,1.71,21.66,5.53,32.35,8.65a152.48,152.48,0,0,0,15.49,3.88c1.24.22,2.5.35,3.72.65a4.68,4.68,0,0,1,3.15,2.68c1.22,2.25,2.29,4.61,3.33,7a105.46,105.46,0,0,1,5,15.22,1.5,1.5,0,0,0,2.89-.79,112.6,112.6,0,0,0-4.62-14.35c-1-2.28-2-4.52-3.11-6.74-1.33-2.7-2.72-5.09-5.85-5.86-2.52-.63-5.15-.89-7.69-1.47-2.81-.63-5.6-1.37-8.38-2.15-5.73-1.62-11.41-3.42-17.13-5.1a143.33,143.33,0,0,0-18.37-4.46c-1.89-.29-2.7,2.6-.79,2.89Z"/><path d="M173.06,204.34q2.33,14.41,3.2,29h3l-.15-1.23c-.24-1.89-3.24-1.92-3,0l.15,1.23c.23,1.87,3.12,2,3,0q-.91-15-3.31-29.82c-.31-1.9-3.2-1.1-2.89.8Z"/><path d="M179.57,219.07c8.45-1.61,16.58-4.42,25.09-5.75,1.9-.29,1.09-3.18-.8-2.89-8.51,1.32-16.64,4.14-25.08,5.74-1.9.37-1.1,3.26.79,2.9Z"/><path d="M22.26,210.66l19,6.77,4.64,1.65c.53.19,1.65.36,2,.79s.37,1.53.44,2.1c.43,3.43.71,6.88.88,10.33.09,1.92,3.09,1.93,3,0q-.27-5.67-1-11.31c-.2-1.56-.47-3-2-3.8a32.5,32.5,0,0,0-4.91-1.83l-21.33-7.59c-1.82-.65-2.61,2.25-.8,2.89Z"/><path d="M87.44,139.81a55.74,55.74,0,0,1,1.19,10,53.34,53.34,0,0,1-.19,10,1.55,1.55,0,0,0,1,1.84,1.51,1.51,0,0,0,1.84-1,57.51,57.51,0,0,0,.3-10.82A60.59,60.59,0,0,0,90.34,139c-.44-1.88-3.34-1.09-2.9.79Z"/><path d="M136.7,141.09a52.57,52.57,0,0,0,4.09,20.58,1.54,1.54,0,0,0,1.84,1,1.5,1.5,0,0,0,1.05-1.84,50.25,50.25,0,0,1-4-19.78c.05-1.93-2.95-1.93-3,0Z"/><path d="M22.36,210a85.88,85.88,0,0,0-1.94,11.38,83,83,0,0,0-.66,11.47c0,1.92,3,1.93,3,0a99.12,99.12,0,0,1,2.49-22.05c.48-1.87-2.41-2.67-2.89-.8Z"/><path d="M204.18,212.33a81.4,81.4,0,0,1,1.65,10.41,83.9,83.9,0,0,1,.68,10.62c0,1.94,3,1.94,3,0a86.8,86.8,0,0,0-.71-10.92,89.07,89.07,0,0,0-1.72-10.91c-.46-1.87-3.35-1.08-2.9.8Z"/><path d="M87.23,161.46c-.13,5.08,3.17,9.24,6.15,13a21.24,21.24,0,0,0,5.09,4.92,17,17,0,0,0,7.44,2.17,63.87,63.87,0,0,0,16.46,0A37.43,37.43,0,0,0,137,175.57c4.48-2.92,10.1-7,8.52-13.17a1.5,1.5,0,0,0-2.89.79c1.17,4.58-3.94,7.7-7.15,9.79a35.84,35.84,0,0,1-12.55,5.52c-4.77.94-9.72.68-14.54.3a23.94,23.94,0,0,1-6.67-1.1A12.64,12.64,0,0,1,96.82,174c-3-3.38-6.71-7.73-6.59-12.49,0-1.93-3-1.93-3,0Z"/></g></svg>