<svg xmlns="http://www.w3.org/2000/svg" viewBox="0 0 235 235"><g id="body-2"><path d="M33.79,209c6.56,1.37,11.7,6.57,18,8.82,1.54.55,4.42-2.25,5.72-1.26,4.66,3.59,4.17,12.66,3.24,18.47h107c.37-5.21-1.77-6.54-1.4-11.76.1-1.41.26-3,1.27-4a5.85,5.85,0,0,1,3.15-1.25,244.89,244.89,0,0,1,25.46-3.19c-.07-11.29-3.5-22.26-6.9-33-.46-1.47-2.52-1.66-3.45-2.89a21.91,21.91,0,0,0-9.67-7c-12.65-4.28-14-3.35-25.93-8a5.46,5.46,0,0,0-3.75-.52,5.23,5.23,0,0,0-2.23,2c-2.35,3.22-4.61,6.57-7.69,9.1-4.66,3.83-10.77,5.43-16.77,6-6.6.61-13.46,0-19.46-2.78s-11-8.16-12.42-14.64c-13.92,3.93-16.9,4.13-30.82,8.06-2.15.6-5.27,5-7.16,6.15a23.65,23.65,0,0,0-5.3,5.13c-6.16,7.36-7.6,16.61-12.62,25.21" fill="#91a3b0"/><path class="skin-tone" d="M89.07,138.76c-.58,7.13.68,12.22.1,19.35a9.7,9.7,0,0,0,.21,3.91c.64,1.89,2.47,6.77,3.23,8.69,4.11,10.44,18.74,10.57,23.91,10.44,11.13-.3,23.48-7.4,27.79-15.73.34-.67-2.42-2.89-2.08-3.63s-1.79-3-1.89-4c-.84-8-1.37-7.5-2.16-17.07" fill="#f5c399"/><path class="skin-tone" d="M195.39,211.69c.32,6.7,2.51,16.61,2.83,23.31-9.22-.09-20.32-.46-29.53,0-.07-4.3-.14-11.27-.22-15.57" fill="#f5c399"/><path class="skin-tone" d="M33.47,211.69c-.32,6.7-3.34,16.1-3.65,22.8,9.21-.1,21.14,0,30.35.51.07-4.3.14-11.27.21-15.57" fill="#f5c399"/><path d="M89.38,163.52a1.5,1.5,0,0,0,0-3,1.5,1.5,0,0,0,0,3Z"/><path d="M163.06,204.86q2.33,14.43,3.2,29h3l-.15-1.24c-.24-1.89-3.24-1.91-3,0l.15,1.24c.23,1.86,3.12,2,3,0q-.91-15-3.31-29.83c-.31-1.9-3.2-1.09-2.89.8Z"/><path d="M169.57,219.59c8.45-1.61,16.58-4.42,25.09-5.74,1.9-.3,1.09-3.19-.8-2.9-8.51,1.33-16.64,4.14-25.08,5.75-1.9.36-1.1,3.25.79,2.89Z"/><path d="M87.44,140.34a55.53,55.53,0,0,1,1.19,10,53.25,53.25,0,0,1-.19,10,1.55,1.55,0,0,0,1,1.84,1.49,1.49,0,0,0,1.84-1,57.54,57.54,0,0,0,.3-10.82,60.82,60.82,0,0,0-1.29-10.76c-.44-1.88-3.34-1.08-2.9.8Z"/><path d="M136.7,141.61a52.57,52.57,0,0,0,3.46,19c.44,1.19.73,2.42,2,2.74.69.17,1.39.3,2.08.46a181.35,181.35,0,0,1,19.31,5.44c7.33,2.53,15.27,5.53,21.17,10.71a16.86,16.86,0,0,1,3,3.3,15.18,15.18,0,0,1,1.91,5.1,183.33,183.33,0,0,1,3.77,18.74c.23,1.6.45,3.21.61,4.83s.58,3.06.84,4.59a96,96,0,0,1,1.6,17.41c0,1.93,3,1.93,3,0A93.92,93.92,0,0,0,198.43,220c-.41-3.13-1.13-6.11-1.43-8.78-.44-3.95-1.06-7.88-1.79-11.78q-.86-4.59-1.94-9.14a36.5,36.5,0,0,0-2-7.05c-2.7-5.74-9.25-9.34-14.7-12a127.77,127.77,0,0,0-21.12-7.74c-4.21-1.2-8.48-2.31-12.78-3.17l1.05,1a50.43,50.43,0,0,1-4-19.78c.05-1.93-2.95-1.93-3,0Z"/><path d="M32.36,210.47a86.16,86.16,0,0,0-1.94,11.38,83,83,0,0,0-.66,11.47c0,1.93,3,1.93,3,0a99.3,99.3,0,0,1,2.49-22c.48-1.87-2.41-2.67-2.89-.8Z"/><path d="M142.64,163.72c1.17,4.57-3.94,7.69-7.15,9.78A36,36,0,0,1,122.94,179c-4.77.94-9.72.68-14.54.3a24.32,24.32,0,0,1-6.67-1.11,12.45,12.45,0,0,1-4.91-3.75c-3-3.38-6.71-7.73-6.59-12.48a1.51,1.51,0,0,0-1.89-1.45A172.07,172.07,0,0,0,66,167.41a82.24,82.24,0,0,0-15.87,7.64,28.38,28.38,0,0,0-5.71,4.7c-2.09,2.34-3,5.15-4.24,8q-4.5,10.77-9,21.58a1.52,1.52,0,0,0,1,1.84l19,6.77,4.64,1.65c.53.19,1.65.36,2,.79s.37,1.53.44,2.11c.43,3.43.71,6.87.88,10.32.09,1.92,3.09,1.93,3,0q-.27-5.67-1-11.3c-.2-1.56-.47-3-2-3.81a33.62,33.62,0,0,0-4.91-1.83l-21.33-7.59,1,1.85q3.54-8.58,7.11-17.14,1.48-3.58,3-7.17a14.16,14.16,0,0,1,1.68-3.17,20.83,20.83,0,0,1,4.68-4.29,71,71,0,0,1,14.95-7.58c5-2,10.2-3.67,15.41-5.17,2.72-.79,5.45-1.55,8.2-2.19L87.23,162c-.13,5.08,3.17,9.24,6.15,13a20.86,20.86,0,0,0,5.09,4.92,17,17,0,0,0,7.44,2.18,64.77,64.77,0,0,0,16.46,0A37.44,37.44,0,0,0,137,176.09c4.48-2.92,10.1-7,8.52-13.17-.48-1.87-3.37-1.08-2.89.8Z"/></g></svg>