<svg xmlns="http://www.w3.org/2000/svg" viewBox="0 0 235 235"><g id="eyes-1"><path d="M91.38,89.26a4.63,4.63,0,0,0-.56,1.43,6.88,6.88,0,0,0-.1.9,5.22,5.22,0,0,0,.08,1l.15.36a1.13,1.13,0,0,0,.39.42,1.49,1.49,0,0,0,.91.33A6,6,0,0,0,97.77,90a2.28,2.28,0,0,0-.46-2.45,2.55,2.55,0,0,0-1.91-.74,3.6,3.6,0,0,0-2.89,2.31,5,5,0,0,0-.46,3,2.53,2.53,0,0,0,.75,1.35A2.44,2.44,0,0,0,95,94c1.29-.28,2-1.56,2.34-2.7a4,4,0,0,0,.2-2.16,2.63,2.63,0,0,0-1.23-1.68,3.26,3.26,0,0,0-3.83.66,5.75,5.75,0,0,0-1.18,3.93,1.5,1.5,0,0,0,1.5,1.5,1.52,1.52,0,0,0,1.5-1.5c0-.4,0-.81.07-1.21l0,.4a4,4,0,0,1,.27-1l-.15.36a2.12,2.12,0,0,1,.33-.56l-.24.3a2.54,2.54,0,0,1,.29-.28l-.3.23a3.18,3.18,0,0,1,.4-.23l-.36.15a2.83,2.83,0,0,1,.5-.13l-.4,0h.44l-.4,0a1.67,1.67,0,0,1,.32.08L94.65,90l.24.14-.3-.23a1.19,1.19,0,0,1,.2.19l-.23-.3a2,2,0,0,1,.14.25l-.15-.36a1.68,1.68,0,0,1,.09.32l-.06-.4a1.93,1.93,0,0,1,0,.48l.06-.4A5.23,5.23,0,0,1,94.26,91l.15-.36a3,3,0,0,1-.4.7l.24-.3a2.27,2.27,0,0,1-.31.31l.31-.24-.23.13.36-.15-.25.07.4-.06a1,1,0,0,1-.25,0l.4.06-.23-.07.36.16a1,1,0,0,1-.17-.1l.31.24a1.21,1.21,0,0,1-.16-.16l.23.31-.13-.23.15.35a1.82,1.82,0,0,1-.11-.4l.06.4a2.81,2.81,0,0,1,0-.71l0,.4a3.6,3.6,0,0,1,.26-1l-.16.36a5.3,5.3,0,0,1,.58-1l-.23.31a2.16,2.16,0,0,1,.39-.41l-.31.24a1.72,1.72,0,0,1,.37-.22l-.36.15a1.05,1.05,0,0,1,.24-.06l-.39,0a1.5,1.5,0,0,1,.3,0l-.39-.06a1.57,1.57,0,0,1,.29.08l-.36-.15a.94.94,0,0,1,.22.12l-.31-.24a.91.91,0,0,1,.17.17L95,89.39s0,.08.07.13l-.15-.36a1.21,1.21,0,0,1,0,.18l0-.39a.74.74,0,0,1,0,.21l0-.4a1.42,1.42,0,0,1-.12.4L95,88.8a3.55,3.55,0,0,1-.51.86l.24-.3a4.92,4.92,0,0,1-.79.79l.3-.23a4.9,4.9,0,0,1-1,.6l.35-.15a4.4,4.4,0,0,1-1.13.31l.4-.05c-.21,0-.41,0-.62,0l1.44,1.1V91.7l.06.39a3.54,3.54,0,0,1,0-.86l-.06.4a4.1,4.1,0,0,1,.23-.83l-.15.36a2.75,2.75,0,0,1,.2-.38,1.5,1.5,0,0,0-2.59-1.52Z"/><path d="M125.41,89.53a4.52,4.52,0,0,0-.55,1.43,6.7,6.7,0,0,0-.11.9,6.48,6.48,0,0,0,.09,1l.15.36a1.12,1.12,0,0,0,.39.42,1.48,1.48,0,0,0,.91.32,6,6,0,0,0,5.51-3.71,2.28,2.28,0,0,0-.45-2.45,2.53,2.53,0,0,0-1.91-.73,3.56,3.56,0,0,0-2.89,2.3,5,5,0,0,0-.46,3,2.52,2.52,0,0,0,.74,1.34,2.43,2.43,0,0,0,2.19.55c1.29-.28,1.95-1.56,2.34-2.69a4,4,0,0,0,.2-2.17,2.57,2.57,0,0,0-1.24-1.67,3.22,3.22,0,0,0-3.82.66,5.72,5.72,0,0,0-1.18,3.93,1.5,1.5,0,0,0,3,0,12.09,12.09,0,0,1,.07-1.21l0,.39a4.49,4.49,0,0,1,.26-1l-.15.36a2.7,2.7,0,0,1,.34-.56l-.24.3a2.57,2.57,0,0,1,.29-.28l-.3.24a1.6,1.6,0,0,1,.4-.23l-.36.15a2.11,2.11,0,0,1,.49-.14l-.39.06a1.62,1.62,0,0,1,.44,0l-.4-.06a1.68,1.68,0,0,1,.32.09l-.36-.15a1.19,1.19,0,0,1,.25.13l-.31-.23a1,1,0,0,1,.21.2l-.24-.31a1.28,1.28,0,0,1,.15.25l-.15-.36a1.92,1.92,0,0,1,.09.32l-.06-.4a1.93,1.93,0,0,1,0,.48l.06-.4a5.23,5.23,0,0,1-.38,1.28l.15-.36a3.81,3.81,0,0,1-.4.71l.23-.31a1.77,1.77,0,0,1-.3.31l.3-.24a1,1,0,0,1-.22.13l.36-.15a1,1,0,0,1-.25.07l.4-.05h-.25l.4.05a1.05,1.05,0,0,1-.24-.06l.36.15-.16-.09.3.23a.71.71,0,0,1-.15-.15l.23.3a1,1,0,0,1-.13-.23l.15.36a1.91,1.91,0,0,1-.11-.41l.06.4a2.81,2.81,0,0,1,0-.71l-.05.4a4,4,0,0,1,.25-1l-.15.36a4.74,4.74,0,0,1,.58-1l-.23.3a2.46,2.46,0,0,1,.38-.41l-.3.24a1.65,1.65,0,0,1,.36-.22l-.35.15.24-.06-.4.05a1.6,1.6,0,0,1,.31,0l-.4-.05a1.46,1.46,0,0,1,.3.07l-.36-.15a1.05,1.05,0,0,1,.21.12l-.3-.23a1.29,1.29,0,0,1,.17.16l-.23-.3.07.12-.15-.36a1.05,1.05,0,0,1,.05.19l-.05-.4v.21L129,89a1.59,1.59,0,0,1-.12.41l.15-.36a5,5,0,0,1-.51.86l.23-.31a4.49,4.49,0,0,1-.78.79l.3-.23a5,5,0,0,1-1,.6l.36-.15a4.87,4.87,0,0,1-1.13.32l.4-.06a4.4,4.4,0,0,1-.62,0l1.44,1.1V92l.06.4a3.54,3.54,0,0,1,0-.86l0,.4a3.93,3.93,0,0,1,.23-.83l-.15.36c.06-.14.12-.26.19-.39a1.51,1.51,0,0,0-.53-2.05,1.53,1.53,0,0,0-2.06.54Z"/><path d="M124.24,79.21c2.85-.28,5.86-.59,8.67.15a10.39,10.39,0,0,1,3.63,1.84,9,9,0,0,0,3.82,2,1.55,1.55,0,0,0,1.85-1,1.51,1.51,0,0,0-1.05-1.84,8.94,8.94,0,0,1-3.53-2,12.1,12.1,0,0,0-4.18-1.9,27.91,27.91,0,0,0-9.21-.19,1.54,1.54,0,0,0-1.5,1.5,1.51,1.51,0,0,0,1.5,1.5Z"/><path d="M101.38,75.82a27.65,27.65,0,0,0-9.21.19,12,12,0,0,0-4.08,1.82c-1.14.81-2.19,1.85-3.63,2.09a1.51,1.51,0,0,0-1,1.85,1.54,1.54,0,0,0,1.84,1A8.85,8.85,0,0,0,89,80.89,10.6,10.6,0,0,1,92.71,79c2.82-.74,5.82-.43,8.67-.15a1.51,1.51,0,0,0,1.5-1.5,1.53,1.53,0,0,0-1.5-1.5Z"/></g></svg>