<svg xmlns="http://www.w3.org/2000/svg" viewBox="0 0 235 235"><g id="eyes-2"><path d="M85.71,83c2.91-1.18,5.83-2.35,8.76-3.48,1.43-.55,2.86-1.11,4.29-1.63a5.3,5.3,0,0,1,3.82-.38,1.5,1.5,0,0,0,1.84-1,1.52,1.52,0,0,0-1-1.84c-2.94-1.16-6.34.72-9.05,1.76q-4.72,1.81-9.41,3.73a1.56,1.56,0,0,0-1,1.85,1.51,1.51,0,0,0,1.85,1Z"/><path d="M123,78.14a3.15,3.15,0,0,1,2.84-.28,32.37,32.37,0,0,1,4.13,1.5L139.14,83A1.51,1.51,0,0,0,141,82a1.54,1.54,0,0,0-1-1.85L129.42,76c-2.79-1.1-6.06-2.17-8.59.06-1.45,1.28.67,3.39,2.12,2.12Z"/><path d="M93.46,89.4a5.91,5.91,0,0,0-.91,2.39,6,6,0,0,0-.07,1.47,3,3,0,0,0,.67,1.87,2.08,2.08,0,0,0,1.69.67,3.28,3.28,0,0,0,1.07-.3,3.73,3.73,0,0,0,.7-.47A5,5,0,0,0,98,93a3.87,3.87,0,0,0,.2-2.42,3,3,0,0,0-2-2,3.2,3.2,0,0,0-2.49.36,3.3,3.3,0,0,0-1.54,2A3.73,3.73,0,0,0,96,95.17a1.5,1.5,0,0,0,0-3l-.34,0,.4,0a2.46,2.46,0,0,1-.59-.16l.36.15a2.59,2.59,0,0,1-.58-.34l.31.24a2.91,2.91,0,0,1-.43-.43l.23.3a3.59,3.59,0,0,1-.27-.47l.16.36a2.52,2.52,0,0,1-.13-.47l.06.4a1.48,1.48,0,0,1,0-.42l-.06.39a2,2,0,0,1,.1-.35l-.15.36a1.74,1.74,0,0,1,.23-.4l-.23.3a2,2,0,0,1,.33-.32l-.31.23a2.51,2.51,0,0,1,.45-.26l-.36.15a1.89,1.89,0,0,1,.48-.13l-.4,0a1.78,1.78,0,0,1,.4,0l-.4,0a1,1,0,0,1,.34.09l-.35-.15a1.28,1.28,0,0,1,.27.16l-.3-.24a1.85,1.85,0,0,1,.28.28l-.23-.3a2.75,2.75,0,0,1,.17.29l-.16-.36a1.57,1.57,0,0,1,.13.47l0-.4a2.52,2.52,0,0,1,0,.55l.05-.4a3.41,3.41,0,0,1-.23.83l.15-.36a3.87,3.87,0,0,1-.5.86l.24-.3a3.12,3.12,0,0,1-.54.55l.31-.23a3.26,3.26,0,0,1-.4.24l.36-.15-.31.09.39,0a1,1,0,0,1-.25,0l.4,0-.14,0,.36.15-.13-.07.3.23L95.27,93l.23.3a1.28,1.28,0,0,1-.11-.2l.15.36a2.86,2.86,0,0,1-.1-.42l.06.4a4.83,4.83,0,0,1,0-1.26l0,.4a5.25,5.25,0,0,1,.33-1.22l-.15.36a4.32,4.32,0,0,1,.44-.82,1.61,1.61,0,0,0,.15-1.16,1.57,1.57,0,0,0-.69-.89,1.54,1.54,0,0,0-2.06.54Z"/><path d="M125.85,89.4a5.91,5.91,0,0,0-.91,2.39,6.57,6.57,0,0,0-.08,1.47,3.09,3.09,0,0,0,.67,1.87,2.1,2.1,0,0,0,1.7.67,3.28,3.28,0,0,0,1.07-.3A3.73,3.73,0,0,0,129,95,5.23,5.23,0,0,0,130.42,93a3.8,3.8,0,0,0,.19-2.42,2.94,2.94,0,0,0-2-2,3.19,3.19,0,0,0-2.48.36,3.26,3.26,0,0,0-1.54,2,3.72,3.72,0,0,0,3.74,4.33,1.5,1.5,0,0,0,0-3l-.33,0,.4,0a2.46,2.46,0,0,1-.59-.16l.36.15a2.59,2.59,0,0,1-.58-.34l.3.24a2.44,2.44,0,0,1-.42-.43l.23.3a2.2,2.2,0,0,1-.27-.47l.15.36a1.91,1.91,0,0,1-.12-.47l0,.4a2,2,0,0,1,0-.42l-.06.39a1.4,1.4,0,0,1,.1-.35l-.15.36a1.74,1.74,0,0,1,.23-.4l-.23.3a1.44,1.44,0,0,1,.33-.32l-.31.23a2.82,2.82,0,0,1,.44-.26l-.36.15a2.09,2.09,0,0,1,.49-.13l-.4,0a1.78,1.78,0,0,1,.4,0l-.4,0a1,1,0,0,1,.34.09l-.36-.15a1.12,1.12,0,0,1,.28.16l-.31-.24a1.92,1.92,0,0,1,.29.28l-.24-.3a1.22,1.22,0,0,1,.17.29l-.15-.36a1.57,1.57,0,0,1,.13.47l-.06-.4a2.53,2.53,0,0,1,0,.55l.05-.4a3.41,3.41,0,0,1-.23.83l.15-.36a3.87,3.87,0,0,1-.5.86l.23-.3a3.06,3.06,0,0,1-.53.55l.3-.23a2.55,2.55,0,0,1-.39.24l.35-.15a1.58,1.58,0,0,1-.31.09l.4,0a1,1,0,0,1-.25,0l.4,0-.14,0,.36.15-.13-.07.3.23-.12-.11.24.3a.78.78,0,0,1-.11-.2l.15.36a2,2,0,0,1-.1-.42l.06.4a4.83,4.83,0,0,1,0-1.26l0,.4a5.23,5.23,0,0,1,.32-1.22l-.15.36a5,5,0,0,1,.44-.82,1.51,1.51,0,0,0,.15-1.16,1.49,1.49,0,0,0-.69-.89,1.53,1.53,0,0,0-2.05.54Z"/></g></svg>