<svg xmlns="http://www.w3.org/2000/svg" viewBox="0 0 235 235"><g id="face-1"><path class="skin-tone" d="M73.4,81.89a7.2,7.2,0,0,0-9.76-2.39,2.88,2.88,0,0,0-1.28,1.44,3.56,3.56,0,0,0-.08,1.42,21.27,21.27,0,0,0,1.22,6.08c2.27,5.73,10.75,10.88,12.86,16.67" fill="#f2be97"/><path d="M74.7,81.13a8.79,8.79,0,0,0-7-4.12c-2.72-.18-6.64,1.13-7,4.28a17,17,0,0,0,.57,5.21A14.69,14.69,0,0,0,63.11,91a39.91,39.91,0,0,0,5.82,6.83c2.22,2.27,4.82,4.67,6,7.7.69,1.78,3.59,1,2.9-.8-2.32-6-8.28-9.47-11.76-14.7a12.6,12.6,0,0,1-1.85-4.52,20.65,20.65,0,0,1-.42-3.13,1.57,1.57,0,0,1,1-1.81,5.73,5.73,0,0,1,7.3,2.1,1.5,1.5,0,0,0,2.59-1.52Z"/><path class="skin-tone" d="M154.93,81.55a12.41,12.41,0,0,1,4.08-2.7,5.17,5.17,0,0,1,4.72.46,5.37,5.37,0,0,1,1.66,2.29c1.24,3.12.28,6.76-1.64,9.51s-4.67,4.79-7.37,6.77l-4.18,3.06" fill="#f2be97"/><path d="M156,82.61c1.65-1.47,4.55-3.75,6.83-2.1s1.81,5.14,1,7.32a15.64,15.64,0,0,1-4.94,6.26c-2.36,2-4.94,3.73-7.42,5.55-1.54,1.13,0,3.74,1.51,2.59,5.64-4.13,13.27-8.44,14.35-16,.48-3.33-.58-7.49-4-8.8s-6.86.84-9.4,3.1c-1.44,1.29.68,3.41,2.12,2.12Z"/><path class="skin-tone" d="M151.37,126.23A213,213,0,0,0,153,76c-.62-7.76-1.27-1.27-1.38-8.89-.1-6.87-7.28-18.24-12.39-21.5-6-3.82-17.07-7.55-23.92-8.19-9.44-.87-13.54,3-22.61,6.12-11.4,3.93-17.35,9.23-18.71,22.5a210.21,210.21,0,0,0-.55,44c.65,8,1.71,16.09,5.23,23C82.81,141.32,90,147,97.28,151.79s10.37,6.21,21.52,5.77c4.21-.17,9.47-2.48,13-5.1l12.41-9.23c1.94-1.45,3.94-7.59,5.2-9.8A20.2,20.2,0,0,0,151.37,126.23Z" fill="#f5c399"/><path d="M152.82,126.63A228.08,228.08,0,0,0,155,85.51c-.16-3.62-.39-7.24-.71-10.86a34.72,34.72,0,0,0-.71-5.28c-1-4-1.71-7.94-3.46-11.72-2.18-4.75-5.27-9.71-9.55-12.85s-9.72-5-14.7-6.57c-5.38-1.66-11.1-2.94-16.75-2.16s-10.71,3.81-16,5.74c-4.4,1.59-8.71,3.26-12.36,6.25a21.82,21.82,0,0,0-6.91,10.6,40,40,0,0,0-1.46,7.9c-.36,3.5-.68,7-.92,10.52-.42,6.18-.57,12.37-.4,18.56.18,6.87.59,13.8,1.45,20.62.79,6.35,2.06,13.11,5.42,18.67,2.74,4.55,7.08,8,11.36,11s8.94,5.67,13.29,8.68c2.7,1.87,5,3.94,8.4,4.36a41.48,41.48,0,0,0,6.5.11,14.87,14.87,0,0,0,7.93-2.1c2.37-1.51,4.54-3.34,6.84-5,2.52-1.77,5.07-3.5,7.59-5.28,2.18-1.54,4.57-3,6.26-5.12a44.55,44.55,0,0,0,4.22-6.8,23.2,23.2,0,0,0,2.49-8.22,1.55,1.55,0,0,0-1-1.84,1.51,1.51,0,0,0-1.85,1,30.69,30.69,0,0,1-.87,4.55,18.32,18.32,0,0,1-1.58,3.46,31.66,31.66,0,0,1-4.16,6.48,35.31,35.31,0,0,1-6,4.55c-2.4,1.68-4.83,3.33-7.22,5-2.18,1.54-4.23,3.3-6.5,4.7s-4.7,1.48-7.33,1.54c-3.32.09-6.16.15-8.83-1.69-3.49-2.39-7-4.75-10.54-7a74.73,74.73,0,0,1-12.62-9.38c-4.15-4.07-6.25-9.17-7.56-14.77-1.48-6.34-1.9-12.9-2.3-19.38a226.46,226.46,0,0,1,.91-37.1c.46-4.51,1.41-9.06,4-12.86a21.77,21.77,0,0,1,9-7.06c2.34-1.1,4.81-1.85,7.21-2.8s5-2.17,7.53-3.19a26,26,0,0,1,7.22-2,27.67,27.67,0,0,1,8,.47,66.73,66.73,0,0,1,15.39,5,25.37,25.37,0,0,1,6,3.49,26.86,26.86,0,0,1,4.7,5.55,41.82,41.82,0,0,1,3.76,7A38,38,0,0,1,150,67.33c.22,1.09.55,2.15.78,3.23a47.86,47.86,0,0,1,.7,6.44,217.85,217.85,0,0,1-.39,38.9c-.34,3.32-.75,6.63-1.21,9.93a1.57,1.57,0,0,0,1.05,1.85A1.52,1.52,0,0,0,152.82,126.63Z"/></g></svg>