<svg xmlns="http://www.w3.org/2000/svg" viewBox="0 0 235 235"><g id="face-2"><path class="skin-tone" d="M70.26,80.32a6.47,6.47,0,0,0-8.77-2.14,2.71,2.71,0,0,0-1.15,1.29,3.39,3.39,0,0,0-.07,1.27,18.73,18.73,0,0,0,1.1,5.46c2,5.15,9.65,9.78,11.55,15" fill="#f2be97"/><path class="skin-tone" d="M153.19,80a11.3,11.3,0,0,1,3.67-2.43,4.61,4.61,0,0,1,4.23.42,4.7,4.7,0,0,1,1.5,2.06c1.11,2.79.25,6.07-1.47,8.54a27.62,27.62,0,0,1-6.63,6.07l-3.74,2.75" fill="#f2be97"/><path d="M71.56,79.57A8.1,8.1,0,0,0,63,76c-1.65.35-3.57,1.4-4.09,3.12A8.2,8.2,0,0,0,59,82.46a19.48,19.48,0,0,0,.62,3.13c1,3.31,3.38,5.87,5.74,8.3,2.22,2.28,5,4.64,6.16,7.69.69,1.78,3.59,1,2.9-.8-2.05-5.33-7.22-8.41-10.39-13A11,11,0,0,1,62.24,84a18.81,18.81,0,0,1-.43-2.79c-.09-.94-.1-1.44.82-1.92A5,5,0,0,1,69,81.08c1,1.65,3.6.14,2.59-1.51Z"/><path d="M154.25,81.08c1.42-1.26,4-3.3,5.94-1.87s1.55,4.52.84,6.41a14.09,14.09,0,0,1-4.4,5.55c-2.12,1.77-4.42,3.34-6.64,5a1.54,1.54,0,0,0-.54,2,1.51,1.51,0,0,0,2.05.54c5.1-3.74,12-7.63,13-14.51.45-3.07-.54-6.88-3.73-8.08s-6.28.75-8.6,2.82c-1.44,1.29.69,3.41,2.12,2.12Z"/><path class="skin-tone" d="M151.13,120.15a169.12,169.12,0,0,0,1.6-45.1c-.63-7-1.29-1.14-1.4-8-.1-6.16-7.41-16.37-12.61-19.3-6.09-3.43-17.36-6.78-24.34-7.35-9.61-.79-13.78,2.68-23,5.49-11.61,3.53-17.66,8.29-19,20.21a167.47,167.47,0,0,0-.55,39.52c.66,7.14,1.74,14.45,5.32,20.67,4.27,7.41,11.62,12.46,19,16.8,7.21,4.25,10.54,5.58,21.89,5.19,4.29-.15,9.64-2.23,13.22-4.59l12.63-8.28c2-1.3,4-6.82,5.3-8.81A16.54,16.54,0,0,0,151.13,120.15Z" fill="#f5c399"/><path d="M152.57,120.55a181.28,181.28,0,0,0,2.24-37.44c-.17-3.26-.41-6.53-.75-9.78a25.74,25.74,0,0,0-.74-4.54c-.4-1.38-.7-2.77-1-4.17A27.12,27.12,0,0,0,149.6,58c-2.3-4.24-5.49-8.6-9.63-11.2s-9.27-4.24-14-5.58c-5-1.41-10.24-2.58-15.45-2.36s-9.74,2.1-14.48,3.89c-8.19,3.1-17.54,4.92-22.2,13.2-2.42,4.32-2.92,9.19-3.42,14a172.31,172.31,0,0,0-1,17.74c0,6.14.37,12.28.95,18.39s1.47,12.21,3.92,17.86c4.5,10.34,14.52,17,24.13,22.19a29.45,29.45,0,0,0,11.21,3.52c5.38.54,11,.39,16.06-1.51,5.77-2.16,10.77-6.06,15.89-9.41a33.87,33.87,0,0,0,3.6-2.43,9.74,9.74,0,0,0,1.88-2.4c1.12-1.84,1.93-3.85,3-5.74a22.61,22.61,0,0,0,1.61-3.23,23.43,23.43,0,0,0,1-4.37c.3-1.89-2.59-2.7-2.89-.8a23.69,23.69,0,0,1-.92,4.17,22.16,22.16,0,0,1-1.51,3c-1,1.87-1.8,3.83-2.91,5.64-1.32,2.13-3.71,3.21-5.75,4.55l-7.94,5.21a27.36,27.36,0,0,1-14.89,4.57c-4.11.06-8.24-.12-12.14-1.56A60.35,60.35,0,0,1,92.31,139c-4.53-3-8.93-6.38-12.15-10.77-3.37-4.59-5.07-10-6-15.58a146,146,0,0,1-1.64-18,152.51,152.51,0,0,1,.15-16q.28-4.4.75-8.76a53,53,0,0,1,1.15-7.73A17.73,17.73,0,0,1,80,53.1c3-2.58,6.75-4.12,10.45-5.32,2.58-.85,5.14-1.68,7.68-2.66,2.16-.83,4.31-1.7,6.53-2.33a30.59,30.59,0,0,1,14.27-.23,77,77,0,0,1,14.63,4.37,27.9,27.9,0,0,1,5.55,2.83,23,23,0,0,1,4.67,4.68,30.81,30.81,0,0,1,6,12.45c.23,1.08.58,2.12.86,3.19a32.07,32.07,0,0,1,.66,5,173.43,173.43,0,0,1-.29,35.51c-.35,3.07-.78,6.14-1.26,9.19C149.38,121.64,152.27,122.45,152.57,120.55Z"/></g></svg>