<svg xmlns="http://www.w3.org/2000/svg" viewBox="0 0 235 235"><g id="hair-2"><path d="M96.5,151.65c1.25-4.55-.4-9.5-2.55-13.79C74.28,98.54,75.59,71.5,75.59,71.5c1.25-7.07,1.53-14.85,9.52-18.46,3.39-1.53,7.26-1.84,11-2.13,3.24-.24,8.91,3.28,15,2.82,5-.38,9-2.89,16-3.81s9.47,2.61,15.14,6.31c0,0,12.82,14.52,6.74,49.34-2.37,13.59-3,17.61-15.24,31.34a36.19,36.19,0,0,0-2,5.59c-1.79,6.18-1.48,9.43.28,15.64a53.93,53.93,0,0,1,1.65,12.58c.58,14.74-.83,29.83,3.8,43.95a6.65,6.65,0,0,0,2.17,3.55,7.22,7.22,0,0,0,3.44,1,32.89,32.89,0,0,0,6.8.05,9.84,9.84,0,0,0,4.84-1.48c2.15-1.56,2.67-4.32,3-6.81a418.2,418.2,0,0,0,3.74-43.68c.21-6.52.27-13,1-19.52.46-3.92,1.18-7.82,1.4-11.76a95,95,0,0,0-.19-10.12l-1.66-30.3c-.61-11.1.14-15,.14-15,3.76-11.47-.73-31.32-6.69-39.39-6.79-9.2-19.47-14.09-31.55-14.47-10.51-.33-21,6.66-31.44,7.66C73.72,36.28,65.6,69.54,68,79c0,0-13.37,68.23,1.84,87.7l20.79-7.3S94.06,160.46,96.5,151.65Z" fill="#bc221b"/><path d="M101.88,51.86c-.17-2.11-.32-4.33.63-6.26A13,13,0,0,1,105.58,42l6-5.54" fill="#bc221b"/><path d="M97.94,152.05c1.06-4.13.17-8.33-1.43-12.19-1.74-4.18-3.93-8.18-5.76-12.33a184.65,184.65,0,0,1-8.18-22.37,130.37,130.37,0,0,1-5.38-28.82,34.51,34.51,0,0,1-.11-4.77c0-.42.24-1.4.35-2.07.25-1.54.49-3.09.83-4.62.65-2.93,1.66-5.85,3.83-8C85,54,89.07,53.09,93,52.68a15.35,15.35,0,0,1,5-.08c1.62.36,3.19.94,4.79,1.41a22.79,22.79,0,0,0,11.11.85c3.35-.67,6.53-2,9.85-2.78,3.58-.85,7.22-1.33,10.59.49a54.3,54.3,0,0,1,7,4.75c.18.14.34.45.07.08l.54.75a28,28,0,0,1,1.61,2.68c4.47,8.37,5.79,18.47,5.68,27.93a123.36,123.36,0,0,1-2.71,22.65A38.85,38.85,0,0,1,140.68,126a88.23,88.23,0,0,1-7,8.78,8.35,8.35,0,0,0-1.74,2.64,44.44,44.44,0,0,0-1.63,4.71,25.51,25.51,0,0,0-.91,11.38c.34,2.11,1,4.13,1.49,6.2a43.64,43.64,0,0,1,1.06,6.81c.75,9,.24,18.1.65,27.14A99.29,99.29,0,0,0,134,207a61.85,61.85,0,0,0,1.55,6.56c.54,1.82,1.09,3.86,2.46,5.26s3.39,1.82,5.32,2a32.39,32.39,0,0,0,7,0,10.9,10.9,0,0,0,5.35-1.76,8.47,8.47,0,0,0,2.9-4.36,35.91,35.91,0,0,0,1-5.83c.31-2.37.61-4.73.88-7.1q.83-7.09,1.41-14.22c.77-9.48,1-19,1.4-28.47a138.61,138.61,0,0,1,1.16-14.1,84.8,84.8,0,0,0,1.07-13.69c-.24-9.55-1-19.11-1.52-28.65-.37-6.77-1-13.64-.42-20.41,0-.27,0-.54.08-.8,0-.48-.09.22,0-.16.2-.71.41-1.43.58-2.15a38.39,38.39,0,0,0,.86-9.56,63.35,63.35,0,0,0-3.82-20.15,32.37,32.37,0,0,0-10.63-15.13,44.19,44.19,0,0,0-20.45-8.34,37.8,37.8,0,0,0-11.58-.19,68.74,68.74,0,0,0-12,3.43,77.42,77.42,0,0,1-12,3.55c-2.76.49-5.34.68-7.94,1.83C77.28,38.65,72,49.31,69,58.58a59.76,59.76,0,0,0-2.81,14,26.16,26.16,0,0,0,.08,5.16,7.17,7.17,0,0,0,.2,1.23c.19.6.09-.41.08-.38a1.49,1.49,0,0,0-.08.42c-1.22,5.66-2,11.47-2.72,17.21a287.28,287.28,0,0,0-2.62,30.87c-.26,10-.05,20.54,2.72,30.28a30.28,30.28,0,0,0,4.93,10.34,1.48,1.48,0,0,0,1.46.38l12.72-3.35L89.69,163a7.41,7.41,0,0,0,2.35-.91c3.3-2.16,4.88-6.39,5.9-10a1.5,1.5,0,0,0-2.89-.79,21.94,21.94,0,0,1-2.51,6,8.7,8.7,0,0,1-1,1.33,7.66,7.66,0,0,1-.57.57,1.78,1.78,0,0,1-.37.3,6.37,6.37,0,0,1-.72.41c.31-.16.19-.07,0,0s-.63.17-1,.25l-14.68,3.86-4.8,1.27,1.46.38a28.2,28.2,0,0,1-4.45-10.1,76.6,76.6,0,0,1-2.09-14.06,200.6,200.6,0,0,1,.86-31.95q1.17-12.33,3.24-24.55c.29-1.77.62-3.53.93-5.29a2.61,2.61,0,0,0,.06-.27,4,4,0,0,0-.1-1.25,6.87,6.87,0,0,1-.13-.82,26.88,26.88,0,0,1,0-5.23,57.07,57.07,0,0,1,3-13.71,48.9,48.9,0,0,1,6.94-13.66c2.7-3.62,6.29-6.88,10.71-8.18a23.37,23.37,0,0,1,3.72-.66,41.9,41.9,0,0,0,6-1.24c4-1.12,7.85-2.65,11.79-3.94a38.3,38.3,0,0,1,11.82-2.37,44.69,44.69,0,0,1,11,1.44c6.95,1.76,13.69,5.1,18.55,10.48,4,4.47,6.11,10.44,7.54,16.19,1.57,6.35,2.44,13.21,1.46,19.72-.26,1.71-.88,3.33-1.09,5a47,47,0,0,0-.29,4.89c-.15,8.57.64,17.17,1.11,25.72l.78,14.16a80.92,80.92,0,0,1-.12,13.66c-.52,4.53-1.27,9-1.58,13.57-.32,4.72-.39,9.44-.54,14.17q-.47,14-1.87,28-.7,7-1.65,14.05a18.18,18.18,0,0,1-1.21,5.45,5.29,5.29,0,0,1-4.18,2.8,27,27,0,0,1-6.78.22c-2.11-.15-4-.39-5-2.52a34.68,34.68,0,0,1-1.77-6c-.51-2.19-.91-4.41-1.2-6.64-1.17-8.82-.9-17.74-1-26.6a105,105,0,0,0-.8-13.27c-.59-4.15-2.28-8.12-2.46-12.33-.15-3.81,1-7.6,2.3-11.14a6.23,6.23,0,0,1,1-1.93c1.35-1.64,2.78-3.19,4.11-4.84,3.62-4.47,6.79-9.21,8.51-14.75a65.64,65.64,0,0,0,1.85-8.08c.7-3.84,1.35-7.69,1.77-11.58,1.24-11.4.81-23.55-3.45-34.34a36.53,36.53,0,0,0-3.63-7.13,10.3,10.3,0,0,0-1.08-1.45A11.65,11.65,0,0,0,141.66,54c-1.4-1-2.76-2-4.18-3a14.64,14.64,0,0,0-9.27-2.68,48.65,48.65,0,0,0-11,2.52c-3.37,1.06-6.65,1.8-10.19,1.14-3.3-.61-6.42-2.17-9.76-2.53a25.33,25.33,0,0,0-5.63.39,26.46,26.46,0,0,0-6.08,1.41,15.2,15.2,0,0,0-7.65,6.16A24.23,24.23,0,0,0,75,66a47.78,47.78,0,0,0-.91,5.69,41.53,41.53,0,0,0,.14,5.11,113.24,113.24,0,0,0,1.41,11.74,171.14,171.14,0,0,0,11.89,39.06c1.73,4,3.65,7.89,5.52,11.82,1.74,3.65,3,7.82,2,11.86C94.57,153.13,97.46,153.93,97.94,152.05Z"/><path d="M103.38,51.86a13.24,13.24,0,0,1,.15-4.74,8.65,8.65,0,0,1,2.81-3.77c2.1-2,4.21-3.87,6.32-5.81,1.43-1.31-.7-3.42-2.12-2.12-2.3,2.12-4.65,4.19-6.9,6.36a10.35,10.35,0,0,0-3,4.54,15.4,15.4,0,0,0-.26,5.54,1.5,1.5,0,1,0,3,0Z"/></g></svg>