<svg xmlns="http://www.w3.org/2000/svg" viewBox="0 0 235 235"><g id="hair-1"><path d="M100.81,34.41a39.18,39.18,0,0,0-2,14.13,1.32,1.32,0,0,1-.13.79,1.25,1.25,0,0,1-.66.4c-2.56.86-7.87-4.06-10.39-3a24.12,24.12,0,0,0-9.54,7.26c-2.56,3.13-1.85,12.14-3.41,15.87a27.32,27.32,0,0,0-2.46,9.77c-2.16-6.66-1.32-13.09-.49-20A33.1,33.1,0,0,1,80.15,40.7a25.13,25.13,0,0,1,18.71-8.06c1.59.06,1.55-.19,2.17,1.28" fill="#3a2618"/><path d="M99.37,34a40.47,40.47,0,0,0-1.75,7.6c-.17,1.3-.29,2.61-.34,3.92,0,.62,0,1.24,0,1.85,0,.25-.1.73,0,.93,0,.34.06.33.32,0l-.23.06c-.55-.23-1.21-.25-1.79-.54-.77-.39-1.51-.83-2.29-1.21a5.47,5.47,0,0,0-4.9-.31,23.75,23.75,0,0,0-10.14,8.25c-2,3.09-2.75,7.07-3.69,10.59C73.25,70,70.9,74.45,70.7,79.58l2.94-.4A34.47,34.47,0,0,1,72.51,66a57.94,57.94,0,0,1,2-12.55C76.86,45.88,82,39.19,89.44,36a22.3,22.3,0,0,1,6.2-1.7A25.61,25.61,0,0,1,99,34.15c.17,0,1.3,0,.64-.1.77.09-.32-.1-.29-.14s.36.76.36.76c.76,1.77,3.34.25,2.59-1.51s-1.73-2-3.47-2a26,26,0,0,0-6.58.72,27.68,27.68,0,0,0-11.75,6.37,31,31,0,0,0-7.63,11,47.65,47.65,0,0,0-3.08,13.59c-.63,5.77-.83,11.56.93,17.15a1.51,1.51,0,0,0,3-.39c.17-4.53,2.3-8.44,3.49-12.71,1-3.44,1.58-7.26,3.38-10.38A18.08,18.08,0,0,1,84.73,52a21.15,21.15,0,0,1,2.66-1.86,8.9,8.9,0,0,1,2.8-1.37c1.33-.18,2.88,1.13,4,1.68,1.47.71,3.24,1.3,4.8.47,1.24-.65,1.3-1.83,1.27-3.08a37,37,0,0,1,2-13c.61-1.84-2.29-2.62-2.89-.8Z"/><path d="M150.42,38.12c-8.48-2.34-17.16-8.28-25.93-9-5.68-.44-11.58-.5-16.82,1.71S98,38.07,98,43.76a7.34,7.34,0,0,0,2.3,5.6,9.34,9.34,0,0,0,4.33,1.74c10,2,20.71-.3,30.21,3.35a14.49,14.49,0,0,1,5.29,3.24c3.26,3.34,3.81,8.38,5,12.9s1.24,12.16,5.88,12.67c1.4.15,3-.27,3.65-1.53A4.7,4.7,0,0,0,155,79.9l.48-8c.22-3.73,3.09-10.37,1.3-13.66-.95-1.75-2.41-3.2-3.29-5-1.5-3.07-1-2.6,1.19-5.21a11.94,11.94,0,0,0,1.83-2.25,4.71,4.71,0,0,0-1.31-5.33,10.48,10.48,0,0,0-5.34-2.28" fill="#3a2618"/><path d="M150.82,36.67c-7.25-2-13.73-6.13-21-8.08a42.09,42.09,0,0,0-11-1.17,30.57,30.57,0,0,0-11.37,1.92c-5.78,2.34-10.9,7.7-11,14.24,0,3.29,1.44,6.56,4.53,8s7.15,1.66,10.64,1.84c7.59.41,15.54-.32,22.77,2.48a11.61,11.61,0,0,1,7.1,7,66.06,66.06,0,0,1,2.37,9.2c.87,4.11,1.06,11.18,6.08,12.55,3.11.85,6.15-.86,6.48-4.12.35-3.53.12-7.16.84-10.64.6-2.88,1.56-5.79,1.56-8.77a7.55,7.55,0,0,0-.89-3.78c-.89-1.62-2.22-3-3.08-4.61a5.49,5.49,0,0,1-.76-1.74c0-.22,0,0,0,0a3.47,3.47,0,0,1,.26-.34,32.58,32.58,0,0,0,3.24-3.72c1.86-3,.15-6.68-2.57-8.46a13.2,13.2,0,0,0-4.77-1.72c-1.88-.36-2.69,2.53-.8,2.9a9.93,9.93,0,0,1,4.38,1.64c1.07.84,2,2.4,1.37,3.76-.9,2.15-4.13,3.34-4.09,5.93a8.22,8.22,0,0,0,1.28,3.43c.82,1.5,2,2.77,2.88,4.24,1.25,2.1.36,5.06-.15,7.26a48,48,0,0,0-1.26,7.89L153.6,79c0,.65.08,1.69-.34,2.24a2.23,2.23,0,0,1-1.9.59c-1.9-.15-2.66-2.16-3.13-3.75-.68-2.31-.93-4.71-1.45-7.06-1.24-5.57-2.21-12-7.12-15.67-5.43-4-13-4.47-19.49-4.65-3.42-.1-6.84-.08-10.25-.35a40.4,40.4,0,0,1-5.25-.72,6.4,6.4,0,0,1-4-2c-1.69-2.25-1.3-5.62-.2-8a14.54,14.54,0,0,1,5.7-6.18,22.54,22.54,0,0,1,10.66-2.86,40.23,40.23,0,0,1,11.79.91c7.44,1.89,14,6.1,21.42,8.18a1.5,1.5,0,0,0,.8-2.89Z"/></g></svg>