<?xml version="1.0" encoding="utf-8"?>
<!-- Generator: Adobe Illustrator 25.4.1, SVG Export Plug-In . SVG Version: 6.00 Build 0)  -->
<svg version="1.1" id="Layer_1" xmlns="http://www.w3.org/2000/svg" xmlns:xlink="http://www.w3.org/1999/xlink" x="0px" y="0px"
	 viewBox="0 0 1943 515" style="enable-background:new 0 0 1943 515;" xml:space="preserve">
<style type="text/css">
	.st0{fill:#93389E;}
</style>
<g id="EnNfFy.tif">
	<g>
		<path class="st0" d="M242,0c22.9,12.8,45.9,25.4,68.6,38.4c44,25.2,87.7,50.9,131.9,75.9c14,7.9,20.3,19.1,20.3,34.9
			c-0.2,72.1-0.1,144.2,0,216.4c0,15.6-6.1,26.7-19.9,34.6c-62.8,35.9-125.3,72.2-188,108.3c-4.4,2.5-9.2,4.3-13.8,6.5
			c-4,0-8,0-12,0c-4-1.9-8.2-3.4-12.1-5.6c-62.1-35.8-124.1-71.7-186.3-107.3C20.1,396,11.5,389,8,377c0-80,0-160,0-240
			c4.1-12.4,13.5-19.2,24.4-25.3c38.3-21.7,76.3-44,114.5-65.9C173.9,30.3,201,15.2,228,0C232.7,0,237.3,0,242,0z M129.1,377.9
			c-16.2-12.7-45.9-15.2-67-5c-2,1-4.7,3.2-4.7,4.9c-0.1,1.7,2.4,4.1,4.4,5.2c52.1,30.3,104.1,60.5,156.3,90.6
			c10.8,6.2,22,6.4,32.8,0.1c52.7-30.5,105.4-61.1,157.9-91.7c1.8-1.1,3.9-3.5,3.9-5.4c0.1-1.3-2.8-3.4-4.7-4.1
			c-16.2-6.3-33.1-7.4-50.1-4.1c-6.8,1.3-13.4,4-19.4,5.9c4,7.2,7.7,13.4,11,19.9c0.6,1.2-0.3,3.3-1,4.8c-0.2,0.5-2.5,0.6-3,0.1
			c-1.1-1.1-1.9-2.6-2.5-4.1c-6.3-14.6-17.3-24.1-33-25.5c-8-0.7-13.3-2.5-18.2-9.2c-5.9-8.1-15.5-10.3-25.7-10.5
			c0-8.1,0-15.9,0-23.7c0-6.5-2.6-9.1-9-9.1c-15,0-30,0-45,0c-6.4,0-9.1,2.6-9.1,9.1c0,19-0.1,38,0.1,57c0,1.5,1.6,3,2.4,4.5
			c0.7,1.3,1.3,2.7,1.9,4.1c-1.5,0.7-3.2,2.2-4.5,1.9c-7.9-2-14,0.4-19.1,6.5c-0.8,1-3.1,0.8-4.7,1.2c-0.1-1.8-1-4.5-0.2-5.2
			c3.9-3.3,8.1-6.1,12.4-8.8c1.6-1,3.7-1,5.4-1.3c0-9.2,0-17.8,0-26.3c-29.7-9.1-60.8,8.9-68.9,39.7c-0.6,2.4-1,5.5-4.5,4.7
			c-3.6-0.8-2.7-4-2-6.2C123.6,391.3,126.3,384.9,129.1,377.9z M235.5,293c19.8,0,39.6,0,59.4,0c6.8,0,8.2-1.3,8-8.2
			c-0.1-6.5-0.5-13-0.9-19.4c-2.1-35.1-8.6-69.2-22.3-101.7c-8.5-20.2-19.1-39.2-35.1-54.6c-8.4-8.1-10.8-8.1-19.3,0
			c-10.3,9.9-18.3,21.5-25.1,34c-24.1,44.7-32.1,93.2-33.1,143.3c-0.1,5.1,2,6.6,7.8,6.6C195.2,293,215.4,293,235.5,293z M136,293
			c5,0,10,0,15,0c6-0.1,6.9-1.3,7.4-7.4c1.6-18.7,3.6-37.4,5.1-56.1c0.2-2.1-0.7-5.1-2.2-6.3c-1.3-1-4.5-0.7-6.2,0.3
			c-24.6,13.8-39.2,34.3-41.4,62.8c-0.3,4.4,1.5,6.5,6,6.6C125,293.1,130.5,293,136,293z M334.3,293c5.5,0,11,0.1,16.5,0
			c4.6-0.1,6.6-2.5,6.1-7c-2.7-28-16.7-48.5-41.1-62.1c-1.9-1-5.4-1.6-6.6-0.6c-1.6,1.3-2.4,4.5-2.2,6.8c1.5,19,3.3,38.1,4.9,57.1
			c0.3,3.9,2.2,5.8,5.9,5.8C323.3,293.1,328.8,293,334.3,293z"/>
		<path class="st0" d="M1928,395c-4.6,0-9.3,0-14.7,0c0-85.6,0-171,0-257.9c-16.1,16.4-31,31.7-46.2,47.3c-3.1-3.6-6-6.9-9.3-10.6
			c0.5-0.5,1.6-1.8,2.8-3.1c16.1-16.1,32.4-32.1,48.3-48.5c3.8-3.9,7.5-6.1,13-5.3c2,0.3,4,0,6,0C1928,209.7,1928,302.3,1928,395z"
			/>
		<path class="st0" d="M1414.4,255.9c0.7-31,5.6-61,19.8-88.9c11.6-22.7,28.3-39.9,53.6-46.9c36.2-10,71.1,3,92.2,34.1
			c12.8,18.8,19.7,39.9,23.4,62c6.6,38.9,4.3,77.3-9.5,114.5c-7.8,21-19.5,39.4-38.7,52c-31.7,20.8-86.1,19.2-115.1-27.2
			c-13-20.7-19.8-43.5-23-67.4C1415.7,277.5,1415.3,266.7,1414.4,255.9z M1592.4,250.5c-0.5-5.8-0.9-17-2.4-28
			c-2.8-21.1-8.6-41.2-19.9-59.6c-25.1-40.5-73.9-40.5-100.3-19.8c-13.9,10.9-22.7,25.5-28.7,41.8c-9.9,27-12.7,54.9-11.2,83.4
			c1.3,25.8,6.1,50.8,18.1,74c16.9,32.6,49.7,47.6,82.9,37.7c20.3-6,33.7-20,43.2-38.3C1588,314.9,1592,285.7,1592.4,250.5z"/>
		<path class="st0" d="M592.5,114.1c14.9,0.3,29,3.8,41.6,11.9c6,3.8,8.1,9.2,6.8,15.9c-1.1,5.4-5.9,10.2-11.9,10.4
			c-3.7,0.1-7.8-1.2-11.2-3c-10.4-5.4-20.8-9.7-32.9-7.4c-7.4,1.4-11.3,6-11,12.5c0.2,4.8,3,7.9,7,9.5c7,2.7,14.1,4.7,21.2,7.1
			c6.6,2.2,13.4,4,19.8,6.7c18,7.8,24.5,18.5,24,38.3c-0.4,16.1-10,30.1-26.1,35.6c-27.3,9.3-52.5,3.4-75.5-13
			c-6.1-4.3-6.8-13.3-2.4-19.3c4.3-5.9,12.8-7.7,19.2-3.5c7.8,5.2,15.7,10.5,25.1,11.6c6.6,0.8,13.6,0.7,20.2-0.4
			c6.4-1.1,9.3-5.3,9.6-10.6c0.4-5.9-2.8-9.7-7.8-11.5c-9.2-3.3-18.7-5.8-27.9-9.1c-6.9-2.4-13.8-4.8-20.2-8.3
			c-10.4-5.7-15.3-15.2-16.1-27C541.5,127.4,567.8,113.5,592.5,114.1z"/>
		<path class="st0" d="M932.8,114.1c13,0.3,26.7,3.6,39.2,11.3c8.1,4.9,10.5,13.1,6.2,20.5c-4.1,6.9-12.6,8.7-20.5,4.2
			c-10.6-6-21.6-10.5-34.1-8.1c-7.3,1.4-11,6.1-10.6,12.8c0.2,4.3,2.6,7.4,6.3,8.8c7.3,2.8,14.8,5,22.1,7.5c7.4,2.5,14.9,4.7,22,7.9
			c14.5,6.4,21.8,17.8,21.7,33.9c-0.2,16.6-6.8,29.4-21.9,36.9c-15.5,7.7-32,8.1-48.2,3.4c-10.1-2.9-19.8-7.6-29-12.7
			c-8.4-4.6-10.1-14-5.1-20.9c4.8-6.7,13.6-7.8,21.2-2.5c11.8,8.3,24.6,13.2,39.3,11.1c2.4-0.3,4.9-1.1,7.1-2.2
			c4.1-1.9,6.3-5.3,6.6-9.8c0.3-4.6-1.8-8.3-5.9-10.1c-6.2-2.7-12.7-4.9-19.1-7c-8.3-2.8-16.9-4.9-25-8.2
			c-14.7-6-22.1-17.4-22.2-33.5c-0.1-16.2,6.4-28.6,20.6-36.7C911.9,115.7,921.4,114,932.8,114.1z"/>
		<path class="st0" d="M1216.7,382.3c50.2,0,100.4,0,150.9,0c0,4.3,0,8.1,0,12.3c-57.4,0-114.9,0-172.4,0c-1.6-7-0.1-11.9,5.9-16.8
			c33.2-27.3,66.3-54.7,96.2-85.6c19.1-19.7,36.9-40.3,48.1-65.7c6.5-14.7,9.5-30.1,7-46.2c-3.5-22.1-16.3-36.6-36.7-44.8
			c-31.8-12.8-73.7-3.7-97.4,21c-3,3.1-5.5,6.6-8.5,10.2c-3.5-2.6-7-5.1-10.7-7.8c9.9-14.8,22.9-25.3,38.9-32
			c30.2-12.6,60.7-14.5,90.7,0.5c30.2,15,40.8,43.4,37.7,73c-3.1,29.4-18.4,53.1-36.5,75.2c-25.8,31.3-56.4,57.4-87.2,83.5
			c-8.8,7.4-17.6,14.8-26.4,22.2C1216.5,381.6,1216.6,381.9,1216.7,382.3z"/>
		<path class="st0" d="M1810.9,382c0,4.7,0,8.6,0,12.7c-57.5,0-114.7,0-172.2,0c-1.2-6.6-0.6-11.6,5.4-16.5
			c33.2-27.1,66.1-54.5,96-85.2c19-19.5,36.8-40,48.3-65c6.7-14.8,10.3-30.1,7.9-46.6c-3.1-21.5-14.8-36.3-34.4-45
			c-32.4-14.4-76.7-5.1-100.8,20.9c-2.6,2.8-4.8,5.9-7.5,9.3c-3.5-2.6-7-5.2-10.8-7.9c10.1-14.8,23.1-25.4,39.1-32
			c30.1-12.4,60.4-14.3,90.3,0.4c28.7,14.1,40.7,41.4,38.1,71.4c-2.5,28.6-16.7,51.9-34,73.6c-21.8,27.4-47.7,50.6-74.1,73.4
			c-13.9,12-27.9,23.7-43,36.4C1710.4,382,1760.5,382,1810.9,382z"/>
		<path class="st0" d="M834.1,193.3c1.3-10-4.5-17.5-14.3-19.3s-19.2-0.1-28.6,2.4c-6.1,1.6-11.8-0.6-14.6-5.6
			c-3.6-6.5-1.2-14.8,6-17.5c18.3-6.7,37-8.5,55.7-2.4c16,5.2,24.7,18.7,25.2,38.1c0.4,16.8,0.3,33.7,0.2,50.5
			c-0.1,8.6-5.1,14.5-12.6,15.5c-7.9,1-13.9-2.8-16.9-11.4c-7.1,6.9-15.5,10.7-25.2,12.1c-16.9,2.4-33.3-5.1-39.3-18.4
			c-8.5-18.6,0.3-38.9,19.8-45c13.7-4.3,27.6-3.6,41.4,0.1C831.9,192.6,832.8,192.9,834.1,193.3z M812.5,235
			c2.6-0.4,5.4-0.6,8.1-1.3c9.8-2.7,15-9.6,14.4-19.3c-0.1-1.2-0.8-3.1-1.7-3.5c-9.7-3.7-19.7-4.9-29.5-0.8
			c-5.4,2.3-8.4,7.9-7.7,13.2c0.7,5.4,4.4,9.3,10.3,10.7C808.3,234.5,810.3,234.7,812.5,235z"/>
		<path class="st0" d="M724.5,243.4c-11.8,11.6-26,14.4-41.6,11.2c-16-3.3-25.8-15.7-25.8-31.6c0.1-16.6,9.7-28.4,26.7-31.8
			c6.6-1.3,13.6-1.9,20.3-1.6c6.7,0.3,13.4,2,20.2,3.1c2.5-6.9-3.7-15.4-9.8-17.5c-10.2-3.5-20.3-1.9-30.5,0.4
			c-3,0.7-6.3,1.3-9.3,0.8c-5.3-0.9-8.9-5.5-9.4-10.9c-0.5-5.2,2.6-10.4,8-12.5c13.3-5.1,27.1-6.5,41.2-5.2
			c10.2,0.9,19.7,3.6,27.3,10.8c8.5,8.1,11.7,18.5,11.9,29.8c0.3,17.2,0.1,34.3,0.1,51.5c0,7.8-4.8,13.8-11.9,15
			c-7.7,1.3-14-2.3-16.9-9.8C725,244.5,724.8,244.1,724.5,243.4z M708.4,207.4c-3.9,0.4-6.6,0.4-9.2,1c-8.8,2-13.4,7.3-12.7,14.6
			s6.2,11.5,15.3,11.8c14,0.4,23.3-7.4,23.5-19.2c0-3.6-1.2-5.2-4.5-5.8C716.3,209,711.8,208.1,708.4,207.4z"/>
		<path class="st0" d="M1037,148.7c4.4,0,8.4-0.1,12.3,0c8.5,0.3,13.8,5.4,13.7,13.2c-0.1,7.4-5.6,12.5-13.8,12.7
			c-3.8,0.1-7.6,0-11.9,0c-0.1,1.7-0.3,3.1-0.3,4.5c0,12.8,0,25.7,0,38.5c0,8.8,2.7,11.4,11.3,11.3c8-0.1,13.4,4,14.4,10.8
			c0.9,6.2-3.2,11.7-10.3,13.9c-8.6,2.6-17.4,2.9-26.1,0.8c-11.4-2.6-18.6-11.2-19-23.8c-0.5-16.5-0.3-33-0.4-49.5c0-2,0-4,0-6
			c-1.8-0.5-3.2-0.9-4.6-1.3c-5.9-1.8-9.2-6.5-9.1-12.7c0.1-5.7,3.7-10.9,9.4-11.9c3.8-0.7,4.6-2.2,4.4-5.6c-0.2-3.3-0.2-6.7,0.2-10
			c0.8-7.8,7.5-13.2,15.7-12.9c7.8,0.3,14,6.3,14.3,13.9C1037.1,139.2,1037,143.7,1037,148.7z"/>
		<path class="st0" d="M1106.4,163.6c3.6-4.4,6.3-8.6,9.8-12c5-4.9,11.7-5.6,17.5-2.6c5.3,2.7,7.9,7.9,7.1,15.2
			c-0.6,5.7-3.9,10-9.3,11.1c-19,3.9-25.2,18.5-25.3,36.6c0,9.5,0.2,19-0.2,28.5c-0.2,6.9-5.4,12.4-11.9,13.6
			c-6.7,1.2-13.6-1.8-16.4-7.7c-1.2-2.4-1.7-5.4-1.7-8.1c-0.1-24.8-0.1-49.6-0.1-74.4c0-9.3,5.5-15.6,14.1-16.2
			c8.3-0.6,15,5.3,16.1,14.2C1106.3,162.1,1106.3,162.7,1106.4,163.6z"/>
		<path class="st0" d="M767.8,398.6c-3.4,0-6.2,0-9.3,0c0-35.1,0-70.1,0-105.1c5.8-1.5,9.8-0.2,13.5,5c18.7,26.1,37.9,51.9,57,77.7
			c1.1,1.5,2.2,2.9,4.1,5.4c0-30.2,0-59.2,0-88.4c3.5,0,6.3,0,9.4,0c0,35,0,70,0,105.2c-5.5,1.2-9.3,0.3-13-4.9
			c-19-26.7-38.5-53.1-57.8-79.6c-0.9-1.3-2-2.5-3.9-5C767.8,339.7,767.8,369,767.8,398.6z"/>
		<path class="st0" d="M647.6,293.5c6.3-1.4,10.3,0.1,14.2,5.5c18.7,26.1,37.9,51.8,57,77.7c0.9,1.3,2,2.5,3.9,4.9
			c0-30.3,0-59.2,0-88.3c3.3,0,6.1,0,9.2,0c0,35,0,70,0,105.1c-5.7,1.5-9.4,0.1-13-5c-19.2-27-38.9-53.6-58.4-80.4
			c-0.9-1.2-1.8-2.3-3.4-4.4c0,30.6,0,60.1,0,89.9c-3.4,0-6.3,0-9.5,0C647.6,363.5,647.6,328.6,647.6,293.5z"/>
		<path class="st0" d="M962.7,398.4c3-7.5,6-14.8,9-22.1c10.8-26.4,21.7-52.8,32.3-79.3c1.3-3.2,2.8-4.7,6.2-4
			c3,0.6,6.7-1.7,8.7,3.2c13.4,33.2,27.1,66.4,40.7,99.6c0.3,0.7,0.4,1.6,0.6,2.4c-8.9,2.1-9.7,1.7-12.9-6.3
			c-2.1-5.1-4.4-10.1-6.1-15.2c-1.1-3.1-2.8-3.8-5.8-3.8c-15.8,0.1-31.6,0.2-47.4,0c-3.2,0-4.8,1-5.8,3.9c-1.7,4.8-3.8,9.6-5.7,14.3
			C972.8,399.7,972.8,399.7,962.7,398.4z M987,363.8c16.7,0,32.7,0,49.4,0c-8.3-20.4-16.4-40.4-24.8-61.2
			C1003.1,323.6,995.1,343.6,987,363.8z"/>
		<path class="st0" d="M632.2,398.5c-9.9,1-9.9,1-13.3-7.2c-2.1-5.2-4.2-10.5-6.6-15.6c-0.6-1.3-2.5-2.7-3.9-2.7
			c-16.7-0.2-33.3-0.2-50,0c-1.4,0-3.5,1.6-4.2,3c-2.6,5.6-5.2,11.2-6.9,17.1c-1.5,4.9-4.1,6.7-9,5.8c-1-0.2-2,0-3.8,0
			c0.7-2.1,1.2-3.8,1.8-5.3c13.2-32.3,26.4-64.5,39.6-96.9c1.1-2.6,2.3-4.3,5.4-3.7c3.2,0.7,7.2-2,9.3,3.1
			c13.4,33.1,27,66.1,40.5,99.2C631.5,396.2,631.7,397.2,632.2,398.5z M608.2,364c-8.3-20.5-16.4-40.5-24.8-61.3
			c-8.4,20.9-16.5,40.9-24.7,61.3C575.5,364,591.4,364,608.2,364z"/>
		<path class="st0" d="M941.7,293.2c3.4,0,6,0,9,0c0.2,0.9,0.5,1.9,0.5,2.8c-0.1,22,0.2,44-0.3,65.9c-0.8,29-21.2,41-46,38.5
			c-22.7-2.3-35.1-14.9-35.8-37.2c-0.8-23.1-0.2-46.3-0.2-69.8c2.9,0,5.6,0,9.1,0c0,1.6,0,3.4,0,5.1c0,18.8-0.1,37.6,0.1,56.5
			c0.1,4.9,0.5,10,1.7,14.8c3.9,15.6,16.1,23.5,33.6,22.2c15.6-1.2,26.9-11.4,27.5-27c0.9-21.4,0.6-42.9,0.8-64.4
			C941.8,298.3,941.7,296,941.7,293.2z"/>
		<path class="st0" d="M1076.2,293.2c3,0,5.6,0,8.7,0c0,32.2,0,64.3,0,96.8c17.2,0,33.9,0,51,0c0,3.1,0,5.6,0,8.6
			c-19.8,0-39.5,0-59.7,0C1076.2,363.6,1076.2,328.6,1076.2,293.2z"/>
		<path class="st0" d="M237.9,364.5c2.9,1.4,5.7,2.3,7.8,3.9c1,0.8,0.8,3.1,1.2,4.7c-1.5,0.3-3.2,1.1-4.4,0.7
			c-7.7-2.9-8.2-2.7-13.3,3.4c-0.8,1-3,0.9-4.6,1.3c-0.3-1.5-1.1-3.2-0.7-4.3c0.8-1.9,2-4.1,3.7-5.1c3.4-2.1,3.7-4.9,3.7-8.4
			c-0.1-9.2,0-18.3-0.1-27.5c0-2.6,0-5.7,3.4-5.4c1.3,0.1,3,3.6,3.1,5.6C238.1,343.8,237.9,354.3,237.9,364.5z"/>
		<path class="st0" d="M254.2,188.5c0.1,10.5-8.5,19.2-18.9,19.2s-19-8.7-19-19.2c0-10.3,8.3-18.7,18.7-18.8
			C245.8,169.6,254.2,177.8,254.2,188.5z"/>
	</g>
</g>
</svg>
