<svg id="Logos" xmlns="http://www.w3.org/2000/svg" viewBox="0 0 1203 340"><defs><style>.cls-1{fill:#00bbf0;}.cls-2{fill:#001c41;}.cls-3{fill:#0ab9ee;}.cls-4{fill:#001d4a;}</style></defs><title>qp_logo_2019-04-25</title><circle class="cls-1" cx="162" cy="169.44" r="17.34"/><path class="cls-2" d="M228.31,263.38,189.6,251.23l-.72.24A86.1,86.1,0,0,1,99.66,110.35l20.94,24.84A53.93,53.93,0,0,0,189,216.34L210,241.19l-.15.1.11,0Z"/><path class="cls-2" d="M95.69,75.5,134.4,87.65l.72-.24a86.1,86.1,0,0,1,89.22,141.12L203.4,203.69A53.93,53.93,0,0,0,135,122.54L114,97.69l.15-.1-.11,0Z"/><path class="cls-3" d="M853.84,149c0-6.82-5.64-11.28-14.16-11.28H828v23.55h11.73c8.52,0,14.16-4.79,14.16-12.27Zm19.33,0c0,17.75-13.35,28.8-34.64,28.8H828v19.31H808.51V121.21H840c20.48,0,33.14,10.72,33.14,27.8Zm58.62,19.31-10.08-25.57-10.07,25.57ZM938,184.06H905.41l-5.1,13.06H879.94l32.71-75.91H931l32.6,75.91H943.23L938,184.06Zm97.85-46h-24.68v59.06H992.08V138.06H967.41V121.21h68.46v16.85Zm91.27-16.85v75.91h-18.73V168.65h-30.89v28.47h-18.83V121.21h18.83v30.47h30.89V121.21Z"/><path class="cls-4" d="M366.29,184.63c12.8,0,22-10.19,22-22.57s-9.2-22.57-22-22.57-22,10.19-22,22.57,9.2,22.57,22,22.57Zm28.5,7.75,12.45,14.7-13.85,12.61L377.8,201.41a42,42,0,0,1-11.52,1.5c-23.85,0-41.89-17.94-41.89-40.85s18-40.85,41.9-40.85,41.88,17.94,41.88,40.85a40.38,40.38,0,0,1-13.38,30.32Zm108.58-29.5c0,24.21-13.94,37.87-36.23,37.87S431,187.09,431,162.88V121.21h19.43v42c0,11.93,6.52,19.39,16.69,19.39S484,175.16,484,163.22v-42h19.42v41.67ZM590.1,161a22,22,0,1,0-22,22,21.62,21.62,0,0,0,22-22Zm19.9,0c0,22.31-18,39.77-41.89,39.77S526.22,183.29,526.22,161s18-39.77,41.89-39.77S610,138.67,610,161ZM697.58,138h-24.7V197H653.75V138H629V121.21h68.54V138Zm59.54,30.19L747,142.71l-10.09,25.51h20.18Zm6.24,15.71H730.71l-5.11,13H705.2L738,121.21h18.36L789,197h-20.4l-5.22-13Z"/></svg>