<svg xmlns="http://www.w3.org/2000/svg" viewBox="0 0 235 235"><g id="mouth-1"><path d="M97.73,128.21c.14,2.65,3.26,4.64,6.1,6.22a29.69,29.69,0,0,0,6.51,3,16.39,16.39,0,0,0,12-1.23c3.35-1.89,5.3-5.15,5-8.42l.2-.52c-2.11,1.57-5.49,1.44-8.48,1.21l-21.22-1.65" fill="#fff"/><path d="M96.23,128.21c.36,3.6,3.62,5.68,6.5,7.33,3.59,2.05,7.23,3.82,11.44,4a17.26,17.26,0,0,0,10.5-3c2.8-1.94,5.49-4.78,5.33-8.42,0-.86-.95-1.85-1.9-1.45a13.38,13.38,0,0,1-6.38.51c-2.5-.2-5-.41-7.51-.6l-16.28-1.27c-1.93-.14-1.92,2.86,0,3l16.78,1.3c2.47.2,4.94.42,7.42.61a14.66,14.66,0,0,0,6.77-.65l-1.9-1.45c.12,2.74-2.23,4.8-4.34,6.16a14.38,14.38,0,0,1-8.49,2.24c-3.29-.14-6.18-1.49-9-3.07-1.91-1.06-5.68-2.71-5.93-5.25-.18-1.9-3.19-1.92-3,0Z"/></g></svg>