<?xml version="1.0" encoding="UTF-8"?>
<svg width="20px" height="20px" viewBox="0 0 20 20" version="1.1" xmlns="http://www.w3.org/2000/svg" xmlns:xlink="http://www.w3.org/1999/xlink">
    <!-- Generator: Sketch 59.1 (86144) - https://sketch.com -->
    <title>Icons / Refer a friend Copy</title>
    <desc>Created with Sketch.</desc>
    <g id="Icons-/-Refer-a-friend-Copy" stroke="none" stroke-width="1" fill="none" fill-rule="evenodd">
        <path d="M15.922549,5.9987899 L18.5,6 C19.3284271,6 20,6.67157288 20,7.5 L20,18.5 C20,19.3284271 19.3284271,20 18.5,20 L1.5,20 C0.671572875,20 0,19.3284271 0,18.5 L0,7.5 C0,6.67157288 0.671572875,6 1.5,6 L3.33277801,5.99958351 C4.10685548,6.58014161 5.21812109,7.41359082 6.66657485,8.49993114 L3.072,8.5 L10,12.881966 L16.927,8.5 L13.1594616,8.50055808 C14.1525853,7.62102366 15.1803945,6.68244993 15.922549,5.9987899 Z M17.5,10.489 L10.6708204,14.7826238 C10.2954504,14.9703088 9.8610052,14.9911627 9.47250738,14.8451855 L9.32917961,14.7826238 L2.5,10.49 L2.5,17.5 L17.5,17.5 L17.5,10.489 Z M10.0000732,1.77131173 C11.054422,-0.181039344 12.997821,-0.45994664 14.1423752,0.642132394 C15.2858749,1.74421143 15.2858749,3.53170232 14.1423752,4.63491053 C12.997821,5.73698957 10.0000732,7.94905189 10.0000732,7.99873578 C10.0000732,8.06196982 7.00220827,5.73698957 5.85753698,4.63491053 C4.71415434,3.53170232 4.71415434,1.74421143 5.85753698,0.642132394 C7.00220827,-0.45994664 9.06287433,-0.181039344 10.0000732,1.77131173 Z" id="Combined-Shape" fill="#000000" fill-rule="nonzero"></path>
    </g>
</svg>