<?xml version="1.0" encoding="UTF-8"?>
<svg width="20px" height="20px" viewBox="0 0 20 20" version="1.1" xmlns="http://www.w3.org/2000/svg" xmlns:xlink="http://www.w3.org/1999/xlink">
    <!-- Generator: Sketch 57.1 (83088) - https://sketch.com -->
    <title>Icons / Refresh</title>
    <desc>Created with Sketch.</desc>
    <g id="Icons-/-Refresh" stroke="none" stroke-width="1" fill="none" fill-rule="evenodd">
        <path d="M14.6258065,5.0516129 C13.3652419,3.87129032 11.7293548,3.22427419 9.99387097,3.22580645 C6.87056452,3.22854839 4.17419355,5.37008065 3.42971774,8.34072581 C3.37552419,8.55697581 3.1828629,8.70967742 2.95991935,8.70967742 L0.649314516,8.70967742 C0.346975806,8.70967742 0.117298387,8.43520161 0.173225806,8.13806452 C1.04568548,3.505 5.11342742,0 10,0 C12.6793548,0 15.1125403,1.05387097 16.9078629,2.76955645 L18.3479839,1.32943548 C18.957621,0.719798387 20,1.15157258 20,2.01375 L20,7.41935484 C20,7.95383065 19.5667339,8.38709677 19.0322581,8.38709677 L13.6266532,8.38709677 C12.7644758,8.38709677 12.3327016,7.34471774 12.9423387,6.73504032 L14.6258065,5.0516129 Z M0.967741935,11.6129032 L6.37334677,11.6129032 C7.23552419,11.6129032 7.66729839,12.6552823 7.05766129,13.2649597 L5.37419355,14.9484274 C6.63475806,16.1287903 8.27076613,16.7758065 10.0062903,16.7742339 C13.1279839,16.7714113 15.8254435,14.6313306 16.5702823,11.6593548 C16.6244758,11.4431048 16.8171371,11.2904032 17.0400806,11.2904032 L19.3507258,11.2904032 C19.6530645,11.2904032 19.8827419,11.564879 19.8268145,11.8620161 C18.9543145,16.495 14.8865726,20 10,20 C7.32064516,20 4.88745968,18.946129 3.0921371,17.2304435 L1.65201613,18.6705645 C1.04237903,19.2802016 0,18.8484274 0,17.98625 L0,12.5806452 C0,12.0461694 0.433266129,11.6129032 0.967741935,11.6129032 Z" id="ic-refresh" fill="#000000" fill-rule="nonzero"></path>
    </g>
</svg>