<svg xmlns="http://www.w3.org/2000/svg" viewBox="0 0 235 235"><g id="face-4"><g class="c-skin"><path d="M167.34,93.6a4.7,4.7,0,0,0-1.49-2,4.61,4.61,0,0,0-4.23-.42c-.78.27-2.91,1.2-4.84,2.15-.1-1.54-.21-3.09-.34-4.69-.58-7-.76-4.71-1.62-9.46-1.08-6-6.46-14.9-11.22-17.83-5.59-3.44-8.57-5.19-17.32-6.54s-17.85-1-27.32,3.86c-10.07,5.14-14.95,9.1-16.22,21-.55,5.13-.93,9.63-1.14,13.94-4.36-1.7-8.95-2.81-10.4-1.87A2.58,2.58,0,0,0,70.05,93,3.2,3.2,0,0,0,70,94.28a18.73,18.73,0,0,0,1.1,5.46c1.65,4.16,7.42,7.52,10.58,11.4.14,2.53.33,5.18.57,8,.6,7.14,1.59,14.45,4.87,20.66,3.92,7.41,10.32,13.58,17.57,15.26,7.66,1.77,5.59,7.57,16,7.63,8.93,0,11.44-5.14,14.89-7.26,4.83-3,7.47-2.48,10.65-5.2,5-4.29,7.78-9.75,8.76-16.57a203.65,203.65,0,0,0,2.14-23.18c2.74-3,7.57-6.65,8.76-8.37C167.59,99.67,168.46,96.4,167.34,93.6Z"/></g><path id="stroke" d="M165.61,89.73c-2.71-1.1-5.31.09-7.46,1.73-.06-.8-.11-1.59-.17-2.38a46.45,46.45,0,0,0-.72-6.12,52.55,52.55,0,0,0-2.93-10.09c-2-4.44-4.87-9-8.76-12A37.6,37.6,0,0,0,134.42,55a51.16,51.16,0,0,0-7.74-1.71,49.78,49.78,0,0,0-18.05.25A50.34,50.34,0,0,0,93,60.21a24.2,24.2,0,0,0-8.4,8C82.06,72.4,81.47,77.27,81,82.06q-.49,4.88-.73,9.73a8.1,8.1,0,0,0-5-2.42c-2.28-.26-5.34.53-6.45,2.75-.68,1.37-.27,3.15,0,4.6a14.59,14.59,0,0,0,1.36,4.52,17.3,17.3,0,0,0,4.47,5.17c1.88,1.62,4,3.27,4.87,5.66a1.49,1.49,0,0,0,.84.88c.09,1.75.21,3.49.35,5.24.51,6.24,1.17,12.62,3.42,18.51a36.1,36.1,0,0,0,9.36,13.84A27,27,0,0,0,99.87,155a23,23,0,0,0,3.37,1.31,21.31,21.31,0,0,1,3.13.95c2.86,1.31,4.45,4.25,7.28,5.63,4.15,2,9.82,1.84,14,.12a18.44,18.44,0,0,0,4.93-3.09,37.17,37.17,0,0,1,3.45-3,34,34,0,0,1,6.82-3.07,16.31,16.31,0,0,0,5.8-3.83A27,27,0,0,0,156,136.44c.67-3.08,1-6.26,1.35-9.38s.69-6.39.92-9.6c.1-1.47.19-2.94.25-4.41a1.25,1.25,0,0,0,.94-1.38,2.69,2.69,0,0,1,.68-1.69,15.19,15.19,0,0,1,2-2.12c1.45-1.37,3.09-2.6,4.4-4.11a11.82,11.82,0,0,0,2.84-7.18C169.42,93.86,168.27,90.8,165.61,89.73ZM77.89,105.3c-1.81-1.58-3.81-3.08-5-5.22a12.52,12.52,0,0,1-1.28-4.5c-.07-.58-.36-1.62-.09-2.16s.92-.71,1.35-.86a5,5,0,0,1,5.81,2.06,1.38,1.38,0,0,0,1.42.69c-.14,4.07-.14,8.13,0,12.2A21.62,21.62,0,0,0,77.89,105.3Zm76.66,19.93c-.61,5.52-1,11.39-3.49,16.44-2,4.05-5.2,7.92-9.53,9.5a33.79,33.79,0,0,0-6.73,3,27,27,0,0,0-3.42,2.8,15.22,15.22,0,0,1-10.71,4.25,12.43,12.43,0,0,1-5.92-1.18,13.79,13.79,0,0,1-3-2.55,14.25,14.25,0,0,0-3.58-2.75c-1.94-1-4.09-1.23-6.07-2.07a27.25,27.25,0,0,1-11.38-9.84,38.68,38.68,0,0,1-6-15.75,150.45,150.45,0,0,1-1.6-18q-.36-8.22.08-16.44c.16-2.91.39-5.81.66-8.71a66.54,66.54,0,0,1,1-8.09,18.54,18.54,0,0,1,5-9.54c2.92-2.85,6.68-4.82,10.3-6.61a40,40,0,0,1,17.39-4.11,52.82,52.82,0,0,1,8.33.62,38.6,38.6,0,0,1,12.69,3.86,39,39,0,0,1,5.11,3.09,21.94,21.94,0,0,1,4.49,4.93,33.22,33.22,0,0,1,5.43,12.6c.21,1,.54,2,.77,3.07a41.82,41.82,0,0,1,.65,5.81A188.83,188.83,0,0,1,154.55,125.23Zm9.77-23.53c-1.48,1.67-3.32,3-4.9,4.58l-.76.78c0-2.71,0-5.43-.09-8.14,0-1.32-.12-2.64-.2-4a1.43,1.43,0,0,0,.64-.34,7.84,7.84,0,0,1,3.93-2.29,2.75,2.75,0,0,1,3.07,2A8,8,0,0,1,164.32,101.7Z"/></g></svg>