<svg xmlns="http://www.w3.org/2000/svg" viewBox="0 0 235 235"><g id="face-2"><g class="c-skin"><path d="M163.43,93.92a4.17,4.17,0,0,0-5.73-2.48,41.59,41.59,0,0,1-4.13.77c-.07-1.07-.14-2.17-.23-3.31-.52-7-.69-4.7-1.46-9.46-1-6-5.86-14.9-10.18-17.83-5.06-3.43-7.76-5.18-15.7-6.53s-16.19-1-24.77,3.86C92.1,64.07,87.67,68,86.52,80c-.5,5.22-.85,9.77-1,14.14C82.5,92,77.32,90.61,75.11,92A2.64,2.64,0,0,0,74,93.33a3.18,3.18,0,0,0-.07,1.27,18.87,18.87,0,0,0,1.1,5.46c1.48,3.74,6.93,7.06,10.52,10.6.13,2.77.31,5.67.55,8.82.55,7.14,1.45,11.45,4.42,17.67a33.07,33.07,0,0,0,8.72,11.47A29.24,29.24,0,0,0,105,152c1.85.93,2.41,2.89,4.44,3.66a12.63,12.63,0,0,0,4.24.61l4.62.13c4.76.14,11.3,1.68,14.36-2.18,2-2.56,3.65-2.64,5.89-3.6,2-.85,3.93-1.49,5.54-3,4.54-4.29,7.05-9.75,7.94-16.57,1-7.44,1.59-13.45,1.85-19.36l.18.35c-.35-3,6.2-7.06,7.92-9.53S164.54,96.72,163.43,93.92Z" /></g><path id="stroke" d="M161.69,90c-2.38-1-4.69-.15-6.68,1.18-.44-6.51-1.26-13.08-3.9-19.08-1.76-4-4.19-8.21-7.6-11a34.5,34.5,0,0,0-10.14-5.78,42.69,42.69,0,0,0-7-1.7,41.78,41.78,0,0,0-15.84.12,42.78,42.78,0,0,0-14,6.21,25.49,25.49,0,0,0-7.83,7.36,26.8,26.8,0,0,0-3.59,11.3C84.62,83,84.25,87.5,84,92a8.19,8.19,0,0,0-4.86-2.28c-2.28-.25-5.34.53-6.45,2.76-.68,1.37-.27,3.15,0,4.6A14.67,14.67,0,0,0,74,101.56a17.26,17.26,0,0,0,4.47,5.16c1.88,1.63,4,3.27,4.87,5.66a1.53,1.53,0,0,0,.76.85,94.84,94.84,0,0,0,1.51,14.59,43.41,43.41,0,0,0,5.63,13.9,28.56,28.56,0,0,0,11.44,10.79,9.38,9.38,0,0,1,2.81,1.78A11.82,11.82,0,0,0,108,156.6c2.44,1.44,5.71,1.13,8.43,1.21,4.31.12,9.09,1.19,13.3-.05a8.51,8.51,0,0,0,2.7-1.33c1-.73,1.6-1.75,2.52-2.53,1.59-1.32,3.94-1.85,5.82-2.64,4.46-1.89,7.66-5.64,9.78-9.94,2.39-4.87,3-10.14,3.6-15.46q.75-6.45,1.08-12.89a1.28,1.28,0,0,0,.31-1,2.65,2.65,0,0,1,.67-1.69,15.89,15.89,0,0,1,2-2.12c1.45-1.38,3.09-2.6,4.4-4.12a11.75,11.75,0,0,0,2.83-7.18C165.51,94.18,164.35,91.11,161.69,90ZM81.8,105.62C80,104,78,102.54,76.8,100.4a12.64,12.64,0,0,1-1.28-4.5c-.07-.59-.36-1.63-.09-2.17s.92-.71,1.35-.86a5,5,0,0,1,5.81,2.06,1.36,1.36,0,0,0,1.3.71q-.18,6,0,12.08A21.91,21.91,0,0,0,81.8,105.62Zm70.28,10.81c-.39,5.19-.86,10.45-1.73,15.58A25.7,25.7,0,0,1,145,144.36a13.94,13.94,0,0,1-5.43,4.16,39.65,39.65,0,0,0-5.53,2.33c-1.72,1.07-2.67,3.05-4.56,3.82a13.76,13.76,0,0,1-5.85.56c-2.11-.12-4.2-.33-6.32-.4l-4.12-.11a7.34,7.34,0,0,1-3.86-.81,14.67,14.67,0,0,1-2-2,11.28,11.28,0,0,0-3-1.92,22.76,22.76,0,0,1-6.15-4.25c-7-6.95-10-16.68-10.7-26.28a209.15,209.15,0,0,1-.28-30.76c.55-7.93.49-17.09,6.67-23a39.72,39.72,0,0,1,9.32-6.2,33.41,33.41,0,0,1,15.09-3.64,45,45,0,0,1,7.24.62c7.73,1.34,15.34,4.62,19.79,11.37a32,32,0,0,1,5,12c.39,2.23,1,4.39,1.21,6.64A177.28,177.28,0,0,1,152.08,116.43ZM160.41,102c-1.48,1.68-3.32,3-4.9,4.58l-.06.07q.09-5.91-.22-11.84a7.52,7.52,0,0,1,3.8-2.17,2.72,2.72,0,0,1,3.06,2C163,97.06,162,100.21,160.41,102Z"/></g></svg>