<svg xmlns="http://www.w3.org/2000/svg" viewBox="0 0 235 235"><g id="face-8"><g class="c-skin"><path d="M163,92.64a4.17,4.17,0,0,0-5.72-2.48,20.6,20.6,0,0,0-3.91,2.65q-.26-2.62-.45-5.19c-.52-7-.69-4.7-1.47-9.45-1-6.06-5.85-14.91-10.17-17.84-5.07-3.43-7.77-5.18-15.71-6.53s-16.18-1-24.76,3.86c-9.14,5.13-13.56,9.1-14.71,21-.48,4.93-1,9.28-1.52,13.43-3-1.79-7.77-2.73-9.9-1.36a2.62,2.62,0,0,0-1.14,1.3,3.18,3.18,0,0,0-.08,1.27,19.56,19.56,0,0,0,1.1,5.46c2,5.09,6.9,9.94,8.84,15.08,0,1.41.12,2.84.24,4.34.54,7.14.19,25.38,3.48,31.42,4.47,8.19,16.88,6.47,23,10.93,4.47,3.28,4.43,4.27,9.64,4.13,0,0,4.67-.05,5-.1,4.13-.77,4.38-2.44,7.88-4.75,1.32-.87,4.76-1.54,6.29-2h0c6-1.7,15.47-6.91,16.1-13.16.2-1.91.34-3.91.61-6,1.1-8.5.66-17.59-.19-26.68h0c-.35-3,4.41-8.4,6.13-10.87S164.15,95.44,163,92.64Z" /></g><g class="c-hair accessory-3" data-name="c-hair accessory-3"><path d="M86.16,92.87c3.14,2.63,6.33,5.33,8.53,8.79,3.52,5.54,4.11,7.38,4.64,13.93a18.41,18.41,0,0,0,1.23,6.16,6.29,6.29,0,0,0,4.66,3.84c2.56.3,4.81-1.48,7-2.82,4.94-3,11.92-3.76,16.1.23a13.2,13.2,0,0,0,2.75,2.49,5.59,5.59,0,0,0,5.48-.73c4.25-2.82,5.52-3.35,7-8.23a72.19,72.19,0,0,1,10.08-20.75c-.21,9.92,3.32,19,3.11,29-.07,3.41-.09,13.25-1.31,16.43a32.82,32.82,0,0,1-9.05,12.65c-4.95,4-10.59,3-14.76,8.62-1.38,1.86-6.46,2.19-7.82,2.46-1.8.36-8.59,1.1-9.86-.22-6-6.21-11.4-5-14.7-7.32-3.63-2.51-10.19-3.76-12.09-7.75-2.41-5.05-1.33-11.22-3.17-17.18-1.15-3.73-.33-10.34-.31-14.24,0-8,1.08-16.29,1.23-24.28" /></g><path id="stroke" d="M162.3,89.29c-2.52-1.74-5.31-.88-7.64.64-.09-1.08-.2-2.15-.28-3.22a76.76,76.76,0,0,0-1.62-9.86,35.31,35.31,0,0,0-7.38-14.73,23.62,23.62,0,0,0-5.51-4.55,33.76,33.76,0,0,0-6-3.19,39.29,39.29,0,0,0-7.84-2,40.26,40.26,0,0,0-18.77.9,44.15,44.15,0,0,0-14.59,8,20.91,20.91,0,0,0-6.71,10.21,43.46,43.46,0,0,0-1.4,8.18c-.35,3.46-.76,6.9-1.17,10.35,0,.13,0,.25,0,.38a8,8,0,0,0-5.83-2,7.16,7.16,0,0,0-4.12,1.53c-1.7,1.43-1.43,3.34-1.16,5.34a23.45,23.45,0,0,0,4.28,10c2,2.89,4.19,5.73,5.48,9,.14,3.39.37,6.77.49,10.16.17,5,.31,9.91.83,14.84.41,3.95.8,8.54,3,11.95,5.41,8.19,16.6,5.8,23.73,11.19,1.68,1.27,3.27,2.83,5.34,3.44a18.11,18.11,0,0,0,5.45.36,22.93,22.93,0,0,0,4.9-.26c2.41-.56,4-1.9,5.87-3.45a9.45,9.45,0,0,1,2.87-1.84,38.51,38.51,0,0,1,3.82-1.05,34,34,0,0,0,6.33-2.3c4.42-2.1,9.34-5.29,11.25-10,1.09-2.67.9-5.91,1.25-8.74a87.32,87.32,0,0,0,.63-10,159.84,159.84,0,0,0-.84-16.51,5.46,5.46,0,0,1,.89-2.91,33.33,33.33,0,0,1,2.38-3.63c1.65-2.25,3.51-4.33,4.35-7.06C165.49,95.4,165.15,91.25,162.3,89.29ZM76.24,98.84a15,15,0,0,1-1.14-4.45c-.08-.65-.34-1.61.11-2.15a3.22,3.22,0,0,1,1.51-.75,5,5,0,0,1,5.47,2.16,1.46,1.46,0,0,0,.67.6c-.5,4.53-.9,9.08-1,13.64C79.91,104.92,77.7,102.1,76.24,98.84ZM154.32,137c-.18,1.67-.4,3.33-.56,5a15.8,15.8,0,0,1-.56,3.93,12.33,12.33,0,0,1-4.17,5.16,31.65,31.65,0,0,1-12.12,5.73,16.24,16.24,0,0,0-6.48,2.75c-1.74,1.36-3.08,2.82-5.28,3.39a19.34,19.34,0,0,1-4.5.21,13.14,13.14,0,0,1-4.77-.36c-1.86-.72-3.4-2.41-5-3.55a18.26,18.26,0,0,0-5.47-2.47c-4.06-1.21-8.44-1.67-12.24-3.59a10.6,10.6,0,0,1-4.57-4.07,15.3,15.3,0,0,1-1.53-4.57A85.61,85.61,0,0,1,85.7,131c-.19-4.06-.23-8.14-.49-12.2-.1-1.44-.17-2.89-.22-4.33a1.31,1.31,0,0,0,0-.73,115.65,115.65,0,0,1,.27-13.29c.5-6.15,1.38-12.27,2-18.41.52-4.81.84-9.79,3.4-14,2-3.39,5.28-5.71,8.61-7.71a36,36,0,0,1,17.46-5.64,42.71,42.71,0,0,1,8.45.59,39.12,39.12,0,0,1,7.84,2,30.48,30.48,0,0,1,5.57,3.06,20,20,0,0,1,4.86,4.17,34.26,34.26,0,0,1,4.19,6.85c1.68,3.55,2.33,7.26,3.19,11.05a38.44,38.44,0,0,1,.63,5.66c.26,3.27.59,6.53.94,9.8.5,4.62,1.06,9.27,1.51,13.93a2.25,2.25,0,0,0,0,.26,1.52,1.52,0,0,0,.06.32A124.3,124.3,0,0,1,154.32,137Zm5.73-36.26c-1.24,1.73-2.58,3.37-3.75,5.14-.44-4.16-.9-8.31-1.31-12.46,1.91-1.61,5.24-3.5,6.62-.31C162.73,95.68,161.57,98.61,160.05,100.73Z"/><g class="c-hair accessory-2" data-name="c-hair accessory-2"><path d="M138,125.08c-1.68-1.46-4.06-1.74-6.28-1.85a68.36,68.36,0,0,0-9.81.22,6.09,6.09,0,0,0-2.69.73,6.05,6.05,0,0,0-2.68-.73,68.53,68.53,0,0,0-9.82-.22c-2.22.11-4.6.39-6.27,1.85a9,9,0,0,0-3,7,.73.73,0,0,0,1.33.27,7.42,7.42,0,0,1,3.28-2.35,28.94,28.94,0,0,1,8.38-1,19.17,19.17,0,0,0,5.51-.19,5.19,5.19,0,0,0,3.29-2.91,5.19,5.19,0,0,0,3.3,2.91,19.08,19.08,0,0,0,5.5.19,28.9,28.9,0,0,1,8.38,1,7.37,7.37,0,0,1,3.28,2.35.73.73,0,0,0,1.33-.27A9,9,0,0,0,138,125.08Z" /></g></g></svg>