<svg xmlns="http://www.w3.org/2000/svg" viewBox="0 0 235 235"><g id="face-5"><g class="c-skin"><path d="M163,92.64a4.17,4.17,0,0,0-5.72-2.48c-.58.21-1.65.52-2.79.9-.09-1.11-.18-2.24-.27-3.44-.52-7-.69-4.7-1.46-9.45-1-6.06-5.86-14.91-10.18-17.84-5.07-3.43-7.77-5.18-15.71-6.53s-16.18-1-24.76,3.86c-9.14,5.13-13.56,9.1-14.71,21-.5,5.18-.85,9.71-1,14-2.33-2.5-9.06-3.67-11.68-2a2.62,2.62,0,0,0-1.14,1.3,3.18,3.18,0,0,0-.08,1.27,19.56,19.56,0,0,0,1.1,5.46c1.48,3.72,7.7,6,11.76,9,.13,3.24.33,6.65.62,10.4,0,0,4.23,23.52,18.23,38.41a20.89,20.89,0,0,0,31.23-1c4.86-5.81,10.21-14.73,15.2-28.42a56.57,56.57,0,0,0,3.88-20.92c2.27-1.9,5.1-3.76,6.05-5.13C163.29,98.71,164.15,95.44,163,92.64Z" /></g><path id="stroke" d="M161.67,88.92c-2.45-1.18-4.87-.4-7,1q-.26-2.92-.58-5.82a29.66,29.66,0,0,0-.65-3.53c-.46-1.86-.67-3.76-1.22-5.6a35.54,35.54,0,0,0-7.63-13.66,26.6,26.6,0,0,0-5.28-4,31.6,31.6,0,0,0-5.79-3A40.3,40.3,0,0,0,126,52.35a40.66,40.66,0,0,0-17.93.65,44.27,44.27,0,0,0-14.26,7.35,21.47,21.47,0,0,0-7.2,9.18c-2.06,5.14-2.2,10.93-2.61,16.38-.12,1.61-.22,3.22-.31,4.83a8.14,8.14,0,0,0-4.91-2.34c-2.28-.25-5.35.53-6.45,2.76-.68,1.37-.27,3.15,0,4.6a14.93,14.93,0,0,0,1.35,4.52,17.44,17.44,0,0,0,4.48,5.16c1.88,1.63,4,3.27,4.86,5.66a1.5,1.5,0,0,0,.79.86c0,.34,0,.68,0,1a47.87,47.87,0,0,0,.46,5.86,86.64,86.64,0,0,0,5.4,17.45,80.52,80.52,0,0,0,7,13.51c2.8,4.25,6.07,8.61,10.41,11.39A22.64,22.64,0,0,0,134,159c3.22-2.86,5.74-6.72,8-10.38a106.25,106.25,0,0,0,7.4-14.83,82.61,82.61,0,0,0,5.52-17.48c.31-1.82.51-3.64.64-5.46a1.24,1.24,0,0,0,.61-1.25,3.39,3.39,0,0,1,1.25-2.36c.88-.92,1.88-1.73,2.84-2.57a12.72,12.72,0,0,0,4.56-7.19C165.4,94.41,164.74,90.4,161.67,88.92ZM81.4,104.34c-1.8-1.59-3.81-3.08-5-5.22a12.45,12.45,0,0,1-1.29-4.5A4.86,4.86,0,0,1,75,92.45c.22-.43.93-.7,1.36-.85a5,5,0,0,1,5.8,2.05,1.38,1.38,0,0,0,1.34.71c-.11,3.19-.15,6.38-.09,9.57,0,.84,0,1.68.08,2.52A23.47,23.47,0,0,0,81.4,104.34Zm71.3,4A55,55,0,0,1,150.17,123a99.46,99.46,0,0,1-13.84,28.66c-2.54,3.5-5.44,6.58-9.47,8.36a19.62,19.62,0,0,1-12.71,1c-4.72-1.23-8.23-4.16-11.28-7.85a64,64,0,0,1-7.94-12.5,94,94,0,0,1-7.3-20.46,39.12,39.12,0,0,1-.79-6.78c-.36-5.74-.52-11.49-.37-17.24.15-6,.57-12,1.2-17.91.42-4.08,1.4-8.25,3.88-11.6,2.27-3.07,5.61-5.18,8.87-7.06a34.68,34.68,0,0,1,16.73-5,42.56,42.56,0,0,1,8,.6,33.51,33.51,0,0,1,12.64,4.58,22.85,22.85,0,0,1,5,3.92,30.68,30.68,0,0,1,4,5.92,32.59,32.59,0,0,1,2.83,7c.42,1.59.6,3.23,1,4.83,1,3.83,1,7.89,1.29,11.81A135.86,135.86,0,0,1,152.7,108.3Zm8-8.53c-1.08,1.8-3,3-4.51,4.43l-.5.48c0-1.22-.08-2.43-.16-3.64-.16-2.54-.32-5.1-.52-7.65,1.64-1.39,4.59-3.33,6.21-1S162,97.66,160.69,99.77Z"/></g></svg>