<svg xmlns="http://www.w3.org/2000/svg" viewBox="0 0 235 235"><g id="face-8"><g class="c-skin"><path d="M173.42,93.61a4.17,4.17,0,0,0-5.72-2.48c-.68.24-3.06,1.26-5.44,2.35-.12-1.6-.25-3.22-.42-4.89-.68-7-.9-4.7-1.9-9.46-1.29-6-7.63-14.9-13.26-17.83-6.59-3.43-10.11-5.18-20.45-6.53s-21.07-1-32.25,3.86c-11.9,5.13-17.65,9.1-19.16,21-.63,5-1.07,9.41-1.32,13.62-2.74-1.93-7.42-3-9.64-1.55A2.69,2.69,0,0,0,62.71,93a3.37,3.37,0,0,0-.07,1.27,18.87,18.87,0,0,0,1.1,5.46c2,5.14,7.93,6.72,9.83,11.93v-.17c.16,2.42.37,4.95.65,7.66.71,7.14,1.88,14.45,5.75,20.67,4.62,7.41,12.58,14.47,20.56,18.8,7.81,4.25,9.79,5,22.07,4.64,4.67-.15,11.27-1.27,15.13-3.65s8.27-6.65,12-9.37a24.65,24.65,0,0,0,10.34-16.57,175.86,175.86,0,0,0,2.48-22h0c-.34-3,7.64-7.06,9.36-9.53S174.54,96.41,173.42,93.61Z" /></g><path id="stroke" d="M172.29,90c-3-1.67-6.18-.09-8.61,1.89a40.75,40.75,0,0,0-1.52-10.19c-.56-1.74-.83-3.56-1.46-5.28a31.54,31.54,0,0,0-3.6-6.91A30,30,0,0,0,146,59.25a51.55,51.55,0,0,0-11.89-4.63c-12.21-2.85-25.47-3-37.36,1.31a61.49,61.49,0,0,0-13.67,6.64,21,21,0,0,0-7.64,8.86c-2.2,5-2.48,10.72-3,16.11-.11,1.18-.2,2.37-.29,3.55a8.19,8.19,0,0,0-4.23-1.72c-2.28-.25-5.34.53-6.44,2.75-.69,1.38-.27,3.16-.06,4.61a15.24,15.24,0,0,0,1.36,4.52,17.41,17.41,0,0,0,4.47,5.16c1.87,1.62,3.93,3.26,4.85,5.63.27,4.25.68,8.49,1.3,12.68.93,6.26,2.75,12.31,6.39,17.55A60.4,60.4,0,0,0,105.94,163a30.47,30.47,0,0,0,11.68,1.87c5.51,0,11.11-.27,16.4-2,5.61-1.81,9.81-6,14.3-9.63a63,63,0,0,0,6.52-5.45,25.34,25.34,0,0,0,4.36-6.3,28.09,28.09,0,0,0,2.35-7.43A184.94,184.94,0,0,0,164,112.4a1.37,1.37,0,0,0,.13-.72c0-.3,0-.31,0-.45a3.59,3.59,0,0,1,.59-.9,17,17,0,0,1,2.24-2.09c1.66-1.34,3.45-2.51,5-3.94a11,11,0,0,0,3.28-6.38C175.71,95.1,175,91.5,172.29,90ZM70.55,105.31c-1.8-1.59-3.81-3.08-5-5.22a12.45,12.45,0,0,1-1.29-4.5c-.07-.59-.36-1.63-.09-2.17s.92-.71,1.35-.86a5,5,0,0,1,5.81,2.06,1.49,1.49,0,0,0,.57.55c-.15,3.38-.21,6.76-.12,10.14,0,.4,0,.81,0,1.21C71.43,106.11,71,105.7,70.55,105.31Zm81.39,41.18c-1.86,1.82-4.05,3.27-6.07,4.92-2.3,1.89-4.53,3.88-7,5.63-4.18,3-9.18,4.19-14.25,4.62-4.51.37-9.45.6-13.91-.31-3.53-.71-6.71-2.47-9.83-4.2a59,59,0,0,1-14-10.86,36.89,36.89,0,0,1-9.08-15c-1.74-5.92-2.23-12.16-2.68-18.28,0-.46-.06-.91-.09-1.37v-.08A145.9,145.9,0,0,1,74.86,96a133.76,133.76,0,0,1,1.69-17.76A19.36,19.36,0,0,1,81.2,68c2.74-2.9,6.34-4.8,9.9-6.47a59.74,59.74,0,0,1,17.34-5.44,66.65,66.65,0,0,1,17.79.15,51.76,51.76,0,0,1,13.5,3.29c3.91,1.65,7.79,3.56,10.79,6.6,3.39,3.42,6.48,7.84,7.76,12.53a53.82,53.82,0,0,1,1.88,8.18,158,158,0,0,1-.1,37c-.39,3.15-.87,6.28-1.4,9.41A23.88,23.88,0,0,1,151.94,146.49Zm19.81-47a6.82,6.82,0,0,1-1.87,2.71c-1.76,1.6-3.78,2.87-5.59,4.41l-.14.12c0-3.89,0-7.8-.28-11.71a1.44,1.44,0,0,0,1.22-.38c1.17-1,2.53-2.18,4.17-2.3s2.64,1.08,3,2.6A7.43,7.43,0,0,1,171.75,99.47Z"/></g></svg>