<svg xmlns="http://www.w3.org/2000/svg" viewBox="0 0 235 235"><g id="face-3"><g class="c-skin"><path d="M167.34,93.6a4.7,4.7,0,0,0-1.49-2,4.61,4.61,0,0,0-4.23-.42,34.53,34.53,0,0,0-4.81,2.7c-.1-1.71-.22-3.45-.37-5.24-.58-7-.76-4.71-1.62-9.46-1.08-6-6.46-14.9-11.22-17.83-5.59-3.44-8.57-5.19-17.32-6.54s-17.85-1-27.32,3.86c-10.07,5.14-14.95,9.1-16.22,21-.51,4.77-.88,9-1.1,13-3.76-1.41-8.64-2.11-10.44-1A2.58,2.58,0,0,0,70.05,93,3.2,3.2,0,0,0,70,94.28a18.73,18.73,0,0,0,1.1,5.46c1.4,3.54,6.68,6.06,10.47,9,.13,3.25.36,6.68.68,10.45.6,7.14,0,15.61,4.87,20.66,6.25,6.46,8.51,6,14.82,12.7,5.39,5.72,8.34,10.19,18.75,10.19a23.75,23.75,0,0,0,21.06-11.87c4.59-4.74,12.26-10.34,13.24-17.16A202.06,202.06,0,0,0,157.12,110c2.64-2.82,7.53-6.08,8.75-7.83C167.59,99.67,168.46,96.4,167.34,93.6Z"/></g><path id="stroke" d="M165.61,89.73c-2.66-1.08-5.23,0-7.36,1.65-.18-2.53-.43-5-.83-7.53-.17-1.08-.51-2.12-.76-3.19a41.3,41.3,0,0,0-1.76-6.45c-1.92-4.72-4.8-9.58-8.75-12.89a34.77,34.77,0,0,0-5.56-3.56,34.39,34.39,0,0,0-5.88-2.63,49.08,49.08,0,0,0-8-1.81,49.56,49.56,0,0,0-18.49.35,50.11,50.11,0,0,0-16,7,22.58,22.58,0,0,0-8.28,8.66c-2.39,4.81-2.73,10.23-3.21,15.49-.21,2.3-.37,4.6-.51,6.9a8.05,8.05,0,0,0-4.95-2.38c-2.28-.26-5.34.53-6.45,2.75-.68,1.37-.27,3.15,0,4.6a14.59,14.59,0,0,0,1.36,4.52,17.3,17.3,0,0,0,4.47,5.17c1.88,1.62,4,3.27,4.87,5.66a1.47,1.47,0,0,0,.87.89c.2,3.06.43,6.11.6,9.17.28,5.34.31,11.14,3,15.93,2.45,4.34,7,7.27,10.95,10.16s7,6.77,10.52,10.17A19.72,19.72,0,0,0,117.1,164a26.29,26.29,0,0,0,23.44-8.84c1.13-1.35,2.07-3.1,3.18-4.18,3.78-3.72,8.09-7.16,10.8-11.81a20.52,20.52,0,0,0,2.3-8c.44-3.33.84-6.66,1.14-10,.25-2.71.42-5.42.54-8.14a1.24,1.24,0,0,0,.95-1.38,2.69,2.69,0,0,1,.68-1.69,15.19,15.19,0,0,1,2-2.12c1.45-1.37,3.09-2.6,4.4-4.11a11.82,11.82,0,0,0,2.84-7.18C169.42,93.86,168.27,90.8,165.61,89.73ZM77.89,105.3c-1.81-1.58-3.81-3.08-5-5.22a12.52,12.52,0,0,1-1.28-4.5c-.07-.58-.36-1.62-.09-2.16s.92-.71,1.35-.86a5,5,0,0,1,5.81,2.06,1.36,1.36,0,0,0,1.36.7c-.11,2.64-.17,5.29-.14,7.93,0,1.4.07,2.8.13,4.2A21.71,21.71,0,0,0,77.89,105.3ZM154,129.85c-.36,2.77-.64,5.37-2.06,7.82a30.08,30.08,0,0,1-4.85,5.94c-1.71,1.72-3.51,3.33-5.24,5a9.86,9.86,0,0,0-1.71,2,22.33,22.33,0,0,1-14.61,10.12c-4.48.9-9.83.77-13.94-1.43-3.61-1.94-6.15-5.31-8.93-8.21A46.83,46.83,0,0,0,97,146.07c-1.57-1.2-3.22-2.28-4.75-3.53a23.56,23.56,0,0,1-5.53-5.7,18.78,18.78,0,0,1-2.22-7.14c-.36-2.63-.43-5.29-.58-7.94-.16-3-.46-6-.64-8.94-.35-5.76-.47-11.52-.25-17.28a141.14,141.14,0,0,1,1.52-18,19.88,19.88,0,0,1,4.6-10.45C92,64,95.73,62,99.4,60.08a40.57,40.57,0,0,1,17.94-4.49,52,52,0,0,1,8.54.62,38.83,38.83,0,0,1,13.19,4.14,28.76,28.76,0,0,1,5.3,3.39,26.53,26.53,0,0,1,4.53,5.43,34.63,34.63,0,0,1,3.42,6.66,50.18,50.18,0,0,1,1.51,5.91,63.45,63.45,0,0,1,1.43,11.19A189.89,189.89,0,0,1,154,129.85Zm10.33-28.15c-1.48,1.67-3.32,3-4.9,4.58l-.75.77c0-1.67,0-3.34,0-5,0-2.35-.1-4.73-.2-7.1a1.72,1.72,0,0,0,.56-.33,7.84,7.84,0,0,1,3.93-2.29,2.75,2.75,0,0,1,3.07,2A8,8,0,0,1,164.32,101.7Z"/></g></svg>