<svg xmlns="http://www.w3.org/2000/svg" viewBox="0 0 235 235"><g id="face-3"><g class="c-skin"><path d="M163,92.64a4.17,4.17,0,0,0-5.72-2.48c-.9.32-2.65.91-4.08,1.56-.08-1.33-.17-2.68-.28-4.1-.52-7-.69-4.7-1.47-9.45-1-6.06-5.85-14.91-10.17-17.84-5.07-3.43-7.77-5.18-15.71-6.53s-16.18-1-24.76,3.86c-9.14,5.13-13.56,9.1-14.71,21-.5,5.17-.85,9.69-1,14-3-2-8.2-3.35-10.38-2a2.62,2.62,0,0,0-1.14,1.3,3.18,3.18,0,0,0-.08,1.27,19.56,19.56,0,0,0,1.1,5.46c1.78,4.49,7.87,8.51,10.65,12.92.11,2.07.25,4.22.43,6.5.54,7.14,1.44,11.45,4.42,17.67,2.85,5.95,8.94,11.22,15,15.68,4.47,3.28,10.76,4.21,16,4.06,0,0,4.67,0,5-.09a31.39,31.39,0,0,0,13.32-6l4.28-3.28c4.55-4.29,7.06-9.75,8-16.57,1-7.75,1.63-14,1.88-20.1l.14,1.09c-.35-3,6.2-7.06,7.92-9.53S164.15,95.44,163,92.64Z" /></g><g class="c-hair accessory-3" data-name="c-hair accessory-3"><path d="M86.16,92.87c3.14,2.63,6.33,5.33,8.53,8.79,3.52,5.54,4.11,7.38,4.64,13.93a18.41,18.41,0,0,0,1.23,6.16,6.29,6.29,0,0,0,4.66,3.84c2.56.3,4.81-1.48,7-2.82,4.94-3,11.92-3.76,16.1.23a13.2,13.2,0,0,0,2.75,2.49,5.59,5.59,0,0,0,5.48-.73c4.25-2.82,5.52-8.35,7-13.23,2.22-7.4,5.64-9.44,10.08-15.75L153,125.54c-.07,3.41-.16,6.9-1.38,10.08-1.75,4.55-5.58,7.92-9.35,11-5,4-8.81,4.32-14,8a10,10,0,0,1-3.67,1.89,9.71,9.71,0,0,1-5.34-1c-3.74-1.46-8.65.45-11.95-1.83a68.07,68.07,0,0,1-9.82-8.85c-4.36-4.47-8.86-9.17-10.7-15.13-1.15-3.73-1.17-7.69-1.16-11.59,0-8,.18-16,.33-24" /></g><path id="stroke" d="M161.3,88.76c-2.39-1-4.7-.15-6.69,1.18-.08-1.22-.16-2.43-.27-3.65a33.8,33.8,0,0,0-.6-4.69,59.28,59.28,0,0,0-2.58-9.7c-1.76-4.25-4.21-8.72-7.72-11.79a33.09,33.09,0,0,0-10.32-6A41.38,41.38,0,0,0,126,52.35a41.59,41.59,0,0,0-16.26.21A43.44,43.44,0,0,0,95.57,59.1,23.84,23.84,0,0,0,88,66.71c-2.16,3.72-2.95,8-3.36,12.22q-.57,5.92-.87,11.86a8.06,8.06,0,0,0-5-2.39c-2.28-.25-5.35.53-6.45,2.76-.68,1.37-.27,3.15,0,4.6a14.93,14.93,0,0,0,1.35,4.52,17.44,17.44,0,0,0,4.48,5.16c1.88,1.63,4,3.27,4.86,5.66a1.5,1.5,0,0,0,.79.86c0,.34,0,.68,0,1,.32,5.35.58,10.82,2,16A35.69,35.69,0,0,0,93,142.86a51.82,51.82,0,0,0,6,5.83,51.83,51.83,0,0,0,6.62,5c4.48,2.67,9.93,3.49,15.07,3.42l3.84-.05a19.46,19.46,0,0,0,5.38-1,36.63,36.63,0,0,0,11.49-6.22c1-.76,2-1.5,3-2.28a21.5,21.5,0,0,0,4.4-5.19c2.84-4.45,3.89-9.45,4.54-14.61.68-5.37,1.2-10.74,1.48-16.11a1.29,1.29,0,0,0,.3-1,2.67,2.67,0,0,1,.68-1.69,15.81,15.81,0,0,1,2-2.12c1.45-1.38,3.09-2.6,4.41-4.12A11.87,11.87,0,0,0,165,95.6C165.12,92.9,164,89.83,161.3,88.76ZM81.4,104.34c-1.8-1.59-3.81-3.08-5-5.22a12.45,12.45,0,0,1-1.29-4.5A4.86,4.86,0,0,1,75,92.45c.22-.43.93-.7,1.36-.85a5,5,0,0,1,5.8,2.05,1.38,1.38,0,0,0,1.4.7q-.2,6.06,0,12.13A22.75,22.75,0,0,0,81.4,104.34Zm70.09,13.22c-.47,5.32-.8,10.89-2.15,16.07A23.64,23.64,0,0,1,142.91,145a52.54,52.54,0,0,1-6,4.49c-3.51,2.33-7.95,4.48-12.23,4.56a50.28,50.28,0,0,1-10.48-.44,21.75,21.75,0,0,1-6.7-2.31,44.85,44.85,0,0,1-6.52-4.88c-3.91-3.3-7.59-7-9.79-11.71a41.81,41.81,0,0,1-3.76-13.5,189.64,189.64,0,0,1-.66-32.06c.31-5.08.45-10.39,1.64-15.37A18.35,18.35,0,0,1,93,65a37,37,0,0,1,9.24-6.42,33.45,33.45,0,0,1,15.73-4,44.85,44.85,0,0,1,7.23.62,33,33,0,0,1,11.75,4,29.52,29.52,0,0,1,4.58,3.15,23.22,23.22,0,0,1,4,5,33.77,33.77,0,0,1,4.7,12.07c.44,2.46,1,4.74,1.19,7.25A184.77,184.77,0,0,1,151.49,117.56ZM160,100.73c-1.48,1.68-3.31,3-4.9,4.59,0,0,0,0-.06.06.06-3.3,0-6.61-.12-9.93,0-.63-.07-1.27-.1-1.91a7.52,7.52,0,0,1,3.8-2.17,2.74,2.74,0,0,1,3.07,2C162.6,95.78,161.6,98.93,160,100.73Z"/><g class="c-hair accessory-2" data-name="c-hair accessory-2"><path d="M138,125.08c-1.68-1.46-4.06-1.74-6.28-1.85a68.36,68.36,0,0,0-9.81.22,6.09,6.09,0,0,0-2.69.73,6.05,6.05,0,0,0-2.68-.73,68.53,68.53,0,0,0-9.82-.22c-2.22.11-4.6.39-6.27,1.85a9,9,0,0,0-3,7,.73.73,0,0,0,1.33.27,7.42,7.42,0,0,1,3.28-2.35,28.94,28.94,0,0,1,8.38-1,19.17,19.17,0,0,0,5.51-.19,5.19,5.19,0,0,0,3.29-2.91,5.19,5.19,0,0,0,3.3,2.91,19.08,19.08,0,0,0,5.5.19,28.9,28.9,0,0,1,8.38,1,7.37,7.37,0,0,1,3.28,2.35.73.73,0,0,0,1.33-.27A9,9,0,0,0,138,125.08Z" /></g></g></svg>