<svg xmlns="http://www.w3.org/2000/svg" viewBox="0 0 235 235"><g id="face-6"><g class="c-skin"><path d="M169.42,93.64a4.17,4.17,0,0,0-5.72-2.48A11.52,11.52,0,0,0,160,93.59v1.06c-.12-2-.28-4-.46-6-.63-7-.84-4.7-1.77-9.45-1.18-6.06-7-14.91-12.24-17.84-6.09-3.43-9.34-5.18-18.9-6.53s-19.47-1-29.79,3.86c-11,5.13-16.31,9.1-17.7,21-.65,5.53-1.08,10.33-1.3,14.94-1.81-2.8-6.79-4.64-9.54-2.87a2.59,2.59,0,0,0-1.15,1.3,3,3,0,0,0-.07,1.27,19.19,19.19,0,0,0,1.09,5.46c2,5.14,7.93,6.72,9.83,11.93v0c.15,2.37.34,4.86.59,7.51.65,7.14,1.74,14.45,5.31,20.67,4.27,7.41,11.63,12.47,19,16.8,7.21,4.25,10.54,5.59,21.89,5.19a25.13,25.13,0,0,0,12.48-4.19c3.61-2.41,7.64-4.66,11.11-7.38A25,25,0,0,0,158,133.72a184.86,184.86,0,0,0,2.34-23.4c1.22-2.77,6.18-6,7.65-8.14C169.67,99.71,170.54,96.44,169.42,93.64Z"/></g><path id="stroke" d="M167.69,89.76c-2.29-.92-4.51-.21-6.45,1-.09-1.16-.18-2.32-.3-3.49a27,27,0,0,0-.75-4.81c-.36-1.28-.69-2.55-1-3.86a26.55,26.55,0,0,0-2.44-6.44c-2.24-4.36-5.41-8.71-9.48-11.53a43.36,43.36,0,0,0-11-5.35,62.63,62.63,0,0,0-16.09-2.62,51.46,51.46,0,0,0-17.91,2.26,58.55,58.55,0,0,0-14.1,6.67,22,22,0,0,0-7.73,8.1c-2.27,4.35-2.71,9.23-3.21,14q-.37,3.67-.63,7.36a8.22,8.22,0,0,0-4.2-1.7c-2.28-.25-5.34.53-6.45,2.76-.68,1.37-.27,3.15,0,4.6a14.93,14.93,0,0,0,1.35,4.52,17.44,17.44,0,0,0,4.48,5.16c1.87,1.62,3.92,3.25,4.84,5.62.15,2.38.34,4.77.56,7.14.56,6.09,1.39,12.23,3.79,17.9,4.4,10.42,14.2,17,23.77,22.31a30,30,0,0,0,10.82,3.7c5.3.66,11.15.68,16.24-1.07a33.91,33.91,0,0,0,7.41-3.8c2.63-1.69,5.32-3.28,7.88-5.07,4.41-3.09,8.13-6.88,10.3-11.87a29.85,29.85,0,0,0,2.08-7.18,201.21,201.21,0,0,0,2.33-23.33,4.09,4.09,0,0,1,.47-.77,15.19,15.19,0,0,1,2-2.12c1.45-1.38,3.09-2.6,4.4-4.12a11.82,11.82,0,0,0,2.84-7.18C171.5,93.9,170.35,90.83,167.69,89.76ZM76.3,106.55c-.41-.42-.84-.82-1.29-1.21-1.8-1.59-3.81-3.08-5-5.22a12.64,12.64,0,0,1-1.28-4.5,4.72,4.72,0,0,1-.1-2.17A2.54,2.54,0,0,1,70,92.59a5,5,0,0,1,5.8,2.06,1.54,1.54,0,0,0,.56.55c-.09,2-.15,4-.16,6C76.2,103,76.24,104.78,76.3,106.55Zm82.46,3.54a4,4,0,0,0-.23,1.62,1.71,1.71,0,0,0,.15.57c-.16,4-.46,8-.93,12.08-.35,3-.77,6-1.23,9a24.57,24.57,0,0,1-6,13c-3.78,4.11-8.86,6.72-13.47,9.74a27.26,27.26,0,0,1-7.36,3.52,29.82,29.82,0,0,1-8.37.9,30.21,30.21,0,0,1-11.51-1.82,66,66,0,0,1-11.39-6.47,43.87,43.87,0,0,1-11.7-10.65c-3.31-4.65-4.94-10.1-5.85-15.68a133.11,133.11,0,0,1-1.37-13.68,1.37,1.37,0,0,0,0-.72c-.06-1-.12-2.09-.16-3.14a152.51,152.51,0,0,1,.15-16c.18-2.92.44-5.85.74-8.76a59.26,59.26,0,0,1,1.1-7.62,18.09,18.09,0,0,1,5.06-9.14c2.83-2.68,6.42-4.5,9.91-6.17a48.28,48.28,0,0,1,16.82-4.77,62.82,62.82,0,0,1,16.59,1,39.66,39.66,0,0,1,11.48,3.85,32,32,0,0,1,5.27,3.1A25.83,25.83,0,0,1,151,68.6a31.7,31.7,0,0,1,5.58,12.12c.23,1,.59,2,.84,3.07a38.53,38.53,0,0,1,.69,5.57A181.72,181.72,0,0,1,158.76,110.09Zm7.64-8.36c-1.38,1.56-3.05,2.83-4.56,4.27,0-3,0-5.9-.17-8.86,0-1-.12-1.9-.17-2.84A7,7,0,0,1,165,92.37a2.74,2.74,0,0,1,3.07,2A8,8,0,0,1,166.4,101.73Z"/></g></svg>