<svg xmlns="http://www.w3.org/2000/svg" viewBox="0 0 235 235"><g id="face-2"><g class="c-skin"><path d="M163,92.64a4.17,4.17,0,0,0-5.72-2.48c-.69.25-2.4.89-4.08,1.59-.08-1.33-.17-2.69-.28-4.13-.52-7-.69-4.7-1.47-9.45-1-6.06-5.85-14.91-10.17-17.84-5.07-3.43-7.77-5.18-15.71-6.53s-16.18-1-24.76,3.86c-9.14,5.13-13.56,9.1-14.71,21-.5,5.1-.84,9.57-1,13.85-3.37-1.85-8.39-3.07-10.39-1.78a2.62,2.62,0,0,0-1.14,1.3,3.18,3.18,0,0,0-.08,1.27,19.56,19.56,0,0,0,1.1,5.46c1.69,4.25,7.51,7.19,10.55,11,.12,2.64.3,5.41.53,8.39.54,7.14,1.44,11.45,4.42,17.67,2.85,5.95,8.94,11.22,15,15.68,4.47,3.28,7.17,8.37,12.37,8.22,1.21,0,8.1,0,9.31,0,4-.09,5.89-5.29,9-7.48l7.85-6c4.55-4.29,7.06-9.75,8-16.57,1-7.56,1.6-13.65,1.86-19.64l.16.63c-.35-3,6.2-7.06,7.92-9.53S164.15,95.44,163,92.64Z" /></g><g class="c-hair accessory-3" data-name="c-hair accessory-3"><path d="M86.16,92.87c3.14,2.63,6.33,5.33,8.53,8.79,3.52,5.54,4.11,7.38,4.64,13.93a18.41,18.41,0,0,0,1.23,6.16,6.29,6.29,0,0,0,4.66,3.84c2.56.3,4.81-1.48,7-2.82,4.94-3,11.92-3.76,16.1.23a13.2,13.2,0,0,0,2.75,2.49,5.59,5.59,0,0,0,5.48-.73c4.25-2.82,5.52-8.35,7-13.23,2.22-7.4,5.64-9.44,10.08-15.75L153,125.54c-.07,3.41-.16,6.9-1.38,10.08-1.75,4.55-5.58,7.92-9.35,11q-7.43,6.06-15.25,11.6a9.81,9.81,0,0,1-3.67,1.89,9.71,9.71,0,0,1-5.34-1,51.88,51.88,0,0,1-10.72-5.42,68.07,68.07,0,0,1-9.82-8.85c-4.36-4.47-8.86-9.17-10.7-15.13-1.15-3.73-1.17-7.69-1.16-11.59,0-8,.18-16,.33-24" /></g><path id="stroke" d="M161.3,88.76c-2.35-1-4.63-.17-6.6,1.12-.16-2.38-.38-4.75-.74-7.09-.15-1-.44-2-.65-3a50.4,50.4,0,0,0-1.49-6.2,34.5,34.5,0,0,0-7.73-12.89A29.23,29.23,0,0,0,139,57a31,31,0,0,0-5.56-2.78A41.87,41.87,0,0,0,126,52.35a41.19,41.19,0,0,0-17.09.42,44,44,0,0,0-14.42,7.07,21.85,21.85,0,0,0-7.4,8.56c-2.11,4.66-2.45,9.77-2.88,14.8q-.31,3.8-.49,7.57a8.15,8.15,0,0,0-4.94-2.37c-2.28-.25-5.35.53-6.45,2.76-.68,1.37-.27,3.15,0,4.6a14.93,14.93,0,0,0,1.35,4.52,17.44,17.44,0,0,0,4.48,5.16c1.88,1.63,4,3.27,4.86,5.66a1.51,1.51,0,0,0,.8.86c.12,2.38.27,4.76.47,7.14a48.69,48.69,0,0,0,3.67,15.6,37.88,37.88,0,0,0,10.62,13.57c2.26,1.93,4.76,3.57,7,5.52,1.84,1.6,3.44,3.46,5.36,5a10.33,10.33,0,0,0,6.43,2.51c1.52,0,3,0,4.54,0s3.24.07,4.85,0a7.71,7.71,0,0,0,5.38-2.7c1.5-1.57,2.64-3.49,4.33-4.87.71-.58,1.47-1.12,2.2-1.68A80.43,80.43,0,0,0,145,147.1a26.83,26.83,0,0,0,7.41-13.43,79.83,79.83,0,0,0,1.31-8.86c.34-2.88.64-5.77.88-8.66.12-1.51.21-3,.29-4.53a1.31,1.31,0,0,0,.24-.91,2.67,2.67,0,0,1,.68-1.69,15.81,15.81,0,0,1,2-2.12c1.45-1.38,3.09-2.6,4.41-4.12A11.87,11.87,0,0,0,165,95.6C165.12,92.9,164,89.83,161.3,88.76ZM81.4,104.34c-1.8-1.59-3.81-3.08-5-5.22a12.45,12.45,0,0,1-1.29-4.5A4.86,4.86,0,0,1,75,92.45c.22-.43.93-.7,1.36-.85a5,5,0,0,1,5.8,2.05,1.39,1.39,0,0,0,1.39.7c-.12,4.05-.14,8.1,0,12.15A19.92,19.92,0,0,0,81.4,104.34Zm69.51,18.91c-.61,5.37-1.06,10.89-3.59,15.77a21.69,21.69,0,0,1-6.27,7.4c-2,1.52-4,3.05-6,4.57a23.26,23.26,0,0,0-3.88,4c-1.15,1.4-2.45,3.09-4.39,3.24-3,.22-6,0-9,0-4.62,0-7.27-4.14-10.47-6.85-2.12-1.79-4.43-3.34-6.55-5.13a50.76,50.76,0,0,1-5.95-5.87,33,33,0,0,1-6.58-14c-1.23-5.41-1.39-11.08-1.65-16.6s-.31-11-.08-16.52A151,151,0,0,1,87.9,76.47c.58-3.76,1.72-7.54,4.22-10.49s5.66-4.85,8.88-6.69a34.17,34.17,0,0,1,16.36-4.66,42.89,42.89,0,0,1,7.84.61,33.19,33.19,0,0,1,12.38,4.42,24.51,24.51,0,0,1,4.71,3.5,27.37,27.37,0,0,1,4,5.51c3.91,6.85,4.93,14.57,5.42,22.3A182.25,182.25,0,0,1,150.91,123.25Zm9.1-22.52c-1.48,1.68-3.31,3-4.9,4.59h0c0-1.89,0-3.78,0-5.67-.05-2-.1-4.11-.19-6.17a7.42,7.42,0,0,1,3.74-2.12,2.74,2.74,0,0,1,3.07,2C162.6,95.78,161.6,98.93,160,100.73Z"/><g class="c-hair accessory-2" data-name="c-hair accessory-2"><path d="M138,125.08c-1.68-1.46-4.06-1.74-6.28-1.85a68.36,68.36,0,0,0-9.81.22,6.09,6.09,0,0,0-2.69.73,6.05,6.05,0,0,0-2.68-.73,68.53,68.53,0,0,0-9.82-.22c-2.22.11-4.6.39-6.27,1.85a9,9,0,0,0-3,7,.73.73,0,0,0,1.33.27,7.42,7.42,0,0,1,3.28-2.35,28.94,28.94,0,0,1,8.38-1,19.17,19.17,0,0,0,5.51-.19,5.19,5.19,0,0,0,3.29-2.91,5.19,5.19,0,0,0,3.3,2.91,19.08,19.08,0,0,0,5.5.19,28.9,28.9,0,0,1,8.38,1,7.37,7.37,0,0,1,3.28,2.35.73.73,0,0,0,1.33-.27A9,9,0,0,0,138,125.08Z" /></g></g></svg>