<svg xmlns="http://www.w3.org/2000/svg" viewBox="0 0 235 235"><g id="face-5"><g class="c-skin"><path d="M167.34,94.35a4.17,4.17,0,0,0-5.73-2.48,39.4,39.4,0,0,0-4.81,2.55c-.1-1.66-.22-3.35-.36-5.09-.58-7-.77-4.7-1.62-9.46C153.74,73.82,148.36,65,143.6,62,138,58.6,135,56.85,126.28,55.51s-17.85-1-27.32,3.86c-10.08,5.13-14.95,9.1-16.23,21-.53,5-.9,9.44-1.12,13.66-2.42-2.24-7.92-3.2-10.41-1.59a2.66,2.66,0,0,0-1.15,1.29A3.2,3.2,0,0,0,70,95a18.73,18.73,0,0,0,1.1,5.46c1.83,4.63,8,7.38,10.6,11.67.13,2.45.32,5,.55,7.76.6,7.14,1.59,14.45,4.87,20.66C91,148,97.76,153,104.52,157.38s9.66,5.58,20.07,5.19a21.9,21.9,0,0,0,11.44-4.2c3.31-2.4,7-4.65,10.18-7.37,5-4.29,7.78-9.75,8.76-16.57a201.9,201.9,0,0,0,2.16-24.09c2.76-2.71,7.55-5.75,8.74-7.45C167.59,100.42,168.46,97.14,167.34,94.35Z"/></g><path id="stroke" d="M165.61,90.47c-2.7-1.09-5.3.09-7.45,1.72-.5-7-1.46-14.1-4.71-20.4-2.06-4-4.86-8.16-8.64-10.75a40.6,40.6,0,0,0-10.69-5.36,51.25,51.25,0,0,0-7.45-1.62,50.62,50.62,0,0,0-17,0,49.09,49.09,0,0,0-15.52,6.14,27.32,27.32,0,0,0-8.73,7.36,24.6,24.6,0,0,0-4,11.27c-.61,4.49-1,9-1.26,13.56a8.15,8.15,0,0,0-4.9-2.32c-2.28-.25-5.34.53-6.45,2.75-.68,1.37-.27,3.16,0,4.6A14.91,14.91,0,0,0,70.11,102a17.56,17.56,0,0,0,4.48,5.16c1.88,1.62,4,3.27,4.87,5.66a1.46,1.46,0,0,0,.81.87C80.93,125,81.79,137,89,146.23a52.5,52.5,0,0,0,12.08,10.7c3.39,2.31,6.93,4.72,10.86,6A34.67,34.67,0,0,0,125.38,164a23,23,0,0,0,7.86-2.24,58.21,58.21,0,0,0,7.2-4.66c4.51-3.09,9-6.27,11.95-11s3.84-9.77,4.54-15.09q1.14-8.62,1.53-17.27a1.25,1.25,0,0,0,1-1.39,2.67,2.67,0,0,1,.67-1.69,15.81,15.81,0,0,1,2-2.11c1.45-1.38,3.09-2.61,4.4-4.12a11.75,11.75,0,0,0,2.83-7.18C169.42,94.61,168.27,91.54,165.61,90.47ZM77.89,106.05c-1.81-1.59-3.81-3.08-5-5.22a12.63,12.63,0,0,1-1.28-4.51,4.68,4.68,0,0,1-.1-2.16c.22-.44.93-.71,1.36-.86a5,5,0,0,1,5.81,2.06,1.39,1.39,0,0,0,1.31.71q-.19,6,0,12.1A22.33,22.33,0,0,0,77.89,106.05Zm77.22,14.12c-.23,2.86-.53,5.71-.88,8.55a74.42,74.42,0,0,1-1.3,8.42,24,24,0,0,1-6.92,12,55.44,55.44,0,0,1-6.53,5,74.42,74.42,0,0,1-6.83,4.56c-4.56,2.45-9.59,2.68-14.66,2.31a22.28,22.28,0,0,1-9.74-3.1,75.34,75.34,0,0,1-11.7-8.19,33.52,33.52,0,0,1-9.27-12.28c-2.11-5.06-2.91-10.58-3.42-16a191.33,191.33,0,0,1-.44-32.29c.38-5,.54-10.2,2.08-15A17.73,17.73,0,0,1,91.05,66a45.29,45.29,0,0,1,10.66-6.26A39.9,39.9,0,0,1,118,56.33a53.72,53.72,0,0,1,7.91.62c7.92,1.24,16.36,4.15,21.44,10.73a31,31,0,0,1,5.94,12,65.42,65.42,0,0,1,1.44,7.06A179.4,179.4,0,0,1,155.11,120.17Zm9.21-17.73c-1.48,1.67-3.32,3-4.9,4.58l-.79.82q.08-6.06-.25-12.13a1.59,1.59,0,0,0,.63-.35,7.82,7.82,0,0,1,3.93-2.28,2.73,2.73,0,0,1,3.07,2A8,8,0,0,1,164.32,102.44Z"/></g></svg>