<svg xmlns="http://www.w3.org/2000/svg" viewBox="0 0 235 235"><g id="face-7"><g class="c-skin"><path d="M163,92.64a4.17,4.17,0,0,0-5.72-2.48,21.83,21.83,0,0,0-3.8,2.39c-.23-1.58-.43-3.21-.56-4.93-.52-7-.69-4.7-1.47-9.45-1-6.06-5.85-14.91-10.17-17.84-5.07-3.43-7.77-5.18-15.71-6.53s-16.18-1-24.76,3.86c-9.14,5.13-13.56,9.1-14.71,21A114,114,0,0,1,83.6,93.19c-3.25-2-7.19-3.53-8.89-2.44a2.62,2.62,0,0,0-1.14,1.3,1,1,0,0,0-.07.29,11,11,0,0,0,.74,5.51c2.17,5.9,4.25,7.35,6.26,12.86l.11-.19a55,55,0,0,0,.06,7.68c.54,7.14.19,16.38,3.48,22.42,4.47,8.19,14.88,6.47,21,10.93,4.47,3.28,10.76,4.21,16,4.06,0,0,4.67,0,5-.09a31.44,31.44,0,0,0,11.55-4.69,15.33,15.33,0,0,1,4.29-2c6-1.7,15.47-6.91,16.1-13.16.2-1.91.34-3.91.61-6a54,54,0,0,0-1.4-20.19v0c-.34-3,2.61-5.9,4.33-8.37S164.15,95.44,163,92.64Z"  /></g><g class="c-hair accessory-3" data-name="c-hair accessory-3"><path d="M82.76,89.94c3.14,2.63,7.43,15.53,7.81,19.61.82,8.89.44,8,2.23,13.6,1.12,3.53,3.31,6.11,4.18,8s3.93-.88,7-3.24a25,25,0,0,1,3.88-2.56c4.94-3,15.75-3.06,23.1-.33,1.17.44,2.67,2,4.09,2.89,1.62,1.05,4.39,5.26,6,4.19,4.26-2.82,7.22-9.54,7.58-14.63.56-8,.58-15.41,5-21.72-.21,9.92,5.58,19.38,5.37,29.3a65.28,65.28,0,0,1-2.93,14.83c-1.75,4.54-7.37,5.75-12.14,8.15-5.71,2.88-10.05,3.38-15.26,7.07-1.13.81-6.21.21-7.57.48-1.8.36-5.59,1.64-7.3,1-3.73-1.46-3.21-.56-6.51-2.84-3.64-2.51-16.65-6.42-19.73-9.58-4.36-4.47-3.71-8.55-5.55-14.51a37.71,37.71,0,0,1-1.34-11.45c0-8,2.78-17,2.93-25"  /></g><path id="stroke" d="M162.19,102.85a12.23,12.23,0,0,0,2.83-8c-.16-2.76-1.6-5.76-4.54-6.38a7.49,7.49,0,0,0-5.81,1.4c-.23-2.23-.35-4.48-.65-6.71-.15-1.1-.44-2.14-.67-3.21a56.35,56.35,0,0,0-1.42-6,34.85,34.85,0,0,0-7.63-13,27.73,27.73,0,0,0-5.2-3.86,31.3,31.3,0,0,0-5.54-2.8A40.3,40.3,0,0,0,126,52.35a40.72,40.72,0,0,0-17.51.53A44,44,0,0,0,94.26,60,21.57,21.57,0,0,0,87,68.66c-2.1,4.77-2.18,9.92-3,15-.34,2.11-.77,4.19-1.22,6.28a8.1,8.1,0,0,0-4.88-1.59c-2.92,0-6.1,1.7-5.89,5a23.65,23.65,0,0,0,3,9.85,62.35,62.35,0,0,1,4.06,7.93l.06.11a56.25,56.25,0,0,0,.06,7c.39,5.52.33,11.1,1.41,16.55,1,4.79,3,9.28,7.38,11.86,3.76,2.24,8.17,2.79,12.25,4.18A32.94,32.94,0,0,1,106,153.9a24.24,24.24,0,0,0,7.8,2.68,57,57,0,0,0,11.6.47,21.29,21.29,0,0,0,6.88-1.77,34.06,34.06,0,0,0,3.87-1.81c1.39-.76,2.66-1.73,4.1-2.4,2.07-1,4.36-1.47,6.47-2.39a32.81,32.81,0,0,0,6.45-3.71,19.17,19.17,0,0,0,4.9-5.06c1.33-2.16,1.46-4.44,1.69-6.91.3-3.14.76-6.24.77-9.4a53.51,53.51,0,0,0-.64-8.28c-.3-2-.71-4-1.16-6C158.63,106.87,160.78,104.71,162.19,102.85Zm-83.5.76a26.89,26.89,0,0,1-3.21-7,20.28,20.28,0,0,1-.38-2.18A5,5,0,0,1,75,92.54c.27-.75,1.7-1.09,2.38-1.17a5.07,5.07,0,0,1,4.65,2c-.54,2.38-1.08,4.75-1.55,7.14-.32,1.6-.58,3.2-.8,4.8C79.34,104.76,79,104.18,78.69,103.61ZM157,131.14c-.26,2.35-.11,4.89-1.32,7-2.16,3.73-6.45,6.18-10.27,7.88-2,.87-4.07,1.33-6,2.19-2.65,1.16-4.93,3-7.62,4.09a19.28,19.28,0,0,1-6.3,1.75c-1.38,0-2.77,0-4.16.06-4.81.07-9.85-.49-14.06-3a33.23,33.23,0,0,0-5.47-3c-1.89-.7-3.86-1.17-5.81-1.69-3.87-1-7.88-2.4-10.11-6-2.68-4.33-3-9.94-3.22-14.88-.31-5.51-.83-11-.36-16.55a118.68,118.68,0,0,1,2.87-15.61c.61-2.69,1.19-5.39,1.65-8.11s.71-5.66,1.11-8.49c.54-3.75,1.62-7.54,4-10.54s5.71-5,9-6.91a34.35,34.35,0,0,1,16.3-4.73,42.56,42.56,0,0,1,8,.6,33.19,33.19,0,0,1,12.38,4.42,24.37,24.37,0,0,1,4.82,3.61,28,28,0,0,1,4,5.73,33.75,33.75,0,0,1,2.92,6.73c.54,1.77.75,3.59,1.17,5.38.82,3.47.87,7,1.34,10.55.8,6.1,2.55,12,3.89,18.06,0,.07,0,.14.05.2a62.93,62.93,0,0,1,1.71,12.44A66,66,0,0,1,157,131.14Zm-.55-31.35c-.49-2.15-.94-4.32-1.29-6.49,1.45-1.24,3.61-2.75,5.43-1.59s1.68,4.06,1.15,5.83C161,100,159,102,157.47,104.19,157.11,102.72,156.74,101.26,156.4,99.79Z"/><g class="c-hair accessory-2" data-name="c-hair accessory-2"><path d="M138,125.08c-1.68-1.46-4.06-1.74-6.28-1.85a68.36,68.36,0,0,0-9.81.22,6.09,6.09,0,0,0-2.69.73,6.05,6.05,0,0,0-2.68-.73,68.53,68.53,0,0,0-9.82-.22c-2.22.11-4.6.39-6.27,1.85a9,9,0,0,0-3,7,.73.73,0,0,0,1.33.27,7.42,7.42,0,0,1,3.28-2.35,28.94,28.94,0,0,1,8.38-1,19.17,19.17,0,0,0,5.51-.19,5.19,5.19,0,0,0,3.29-2.91,5.19,5.19,0,0,0,3.3,2.91,19.08,19.08,0,0,0,5.5.19,28.9,28.9,0,0,1,8.38,1,7.37,7.37,0,0,1,3.28,2.35.73.73,0,0,0,1.33-.27A9,9,0,0,0,138,125.08Z"  /></g></g></svg>