<svg xmlns="http://www.w3.org/2000/svg" viewBox="0 0 235 235"><g id="face-7"><g class="c-skin"><path d="M174.19,94.21a4.17,4.17,0,0,0-5.73-2.48c-.76.28-3.22,1.12-5.46,2-.11-1.48-.24-3-.39-4.53-.68-7-.9-4.7-1.91-9.45-1.28-6.06-7.62-14.91-13.25-17.84-6.6-3.43-10.11-5.18-20.45-6.53s-21.08-1-32.25,3.86c-11.9,5.13-17.66,9.1-19.16,21-.66,5.28-1.12,9.88-1.36,14.29-2.6-2.18-7.31-3.7-9.6-2.22a2.64,2.64,0,0,0-1.15,1.3,3.18,3.18,0,0,0-.07,1.27,18.8,18.8,0,0,0,1.1,5.46c2,5.15,7.93,6.73,9.82,11.93l0-.19c.16,2.43.37,5,.64,7.69.72,7.13,1.89,14.45,5.76,20.66,4.62,7.41,12.58,14.47,20.56,18.8,7.8,4.25,9.43,9.78,21.72,9.39,4.66-.16,11.61-6,15.48-8.39s8.27-6.66,12-9.38a24.61,24.61,0,0,0,10.34-16.57,176,176,0,0,0,2.49-22h0c-.35-3,7.64-7.06,9.36-9.53S175.31,97,174.19,94.21Z" /></g><path id="stroke" d="M173.09,90.74c-3.07-1.68-6.23,0-8.65,2a48.17,48.17,0,0,0-1.65-10.83c-.59-1.93-.9-3.89-1.68-5.76a37,37,0,0,0-9.24-12.92,27.9,27.9,0,0,0-5.94-3.77,49.65,49.65,0,0,0-12.78-4.58c-12.71-2.54-26-2.38-38.12,2.65-4.47,1.85-9,3.88-12.84,6.89A20.35,20.35,0,0,0,75.44,74a37,37,0,0,0-1.5,7.51c-.41,3.37-.77,6.74-1,10.11a.38.38,0,0,0,0,.1A8.26,8.26,0,0,0,68.69,90c-2.28-.25-5.34.53-6.45,2.76-.68,1.37-.27,3.15-.05,4.6a14.93,14.93,0,0,0,1.35,4.52A17.44,17.44,0,0,0,68,107c1.87,1.62,3.93,3.26,4.85,5.63a111.57,111.57,0,0,0,2,16.74,38.69,38.69,0,0,0,8.15,16.76,60.38,60.38,0,0,0,14.24,12.48c2.18,1.39,4.5,2.53,6.61,4,1.66,1.19,3.21,2.51,4.87,3.68a22.15,22.15,0,0,0,12.93,3.82c5.17,0,9.45-3,13.54-5.89,2.08-1.44,4.25-2.77,6.29-4.27,2.5-1.84,4.83-3.89,7.23-5.86a71.64,71.64,0,0,0,6.59-5.45,25,25,0,0,0,4.54-6.4,28.15,28.15,0,0,0,2.43-7.59,185.38,185.38,0,0,0,2.4-21.59,1.28,1.28,0,0,0,.29-1c0-.29,0-.29,0-.43a3.28,3.28,0,0,1,.58-.88,16.55,16.55,0,0,1,2.21-2.06c1.63-1.33,3.41-2.48,5-3.89a10.9,10.9,0,0,0,3.25-6.31C176.48,95.77,175.79,92.22,173.09,90.74Zm-106.77,10A12.58,12.58,0,0,1,65,96.19a4.72,4.72,0,0,1-.1-2.17c.22-.43.93-.7,1.36-.85a5,5,0,0,1,5.81,2,1.47,1.47,0,0,0,.56.55c-.17,3.79-.18,7.58-.06,11.37-.41-.43-.84-.83-1.29-1.23C69.51,104.32,67.51,102.83,66.32,100.69Zm86.39,46.4c-2,1.92-4.28,3.44-6.39,5.19-2.35,1.93-4.63,4-7.12,5.71-1.85,1.29-3.76,2.49-5.61,3.78a56.31,56.31,0,0,1-6.35,4,12.45,12.45,0,0,1-6.57,1.38,19.37,19.37,0,0,1-6.73-1.32c-3.47-1.42-6.18-4.16-9.24-6.24-2.13-1.45-4.45-2.59-6.61-4a59,59,0,0,1-7.26-5.63c-4.37-4-8.44-8.63-10.8-14.1-2.45-5.67-3.16-11.91-3.73-18a168.42,168.42,0,0,1,.61-36.12c.51-4.18,1.37-8.39,4-11.81,2.35-3.09,5.77-5.14,9.18-6.86a62.93,62.93,0,0,1,16.71-5.92,62.6,62.6,0,0,1,18.13-.5,57.39,57.39,0,0,1,14.66,3.17c3.85,1.49,7.94,3.38,11,6.22a31.19,31.19,0,0,1,8.26,12.41c.52,1.58.77,3.23,1.29,4.82a18.53,18.53,0,0,1,.77,3.53,152.8,152.8,0,0,1,0,37.26c-.4,3.3-.9,6.59-1.45,9.86A23.88,23.88,0,0,1,152.71,147.09Zm19.81-47a6.59,6.59,0,0,1-1.84,2.67c-1.73,1.57-3.73,2.83-5.51,4.35l-.26.22c.05-3.87,0-7.76-.28-11.66a1.46,1.46,0,0,0,1.36-.34c1.15-1,2.48-2.15,4.09-2.27s2.59,1.06,3,2.55A7.29,7.29,0,0,1,172.52,100.09Z"/></g></svg>