<svg xmlns="http://www.w3.org/2000/svg" viewBox="0 0 235 235"><g id="face-6"><g class="c-skin"><path d="M163,92.64a4.17,4.17,0,0,0-5.72-2.48,36.3,36.3,0,0,0-3.95,1.92c-.16-1.49-.3-3-.41-4.46-.52-7-.69-4.7-1.47-9.45-1-6.06-5.85-14.91-10.17-17.84-5.07-3.43-7.77-5.18-15.71-6.53s-16.18-1-24.76,3.86c-9.14,5.13-13.56,9.1-14.71,21-.44,4.51-.59,9.25-.69,14.08-4-1.83-9-3.12-10.73-2a2.62,2.62,0,0,0-1.14,1.3,3.18,3.18,0,0,0-.08,1.27,19.56,19.56,0,0,0,1.1,5.46c2,5.14,7.93,6.72,9.83,11.93l.63-1.38a100.06,100.06,0,0,1-1.92,16.59c-4.16,19.14,13,34.61,40.93,34.61,16.14,0,25.17-8.16,29.9-15A25.12,25.12,0,0,0,158.17,129c-.55-6.26-1.53-12.82-2.51-19.47h0c-.35-3,4.18-5.9,5.9-8.37S164.15,95.44,163,92.64Z" /></g><g class="c-hair accessory-3" data-name="c-hair accessory-3"><path d="M86.16,92.87c3.14,2.63,6.33,5.33,8.53,8.79,3.52,5.54,4.11,7.38,4.64,13.93a18.41,18.41,0,0,0,1.23,6.16,6.29,6.29,0,0,0,4.66,3.84c2.56.3,4.81-1.48,7-2.82,4.94-3,11.92-3.76,16.1.23a13.2,13.2,0,0,0,2.75,2.49,5.59,5.59,0,0,0,5.48-.73c4.25-2.82,5.52-8.35,7-13.23,2.22-7.4,5.64-9.44,10.08-15.75-.21,9.92,4.32,19,4.11,29-.07,3.41-.09,13.25-1.31,16.43-1.75,4.54-6.28,9.57-10.05,12.65-4.95,4-8.23,6.77-15.25,6.7a59.56,59.56,0,0,0-7.07,0c-1.8.36-7.6.3-9.3-.37-3.74-1.47-12.14-2-15.45-4.28-3.63-2.51-11.12-7.55-13-11.54-2.41-5.05-2.07-8-3.91-14-1.15-3.73,3.22-8.32,3.23-12.22,0-8,.18-16,.33-24" /></g><path id="stroke" d="M161.18,88.71c-2.33-.9-4.58-.09-6.52,1.2-.17-2-.31-4.07-.56-6.09a29.28,29.28,0,0,0-.64-3.36c-.47-1.95-.7-3.94-1.31-5.86a35.39,35.39,0,0,0-7.63-13.45,26.77,26.77,0,0,0-5.17-3.92,31.6,31.6,0,0,0-5.79-3A40.3,40.3,0,0,0,126,52.35a40.72,40.72,0,0,0-17.51.53A44,44,0,0,0,94,60.18a21.67,21.67,0,0,0-7.37,9.22c-2,4.85-2.22,10.27-2.47,15.43-.1,2.08-.16,4.16-.2,6.24a8.13,8.13,0,0,0-5.21-2.67c-2.28-.25-5.35.53-6.45,2.76-.68,1.37-.27,3.15,0,4.6a14.93,14.93,0,0,0,1.35,4.52,17.44,17.44,0,0,0,4.48,5.16c1.88,1.63,4,3.27,4.86,5.66a1.48,1.48,0,0,0,.5.68,102.83,102.83,0,0,1-1.26,11.06c-.77,4.36-1.56,8.39-.86,12.82A24.87,24.87,0,0,0,85.6,146c5.08,7.23,13.22,11.64,21.6,13.9a64.34,64.34,0,0,0,16,2.08,41.19,41.19,0,0,0,16.25-2.87c8-3.34,15.28-9.91,18.49-18.11,2.35-6,1.78-12.08,1-18.3-.54-4.42-1.19-8.82-1.84-13.22a4,4,0,0,1,1.2-2.68c.88-1,1.89-2,2.85-3A12.83,12.83,0,0,0,165,96.27C165.28,93.32,164.15,89.85,161.18,88.71ZM81.4,104.34c-1.8-1.59-3.81-3.08-5-5.22a12.45,12.45,0,0,1-1.29-4.5A4.86,4.86,0,0,1,75,92.45c.22-.43.93-.7,1.36-.85a5,5,0,0,1,5.8,2.05,1.4,1.4,0,0,0,1.74.62c-.06,4.14-.08,8.29-.22,12.42A20.47,20.47,0,0,0,81.4,104.34Zm62.56,49c-8.53,5.7-19,6.4-28.89,5.07-8.5-1.14-17.27-4.13-23.58-10.15a23.24,23.24,0,0,1-7.38-19.05c.21-2.25.81-4.44,1.17-6.67.47-2.91.79-5.86,1-8.8.45-6,.51-12.09.6-18.14s.15-11.86.82-17.74c.45-4,1.48-8.16,4-11.43,2.27-3,5.52-5,8.71-6.85a34.68,34.68,0,0,1,16.73-5,42.56,42.56,0,0,1,8,.6,33.51,33.51,0,0,1,12.64,4.58,23.09,23.09,0,0,1,4.77,3.68,30.07,30.07,0,0,1,4.2,6.16,32.7,32.7,0,0,1,2.74,6.72c.46,1.65.64,3.36,1,5,1,3.86.94,7.91,1.37,11.85.69,6.44,1.68,12.85,2.62,19.26.9,6.06,2.08,12.29,2.18,18.42C156.91,140.18,151.48,148.37,144,153.39ZM161.22,98.8c-1,2.07-2.71,3.47-4.26,5.11l-.53.59c-.09-.58-.17-1.16-.25-1.73-.44-3.12-.85-6.24-1.19-9.37,1.53-1.32,4.15-3.15,5.92-1.38S162.15,96.84,161.22,98.8Z"/><g class="c-hair accessory-2" data-name="c-hair accessory-2"><path d="M138,125.08c-1.68-1.46-4.06-1.74-6.28-1.85a68.36,68.36,0,0,0-9.81.22,6.09,6.09,0,0,0-2.69.73,6.05,6.05,0,0,0-2.68-.73,68.53,68.53,0,0,0-9.82-.22c-2.22.11-4.6.39-6.27,1.85a9,9,0,0,0-3,7,.73.73,0,0,0,1.33.27,7.42,7.42,0,0,1,3.28-2.35,28.94,28.94,0,0,1,8.38-1,19.17,19.17,0,0,0,5.51-.19,5.19,5.19,0,0,0,3.29-2.91,5.19,5.19,0,0,0,3.3,2.91,19.08,19.08,0,0,0,5.5.19,28.9,28.9,0,0,1,8.38,1,7.37,7.37,0,0,1,3.28,2.35.73.73,0,0,0,1.33-.27A9,9,0,0,0,138,125.08Z" /></g></g></svg>