<svg xmlns="http://www.w3.org/2000/svg" viewBox="0 0 235 235"><g id="face-1"><g class="c-skin"><path d="M163,92.64a4.17,4.17,0,0,0-5.72-2.48c-.81.29-2.57.68-4.11,1.15-.07-1.19-.16-2.41-.25-3.69-.52-7-.69-4.7-1.47-9.45-1-6.06-5.85-14.91-10.17-17.84-5.07-3.43-7.77-5.18-15.71-6.53s-16.18-1-24.76,3.86c-9.14,5.13-13.56,9.1-14.71,21-.5,5.09-.84,9.55-1,13.82-2.84-2-8.11-3.22-10.39-1.75a2.62,2.62,0,0,0-1.14,1.3,3.18,3.18,0,0,0-.08,1.27,19.56,19.56,0,0,0,1.1,5.46c1.69,4.25,7.53,7.7,10.58,11.71.12,2.44.29,5,.5,7.71.54,7.14,1.44,11.45,4.42,17.67,2.85,5.95,8.94,11.22,15,15.68,4.47,3.28,8.59,6.4,13.24,7.65a12.8,12.8,0,0,0,3.57.57c4-.09,10.76-5.28,13.88-7.47l7.85-6c4.55-4.29,7.06-9.75,8-16.57,1-7.93,1.66-14.23,1.9-20.51,2.63-3,6.9-6.39,8-8C163.29,98.71,164.15,95.44,163,92.64Z" /></g><g class="c-hair accessory-3" data-name="c-hair accessory-3"><path d="M86.16,92.87c3.14,2.63,6.33,5.33,8.53,8.79,3.52,5.54,4.11,7.38,4.64,13.93a18.41,18.41,0,0,0,1.23,6.16,6.29,6.29,0,0,0,4.66,3.84c2.56.3,4.81-1.48,7-2.82,4.94-3,11.92-3.76,16.1.23a13.2,13.2,0,0,0,2.75,2.49,5.59,5.59,0,0,0,5.48-.73c4.25-2.82,5.52-8.35,7-13.23,2.22-7.4,5.64-9.44,10.08-15.75L153,125.54c-.07,3.41-.16,6.9-1.38,10.08-1.75,4.55-5.58,7.92-9.35,11q-7.43,6.06-15.25,11.6a9.81,9.81,0,0,1-3.67,1.89,9.71,9.71,0,0,1-5.34-1,51.88,51.88,0,0,1-10.72-5.42,68.07,68.07,0,0,1-9.82-8.85c-4.36-4.47-8.86-9.17-10.7-15.13-1.15-3.73-1.17-7.69-1.16-11.59,0-8,.18-16,.33-24" /></g><path id="stroke" d="M161.3,88.76c-2.39-1-4.7-.15-6.69,1.18-.06-.77-.1-1.54-.16-2.32a43.45,43.45,0,0,0-.64-5.69,55.63,55.63,0,0,0-2.51-9.69c-1.74-4.31-4.17-8.77-7.65-11.94a32.33,32.33,0,0,0-5.06-3.54,29.43,29.43,0,0,0-5.32-2.6A42.24,42.24,0,0,0,126,52.35a41.46,41.46,0,0,0-16.46.26A43.63,43.63,0,0,0,95.2,59.34a23.27,23.27,0,0,0-7.51,7.84c-2.17,4-2.79,8.5-3.2,13Q84,85.48,83.74,90.8a8.1,8.1,0,0,0-5-2.4c-2.28-.25-5.35.53-6.45,2.76-.68,1.37-.27,3.15,0,4.6a14.93,14.93,0,0,0,1.35,4.52,17.44,17.44,0,0,0,4.48,5.16c1.88,1.63,4,3.27,4.86,5.66a1.51,1.51,0,0,0,.8.86c0,1,.09,1.92.15,2.88.36,5.36.75,10.77,2.45,15.9a35.76,35.76,0,0,0,8.06,13.67,89.86,89.86,0,0,0,13.9,11.3A36.37,36.37,0,0,0,116,160c2.37.91,5.06,1.61,7.59,1.05,4.23-.94,8.05-3.93,11.51-6.41,2-1.45,4-3,6-4.5a32.25,32.25,0,0,0,6.7-6.24,29.91,29.91,0,0,0,5.33-14.18c.79-6,1.4-12,1.72-18a1.29,1.29,0,0,0,.3-1,2.67,2.67,0,0,1,.68-1.69,15.81,15.81,0,0,1,2-2.12c1.45-1.38,3.09-2.6,4.41-4.12A11.87,11.87,0,0,0,165,95.6C165.12,92.9,164,89.83,161.3,88.76ZM81.4,104.34c-1.8-1.59-3.81-3.08-5-5.22a12.45,12.45,0,0,1-1.29-4.5A4.86,4.86,0,0,1,75,92.45c.22-.43.93-.7,1.36-.85a5,5,0,0,1,5.8,2.05,1.37,1.37,0,0,0,1.41.7c-.13,4.05-.16,8.09,0,12.14A20.78,20.78,0,0,0,81.4,104.34Zm69.91,15.07c-.86,8.84-1.33,19.6-8.65,25.79-2,1.69-4.2,3.21-6.29,4.81s-4.5,3.34-6.85,4.86a26.13,26.13,0,0,1-5.63,3c-2.26.78-4.49.21-6.69-.59a31.91,31.91,0,0,1-7.17-4c-2.38-1.65-4.73-3.36-7-5.15-4.15-3.28-8.3-7-10.94-11.63a38.2,38.2,0,0,1-4.47-13.67A157.1,157.1,0,0,1,86.49,106q-.22-7.79.21-15.58c.29-5.24.45-10.68,1.54-15.83a19,19,0,0,1,4.48-9.3,35.77,35.77,0,0,1,9.09-6.46,33.32,33.32,0,0,1,15.75-4.21,42.49,42.49,0,0,1,7.64.61,32.89,32.89,0,0,1,11.88,4.11,27.57,27.57,0,0,1,4.67,3.27,24.61,24.61,0,0,1,3.94,5.08c3.76,6.17,5.27,13.29,5.8,20.41A182.77,182.77,0,0,1,151.31,119.41Zm8.7-18.68c-1.48,1.68-3.31,3-4.9,4.59l0,0c.05-2.87,0-5.74-.08-8.62-.05-1.07-.11-2.13-.16-3.2a7.52,7.52,0,0,1,3.8-2.17,2.74,2.74,0,0,1,3.07,2C162.6,95.78,161.6,98.93,160,100.73Z"/><g class="c-hair accessory-2" data-name="c-hair accessory-2"><path d="M138,125.08c-1.68-1.46-4.06-1.74-6.28-1.85a68.36,68.36,0,0,0-9.81.22,6.09,6.09,0,0,0-2.69.73,6.05,6.05,0,0,0-2.68-.73,68.53,68.53,0,0,0-9.82-.22c-2.22.11-4.6.39-6.27,1.85a9,9,0,0,0-3,7,.73.73,0,0,0,1.33.27,7.42,7.42,0,0,1,3.28-2.35,28.94,28.94,0,0,1,8.38-1,19.17,19.17,0,0,0,5.51-.19,5.19,5.19,0,0,0,3.29-2.91,5.19,5.19,0,0,0,3.3,2.91,19.08,19.08,0,0,0,5.5.19,28.9,28.9,0,0,1,8.38,1,7.37,7.37,0,0,1,3.28,2.35.73.73,0,0,0,1.33-.27A9,9,0,0,0,138,125.08Z" /></g></g></svg>