<svg xmlns="http://www.w3.org/2000/svg" viewBox="0 0 235 235"><g id="face-4"><g class="c-skin"><path d="M163,92.64a4.17,4.17,0,0,0-5.72-2.48c-.74.26-2.42,1-4,1.82-.12-1.41-.24-2.84-.35-4.36-.52-7-.69-4.7-1.47-9.45-1-6.06-5.85-14.91-10.17-17.84-5.07-3.43-7.77-5.18-15.71-6.53s-16.18-1-24.76,3.86c-9.14,5.13-13.56,9.1-14.71,21-.52,5.29-.86,9.9-1,14.31-2.48-2.33-7.91-3.82-10.37-2.24a2.62,2.62,0,0,0-1.14,1.3,3.18,3.18,0,0,0-.08,1.27,19.56,19.56,0,0,0,1.1,5.46c2,5.14,8.79,8.57,10.69,13.77h0c.11,1.81.24,3.69.39,5.66.54,7.14.19,16.38,3.48,22.42,4.47,8.19,9.88,6.47,16,10.93,4.47,3.28,10.76,4.21,16,4.06,0,0,4.67,0,5-.09a31.44,31.44,0,0,0,11.55-4.69,15.33,15.33,0,0,1,4.29-2A15.3,15.3,0,0,0,153,135.7c.2-1.91.34-3.91.61-6a116.79,116.79,0,0,0,.94-20.53l.1.36c-.34-3,5.18-5.9,6.9-8.37S164.15,95.44,163,92.64Z" /></g><g class="c-hair accessory-3" data-name="c-hair accessory-3"><path d="M86.16,92.87c3.14,2.63,6.33,5.33,8.53,8.79,3.52,5.54,4.11,6.38,4.64,12.93a18.41,18.41,0,0,0,1.23,6.16,6.29,6.29,0,0,0,4.66,3.84c2.56.3,4.81-1.48,7-2.82,4.94-3,11.92-3.76,16.1.23a13.2,13.2,0,0,0,2.75,2.49,5.59,5.59,0,0,0,5.48-.73c4.25-2.82,5.52-8.35,7-13.23,2.22-7.4,5.64-8.44,10.08-14.75L153,125.54c-.07,3.41,1.24,7,0,10.16-1.74,4.54-2.6,7.89-6.37,11-4.95,4-13.18,4.27-18.39,8a10,10,0,0,1-3.67,1.89,9.71,9.71,0,0,1-5.34-1c-3.74-1.46-8.65.45-11.95-1.83-3.64-2.51-12.54-5.59-15.62-8.75-4.36-4.46-3.06-9.27-4.9-15.23-1.15-3.73-1.17-7.69-1.16-11.59,0-8,.18-16,.33-24" /></g><path id="stroke" d="M161.67,88.92c-2.48-1.19-4.93-.38-7,1-.07-.93-.15-1.85-.23-2.78a39.13,39.13,0,0,0-.61-5.29,55.75,55.75,0,0,0-2.5-9.62c-1.74-4.31-4.17-8.77-7.65-11.94a31.87,31.87,0,0,0-5.06-3.54,29.43,29.43,0,0,0-5.32-2.6A42.24,42.24,0,0,0,126,52.35a41.58,41.58,0,0,0-16.26.21,43.55,43.55,0,0,0-14.42,6.7,23.39,23.39,0,0,0-7.56,7.8c-2.22,4-2.85,8.58-3.27,13.08q-.49,5.34-.75,10.65a8.09,8.09,0,0,0-5-2.39c-2.28-.25-5.35.53-6.45,2.76-.68,1.37-.27,3.15,0,4.6a14.93,14.93,0,0,0,1.35,4.52,17.44,17.44,0,0,0,4.48,5.16c1.88,1.63,4,3.27,4.86,5.66a1.53,1.53,0,0,0,.79.86c0,.8.08,1.61.13,2.41.36,5.47.46,11,1.1,16.46.59,5.11,1.85,10.15,5.34,14.11,2.78,3.17,6.59,4.13,10.3,5.77,2.17,1,4,2.48,6.06,3.56a25.41,25.41,0,0,0,7.51,2.38,58.79,58.79,0,0,0,11,.4c5.16-.13,9.75-3,14.07-5.49,2.14-1.21,4.61-1.6,6.76-2.81a17,17,0,0,0,5.16-4.54,16.45,16.45,0,0,0,3-6.38c.62-2.8.64-5.75,1-8.59a121.24,121.24,0,0,0,1-17c0-.68-.05-1.35-.07-2a1.43,1.43,0,0,0,.08-.64,3.39,3.39,0,0,1,1.25-2.36c.88-.92,1.88-1.73,2.84-2.57a12.72,12.72,0,0,0,4.56-7.19C165.4,94.41,164.74,90.4,161.67,88.92ZM81.4,104.34c-1.8-1.59-3.81-3.08-5-5.22a12.45,12.45,0,0,1-1.29-4.5A4.86,4.86,0,0,1,75,92.45c.22-.43.93-.7,1.36-.85a5,5,0,0,1,5.8,2.05,1.39,1.39,0,0,0,1.41.7q-.21,6.06,0,12.14A20.78,20.78,0,0,0,81.4,104.34ZM153.06,119c-.24,5.62-.86,11.27-1.56,16.85a13.9,13.9,0,0,1-6.81,10.22c-2,1.16-4.29,1.55-6.34,2.6-2.47,1.26-4.65,2.87-7.27,3.87a18.24,18.24,0,0,1-5.86,1.51c-1.33,0-2.66,0-4,.06-4.5.07-9.17-.41-13.21-2.52-2-1.05-3.69-2.48-5.75-3.41-1.63-.74-3.34-1.29-5-2-9.44-4-9.47-15.45-9.89-24.2-.26-5.4-.75-10.78-.91-16.19q-.21-7.68.22-15.37c.3-5.29.45-10.8,1.57-16a19,19,0,0,1,4.54-9.23,36,36,0,0,1,9-6.36,33.29,33.29,0,0,1,15.75-4.21,42.49,42.49,0,0,1,7.64.61,32.89,32.89,0,0,1,11.88,4.11,27.57,27.57,0,0,1,4.67,3.27,24.61,24.61,0,0,1,3.94,5.08c3.66,6,5.23,13,5.76,19.92C152.25,98.06,153.51,108.51,153.06,119Zm7.63-19.23c-1.08,1.8-3,3-4.51,4.43l-.38.35c-.18-2.75-.41-5.49-.64-8.24-.08-1-.15-1.9-.23-2.85,1.62-1.4,4.63-3.44,6.28-1.08C162.75,94.57,162,97.66,160.69,99.77Z"/><g class="c-hair accessory-2" data-name="c-hair accessory-2"><path d="M138,125.08c-1.68-1.46-4.06-1.74-6.28-1.85a68.36,68.36,0,0,0-9.81.22,6.09,6.09,0,0,0-2.69.73,6.05,6.05,0,0,0-2.68-.73,68.53,68.53,0,0,0-9.82-.22c-2.22.11-4.6.39-6.27,1.85a9,9,0,0,0-3,7,.73.73,0,0,0,1.33.27,7.42,7.42,0,0,1,3.28-2.35,28.94,28.94,0,0,1,8.38-1,19.17,19.17,0,0,0,5.51-.19,5.19,5.19,0,0,0,3.29-2.91,5.19,5.19,0,0,0,3.3,2.91,19.08,19.08,0,0,0,5.5.19,28.9,28.9,0,0,1,8.38,1,7.37,7.37,0,0,1,3.28,2.35.73.73,0,0,0,1.33-.27A9,9,0,0,0,138,125.08Z" /></g></g></svg>